<?xml version="1.0" standalone="no"?>
<svg viewBox="0 0 200 200" xmlns="http://www.w3.org/2000/svg">
  <path fill="#FF0066" d="M44.1,-76.7C58.3,-68.2,71.6,-58.6,80.2,-45.7C88.7,-32.7,92.5,-16.3,91.8,-0.4C91,15.5,85.6,30.9,77.1,44C68.6,57.1,57,67.8,43.6,75.7C30.2,83.5,15.1,88.4,0.3,87.9C-14.6,87.5,-29.2,81.7,-43.4,74.3C-57.5,66.9,-71.2,58,-80.3,45.3C-89.3,32.7,-93.8,16.3,-92.6,0.7C-91.3,-14.9,-84.4,-29.8,-75.8,-43.2C-67.1,-56.7,-56.8,-68.6,-43.9,-77.8C-31,-87,-15.5,-93.5,-0.3,-93C15,-92.6,30,-85.2,44.1,-76.7Z" transform="translate(100 100)" />
</svg>
