<?xml version="1.0" encoding="UTF-8"?>
<svg xmlns="http://www.w3.org/2000/svg" xmlns:xlink="http://www.w3.org/1999/xlink" viewBox="0 0 5000 5000">
<path fill-rule="nonzero" fill="currentColor" fill-opacity="1" d="M 2349.929688 646.121094 C 2342.859375 620.390625 2249.851562 635.308594 2070.898438 690.871094 C 1980.230469 715.980469 1876.988281 760.398438 1761.160156 824.148438 C 1596.519531 921.699219 1493.25 1033.789062 1451.359375 1160.441406 C 1403.039062 1293.140625 1392.148438 1427.46875 1418.679688 1563.441406 C 1448.371094 1700.910156 1501.851562 1770.210938 1579.109375 1771.339844 C 1591.550781 1769.351562 1603.640625 1751.820312 1615.371094 1718.761719 C 1664.851562 1515.921875 1703.230469 1379.328125 1730.519531 1309 C 1755.878906 1242.359375 1783.460938 1189.011719 1813.269531 1148.949219 C 1949.390625 982.390625 2071.511719 910.539062 2179.609375 933.410156 C 2187.488281 937.601562 2185.050781 949.03125 2172.289062 967.691406 C 2094.449219 1047.230469 2044.109375 1108.609375 2021.261719 1151.820312 C 1986.199219 1212.441406 1953.839844 1283.769531 1924.179688 1365.820312 C 1884.519531 1484.320312 1883.558594 1595.71875 1921.289062 1700.039062 C 1961.378906 1804.019531 2007.761719 1864 2060.429688 1880 C 2064.078125 1787.730469 2097.058594 1682 2159.378906 1562.800781 C 2179.558594 1530.601562 2199.871094 1506.878906 2220.339844 1491.640625 L 2346.71875 1419.890625 C 2323.121094 1388.761719 2261.980469 1388.351562 2163.308594 1418.660156 C 2047.429688 1483.5 1996.128906 1529.449219 2009.390625 1556.488281 L 2349.929688 646.121094 "/>
<path fill-rule="nonzero" fill="currentColor" fill-opacity="1" d="M 3169.148438 764.601562 C 3173.960938 738.359375 3083.691406 711.441406 2898.351562 683.851562 C 2805.769531 667.128906 2693.46875 662.359375 2561.449219 669.539062 C 2370.789062 685.988281 2229.109375 742.179688 2136.421875 838.109375 C 2035.308594 936.699219 1967.210938 1053 1932.121094 1187.019531 C 1899.230469 1323.761719 1917.339844 1409.398438 1986.460938 1443.941406 C 1998.53125 1447.550781 2017.03125 1437 2041.941406 1412.300781 C 2174.53125 1251.011719 2268.378906 1144.609375 2323.480469 1093.078125 C 2375.238281 1044.050781 2423.238281 1007.949219 2467.480469 984.78125 C 2662.390625 893.78125 2803.589844 882.03125 2891.058594 949.539062 C 2896.339844 956.738281 2889.179688 965.96875 2869.578125 977.25 C 2764.941406 1015.140625 2692.960938 1048.601562 2653.628906 1077.621094 C 2595.738281 1117.019531 2535.628906 1167.25 2473.300781 1228.300781 C 2386.160156 1317.851562 2336.949219 1417.808594 2325.691406 1528.171875 C 2316.691406 1639.238281 2332.449219 1713.410156 2372.96875 1750.679688 C 2416.289062 1669.128906 2491.878906 1588.179688 2599.738281 1507.820312 C 2631.890625 1487.570312 2660.488281 1475.011719 2685.539062 1470.160156 L 2830.539062 1460.351562 C 2822.78125 1422.058594 2767.878906 1395.171875 2665.828125 1379.660156 C 2533.289062 1387.808594 2467.140625 1406.941406 2467.351562 1437.058594 L 3169.148438 764.601562 "/>
<path fill-rule="nonzero" fill="currentColor" fill-opacity="1" d="M 3855.851562 1226.789062 C 3871.558594 1205.230469 3801.910156 1141.808594 3646.898438 1036.539062 C 3570.738281 981.308594 3471.628906 928.289062 3349.570312 877.46875 C 3170.660156 809.570312 3018.628906 798.71875 2893.488281 844.941406 C 2759.621094 889.898438 2647.800781 965.128906 2558.039062 1070.648438 C 2469.070312 1179.578125 2448.230469 1264.601562 2495.53125 1325.699219 C 2504.839844 1334.191406 2526.078125 1332.71875 2559.238281 1321.269531 C 2748.679688 1233.480469 2879.398438 1178.328125 2951.398438 1155.808594 C 3019.308594 1134.101562 3078.21875 1122.398438 3128.128906 1120.71875 C 3343.21875 1123.300781 3475.53125 1173.980469 3525.058594 1272.761719 C 3526.691406 1281.53125 3516.230469 1286.75 3493.679688 1288.398438 C 3382.960938 1277.140625 3303.589844 1276.050781 3255.558594 1285.128906 C 3186.308594 1295.519531 3110.359375 1314.691406 3027.71875 1342.648438 C 2910.351562 1385.53125 2822.640625 1454.238281 2764.609375 1548.789062 C 2708.320312 1644.949219 2690.328125 1718.609375 2710.671875 1769.769531 C 2785.078125 1715.089844 2888.308594 1674.949219 3020.359375 1649.359375 C 3058.109375 1645.058594 3089.320312 1646.148438 3114 1652.648438 L 3248.890625 1706.71875 C 3258.519531 1668.859375 3220.71875 1620.808594 3135.5 1562.558594 C 3012.558594 1512.390625 2944.648438 1500.929688 2931.78125 1528.160156 L 3855.851562 1226.789062 "/>
<path fill-rule="nonzero" fill="currentColor" fill-opacity="1" d="M 4274 1941.160156 C 4297.511719 1928.550781 4262.28125 1841.191406 4168.289062 1679.089844 C 4123.640625 1596.28125 4057.351562 1505.511719 3969.429688 1406.769531 C 3837.691406 1267.960938 3705.421875 1192.230469 3572.628906 1179.570312 C 3432.511719 1161.988281 3299.121094 1181.261719 3172.46875 1237.378906 C 3045.039062 1296.921875 2989.378906 1364.480469 3005.480469 1440.058594 C 3010.179688 1451.738281 3029.960938 1459.628906 3064.808594 1463.710938 C 3273.570312 1466.808594 3415.28125 1473.828125 3489.921875 1484.789062 C 3560.519531 1494.679688 3618.671875 1509.710938 3664.371094 1529.851562 C 3857.039062 1625.5 3954.261719 1728.558594 3956.03125 1839.050781 C 3953.691406 1847.660156 3942 1847.820312 3920.96875 1839.53125 C 3826.101562 1781.351562 3755.058594 1745.929688 3707.851562 1733.269531 C 3640.949219 1712.578125 3564.199219 1696.898438 3477.609375 1686.230469 C 3353.261719 1673.941406 3244.429688 1697.789062 3151.128906 1757.800781 C 3058.679688 1820.011719 3010.519531 1878.570312 3006.640625 1933.488281 C 3097.410156 1916.511719 3207.828125 1925.140625 3337.898438 1959.371094 C 3373.789062 1971.878906 3401.429688 1986.410156 3420.851562 2002.96875 L 3518.921875 2110.210938 C 3544.019531 2080.28125 3530.808594 2020.578125 3479.300781 1931.128906 C 3390.308594 1832.589844 3334.101562 1792.789062 3310.691406 1811.738281 L 4274 1941.160156 "/>
<path fill-rule="nonzero" fill="currentColor" fill-opacity="1" d="M 4340.789062 2766.210938 C 4367.449219 2765.058594 4373.601562 2671.058594 4359.261719 2484.230469 C 4354.949219 2390.25 4334.609375 2279.710938 4298.238281 2152.589844 C 4239.78125 1970.371094 4153.46875 1844.75 4039.320312 1775.730469 C 3920.699219 1699.101562 3792.160156 1658.589844 3653.699219 1654.191406 C 3513.058594 1652.550781 3433.601562 1689.269531 3415.308594 1764.339844 C 3414.480469 1776.910156 3428.878906 1792.601562 3458.5 1811.390625 C 3645.25 1904.769531 3769.871094 1972.578125 3832.371094 2014.828125 C 3891.691406 2054.390625 3937.558594 2093.148438 3969.988281 2131.121094 C 4102.089844 2300.898438 4144.960938 2435.941406 4098.609375 2536.25 C 4092.761719 2542.988281 4082.171875 2538.070312 4066.808594 2521.46875 C 4006.589844 2427.890625 3957.949219 2365.148438 3920.898438 2333.261719 C 3869.609375 2285.589844 3807.261719 2238.171875 3733.878906 2190.988281 C 3627.179688 2125.960938 3518.78125 2100.230469 3408.671875 2113.808594 C 3298.390625 2129.75 3229.578125 2161.621094 3202.261719 2209.410156 C 3291.410156 2233.5 3387.160156 2289.191406 3489.488281 2376.460938 C 3516.398438 2403.300781 3535 2428.390625 3545.308594 2451.730469 L 3587.128906 2590.910156 C 3622.738281 2574.820312 3636.738281 2515.308594 3629.148438 2412.371094 C 3591.71875 2284.96875 3558.339844 2224.730469 3529.03125 2231.640625 L 4340.789062 2766.210938 "/>
<path fill-rule="nonzero" fill="currentColor" fill-opacity="1" d="M 4042.988281 3538.539062 C 4067.511719 3549.058594 4113.839844 3467.039062 4181.980469 3292.488281 C 4218.878906 3205.949219 4248.511719 3097.53125 4270.890625 2967.230469 C 4297.28125 2777.679688 4274.03125 2627.058594 4201.128906 2515.339844 C 4127.511719 2394.828125 4029.269531 2302.558594 3906.429688 2238.53125 C 3780.429688 2176.019531 3692.910156 2174.628906 3643.859375 2234.339844 C 3637.648438 2245.300781 3643.820312 2265.679688 3662.359375 2295.46875 C 3790.101562 2460.621094 3872.949219 2575.789062 3910.929688 2640.96875 C 3947.210938 2702.339844 3971.730469 2757.171875 3984.46875 2805.460938 C 4029.820312 3015.738281 4009.851562 3156.011719 3924.570312 3226.269531 C 3916.378906 3229.808594 3908.96875 3220.769531 3902.339844 3199.160156 C 3888.679688 3088.710938 3872.078125 3011.089844 3852.539062 2966.28125 C 3827 2901.078125 3791.410156 2831.300781 3745.761719 2756.949219 C 3677.839844 2652.058594 3591.339844 2581.851562 3486.25 2546.308594 C 3379.96875 2512.828125 3304.148438 2511.691406 3258.800781 2542.890625 C 3328.671875 2603.28125 3390.769531 2694.988281 3445.101562 2818.019531 C 3457.699219 2853.871094 3463.578125 2884.550781 3462.738281 2910.050781 L 3440.03125 3053.589844 C 3479.089844 3054.550781 3517.53125 3007.011719 3555.351562 2910.96875 C 3576.898438 2779.941406 3572.96875 2711.191406 3543.558594 2704.699219 L 4042.988281 3538.539062 "/>
<path fill-rule="nonzero" fill="currentColor" fill-opacity="1" d="M 3439.578125 4105.167969 C 3457.109375 4125.285156 3534.429688 4071.496094 3671.558594 3943.789062 C 3742.351562 3881.828125 3816.101562 3797.011719 3892.800781 3689.320312 C 3998.808594 3530 4043.210938 3384.191406 4026.011719 3251.910156 C 4011.960938 3111.390625 3963.488281 2985.640625 3880.601562 2874.648438 C 3794.199219 2763.671875 3715.949219 2724.441406 3645.851562 2756.949219 C 3635.5 2764.128906 3632.21875 2785.171875 3635.988281 2820.050781 C 3679.429688 3024.269531 3704.109375 3163.980469 3710.039062 3239.191406 C 3716.101562 3310.230469 3714.390625 3370.261719 3704.921875 3419.300781 C 3654.550781 3628.421875 3575.699219 3746.140625 3468.378906 3772.441406 C 3459.460938 3772.078125 3456.699219 3760.71875 3460.109375 3738.371094 C 3495.71875 3632.941406 3514.441406 3555.789062 3516.28125 3506.949219 C 3521.570312 3437.121094 3519.769531 3358.808594 3510.898438 3272.019531 C 3495.21875 3148.050781 3447.75 3047.261719 3368.480469 2969.640625 C 3287.261719 2893.359375 3219.441406 2859.441406 3165.039062 2867.878906 C 3201.789062 2952.589844 3217.949219 3062.171875 3213.519531 3196.601562 C 3209.320312 3234.359375 3201.300781 3264.550781 3189.480469 3287.160156 L 3106.738281 3406.640625 C 3141.511719 3424.441406 3196.769531 3398.289062 3272.519531 3328.171875 C 3348.789062 3219.46875 3375.078125 3155.820312 3351.398438 3137.210938 L 3439.578125 4105.167969 "/>
<path fill-rule="nonzero" fill="currentColor" fill-opacity="1" d="M 2650.078125 4353.875 C 2657.140625 4379.605469 2750.148438 4364.691406 2929.101562 4309.136719 C 3019.769531 4284.023438 3123.011719 4239.597656 3238.839844 4175.851562 C 3403.480469 4078.304688 3506.75 3966.210938 3548.640625 3839.558594 C 3596.960938 3706.859375 3607.851562 3572.53125 3581.320312 3436.558594 C 3551.628906 3299.089844 3498.148438 3229.789062 3420.890625 3228.660156 C 3408.449219 3230.648438 3396.359375 3248.179688 3384.628906 3281.238281 C 3335.148438 3484.078125 3296.769531 3620.671875 3269.480469 3691 C 3244.121094 3757.640625 3216.539062 3810.988281 3186.730469 3851.058594 C 3050.609375 4017.613281 2928.488281 4089.460938 2820.390625 4066.59375 C 2812.511719 4062.398438 2814.949219 4050.96875 2827.710938 4032.308594 C 2905.550781 3952.769531 2955.890625 3891.390625 2978.738281 3848.179688 C 3013.800781 3787.558594 3046.160156 3716.230469 3075.820312 3634.179688 C 3115.480469 3515.691406 3116.441406 3404.28125 3078.710938 3299.960938 C 3038.621094 3195.980469 2992.238281 3136 2939.570312 3120 C 2935.921875 3212.269531 2902.941406 3318.011719 2840.621094 3437.199219 C 2820.441406 3469.398438 2800.128906 3493.121094 2779.660156 3508.359375 L 2653.28125 3580.109375 C 2676.878906 3611.238281 2738.019531 3611.648438 2836.691406 3581.339844 C 2952.570312 3516.5 3003.871094 3470.558594 2990.609375 3443.511719 L 2650.078125 4353.875 "/>
<path fill-rule="nonzero" fill="currentColor" fill-opacity="1" d="M 1560.421875 894.828125 C 1542.890625 874.710938 1465.570312 928.511719 1328.441406 1056.210938 C 1257.648438 1118.171875 1183.898438 1202.988281 1107.199219 1310.679688 C 1001.191406 1470 956.785156 1615.808594 973.992188 1748.089844 C 988.035156 1888.609375 1036.511719 2014.359375 1119.398438 2125.351562 C 1205.800781 2236.328125 1284.050781 2275.570312 1354.148438 2243.058594 C 1364.5 2235.871094 1367.78125 2214.828125 1364.011719 2179.949219 C 1320.578125 1975.730469 1295.890625 1836.019531 1289.960938 1760.808594 C 1283.898438 1689.769531 1285.609375 1629.738281 1295.078125 1580.699219 C 1345.449219 1371.578125 1424.300781 1253.859375 1531.621094 1227.558594 C 1540.539062 1227.921875 1543.300781 1239.28125 1539.890625 1261.628906 C 1504.28125 1367.058594 1485.558594 1444.210938 1483.71875 1493.050781 C 1478.429688 1562.878906 1480.230469 1641.191406 1489.101562 1727.980469 C 1504.78125 1851.949219 1552.25 1952.738281 1631.519531 2030.359375 C 1712.738281 2106.640625 1780.558594 2140.558594 1834.960938 2132.121094 C 1798.210938 2047.410156 1782.050781 1937.828125 1786.480469 1803.410156 C 1790.679688 1765.640625 1798.699219 1735.449219 1810.519531 1712.839844 L 1893.261719 1593.371094 C 1858.488281 1575.558594 1803.230469 1601.710938 1727.480469 1671.839844 C 1651.210938 1780.53125 1624.921875 1844.179688 1648.601562 1862.789062 L 1560.421875 894.828125 "/>
<path fill-rule="nonzero" fill="currentColor" fill-opacity="1" d="M 957.011719 1461.460938 C 932.492188 1450.941406 886.160156 1532.960938 818.019531 1707.511719 C 781.125 1794.050781 751.488281 1902.46875 729.105469 2032.769531 C 702.71875 2222.308594 725.972656 2372.941406 798.871094 2484.660156 C 872.496094 2605.171875 970.726562 2697.441406 1093.570312 2761.46875 C 1219.570312 2823.96875 1307.089844 2825.371094 1356.140625 2765.660156 C 1362.351562 2754.699219 1356.179688 2734.320312 1337.640625 2704.53125 C 1209.898438 2539.378906 1127.050781 2424.210938 1089.070312 2359.03125 C 1052.789062 2297.660156 1028.28125 2242.820312 1015.53125 2194.539062 C 970.183594 1984.261719 990.148438 1843.988281 1075.429688 1773.730469 C 1083.621094 1770.191406 1091.03125 1779.21875 1097.660156 1800.839844 C 1111.320312 1911.289062 1127.921875 1988.910156 1147.460938 2033.71875 C 1173 2098.921875 1208.589844 2168.699219 1254.238281 2243.050781 C 1322.160156 2347.929688 1408.660156 2418.148438 1513.75 2453.691406 C 1620.03125 2487.171875 1695.851562 2488.308594 1741.199219 2457.109375 C 1671.328125 2396.71875 1609.230469 2305.011719 1554.898438 2181.980469 C 1542.300781 2146.121094 1536.421875 2115.449219 1537.261719 2089.949219 L 1559.96875 1946.410156 C 1520.910156 1945.449219 1482.480469 1992.988281 1444.648438 2089.03125 C 1423.101562 2220.058594 1427.03125 2288.808594 1456.441406 2295.300781 L 957.011719 1461.460938 "/>
<path fill-rule="nonzero" fill="currentColor" fill-opacity="1" d="M 659.210938 2233.789062 C 632.554688 2234.949219 626.398438 2328.941406 640.738281 2515.769531 C 645.046875 2609.75 665.386719 2720.300781 701.757812 2847.410156 C 760.222656 3029.628906 846.53125 3155.25 960.679688 3224.269531 C 1079.300781 3300.898438 1207.839844 3341.410156 1346.300781 3345.808594 C 1486.941406 3347.449219 1566.398438 3310.730469 1584.691406 3235.660156 C 1585.519531 3223.089844 1571.121094 3207.398438 1541.488281 3188.609375 C 1354.75 3095.230469 1230.128906 3027.421875 1167.628906 2985.171875 C 1108.308594 2945.609375 1062.441406 2906.851562 1030.011719 2868.871094 C 897.914062 2699.101562 855.039062 2564.058594 901.390625 2463.75 C 907.234375 2457.011719 917.832031 2461.929688 933.183594 2478.53125 C 993.414062 2572.109375 1042.050781 2634.851562 1079.101562 2666.738281 C 1130.390625 2714.410156 1192.738281 2761.828125 1266.121094 2809.011719 C 1372.820312 2874.039062 1481.21875 2899.769531 1591.328125 2886.191406 C 1701.609375 2870.25 1770.410156 2838.378906 1797.738281 2790.589844 C 1708.589844 2766.5 1612.839844 2710.808594 1510.511719 2623.539062 C 1483.601562 2596.699219 1465 2571.609375 1454.691406 2548.269531 L 1412.859375 2409.089844 C 1377.261719 2425.171875 1363.261719 2484.691406 1370.851562 2587.628906 C 1408.28125 2715.03125 1441.660156 2775.269531 1470.96875 2768.359375 L 659.210938 2233.789062 "/>
<path fill-rule="nonzero" fill="currentColor" fill-opacity="1" d="M 726 3058.839844 C 702.484375 3071.449219 737.722656 3158.808594 831.707031 3320.921875 C 876.363281 3403.71875 942.652344 3494.488281 1030.570312 3593.230469 C 1162.308594 3732.039062 1294.578125 3807.769531 1427.371094 3820.429688 C 1567.488281 3838.011719 1700.878906 3818.738281 1827.53125 3762.621094 C 1954.960938 3703.078125 2010.621094 3635.519531 1994.519531 3559.941406 C 1989.820312 3548.261719 1970.039062 3540.371094 1935.191406 3536.289062 C 1726.429688 3533.191406 1584.730469 3526.171875 1510.078125 3515.210938 C 1439.480469 3505.320312 1381.328125 3490.289062 1335.628906 3470.148438 C 1142.960938 3374.5 1045.738281 3271.441406 1043.980469 3160.949219 C 1046.308594 3152.339844 1058 3152.179688 1079.03125 3160.46875 C 1173.898438 3218.648438 1244.941406 3254.070312 1292.148438 3266.730469 C 1359.050781 3287.421875 1435.800781 3303.101562 1522.390625 3313.769531 C 1646.738281 3326.058594 1755.570312 3302.210938 1848.878906 3242.199219 C 1941.320312 3179.988281 1989.480469 3121.421875 1993.359375 3066.511719 C 1902.589844 3083.488281 1792.171875 3074.859375 1662.089844 3040.628906 C 1626.210938 3028.121094 1598.570312 3013.589844 1579.148438 2997.039062 L 1481.078125 2889.789062 C 1455.980469 2919.71875 1469.191406 2979.421875 1520.699219 3068.871094 C 1609.691406 3167.410156 1665.898438 3207.210938 1689.308594 3188.261719 L 726 3058.839844 "/>
<path fill-rule="nonzero" fill="currentColor" fill-opacity="1" d="M 1144.148438 3773.210938 C 1128.441406 3794.769531 1198.089844 3858.191406 1353.101562 3963.460938 C 1429.261719 4018.691406 1528.371094 4071.710938 1650.429688 4122.527344 C 1829.339844 4190.429688 1981.371094 4201.273438 2106.511719 4155.066406 C 2240.378906 4110.101562 2352.199219 4034.863281 2441.960938 3929.351562 C 2530.929688 3820.421875 2551.769531 3735.398438 2504.46875 3674.300781 C 2495.160156 3665.808594 2473.929688 3667.289062 2440.761719 3678.730469 C 2251.320312 3766.519531 2120.601562 3821.671875 2048.601562 3844.191406 C 1980.691406 3865.898438 1921.78125 3877.601562 1871.871094 3879.28125 C 1656.78125 3876.699219 1524.46875 3826.019531 1474.941406 3727.238281 C 1473.308594 3718.46875 1483.769531 3713.25 1506.320312 3711.601562 C 1617.039062 3722.859375 1696.410156 3723.949219 1744.441406 3714.871094 C 1813.691406 3704.480469 1889.640625 3685.308594 1972.28125 3657.351562 C 2089.648438 3614.46875 2177.351562 3545.761719 2235.390625 3451.210938 C 2291.679688 3355.050781 2309.671875 3281.390625 2289.328125 3230.230469 C 2214.921875 3284.910156 2111.691406 3325.050781 1979.640625 3350.640625 C 1941.890625 3354.941406 1910.679688 3353.851562 1886 3347.351562 L 1751.109375 3293.28125 C 1741.480469 3331.140625 1779.28125 3379.191406 1864.5 3437.441406 C 1987.441406 3487.609375 2055.351562 3499.070312 2068.21875 3471.839844 L 1144.148438 3773.210938 "/>
<path fill-rule="nonzero" fill="currentColor" fill-opacity="1" d="M 1830.851562 4235.398438 C 1826.039062 4261.644531 1916.308594 4288.5625 2101.648438 4316.15625 C 2194.230469 4332.867188 2306.53125 4337.636719 2438.550781 4330.460938 C 2629.210938 4314.011719 2770.890625 4257.820312 2863.578125 4161.890625 C 2964.691406 4063.296875 3032.789062 3947 3067.878906 3812.988281 C 3100.78125 3676.238281 3082.660156 3590.601562 3013.539062 3556.058594 C 3001.46875 3552.449219 2982.96875 3563 2958.058594 3587.699219 C 2825.46875 3748.988281 2731.628906 3855.390625 2676.519531 3906.921875 C 2624.761719 3955.949219 2576.761719 3992.050781 2532.519531 4015.21875 C 2337.609375 4106.222656 2196.421875 4117.972656 2108.941406 4050.464844 C 2103.660156 4043.265625 2110.820312 4034.027344 2130.421875 4022.753906 C 2235.058594 3984.859375 2307.039062 3951.398438 2346.378906 3922.378906 C 2404.269531 3882.980469 2464.371094 3832.75 2526.699219 3771.699219 C 2613.839844 3682.148438 2663.050781 3582.191406 2674.308594 3471.828125 C 2683.308594 3360.761719 2667.550781 3286.589844 2627.03125 3249.320312 C 2583.710938 3330.871094 2508.121094 3411.820312 2400.261719 3492.179688 C 2368.109375 3512.429688 2339.511719 3524.988281 2314.460938 3529.839844 L 2169.460938 3539.648438 C 2177.21875 3577.941406 2232.121094 3604.828125 2334.179688 3620.339844 C 2466.710938 3612.191406 2532.859375 3593.058594 2532.648438 3562.941406 L 1830.851562 4235.398438 "/>
<path fill-rule="nonzero" fill="currentColor" fill-opacity="1" d="M 2279.910156 1743.011719 C 2219.730469 1757.53125 2158.441406 1822.128906 2096.03125 1936.800781 C 2050.269531 2027.570312 2024.550781 2137.828125 2018.890625 2267.570312 C 2018.710938 2271.269531 2020.261719 2271.160156 2023.53125 2267.261719 C 2039.179688 2237.070312 2051.691406 2216.160156 2061.078125 2204.53125 C 2073.421875 2188.601562 2087.058594 2173.359375 2101.988281 2158.828125 C 2166.808594 2098.660156 2229.800781 2045.449219 2290.96875 1999.199219 C 2296.851562 1972.890625 2266.671875 1965.210938 2200.441406 1976.148438 C 2161.359375 1981.179688 2124.289062 1999.511719 2089.210938 2031.148438 L 2279.910156 1743.011719 "/>
<path fill-rule="nonzero" fill="currentColor" fill-opacity="1" d="M 2630.148438 1722.480469 C 2569.628906 1709.449219 2486.378906 1741.058594 2380.398438 1817.300781 C 2299.78125 1879.230469 2228.769531 1967.410156 2167.378906 2081.839844 C 2165.621094 2085.101562 2167.058594 2085.679688 2171.691406 2083.578125 C 2198.890625 2063.160156 2219.238281 2049.761719 2232.75 2043.351562 C 2250.78125 2034.351562 2269.671875 2026.539062 2289.441406 2019.921875 C 2373.941406 1993.839844 2453.78125 1973.230469 2528.960938 1958.101562 C 2545.671875 1936.949219 2521.820312 1916.929688 2457.398438 1898.050781 C 2420.011719 1885.628906 2378.648438 1886.058594 2333.320312 1899.351562 L 2630.148438 1722.480469 "/>
<path fill-rule="nonzero" fill="currentColor" fill-opacity="1" d="M 2954.609375 1855.949219 C 2905.738281 1817.949219 2817.019531 1810.308594 2688.460938 1833.019531 C 2588.949219 1853.828125 2486.71875 1902.46875 2381.75 1978.929688 C 2378.761719 1981.101562 2379.800781 1982.25 2384.878906 1982.371094 C 2418.25 1975.78125 2442.398438 1972.53125 2457.351562 1972.621094 C 2477.5 1972.328125 2497.910156 1973.488281 2518.589844 1976.101562 C 2606.039062 1989.269531 2686.921875 2005.339844 2761.210938 2024.320312 C 2785.449219 2012.519531 2772.640625 1984.140625 2722.789062 1939.179688 C 2694.5 1911.761719 2657.039062 1894.210938 2610.441406 1886.511719 L 2954.609375 1855.949219 "/>
<path fill-rule="nonzero" fill="currentColor" fill-opacity="1" d="M 3189.03125 2116.980469 C 3161.488281 2061.539062 3084.871094 2016.160156 2959.191406 1980.839844 C 2860.511719 1956.421875 2747.289062 1955.878906 2619.550781 1979.230469 C 2615.898438 1979.878906 2616.351562 1981.371094 2620.878906 1983.679688 C 2653.789062 1992.21875 2676.96875 1999.769531 2690.390625 2006.339844 C 2708.671875 2014.820312 2726.558594 2024.730469 2744.058594 2036.050781 C 2817.140625 2085.859375 2883.03125 2135.429688 2941.730469 2184.769531 C 2968.691406 2184.648438 2969.460938 2153.519531 2944.058594 2091.390625 C 2930.460938 2054.398438 2904.339844 2022.339844 2865.679688 1995.179688 L 3189.03125 2116.980469 "/>
<path fill-rule="nonzero" fill="currentColor" fill-opacity="1" d="M 3286.988281 2453.871094 C 3286.21875 2391.96875 3236.878906 2317.839844 3138.96875 2231.488281 C 3060.660156 2166.671875 2958.890625 2117.058594 2833.660156 2082.671875 C 2830.101562 2081.679688 2829.851562 2083.210938 2832.929688 2087.261719 C 2858.878906 2109.238281 2876.480469 2126.089844 2885.730469 2137.828125 C 2898.519531 2153.410156 2910.328125 2170.089844 2921.191406 2187.890625 C 2965.421875 2264.46875 3003.28125 2337.71875 3034.761719 2407.640625 C 3059.101562 2419.230469 3073.300781 2391.53125 3077.371094 2324.519531 C 3081.171875 2285.300781 3071.539062 2245.070312 3048.5 2203.839844 L 3286.988281 2453.871094 "/>
<path fill-rule="nonzero" fill="currentColor" fill-opacity="1" d="M 3229.058594 2799.898438 C 3255.230469 2743.800781 3242.941406 2655.601562 3192.199219 2535.320312 C 3149.761719 2442.941406 3079.589844 2354.089844 2981.691406 2268.769531 C 2978.910156 2266.328125 2978.019531 2267.601562 2979.039062 2272.589844 C 2992.890625 2303.648438 3001.429688 2326.46875 3004.671875 2341.058594 C 3009.429688 2360.640625 3012.839844 2380.800781 3014.898438 2401.539062 C 3021.519531 2489.738281 3023.851562 2572.160156 3021.871094 2648.820312 C 3038.769531 2669.820312 3063.589844 2651.019531 3096.328125 2592.410156 C 3116.769531 2558.71875 3125.550781 2518.300781 3122.679688 2471.160156 L 3229.058594 2799.898438 "/>
<path fill-rule="nonzero" fill="currentColor" fill-opacity="1" d="M 3026.738281 3086.53125 C 3074.660156 3047.328125 3101.859375 2962.539062 3108.328125 2832.160156 C 3110.171875 2730.511719 3085.5 2620.011719 3034.320312 2500.671875 C 3032.871094 2497.261719 3031.519531 2498.019531 3030.269531 2502.949219 C 3029.269531 2536.949219 3027.058594 2561.21875 3023.648438 2575.769531 C 3019.441406 2595.480469 3013.769531 2615.121094 3006.628906 2634.699219 C 2974.328125 2717.03125 2940.660156 2792.300781 2905.621094 2860.511719 C 2911.738281 2886.761719 2942.261719 2880.589844 2997.179688 2842 C 3030.210938 2820.511719 3055.660156 2787.910156 3073.53125 2744.179688 L 3026.738281 3086.53125 "/>
<path fill-rule="nonzero" fill="currentColor" fill-opacity="1" d="M 2720.089844 3256.988281 C 2780.269531 3242.46875 2841.558594 3177.871094 2903.96875 3063.199219 C 2949.730469 2972.421875 2975.449219 2862.171875 2981.109375 2732.429688 C 2981.289062 2728.730469 2979.738281 2728.839844 2976.46875 2732.738281 C 2960.820312 2762.929688 2948.308594 2783.839844 2938.921875 2795.46875 C 2926.578125 2811.398438 2912.941406 2826.640625 2898.011719 2841.171875 C 2833.191406 2901.339844 2770.199219 2954.550781 2709.03125 3000.800781 C 2703.148438 3027.109375 2733.328125 3034.789062 2799.558594 3023.851562 C 2838.640625 3018.820312 2875.710938 3000.488281 2910.789062 2968.851562 L 2720.089844 3256.988281 "/>
<path fill-rule="nonzero" fill="currentColor" fill-opacity="1" d="M 1973.261719 1913.46875 C 1925.339844 1952.660156 1898.140625 2037.460938 1891.671875 2167.851562 C 1889.828125 2269.488281 1914.5 2379.988281 1965.679688 2499.328125 C 1967.128906 2502.738281 1968.480469 2501.980469 1969.730469 2497.050781 C 1970.730469 2463.050781 1972.941406 2438.78125 1976.351562 2424.230469 C 1980.558594 2404.519531 1986.230469 2384.878906 1993.378906 2365.300781 C 2025.671875 2282.96875 2059.339844 2207.699219 2094.378906 2139.488281 C 2088.261719 2113.238281 2057.738281 2119.410156 2002.820312 2158 C 1969.789062 2179.488281 1944.339844 2212.089844 1926.46875 2255.820312 L 1973.261719 1913.46875 "/>
<path fill-rule="nonzero" fill="currentColor" fill-opacity="1" d="M 1770.941406 2200.101562 C 1744.769531 2256.210938 1757.058594 2344.398438 1807.800781 2464.679688 C 1850.238281 2557.058594 1920.410156 2645.910156 2018.308594 2731.230469 C 2021.089844 2733.671875 2021.980469 2732.398438 2020.960938 2727.410156 C 2007.109375 2696.351562 1998.570312 2673.53125 1995.328125 2658.941406 C 1990.570312 2639.359375 1987.160156 2619.199219 1985.101562 2598.460938 C 1978.480469 2510.269531 1976.148438 2427.839844 1978.128906 2351.191406 C 1961.230469 2330.191406 1936.410156 2348.988281 1903.671875 2407.589844 C 1883.230469 2441.28125 1874.449219 2481.699219 1877.320312 2528.851562 L 1770.941406 2200.101562 "/>
<path fill-rule="nonzero" fill="currentColor" fill-opacity="1" d="M 1713.011719 2546.128906 C 1713.78125 2608.03125 1763.121094 2682.160156 1861.03125 2768.511719 C 1939.339844 2833.328125 2041.121094 2882.941406 2166.339844 2917.328125 C 2169.910156 2918.320312 2170.148438 2916.789062 2167.070312 2912.738281 C 2141.121094 2890.761719 2123.519531 2873.910156 2114.269531 2862.171875 C 2101.488281 2846.589844 2089.671875 2829.910156 2078.808594 2812.109375 C 2034.578125 2735.53125 1996.71875 2662.28125 1965.238281 2592.359375 C 1940.898438 2580.769531 1926.699219 2608.46875 1922.628906 2675.480469 C 1918.828125 2714.699219 1928.460938 2754.921875 1951.5 2796.160156 L 1713.011719 2546.128906 "/>
<path fill-rule="nonzero" fill="currentColor" fill-opacity="1" d="M 1810.96875 2883.019531 C 1838.511719 2938.460938 1915.128906 2983.839844 2040.808594 3019.160156 C 2139.488281 3043.578125 2252.710938 3044.121094 2380.449219 3020.769531 C 2384.101562 3020.121094 2383.648438 3018.628906 2379.121094 3016.320312 C 2346.210938 3007.78125 2323.03125 3000.230469 2309.609375 2993.660156 C 2291.328125 2985.171875 2273.441406 2975.269531 2255.941406 2963.949219 C 2182.859375 2914.140625 2116.96875 2864.570312 2058.269531 2815.230469 C 2031.308594 2815.351562 2030.539062 2846.480469 2055.941406 2908.609375 C 2069.539062 2945.601562 2095.660156 2977.660156 2134.320312 3004.820312 L 1810.96875 2883.019531 "/>
<path fill-rule="nonzero" fill="currentColor" fill-opacity="1" d="M 2045.390625 3144.050781 C 2094.261719 3182.050781 2182.980469 3189.691406 2311.539062 3166.988281 C 2411.050781 3146.171875 2513.28125 3097.53125 2618.25 3021.070312 C 2621.238281 3018.898438 2620.199219 3017.75 2615.121094 3017.628906 C 2581.75 3024.21875 2557.601562 3027.46875 2542.648438 3027.378906 C 2522.5 3027.671875 2502.089844 3026.511719 2481.421875 3023.898438 C 2393.960938 3010.730469 2313.078125 2994.660156 2238.789062 2975.671875 C 2214.550781 2987.480469 2227.359375 3015.859375 2277.210938 3060.820312 C 2305.511719 3088.238281 2342.960938 3105.789062 2389.558594 3113.488281 L 2045.390625 3144.050781 "/>
<path fill-rule="nonzero" fill="currentColor" fill-opacity="1" d="M 2369.851562 3277.519531 C 2430.371094 3290.550781 2513.621094 3258.941406 2619.601562 3182.699219 C 2700.21875 3120.769531 2771.230469 3032.589844 2832.621094 2918.160156 C 2834.378906 2914.898438 2832.941406 2914.320312 2828.308594 2916.421875 C 2801.109375 2936.839844 2780.761719 2950.238281 2767.25 2956.648438 C 2749.21875 2965.648438 2730.328125 2973.460938 2710.558594 2980.078125 C 2626.058594 3006.160156 2546.21875 3026.769531 2471.039062 3041.898438 C 2454.328125 3063.050781 2478.179688 3083.058594 2542.601562 3101.949219 C 2579.988281 3114.371094 2621.351562 3113.941406 2666.679688 3100.648438 L 2369.851562 3277.519531 "/>
<path fill-rule="nonzero" fill="currentColor" fill-opacity="1" d="M 2380.210938 2107.898438 C 2359.648438 2108.371094 2338.070312 2117.960938 2315.480469 2136.660156 C 2299.640625 2149.609375 2285.078125 2169.21875 2271.820312 2195.480469 C 2262.609375 2212.859375 2254.800781 2239.550781 2248.371094 2275.539062 C 2243.851562 2299.621094 2239.980469 2327.429688 2236.78125 2358.96875 C 2234.589844 2374.628906 2234.808594 2382.609375 2237.429688 2382.910156 C 2239.28125 2383.660156 2242.308594 2381.738281 2246.539062 2377.140625 C 2276.710938 2340 2315.441406 2298.121094 2362.730469 2251.511719 C 2376.410156 2236.03125 2382.488281 2228.011719 2380.980469 2227.441406 C 2372.660156 2224.550781 2358.199219 2231.230469 2337.621094 2247.480469 C 2304.671875 2280.980469 2280.691406 2310.871094 2265.699219 2337.128906 L 2380.210938 2107.898438 "/>
<path fill-rule="nonzero" fill="currentColor" fill-opacity="1" d="M 2562.199219 2094.761719 C 2543.46875 2086.261719 2519.871094 2085.539062 2491.398438 2092.589844 C 2471.511719 2097.378906 2449.890625 2108.730469 2426.539062 2126.628906 C 2410.710938 2138.300781 2392.089844 2158.949219 2370.679688 2188.589844 C 2356.160156 2208.320312 2340.609375 2231.699219 2324.039062 2258.730469 C 2315.269531 2271.890625 2312.011719 2279.171875 2314.238281 2280.578125 C 2315.578125 2282.058594 2319.140625 2281.640625 2324.949219 2279.339844 C 2368.238281 2258.960938 2421.308594 2238.039062 2484.140625 2216.558594 C 2503.179688 2208.550781 2512.140625 2203.960938 2511.03125 2202.789062 C 2504.78125 2196.570312 2488.859375 2196.320312 2463.261719 2202.03125 C 2419.039062 2217.921875 2384.46875 2234.441406 2359.570312 2251.601562 L 2562.199219 2094.761719 "/>
<path fill-rule="nonzero" fill="currentColor" fill-opacity="1" d="M 2731.871094 2161.878906 C 2718.679688 2146.089844 2697.730469 2135.199219 2669.019531 2129.199219 C 2649.019531 2124.890625 2624.621094 2125.730469 2595.808594 2131.730469 C 2576.488281 2135.378906 2550.75 2145.898438 2518.601562 2163.320312 C 2496.949219 2174.800781 2472.800781 2189.121094 2446.148438 2206.28125 C 2432.539062 2214.328125 2426.429688 2219.46875 2427.839844 2221.710938 C 2428.398438 2223.621094 2431.800781 2224.800781 2438.03125 2225.238281 C 2485.871094 2225.671875 2542.761719 2229.839844 2608.691406 2237.75 C 2629.320312 2238.789062 2639.390625 2238.539062 2638.890625 2237 C 2635.960938 2228.699219 2621.730469 2221.558594 2596.179688 2215.601562 C 2549.441406 2210.730469 2511.128906 2210.621094 2481.25 2215.269531 L 2731.871094 2161.878906 "/>
<path fill-rule="nonzero" fill="currentColor" fill-opacity="1" d="M 2855.609375 2295.96875 C 2850.578125 2276.019531 2836.429688 2257.121094 2813.171875 2239.261719 C 2797.019531 2226.691406 2774.660156 2216.859375 2746.109375 2209.78125 C 2727.121094 2204.671875 2699.359375 2202.988281 2662.839844 2204.730469 C 2638.359375 2205.679688 2610.390625 2208.101562 2578.921875 2212 C 2563.171875 2213.351562 2555.441406 2215.339844 2555.730469 2217.960938 C 2555.410156 2219.921875 2557.960938 2222.460938 2563.378906 2225.558594 C 2606.300781 2246.710938 2655.75 2275.140625 2711.710938 2310.878906 C 2729.851562 2320.769531 2739.03125 2324.910156 2739.25 2323.308594 C 2740.210938 2314.558594 2730.480469 2301.949219 2710.050781 2285.5 C 2670.058594 2260.828125 2635.589844 2244.109375 2606.648438 2235.328125 L 2855.609375 2295.96875 "/>
<path fill-rule="nonzero" fill="currentColor" fill-opacity="1" d="M 2908.921875 2470.46875 C 2913.039062 2450.308594 2908.488281 2427.140625 2895.289062 2400.960938 C 2886.191406 2382.628906 2870.308594 2364.078125 2847.660156 2345.300781 C 2832.761719 2332.460938 2808.480469 2318.898438 2774.820312 2304.621094 C 2752.359375 2294.859375 2726.101562 2284.898438 2696.070312 2274.761719 C 2681.28125 2269.140625 2673.460938 2267.578125 2672.578125 2270.070312 C 2671.441406 2271.699219 2672.640625 2275.089844 2676.179688 2280.238281 C 2705.679688 2317.910156 2737.878906 2364.988281 2772.800781 2421.460938 C 2784.851562 2438.238281 2791.320312 2445.960938 2792.21875 2444.609375 C 2796.878906 2437.148438 2793.578125 2421.570312 2782.320312 2397.878906 C 2756.988281 2358.300781 2733.191406 2328.28125 2710.921875 2307.820312 L 2908.921875 2470.46875 "/>
<path fill-rule="nonzero" fill="currentColor" fill-opacity="1" d="M 2881.238281 2650.820312 C 2893.691406 2634.441406 2899.648438 2611.601562 2899.109375 2582.269531 C 2898.871094 2561.808594 2892.609375 2538.210938 2880.351562 2511.460938 C 2872.5 2493.429688 2856.511719 2470.679688 2832.378906 2443.210938 C 2816.371094 2424.671875 2797.039062 2404.308594 2774.378906 2382.140625 C 2763.488281 2370.660156 2757.121094 2365.859375 2755.25 2367.71875 C 2753.519531 2368.699219 2753.128906 2372.269531 2754.078125 2378.441406 C 2764.308594 2425.179688 2772.898438 2481.570312 2779.859375 2547.609375 C 2783.441406 2567.949219 2785.921875 2577.710938 2787.308594 2576.890625 C 2794.75 2572.179688 2798.539062 2556.71875 2798.671875 2530.488281 C 2793.019531 2483.839844 2784.601562 2446.460938 2773.421875 2418.359375 L 2881.238281 2650.820312 "/>
<path fill-rule="nonzero" fill="currentColor" fill-opacity="1" d="M 2778.050781 2801.300781 C 2796.371094 2791.949219 2811.648438 2773.949219 2823.890625 2747.300781 C 2832.550781 2728.75 2837.160156 2704.769531 2837.710938 2675.359375 C 2838.460938 2655.710938 2833.929688 2628.269531 2824.101562 2593.050781 C 2817.730469 2569.390625 2809.140625 2542.660156 2798.339844 2512.859375 C 2793.519531 2497.800781 2789.859375 2490.699219 2787.371094 2491.570312 C 2785.378906 2491.699219 2783.480469 2494.738281 2781.660156 2500.71875 C 2770.601562 2547.269531 2753.871094 2601.808594 2731.488281 2664.320312 C 2725.878906 2684.199219 2723.890625 2694.070312 2725.5 2693.929688 C 2734.238281 2692.921875 2744.371094 2680.628906 2755.871094 2657.058594 C 2771.019531 2612.570312 2779.648438 2575.25 2781.761719 2545.078125 L 2778.050781 2801.300781 "/>
<path fill-rule="nonzero" fill="currentColor" fill-opacity="1" d="M 2619.789062 2892.101562 C 2640.351562 2891.628906 2661.929688 2882.039062 2684.519531 2863.339844 C 2700.359375 2850.390625 2714.921875 2830.78125 2728.179688 2804.519531 C 2737.390625 2787.140625 2745.199219 2760.449219 2751.628906 2724.460938 C 2756.148438 2700.378906 2760.019531 2672.570312 2763.21875 2641.03125 C 2765.410156 2625.371094 2765.191406 2617.390625 2762.570312 2617.089844 C 2760.71875 2616.339844 2757.691406 2618.261719 2753.460938 2622.859375 C 2723.289062 2660 2684.558594 2701.878906 2637.269531 2748.488281 C 2623.589844 2763.96875 2617.511719 2771.988281 2619.019531 2772.558594 C 2627.339844 2775.449219 2641.789062 2768.769531 2662.378906 2752.519531 C 2695.328125 2719.019531 2719.308594 2689.128906 2734.300781 2662.871094 L 2619.789062 2892.101562 "/>
<path fill-rule="nonzero" fill="currentColor" fill-opacity="1" d="M 2221.949219 2198.710938 C 2203.628906 2208.050781 2188.351562 2226.050781 2176.109375 2252.699219 C 2167.449219 2271.25 2162.839844 2295.230469 2162.289062 2324.640625 C 2161.539062 2344.289062 2166.078125 2371.730469 2175.898438 2406.949219 C 2182.269531 2430.609375 2190.859375 2457.339844 2201.660156 2487.140625 C 2206.480469 2502.199219 2210.140625 2509.300781 2212.628906 2508.429688 C 2214.621094 2508.300781 2216.519531 2505.261719 2218.339844 2499.28125 C 2229.398438 2452.730469 2246.128906 2398.191406 2268.511719 2335.679688 C 2274.121094 2315.800781 2276.109375 2305.929688 2274.5 2306.070312 C 2265.761719 2307.078125 2255.628906 2319.371094 2244.128906 2342.941406 C 2228.980469 2387.429688 2220.351562 2424.75 2218.238281 2454.921875 L 2221.949219 2198.710938 "/>
<path fill-rule="nonzero" fill="currentColor" fill-opacity="1" d="M 2118.761719 2349.179688 C 2106.308594 2365.558594 2100.351562 2388.398438 2100.890625 2417.730469 C 2101.128906 2438.191406 2107.390625 2461.789062 2119.648438 2488.539062 C 2127.5 2506.570312 2143.488281 2529.320312 2167.621094 2556.789062 C 2183.628906 2575.328125 2202.960938 2595.691406 2225.621094 2617.859375 C 2236.511719 2629.339844 2242.878906 2634.140625 2244.738281 2632.28125 C 2246.480469 2631.300781 2246.871094 2627.730469 2245.921875 2621.558594 C 2235.691406 2574.820312 2227.089844 2518.429688 2220.140625 2452.390625 C 2216.558594 2432.050781 2214.078125 2422.289062 2212.691406 2423.109375 C 2205.25 2427.820312 2201.460938 2443.28125 2201.328125 2469.511719 C 2206.980469 2516.160156 2215.398438 2553.539062 2226.578125 2581.640625 L 2118.761719 2349.179688 "/>
<path fill-rule="nonzero" fill="currentColor" fill-opacity="1" d="M 2091.078125 2529.53125 C 2086.960938 2549.691406 2091.511719 2572.859375 2104.710938 2599.039062 C 2113.808594 2617.371094 2129.691406 2635.921875 2152.339844 2654.699219 C 2167.238281 2667.539062 2191.519531 2681.101562 2225.179688 2695.378906 C 2247.640625 2705.140625 2273.898438 2715.101562 2303.929688 2725.238281 C 2318.71875 2730.859375 2326.539062 2732.421875 2327.421875 2729.929688 C 2328.558594 2728.300781 2327.359375 2724.910156 2323.820312 2719.761719 C 2294.328125 2682.089844 2262.121094 2635.011719 2227.199219 2578.539062 C 2215.148438 2561.761719 2208.679688 2554.039062 2207.78125 2555.390625 C 2203.121094 2562.851562 2206.421875 2578.429688 2217.679688 2602.121094 C 2243.011719 2641.699219 2266.808594 2671.71875 2289.078125 2692.179688 L 2091.078125 2529.53125 "/>
<path fill-rule="nonzero" fill="currentColor" fill-opacity="1" d="M 2144.390625 2704.03125 C 2149.421875 2723.980469 2163.570312 2742.878906 2186.828125 2760.738281 C 2202.980469 2773.308594 2225.339844 2783.140625 2253.890625 2790.21875 C 2272.878906 2795.328125 2300.640625 2797.011719 2337.160156 2795.269531 C 2361.640625 2794.320312 2389.609375 2791.898438 2421.078125 2788 C 2436.828125 2786.648438 2444.558594 2784.660156 2444.269531 2782.039062 C 2444.589844 2780.070312 2442.039062 2777.539062 2436.621094 2774.441406 C 2393.699219 2753.289062 2344.25 2724.859375 2288.289062 2689.121094 C 2270.148438 2679.230469 2260.96875 2675.089844 2260.75 2676.691406 C 2259.789062 2685.441406 2269.519531 2698.050781 2289.949219 2714.5 C 2329.941406 2739.171875 2364.410156 2755.890625 2393.351562 2764.671875 L 2144.390625 2704.03125 "/>
<path fill-rule="nonzero" fill="currentColor" fill-opacity="1" d="M 2268.128906 2838.121094 C 2281.320312 2853.910156 2302.269531 2864.800781 2330.980469 2870.800781 C 2350.980469 2875.109375 2375.378906 2874.269531 2404.191406 2868.269531 C 2423.511719 2864.621094 2449.25 2854.101562 2481.398438 2836.679688 C 2503.050781 2825.199219 2527.199219 2810.878906 2553.851562 2793.71875 C 2567.460938 2785.671875 2573.558594 2780.519531 2572.160156 2778.289062 C 2571.601562 2776.378906 2568.199219 2775.199219 2561.96875 2774.761719 C 2514.128906 2774.328125 2457.238281 2770.160156 2391.308594 2762.25 C 2370.679688 2761.210938 2360.609375 2761.460938 2361.109375 2763 C 2364.039062 2771.300781 2378.269531 2778.441406 2403.820312 2784.398438 C 2450.558594 2789.269531 2488.859375 2789.378906 2518.75 2784.730469 L 2268.128906 2838.121094 "/>
<path fill-rule="nonzero" fill="currentColor" fill-opacity="1" d="M 2437.800781 2905.238281 C 2456.53125 2913.738281 2480.128906 2914.460938 2508.601562 2907.410156 C 2528.488281 2902.621094 2550.109375 2891.269531 2573.460938 2873.371094 C 2589.289062 2861.699219 2607.910156 2841.050781 2629.328125 2811.410156 C 2643.839844 2791.679688 2659.390625 2768.300781 2675.960938 2741.269531 C 2684.730469 2728.109375 2687.988281 2720.820312 2685.761719 2719.421875 C 2684.429688 2717.941406 2680.859375 2718.359375 2675.050781 2720.660156 C 2631.761719 2741.039062 2578.691406 2761.960938 2515.859375 2783.441406 C 2496.820312 2791.449219 2487.859375 2796.039062 2488.96875 2797.210938 C 2495.21875 2803.421875 2511.140625 2803.679688 2536.738281 2797.96875 C 2580.960938 2782.078125 2615.53125 2765.558594 2640.429688 2748.398438 L 2437.800781 2905.238281 "/>
<path fill-rule="nonzero" fill="currentColor" fill-opacity="1" d="M 775.269531 1895.679688 C 812.613281 1812.039062 802.71875 1718.46875 745.574219 1614.980469 C 718.074219 1560.378906 683.273438 1507.660156 641.175781 1456.800781 C 610.445312 1417.511719 550.46875 1359.261719 461.246094 1282.039062 C 455.28125 1276.050781 454.210938 1272.421875 458.03125 1271.148438 C 590.644531 1309.898438 724.8125 1385.640625 860.535156 1498.359375 C 968.109375 1598.058594 1029.320312 1702.28125 1044.148438 1811.03125 L 775.269531 1895.679688 "/>
<path fill-rule="nonzero" fill="currentColor" fill-opacity="1" d="M 1208.269531 1207.191406 C 1278.210938 1148.039062 1309.890625 1059.449219 1303.308594 941.410156 C 1302.230469 880.289062 1293.75 817.679688 1277.890625 753.589844 C 1267.238281 704.859375 1238.480469 626.359375 1191.601562 518.070312 C 1188.820312 510.089844 1189.429688 506.351562 1193.429688 506.871094 C 1296.089844 599.320312 1384.109375 725.769531 1457.488281 886.21875 C 1511.148438 1022.71875 1521.078125 1143.171875 1487.261719 1247.589844 L 1208.269531 1207.191406 "/>
<path fill-rule="nonzero" fill="currentColor" fill-opacity="1" d="M 1897.121094 774.769531 C 1985.800781 751.808594 2052.78125 685.738281 2098.070312 576.539062 C 2123.609375 520.988281 2143.140625 460.910156 2156.648438 396.289062 C 2168.210938 347.769531 2176.359375 264.550781 2181.101562 146.648438 C 2182.058594 138.25 2184.230469 135.148438 2187.609375 137.351562 C 2239.988281 265.191406 2264.429688 417.308594 2260.921875 593.710938 C 2250.050781 739.96875 2206.730469 852.800781 2130.949219 932.210938 L 1897.121094 774.769531 "/>
<path fill-rule="nonzero" fill="currentColor" fill-opacity="1" d="M 2705.378906 684.039062 C 2795.230469 701.839844 2884.25 671.371094 2972.429688 592.628906 C 3019.539062 553.671875 3063.199219 508.011719 3103.421875 455.648438 C 3134.878906 416.941406 3178.328125 345.511719 3233.761719 241.339844 C 3238.269531 234.191406 3241.570312 232.339844 3243.660156 235.789062 C 3235.390625 373.699219 3191.398438 521.351562 3111.710938 678.761719 C 3038.449219 805.820312 2950.460938 888.679688 2847.738281 927.351562 L 2705.378906 684.039062 "/>
<path fill-rule="nonzero" fill="currentColor" fill-opacity="1" d="M 3472.960938 952.988281 C 3546.191406 1008.011719 3639.609375 1019.179688 3753.230469 986.5 C 3812.570312 971.839844 3871.71875 949.640625 3930.671875 919.910156 C 3975.820312 898.699219 4045.960938 853.191406 4141.089844 783.378906 C 4148.261719 778.898438 4152.03125 778.660156 4152.421875 782.671875 C 4085.128906 903.339844 3981.441406 1017.289062 3841.339844 1124.53125 C 3720.210938 1207.21875 3604.980469 1243.699219 3495.648438 1233.96875 L 3472.960938 952.988281 "/>
<path fill-rule="nonzero" fill="currentColor" fill-opacity="1" d="M 4047.828125 1528.339844 C 4089.929688 1609.679688 4169.261719 1660.28125 4285.800781 1680.140625 C 4345.628906 1692.679688 4408.550781 1698.339844 4474.558594 1697.140625 C 4524.441406 1697.609375 4607.378906 1687.039062 4723.378906 1665.421875 C 4731.789062 1664.488281 4735.289062 1665.921875 4733.898438 1669.699219 C 4620.921875 1749.21875 4478.050781 1806.890625 4305.300781 1842.730469 C 4160.28125 1864.671875 4040.640625 1847.539062 3946.359375 1791.339844 L 4047.828125 1528.339844 "/>
<path fill-rule="nonzero" fill="currentColor" fill-opacity="1" d="M 4316.128906 2296.140625 C 4318.78125 2387.699219 4368.289062 2467.710938 4464.679688 2536.160156 C 4513.140625 2573.421875 4567.371094 2605.820312 4627.371094 2633.378906 C 4672.101562 2655.441406 4751.421875 2681.910156 4865.308594 2712.761719 C 4873.28125 2715.570312 4875.820312 2718.378906 4872.929688 2721.179688 C 4736.628906 2743.800781 4582.890625 2733.78125 4411.699219 2691.109375 C 4271.519531 2647.960938 4171.160156 2580.609375 4110.601562 2489.070312 L 4316.128906 2296.140625 "/>
<path fill-rule="nonzero" fill="currentColor" fill-opacity="1" d="M 4224.730469 3104.320312 C 4187.390625 3187.960938 4197.28125 3281.519531 4254.429688 3385.019531 C 4281.929688 3439.621094 4316.730469 3492.339844 4358.820312 3543.199219 C 4389.550781 3582.488281 4449.53125 3640.738281 4538.75 3717.960938 C 4544.71875 3723.949219 4545.789062 3727.578125 4541.96875 3728.851562 C 4409.351562 3690.101562 4275.191406 3614.359375 4139.460938 3501.640625 C 4031.890625 3401.941406 3970.679688 3297.71875 3955.851562 3188.96875 L 4224.730469 3104.320312 "/>
<path fill-rule="nonzero" fill="currentColor" fill-opacity="1" d="M 683.867188 2703.859375 C 681.222656 2612.300781 631.710938 2532.289062 535.324219 2463.839844 C 486.855469 2426.578125 432.625 2394.179688 372.628906 2366.621094 C 327.894531 2344.558594 248.582031 2318.101562 134.691406 2287.238281 C 126.71875 2284.429688 124.179688 2281.621094 127.074219 2278.820312 C 263.367188 2256.199219 417.109375 2266.21875 588.300781 2308.890625 C 728.476562 2352.039062 828.84375 2419.390625 889.394531 2510.929688 L 683.867188 2703.859375 "/>
<path fill-rule="nonzero" fill="currentColor" fill-opacity="1" d="M 952.171875 3471.660156 C 910.066406 3390.320312 830.738281 3339.71875 714.199219 3319.859375 C 654.367188 3307.320312 591.445312 3301.660156 525.433594 3302.859375 C 475.558594 3302.390625 392.617188 3312.960938 276.617188 3334.570312 C 268.214844 3335.511719 264.710938 3334.078125 266.101562 3330.300781 C 379.082031 3250.78125 521.949219 3193.109375 694.699219 3157.269531 C 839.714844 3135.328125 959.359375 3152.460938 1053.640625 3208.660156 L 952.171875 3471.660156 "/>
<path fill-rule="nonzero" fill="currentColor" fill-opacity="1" d="M 1527.039062 4047.015625 C 1453.808594 3991.988281 1360.390625 3980.820312 1246.78125 4013.503906 C 1187.429688 4028.164062 1128.28125 4050.359375 1069.328125 4080.085938 C 1024.191406 4101.304688 954.046875 4146.8125 858.910156 4216.617188 C 851.742188 4221.101562 847.96875 4221.335938 847.582031 4217.324219 C 914.871094 4096.660156 1018.558594 3982.710938 1158.660156 3875.46875 C 1279.789062 3792.78125 1395.019531 3756.300781 1504.351562 3766.039062 L 1527.039062 4047.015625 "/>
<path fill-rule="nonzero" fill="currentColor" fill-opacity="1" d="M 2294.621094 4315.960938 C 2204.769531 4298.164062 2115.75 4328.636719 2027.570312 4407.371094 C 1980.460938 4446.332031 1936.800781 4491.992188 1896.578125 4544.355469 C 1865.121094 4583.054688 1821.671875 4654.492188 1766.238281 4758.660156 C 1761.730469 4765.808594 1758.429688 4767.660156 1756.339844 4764.214844 C 1764.609375 4626.304688 1808.601562 4478.648438 1888.289062 4321.242188 C 1961.550781 4194.183594 2049.539062 4111.320312 2152.261719 4072.65625 L 2294.621094 4315.960938 "/>
<path fill-rule="nonzero" fill="currentColor" fill-opacity="1" d="M 3102.878906 4225.234375 C 3014.199219 4248.1875 2947.21875 4314.261719 2901.929688 4423.464844 C 2876.390625 4479.007812 2856.859375 4539.089844 2843.351562 4603.710938 C 2831.789062 4652.234375 2823.640625 4735.445312 2818.898438 4853.347656 C 2817.941406 4861.746094 2815.769531 4864.847656 2812.390625 4862.648438 C 2760.011719 4734.804688 2735.570312 4582.6875 2739.078125 4406.296875 C 2749.949219 4260.03125 2793.269531 4147.195312 2869.050781 4067.792969 L 3102.878906 4225.234375 "/>
<path fill-rule="nonzero" fill="currentColor" fill-opacity="1" d="M 3791.730469 3792.808594 C 3721.789062 3851.960938 3690.109375 3940.550781 3696.691406 4058.589844 C 3697.78125 4119.714844 3706.25 4182.316406 3722.121094 4246.40625 C 3732.761719 4295.136719 3761.519531 4373.644531 3808.398438 4481.929688 C 3811.179688 4489.914062 3810.570312 4493.648438 3806.570312 4493.128906 C 3703.910156 4400.675781 3615.890625 4274.226562 3542.511719 4113.78125 C 3488.851562 3977.28125 3478.921875 3856.828125 3512.738281 3752.410156 L 3791.730469 3792.808594 "/>
<path fill-rule="nonzero" fill="currentColor" fill-opacity="1" d="M 1087.960938 1394.589844 C 1113.5 1328.609375 1111.410156 1242.011719 1081.679688 1134.808594 C 1062.46875 1070.78125 1039.238281 1010.078125 1011.980469 952.699219 C 992.25 908.871094 954.257812 841.53125 898 750.671875 C 896.039062 746.78125 895.949219 744.910156 897.738281 745.058594 C 1010.460938 833.480469 1124.230469 965.25 1239.050781 1140.371094 C 1289.910156 1218.699219 1317.089844 1316.941406 1320.589844 1435.070312 L 1087.960938 1394.589844 "/>
<path fill-rule="nonzero" fill="currentColor" fill-opacity="1" d="M 1707.410156 891.398438 C 1759.058594 843.03125 1794.738281 764.109375 1814.46875 654.621094 C 1824.949219 588.601562 1830.351562 523.828125 1830.691406 460.300781 C 1831.929688 412.25 1826.921875 335.101562 1815.648438 228.828125 C 1815.570312 224.46875 1816.308594 222.75 1817.851562 223.660156 C 1881.039062 352.230469 1926.378906 520.308594 1953.839844 727.910156 C 1965.679688 820.550781 1947.550781 920.851562 1899.441406 1028.808594 L 1707.410156 891.398438 "/>
<path fill-rule="nonzero" fill="currentColor" fill-opacity="1" d="M 2483.851562 706.808594 C 2551.359375 685.640625 2617.761719 630.019531 2683.039062 539.929688 C 2721.121094 485 2754.101562 428.980469 2781.960938 371.890625 C 2803.929688 329.140625 2832.890625 257.449219 2868.851562 156.820312 C 2870.671875 152.859375 2872.078125 151.621094 2873.078125 153.109375 C 2874.21875 296.371094 2842.128906 467.480469 2776.808594 666.429688 C 2747.28125 755.039062 2687.429688 837.539062 2597.238281 913.929688 L 2483.851562 706.808594 "/>
<path fill-rule="nonzero" fill="currentColor" fill-opacity="1" d="M 3263.480469 877.378906 C 3333.5 887.609375 3417.460938 866.300781 3515.359375 813.460938 C 3573.5 780.488281 3627.519531 744.328125 3677.390625 704.980469 C 3715.730469 675.988281 3772.929688 623.96875 3848.988281 548.898438 C 3852.351562 546.128906 3854.148438 545.621094 3854.410156 547.398438 C 3793.28125 676.96875 3690.128906 817.210938 3544.960938 968.121094 C 3479.910156 1035.140625 3390.179688 1083.488281 3275.789062 1113.191406 L 3263.480469 877.378906 "/>
<path fill-rule="nonzero" fill="currentColor" fill-opacity="1" d="M 3891.898438 1369.328125 C 3950.550781 1408.921875 4035.441406 1426.148438 4146.570312 1421.019531 C 4213.261719 1416.550781 4277.621094 1407.398438 4339.628906 1393.589844 C 4386.738281 1384.109375 4460.851562 1362.058594 4561.949219 1327.429688 C 4566.179688 1326.378906 4568.019531 1326.710938 4567.480469 1328.421875 C 4456.191406 1418.640625 4302.410156 1500.238281 4106.128906 1573.210938 C 4018.449219 1605.371094 3916.628906 1610.011719 3800.671875 1587.128906 L 3891.898438 1369.328125 "/>
<path fill-rule="nonzero" fill="currentColor" fill-opacity="1" d="M 4244.640625 2085.230469 C 4280.300781 2146.339844 4349.308594 2198.699219 4451.660156 2242.289062 C 4513.691406 2267.199219 4575.640625 2286.878906 4637.5 2301.351562 C 4684.058594 2313.25 4760.398438 2325.53125 4866.511719 2338.191406 C 4870.78125 2339.089844 4872.289062 2340.191406 4871.070312 2341.488281 C 4731.648438 2374.488281 4557.691406 2381.28125 4349.199219 2361.871094 C 4256.238281 2352.789062 4162.488281 2312.789062 4067.941406 2241.871094 L 4244.640625 2085.230469 "/>
<path fill-rule="nonzero" fill="currentColor" fill-opacity="1" d="M 4251.828125 2883.269531 C 4257.441406 2953.808594 4296.898438 3030.921875 4370.199219 3114.609375 C 4415.28125 3163.960938 4462.550781 3208.570312 4512.011719 3248.441406 C 4548.800781 3279.371094 4612.25 3323.558594 4702.359375 3381.011719 C 4705.808594 3383.660156 4706.699219 3385.308594 4705.03125 3385.960938 C 4565.109375 3355.191406 4405.429688 3285.839844 4226 3177.878906 C 4146.191406 3129.371094 4079.078125 3052.660156 4024.671875 2947.738281 L 4251.828125 2883.269531 "/>
<path fill-rule="nonzero" fill="currentColor" fill-opacity="1" d="M 3912.039062 3605.410156 C 3886.5 3671.390625 3888.589844 3757.988281 3918.320312 3865.191406 C 3937.53125 3929.21875 3960.761719 3989.921875 3988.019531 4047.304688 C 4007.75 4091.132812 4045.738281 4158.472656 4102 4249.328125 C 4103.960938 4253.21875 4104.050781 4255.089844 4102.261719 4254.945312 C 3989.539062 4166.519531 3875.769531 4034.75 3760.949219 3859.628906 C 3710.089844 3781.300781 3682.910156 3683.058594 3679.410156 3564.929688 L 3912.039062 3605.410156 "/>
<path fill-rule="nonzero" fill="currentColor" fill-opacity="1" d="M 748.171875 2116.71875 C 742.5625 2046.191406 703.105469 1969.078125 629.800781 1885.390625 C 584.71875 1836.039062 537.449219 1791.429688 487.988281 1751.558594 C 451.199219 1720.628906 387.75 1676.441406 297.644531 1618.988281 C 294.1875 1616.339844 293.296875 1614.691406 294.96875 1614.050781 C 434.894531 1644.808594 594.570312 1714.160156 773.996094 1822.121094 C 853.8125 1870.628906 920.925781 1947.339844 975.335938 2052.261719 L 748.171875 2116.71875 "/>
<path fill-rule="nonzero" fill="currentColor" fill-opacity="1" d="M 755.359375 2914.769531 C 719.699219 2853.660156 650.695312 2801.300781 548.339844 2757.710938 C 486.308594 2732.800781 424.363281 2713.121094 362.503906 2698.648438 C 315.9375 2686.75 239.597656 2674.46875 133.492188 2661.808594 C 129.226562 2660.910156 127.707031 2659.808594 128.933594 2658.511719 C 268.351562 2625.511719 442.304688 2618.71875 650.804688 2638.128906 C 743.761719 2647.210938 837.511719 2687.210938 932.058594 2758.128906 L 755.359375 2914.769531 "/>
<path fill-rule="nonzero" fill="currentColor" fill-opacity="1" d="M 1108.101562 3630.671875 C 1049.449219 3591.078125 964.5625 3573.851562 853.429688 3578.980469 C 786.738281 3583.449219 722.386719 3592.601562 660.375 3606.410156 C 613.257812 3615.890625 539.148438 3637.941406 438.054688 3672.570312 C 433.824219 3673.621094 431.976562 3673.289062 432.519531 3671.578125 C 543.8125 3581.359375 697.59375 3499.761719 893.867188 3426.789062 C 981.554688 3394.628906 1083.378906 3389.988281 1199.328125 3412.871094 L 1108.101562 3630.671875 "/>
<path fill-rule="nonzero" fill="currentColor" fill-opacity="1" d="M 1736.519531 4122.617188 C 1666.5 4112.394531 1582.539062 4133.703125 1484.640625 4186.546875 C 1426.5 4219.515625 1372.480469 4255.675781 1322.609375 4295.023438 C 1284.269531 4324.007812 1227.070312 4376.03125 1151.011719 4451.097656 C 1147.648438 4453.875 1145.851562 4454.375 1145.589844 4452.601562 C 1206.71875 4323.03125 1309.871094 4182.792969 1455.039062 4031.886719 C 1520.089844 3964.871094 1609.820312 3916.511719 1724.210938 3886.808594 L 1736.519531 4122.617188 "/>
<path fill-rule="nonzero" fill="currentColor" fill-opacity="1" d="M 2516.148438 4293.191406 C 2448.640625 4314.359375 2382.238281 4369.984375 2316.960938 4460.070312 C 2278.878906 4515.007812 2245.898438 4571.019531 2218.039062 4628.109375 C 2196.070312 4670.859375 2167.109375 4742.550781 2131.148438 4843.179688 C 2129.328125 4847.140625 2127.921875 4848.378906 2126.921875 4846.890625 C 2125.78125 4703.628906 2157.871094 4532.523438 2223.191406 4333.570312 C 2252.71875 4244.964844 2312.570312 4162.464844 2402.761719 4086.070312 L 2516.148438 4293.191406 "/>
<path fill-rule="nonzero" fill="currentColor" fill-opacity="1" d="M 3292.589844 4108.601562 C 3240.941406 4156.96875 3205.261719 4235.894531 3185.53125 4345.382812 C 3175.050781 4411.398438 3169.648438 4476.171875 3169.308594 4539.699219 C 3168.070312 4587.746094 3173.078125 4664.902344 3184.351562 4771.171875 C 3184.429688 4775.527344 3183.691406 4777.253906 3182.148438 4776.34375 C 3118.960938 4647.769531 3073.628906 4479.6875 3046.160156 4272.09375 C 3034.320312 4179.449219 3052.449219 4079.148438 3100.558594 3971.191406 L 3292.589844 4108.601562 "/>
<path fill-rule="nonzero" fill="currentColor" fill-opacity="1" d="M 1035.390625 1488.03125 C 1036.03125 1452.390625 1031.859375 1423.988281 1022.890625 1402.808594 C 1020.320312 1395.921875 1015.210938 1384.808594 1007.550781 1369.480469 L 920.1875 1202 C 917.324219 1195.46875 918.34375 1192.769531 923.25 1193.898438 C 934.609375 1194.648438 967.023438 1219.53125 1020.5 1268.539062 C 1046.949219 1290.789062 1073.660156 1318.519531 1100.640625 1351.75 C 1139.101562 1404.488281 1172.128906 1466.941406 1199.730469 1539.089844 L 1035.390625 1488.03125 "/>
<path fill-rule="nonzero" fill="currentColor" fill-opacity="1" d="M 1619.511719 952.78125 C 1635.550781 920.941406 1644.121094 893.539062 1645.21875 870.570312 C 1645.898438 863.25 1646.109375 851.019531 1645.859375 833.878906 L 1639.820312 645.089844 C 1640.070312 637.96875 1642.160156 635.96875 1646.089844 639.121094 C 1656 644.71875 1674.410156 681.199219 1701.320312 748.558594 C 1715.5 780.078125 1727.53125 816.660156 1737.429688 858.300781 C 1749.191406 922.511719 1751.859375 993.101562 1745.421875 1070.089844 L 1619.511719 952.78125 "/>
<path fill-rule="nonzero" fill="currentColor" fill-opacity="1" d="M 2378.019531 723.96875 C 2406.28125 702.25 2425.890625 681.28125 2436.859375 661.058594 C 2440.640625 654.761719 2446.140625 643.828125 2453.351562 628.28125 L 2529.820312 455.570312 C 2533.140625 449.261719 2535.878906 448.371094 2538.058594 452.910156 C 2544.558594 462.25 2545.320312 503.109375 2540.339844 575.480469 C 2539.441406 610.03125 2534.410156 648.210938 2525.25 690.011719 C 2507.988281 752.96875 2479.761719 817.71875 2440.558594 884.289062 L 2378.019531 723.96875 "/>
<path fill-rule="nonzero" fill="currentColor" fill-opacity="1" d="M 3160.691406 846.929688 C 3195.578125 839.621094 3222.339844 829.230469 3240.988281 815.78125 C 3247.140625 811.738281 3256.839844 804.28125 3270.078125 793.398438 L 3413.910156 670.96875 C 3419.640625 666.71875 3422.5 667.109375 3422.488281 672.148438 C 3424.289062 683.390625 3407.25 720.53125 3371.359375 783.558594 C 3355.558594 814.300781 3334.460938 846.519531 3308.070312 880.210938 C 3265.210938 929.441406 3211.679688 975.539062 3147.480469 1018.511719 L 3160.691406 846.929688 "/>
<path fill-rule="nonzero" fill="currentColor" fill-opacity="1" d="M 3812.5 1297.300781 C 3847.109375 1305.851562 3875.730469 1308.101562 3898.371094 1304.070312 C 3905.660156 1303.101562 3917.628906 1300.589844 3934.28125 1296.53125 L 4117 1248.628906 C 4124 1247.289062 4126.398438 1248.878906 4124.210938 1253.421875 C 4120.960938 1264.320312 4089.488281 1290.390625 4029.808594 1331.621094 C 4002.230469 1352.449219 3969.238281 1372.320312 3930.851562 1391.230469 C 3870.871094 1416.988281 3802.640625 1435.300781 3726.148438 1446.148438 L 3812.5 1297.300781 "/>
<path fill-rule="nonzero" fill="currentColor" fill-opacity="1" d="M 4204.359375 1985.878906 C 4231.828125 2008.589844 4256.628906 2023.039062 4278.78125 2029.238281 C 4285.769531 2031.519531 4297.648438 2034.449219 4314.410156 2038.019531 L 4499.808594 2074.140625 C 4506.699219 2075.96875 4508.179688 2078.449219 4504.238281 2081.589844 C 4496.570312 2090 4456.910156 2099.828125 4385.25 2111.078125 C 4351.371094 2117.890625 4313.019531 2121.480469 4270.21875 2121.859375 C 4205.011719 2119.039062 4135.589844 2105.929688 4061.96875 2082.53125 L 4204.359375 1985.878906 "/>
<path fill-rule="nonzero" fill="currentColor" fill-opacity="1" d="M 4258.640625 2776.28125 C 4273.53125 2808.671875 4289.609375 2832.449219 4306.878906 2847.640625 C 4312.191406 2852.730469 4321.621094 2860.53125 4335.171875 2871.019531 L 4486.539062 2984 C 4491.960938 2988.640625 4492.210938 2991.511719 4487.300781 2992.628906 C 4476.738281 2996.890625 4436.738281 2988.53125 4367.300781 2967.578125 C 4333.808594 2959.011719 4297.710938 2945.609375 4258.988281 2927.378906 C 4201.460938 2896.539062 4144.601562 2854.609375 4088.421875 2801.578125 L 4258.640625 2776.28125 "/>
<path fill-rule="nonzero" fill="currentColor" fill-opacity="1" d="M 3964.609375 3511.96875 C 3963.96875 3547.609375 3968.140625 3576.011719 3977.109375 3597.191406 C 3979.679688 3604.078125 3984.789062 3615.191406 3992.449219 3630.519531 L 4079.808594 3798 C 4082.679688 3804.53125 4081.660156 3807.230469 4076.75 3806.101562 C 4065.390625 3805.351562 4032.980469 3780.46875 3979.5 3731.460938 C 3953.050781 3709.210938 3926.339844 3681.46875 3899.359375 3648.25 C 3860.898438 3595.511719 3827.871094 3533.058594 3800.269531 3460.910156 L 3964.609375 3511.96875 "/>
<path fill-rule="nonzero" fill="currentColor" fill-opacity="1" d="M 741.359375 2223.71875 C 726.464844 2191.328125 710.386719 2167.550781 693.117188 2152.359375 C 687.8125 2147.269531 678.382812 2139.46875 664.832031 2128.980469 L 513.457031 2016 C 508.046875 2011.359375 507.792969 2008.488281 512.703125 2007.371094 C 523.257812 2003.109375 563.257812 2011.46875 632.703125 2032.421875 C 666.1875 2040.988281 702.289062 2054.390625 741.011719 2072.621094 C 798.546875 2103.460938 855.398438 2145.390625 911.574219 2198.421875 L 741.359375 2223.71875 "/>
<path fill-rule="nonzero" fill="currentColor" fill-opacity="1" d="M 795.644531 3014.121094 C 768.175781 2991.410156 743.367188 2976.949219 721.21875 2970.761719 C 714.230469 2968.480469 702.351562 2965.550781 685.59375 2961.980469 L 500.1875 2925.859375 C 493.296875 2924.03125 491.824219 2921.550781 495.761719 2918.410156 C 503.429688 2910 543.089844 2900.171875 614.75 2888.921875 C 648.636719 2882.109375 686.976562 2878.519531 729.773438 2878.140625 C 794.988281 2880.960938 864.40625 2894.070312 938.027344 2917.46875 L 795.644531 3014.121094 "/>
<path fill-rule="nonzero" fill="currentColor" fill-opacity="1" d="M 1187.5 3702.699219 C 1152.890625 3694.148438 1124.269531 3691.898438 1101.628906 3695.929688 C 1094.339844 3696.898438 1082.371094 3699.410156 1065.71875 3703.46875 L 883.003906 3751.371094 C 876.003906 3752.710938 873.597656 3751.121094 875.785156 3746.578125 C 879.042969 3735.679688 910.511719 3709.609375 970.195312 3668.378906 C 997.769531 3647.550781 1030.761719 3627.679688 1069.148438 3608.769531 C 1129.128906 3583.011719 1197.359375 3564.699219 1273.851562 3553.851562 L 1187.5 3702.699219 "/>
<path fill-rule="nonzero" fill="currentColor" fill-opacity="1" d="M 1839.308594 4153.070312 C 1804.421875 4160.382812 1777.660156 4170.765625 1759.011719 4184.222656 C 1752.859375 4188.261719 1743.160156 4195.722656 1729.921875 4206.597656 L 1586.089844 4329.035156 C 1580.359375 4333.28125 1577.5 4332.886719 1577.511719 4327.851562 C 1575.710938 4316.613281 1592.75 4279.472656 1628.640625 4216.433594 C 1644.441406 4185.699219 1665.539062 4153.480469 1691.929688 4119.785156 C 1734.789062 4070.558594 1788.320312 4024.457031 1852.519531 3981.488281 L 1839.308594 4153.070312 "/>
<path fill-rule="nonzero" fill="currentColor" fill-opacity="1" d="M 2621.980469 4276.027344 C 2593.71875 4297.753906 2574.109375 4318.722656 2563.140625 4338.9375 C 2559.359375 4345.242188 2553.859375 4356.171875 2546.648438 4371.714844 L 2470.179688 4544.433594 C 2466.859375 4550.746094 2464.121094 4551.632812 2461.941406 4547.09375 C 2455.441406 4537.746094 2454.679688 4496.890625 2459.660156 4424.527344 C 2460.558594 4389.976562 2465.589844 4351.796875 2474.75 4309.984375 C 2492.011719 4247.035156 2520.238281 4182.277344 2559.441406 4115.707031 L 2621.980469 4276.027344 "/>
<path fill-rule="nonzero" fill="currentColor" fill-opacity="1" d="M 3380.488281 4047.21875 C 3364.449219 4079.054688 3355.878906 4106.457031 3354.78125 4129.425781 C 3354.101562 4136.753906 3353.890625 4148.980469 3354.140625 4166.117188 L 3360.179688 4354.910156 C 3359.929688 4362.035156 3357.839844 4364.023438 3353.910156 4360.882812 C 3344 4355.28125 3325.589844 4318.800781 3298.679688 4251.441406 C 3284.5 4219.917969 3272.46875 4183.339844 3262.578125 4141.695312 C 3250.808594 4077.492188 3248.140625 4006.898438 3254.578125 3929.910156 L 3380.488281 4047.21875 "/>
</svg>
