<?xml version="1.0" encoding="utf-8"?>
<!-- Generator: Adobe Illustrator 21.1.0, SVG Export Plug-In . SVG Version: 6.00 Build 0)  -->
<svg version="1.0" id="Capa_1" xmlns="http://www.w3.org/2000/svg" xmlns:xlink="http://www.w3.org/1999/xlink" x="0px" y="0px"
	 width="1096px" height="780px" viewBox="0 0 1096 780" enable-background="new 0 0 1096 780" xml:space="preserve">
<g>
	<path d="M1042.8,223.8c-6.5,9.3-13.7,14.9-20.6,23.2v0l1-23.8l-10.9,37.5L995,246.7l14.2,21.4c-2.6,6-5,13.1-7.3,21.9
		c0,0,6.5-2.3,12-5.1c0,0,3.7-22,28.6-43.6c1.7-1.5,3.3-3.1,4.8-4.7l0,0l19.7-7.5l-13.1-1.8l21.9-33.6l-15.3,10.6
		c0.5-7.1-0.4-14-2.4-20.1l26.2-8.5l-29,2c-2.1-3.9-4.7-7.2-7.8-9.5c0,0-2,10.5-2.8,16.6C1044.8,184.8,1056.1,204.6,1042.8,223.8z"
		/>
	<path d="M1027,111.4l18.3-20.6l-23.9,16.4c-3.8-2.3-7.7-3.8-11.6-4.3c0,0,3.6,10,6,15.7c0,0,19.9,11.3,18.1,34.6
		c-0.8,11.3-4.2,19.8-6,30.4v0l-11.2-21l9.6,37.8l-21.9-3.3l23.1,11.2c0.8,6.5,2.3,13.9,4.9,22.6c0,0,4.5-5.3,7.7-10.5
		c0,0-8-20.9,2.5-52.1c0.7-2.2,1.3-4.3,1.7-6.5l0,0l13.2-16.4l-12.1,5.1l1.8-40.1l-7.8,16.9C1036,121.1,1031.8,115.6,1027,111.4z"/>
	<path d="M971.6,38.4l-12.8,26.1c-4.4-0.2-8.6,0.5-12.2,2c0,0,8.1,6.9,12.9,10.8c0,0,22.9,0.1,32.8,21.3c4.8,10.3,6,19.3,9.7,29.5
		l0,0L982,115.2l27,28.2l-20.7,7.9l25.6-1.6c3.9,5.2,8.8,10.9,15.3,17.3c0,0,1.3-6.8,1.6-13c0,0-17.2-14.2-23.4-46.6
		c-0.4-2.2-1-4.4-1.7-6.5l0,0l3.4-20.8l-8.1,10.4l-18.1-35.8l1.5,18.6c-5.9-4-12.3-6.7-18.5-8L971.6,38.4z"/>
	<path d="M882.5,58.3c-3.9,2.1-7.2,4.7-9.6,7.8c0,0,10.5,2,16.6,2.9c0,0,19.9-11.2,39,2.2c9.3,6.5,14.8,13.7,23.1,20.7l0,0
		l-23.8-1.1l37.4,11.1l-14,17.1l21.5-14.1c6,2.6,13.1,5.1,21.9,7.4c0,0-2.3-6.6-5.1-12c0,0-22-3.8-43.5-28.8
		c-1.5-1.7-3.1-3.3-4.7-4.8l0,0l-7.4-19.7L932.1,60l-33.5-22.1l10.5,15.4c-7.1-0.5-14,0.3-20.1,2.3l-8.4-26.3L882.5,58.3z"/>
	<path d="M859.7,79c11.3,1,19.7,4.6,30.3,6.6l0,0l-21.2,10.8l38-8.9l-3.7,21.8l11.6-22.9c6.5-0.7,13.9-2.1,22.7-4.4
		c0,0-5.2-4.6-10.4-7.9c0,0-21,7.6-52-3.5c-2.1-0.8-4.3-1.4-6.4-1.8l0,0l-16.2-13.5l4.9,12.2L817.2,65l16.7,8.2
		c-6.4,3.1-12,7.2-16.3,11.9l-20.3-18.6l16,24.2c-2.4,3.7-3.9,7.6-4.5,11.5c0,0,10.1-3.4,15.8-5.7C824.7,96.4,836.4,76.8,859.7,79z"
		/>
	<path d="M801.5,122.8c10.2-5,19.2-6.3,29.3-10.1v0l-12.5,20.3l27.9-27.3l8.2,20.6l-1.9-25.6c5.2-3.9,10.8-9,17.1-15.5
		c0,0-6.8-1.2-13-1.4c0,0-14,17.4-46.3,24c-2.2,0.5-4.4,1.1-6.5,1.8l0,0l-20.8-3.1l10.5,7.9L758,132.8l18.6-1.7
		c-3.9,6-6.5,12.4-7.8,18.6l-27-5.4l26.2,12.4c-0.1,4.4,0.6,8.6,2.1,12.1c0,0,6.8-8.2,10.6-13.1C780.7,155.8,780.5,133,801.5,122.8z
		"/>
	<path d="M774.8,187.9c6.3-9.4,13.4-15.1,20.3-23.5v0l-0.6,23.8l10.4-37.6l17.4,13.7l-14.6-21.2c2.5-6,4.8-13.2,6.9-22
		c0,0-6.5,2.4-11.9,5.3c0,0-3.4,22.1-27.9,44c-1.7,1.5-3.3,3.1-4.7,4.8l0,0l-19.6,7.8l13.1,1.6l-21.4,34l15.2-10.8
		c-0.4,7.1,0.6,14,2.7,20l-26.1,8.9l28.9-2.4c2.1,3.9,4.8,7.1,7.9,9.4c0,0,1.8-10.5,2.6-16.6C773.4,227,761.8,207.3,774.8,187.9z"/>
	<path d="M792.3,300.2l-17.9,20.9l23.7-16.8c3.8,2.3,7.8,3.7,11.6,4.1c0,0-3.8-10-6.2-15.6c0,0-20-11-18.7-34.4
		c0.7-11.3,3.9-19.8,5.6-30.5v0l11.5,20.9L791.7,211l21.9,2.9l-23.3-10.8c-0.9-6.4-2.5-13.8-5.2-22.5c0,0-4.4,5.4-7.6,10.6
		c0,0,8.3,20.7-1.7,52.1c-0.7,2.2-1.2,4.3-1.6,6.5l0,0l-12.9,16.6l12.1-5.3l-1.2,40.1l7.6-17C783.1,290.6,787.5,296,792.3,300.2z"/>
	<path d="M850.6,372.9l12.1-26.4c4.4,0.1,8.6-0.7,12.1-2.3c0,0-8.3-6.7-13.2-10.4c0,0-22.9,0.5-33.3-20.4
		c-5.1-10.2-6.5-19.1-10.5-29.2l0,0l20.4,12.3l-27.7-27.5l20.5-8.5l-25.6,2.3c-4-5.1-9.1-10.7-15.8-16.9c0,0-1.1,6.8-1.2,13
		c0,0,17.6,13.8,24.6,46c0.5,2.2,1.1,4.4,1.9,6.4l0,0l-2.9,20.9l7.8-10.6l19.1,35.3l-2-18.5c6,3.8,12.5,6.4,18.7,7.5L850.6,372.9z"
		/>
	<path d="M941.2,350.3c3.8-2.2,7-5,9.3-8.1c0,0-10.5-1.6-16.7-2.3c0,0-19.4,12-39.1-0.6c-9.6-6.1-15.4-13.1-23.9-19.8l0,0l23.8,0.2
		l-37.8-9.6l13.3-17.7l-20.9,15c-6.1-2.4-13.3-4.6-22.2-6.5c0,0,2.5,6.5,5.5,11.8c0,0,22.1,2.9,44.6,27c1.6,1.7,3.2,3.2,4.9,4.6l0,0
		l8.1,19.4l1.3-13.1l34.4,20.7l-11.1-15c7.1,0.2,14-0.9,20-3.1l9.4,25.9L941.2,350.3z"/>
	<path d="M963.3,328.7c-11.3-0.6-19.8-3.8-30.6-5.4v0l20.8-11.7l-37.6,10.4l2.8-22L908,323.5c-6.4,0.9-13.8,2.6-22.5,5.4
		c0,0,5.4,4.4,10.7,7.5c0,0,20.7-8.4,52.1,1.3c2.2,0.7,4.3,1.2,6.5,1.6l0,0l16.7,12.8l-5.4-12l40.1,0.9l-17.1-7.5
		c6.3-3.3,11.7-7.7,15.8-12.6l21,17.8l-17-23.6c2.2-3.8,3.6-7.8,4-11.7c0,0-9.9,3.8-15.6,6.3C997.5,309.8,986.6,329.9,963.3,328.7z"
		/>
	<path d="M1017.4,285.5c-10.2,5.1-19.1,6.5-29.2,10.5v0l12.3-20.4L973,303.3l-8.5-20.5l2.3,25.6c-5.1,4-10.7,9.1-16.9,15.8
		c0,0,6.8,1.1,13,1.2c0,0,13.8-17.6,46-24.6c2.2-0.5,4.4-1.1,6.4-1.9l0,0l20.9,2.9l-10.6-7.8l35.3-19.1l-18.5,2
		c3.8-6,6.4-12.5,7.5-18.7l27.1,5.1l-26.4-12.1c0-4.4-0.7-8.6-2.3-12.1c0,0-6.7,8.3-10.4,13.2
		C1037.8,252.2,1038.3,275.1,1017.4,285.5z"/>
</g>
<g>
	<path d="M700.6,191.3l-3.8,2.1l4,0.3c0,1.1,0,2.2,0,3.4l-8.1,0.8l7.6,3.6c-0.8,4.5-2.6,9.2-5.9,14c-4.6,6.6-9.5,11.3-14.5,16.4
		l-6.2-4.1l3.1,7.4c-1.5,1.6-2.9,3.3-4.4,5.1l-16.9-9.9l13.6,14.4c-0.7,1-1.4,2.1-2.2,3.3l-25.1-13.5l22.2,18.5
		c-0.4,0.7-0.8,1.5-1.2,2.3l-11.7-4.6l9.5,9.4c-0.7,1.6-1.3,3.2-2,5l-20.1,0.8l18.2,4.6c-1.1,3.4-2.2,7.2-3.3,11.3
		c0,0,6.5-2.3,12-5.1c0,0,3.7-22,28.6-43.6c1.5-1.3,2.9-2.6,4.2-4l6.2,3.2l-3.9-5.9c0.5-0.6,0.9-1.2,1.4-1.8l17,7.7l-14.2-12.1
		c0.2-0.3,0.4-0.7,0.6-1l21.6,6.9l-19.3-11.7c0.3-0.6,0.5-1.2,0.7-1.8l12.7-1.4l-11.1-3.4c0.5-1.7,0.9-3.4,1.2-5.1l8.6-0.3l-7.9-4.8
		c0.2-1.7,0.2-3.4,0.2-5.1l18.8-2.8l-19.1-2.7c-0.1-1.2-0.3-2.4-0.5-3.5l14.3-7.7l-15,3.9c-0.4-1.5-0.8-3-1.3-4.4l9.6-10.6
		l-10.9,7.4c-2.2-5-5.3-9.2-9-12c0,0-2,10.5-2.8,16.6C696.2,176.4,699.7,182.6,700.6,191.3z"/>
	<path d="M678.5,103.6l2.9-14l-5.6,11.9c-4.4-3.2-9.2-5.2-13.8-5.8c0,0,3.6,10,5.9,15.7c0,0,6.1,3.5,11.3,10.7l-2.2,3.8l3.6-1.7
		c0.6,0.9,1.1,1.9,1.7,2.9l-6.6,4.8l8.4-0.7c1.6,4.3,2.4,9.3,2,15c-0.6,8-2.5,14.6-4.2,21.5l-7.4-0.4l6.4,4.8
		c-0.5,2.1-0.9,4.3-1.2,6.6l-19.6,0l19,5.5c-0.1,1.3-0.2,2.6-0.2,3.9l-28.5,1l28.5,4.7c0,0.8,0.1,1.7,0.1,2.5l-12.4,2l13,3.3
		c0.2,1.7,0.5,3.5,0.8,5.3l-16.9,10.8l18-5.2c0.8,3.5,1.7,7.3,2.9,11.4c0,0,4.5-5.3,7.8-10.5c0,0-7.9-20.9,2.6-52.1
		c0.6-1.9,1.1-3.7,1.5-5.6l7-0.4l-6.3-3.1c0.1-0.7,0.2-1.5,0.3-2.2l18.6-2l-18.3-3.3c0-0.4,0-0.8,0-1.2l22.1-5l-22.6-0.3
		c-0.1-0.6-0.2-1.3-0.3-1.9l10.2-7.6l-11.3,2.7c-0.4-1.7-1-3.3-1.5-5l7.2-4.6l-9.2-0.2c-0.7-1.6-1.5-3.1-2.4-4.5l14.8-11.9
		l-17.8,7.3c-0.7-1-1.4-1.9-2.2-2.8l8.4-13.8l-11,11C680.8,105.6,679.7,104.6,678.5,103.6z"/>
	<path d="M626.4,44.4l-4.1,15c-1.5-0.4-3-0.8-4.5-1.1l-4.4-13.6l1,13.1c-5.4-0.6-10.6,0-14.9,1.8c0,0,8.1,6.9,12.9,10.8
		c0,0,7.1,0,15.1,3.7l-0.1,4.4l2.3-3.3c1,0.5,1.9,1.1,2.9,1.7l-3.4,7.4l6.9-4.8c3.5,3,6.7,6.9,9.1,12.1c3.4,7.3,5,13.9,7,20.8
		l-6.7,3.3l8,1c0.6,2.1,1.4,4.2,2.2,6.3l-17,9.7l19.3-4.5c0.5,1.2,1.1,2.3,1.8,3.5l-24.3,14.9l27.2-10c0.4,0.7,0.9,1.4,1.4,2.1
		l-9.9,7.8l12.9-3.5c1,1.4,2.1,2.8,3.3,4.2l-9.4,17.7l13.1-13.4c2.4,2.7,5.1,5.5,8.2,8.5c0,0,1.3-6.8,1.6-13
		c0,0-17.2-14.2-23.4-46.6c-0.4-1.9-0.9-3.8-1.4-5.6l5.9-3.8l-7,0.4c-0.3-0.7-0.6-1.4-0.9-2.1L672,78.6l-17.6,6.2
		c-0.2-0.3-0.4-0.7-0.6-1l16.8-15.3l-19.8,10.8c-0.4-0.5-0.8-1-1.2-1.5l5.1-11.7l-8.5,7.9c-1.2-1.2-2.5-2.4-3.8-3.5l4-7.6l-8.1,4.4
		c-1.4-1-2.9-1.9-4.3-2.8l7-17.7L629.2,62c-1.1-0.5-2.2-1-3.3-1.4L626.4,44.4z"/>
	<path d="M545.3,47.8c-1.5,0.4-3,0.8-4.4,1.3l-10.7-9.6l7.4,10.8c-5,2.2-9.1,5.3-12,9c0,0,10.5,1.9,16.6,2.8c0,0,6.1-3.5,14.9-4.4
		l2.1,3.8l0.3-4c1.1,0,2.2,0,3.4,0l0.8,8.1l3.6-7.6c4.5,0.8,9.3,2.6,14,5.8c6.6,4.6,11.3,9.5,16.5,14.4l-4.1,6.2l7.4-3.1
		c1.6,1.5,3.3,2.9,5.1,4.4l-9.8,17l14.3-13.6c1.1,0.7,2.2,1.4,3.3,2.1l-13.5,25.1L619,94.2c0.7,0.4,1.5,0.8,2.3,1.1l-4.6,11.7
		l9.4-9.5c1.6,0.7,3.2,1.3,5,2l0.8,20.1l4.5-18.2c3.4,1.1,7.2,2.2,11.3,3.2c0,0-2.3-6.5-5.2-12c0,0-22-3.6-43.7-28.4
		c-1.3-1.5-2.7-2.9-4.1-4.1l3.2-6.2l-5.8,3.9c-0.6-0.5-1.2-0.9-1.8-1.4l7.6-17.1l-12.1,14.2c-0.3-0.2-0.7-0.4-1-0.6l6.8-21.7
		l-11.6,19.3c-0.6-0.3-1.2-0.5-1.8-0.7l-1.4-12.7l-3.3,11.1c-1.7-0.5-3.4-0.8-5.1-1.2l-0.4-8.6l-4.8,7.9c-1.7-0.2-3.4-0.2-5.1-0.2
		l-2.8-18.8l-2.6,19.1c-1.2,0.1-2.4,0.3-3.5,0.5l-7.7-14.2L545.3,47.8z"/>
	<path d="M477.8,90.4c0,0,3.5-6.1,10.7-11.3l3.8,2.2l-1.7-3.6c0.9-0.6,1.9-1.1,2.9-1.7l4.8,6.6l-0.7-8.4c4.3-1.6,9.3-2.4,15-2
		c8,0.6,14.6,2.5,21.5,4.2l-0.4,7.4l4.8-6.4c2.1,0.5,4.3,0.9,6.6,1.2l0,19.6l5.6-19c1.3,0.1,2.6,0.2,3.9,0.2l1,28.5l4.7-28.5
		c0.8,0,1.7-0.1,2.5-0.1l2,12.4l3.3-13c1.7-0.2,3.5-0.5,5.3-0.8L584,95l-5.2-18c3.5-0.8,7.3-1.7,11.4-2.9c0,0-5.3-4.5-10.5-7.8
		c0,0-20.9,7.9-52.1-2.6c-1.9-0.6-3.7-1.1-5.6-1.5l-0.4-7l-3.1,6.3c-0.7-0.1-1.5-0.2-2.2-0.3l-2-18.6L511,61.1c-0.4,0-0.8,0-1.2,0
		l-5-22.1l-0.3,22.6c-0.6,0.1-1.3,0.2-1.9,0.3l-7.6-10.2l2.7,11.3c-1.7,0.4-3.3,1-5,1.5l-4.6-7.2l-0.2,9.2c-1.6,0.7-3.1,1.5-4.5,2.4
		l-11.9-14.8l7.3,17.8c-1,0.7-1.9,1.4-2.8,2.2l-13.8-8.4l11,11c-1.1,1.1-2.2,2.2-3.1,3.3l-14-2.9l11.9,5.6
		c-3.2,4.4-5.2,9.2-5.8,13.8C462,96.4,472.1,92.8,477.8,90.4z"/>
	<path d="M440.5,130.8l4.4,0.1l-3.3-2.3c0.5-1,1.1-1.9,1.7-2.9l7.4,3.4l-4.8-6.9c3-3.5,6.9-6.7,12.1-9.1c7.3-3.4,13.9-5,20.8-7
		l3.3,6.7l1-8c2.1-0.6,4.2-1.4,6.3-2.2l9.7,17l-4.5-19.3c1.2-0.5,2.3-1.1,3.5-1.8l14.9,24.3l-10-27.2c0.7-0.4,1.4-0.9,2.1-1.4
		l7.8,9.9l-3.5-12.9c1.4-1,2.8-2.1,4.2-3.3l17.7,9.4L518,84.4c2.7-2.4,5.5-5.1,8.5-8.1c0,0-6.8-1.3-13-1.6c0,0-14.3,17.2-46.6,23.4
		c-1.9,0.4-3.8,0.8-5.6,1.4l-3.8-5.9l0.4,7c-0.7,0.3-1.4,0.6-2.1,0.9L445,86.3l6.2,17.6c-0.3,0.2-0.7,0.4-1,0.6l-15.3-16.8
		l10.8,19.8c-0.5,0.4-1,0.8-1.5,1.2l-11.7-5.1l7.9,8.5c-1.2,1.2-2.4,2.5-3.5,3.8l-7.6-4l4.4,8.1c-1,1.4-1.9,2.9-2.8,4.3l-17.7-7.1
		l15.2,11.9c-0.5,1.1-1,2.2-1.4,3.3l-16.2-0.5l15,4.2c-0.4,1.5-0.8,3-1.1,4.5l-13.6,4.4l13.1-1c-0.6,5.4,0,10.6,1.8,14.9
		c0,0,6.9-8.1,10.8-12.9C436.7,145.8,436.8,138.8,440.5,130.8z"/>
	<path d="M424.2,200.2l3.8-2.1l-4-0.3c0-1.1,0-2.2,0.1-3.4l8.2-0.7l-7.6-3.6c0.8-4.5,2.6-9.2,5.9-13.9c4.6-6.6,9.6-11.3,14.5-16.4
		l6.2,4.2l-3.1-7.4c1.5-1.6,2.9-3.3,4.4-5.1l16.9,10L456,146.9c0.7-1,1.5-2.1,2.2-3.3l25,13.6L461,138.7c0.4-0.7,0.8-1.5,1.2-2.3
		l11.7,4.6l-9.5-9.4c0.7-1.6,1.3-3.2,2-5l20.1-0.7l-18.2-4.6c1.1-3.4,2.2-7.2,3.3-11.3c0,0-6.6,2.3-12,5.1c0,0-3.8,22-28.7,43.5
		c-1.5,1.3-2.9,2.6-4.2,4l-6.2-3.2l3.9,5.9c-0.5,0.6-0.9,1.2-1.4,1.8l-17-7.7l14.1,12.2c-0.2,0.3-0.4,0.7-0.6,1l-21.6-6.9l19.3,11.8
		c-0.3,0.6-0.5,1.2-0.7,1.8l-12.7,1.4l11.1,3.4c-0.5,1.7-0.9,3.4-1.2,5.1l-8.6,0.3l7.9,4.9c-0.2,1.7-0.2,3.4-0.3,5.1l-18.8,2.7
		l19.1,2.8c0.1,1.2,0.3,2.4,0.5,3.5L399,216l15-3.9c0.4,1.5,0.8,3,1.3,4.4l-9.6,10.6l10.9-7.4c2.2,5,5.2,9.2,8.9,12
		c0,0,2-10.5,2.9-16.6C428.4,215.2,424.9,209,424.2,200.2z"/>
	<path d="M444.9,286.8l-3.1,14l5.8-11.8c4.4,3.2,9.1,5.4,13.7,6c0,0-3.5-10.1-5.7-15.8c0,0-6.1-3.6-11.1-10.8l2.3-3.7l-3.6,1.7
		c-0.6-0.9-1.1-1.9-1.6-2.9l6.7-4.7l-8.4,0.6c-1.5-4.3-2.3-9.3-1.8-15c0.7-8,2.7-14.5,4.5-21.4l7.4,0.5l-6.3-4.9
		c0.5-2.1,0.9-4.3,1.3-6.6l19.6,0.2l-18.9-5.8c0.1-1.3,0.2-2.6,0.2-3.9l28.5-0.6l-28.5-5.1c0-0.8-0.1-1.7-0.1-2.5l12.5-1.8
		l-12.9-3.5c-0.2-1.7-0.4-3.5-0.7-5.3l17.1-10.6l-18.1,5c-0.7-3.6-1.6-7.4-2.7-11.4c0,0-4.6,5.2-7.9,10.4c0,0,7.7,21-3.3,52
		c-0.7,1.9-1.2,3.7-1.6,5.6l-7,0.3l6.3,3.2c-0.1,0.7-0.2,1.5-0.3,2.2l-18.6,1.8l18.3,3.5c0,0.4,0,0.8,0,1.2l-22.2,4.7l22.6,0.6
		c0.1,0.6,0.2,1.3,0.3,1.9l-10.3,7.5l11.3-2.5c0.4,1.7,0.9,3.4,1.5,5l-7.3,4.5l9.2,0.3c0.7,1.6,1.5,3.1,2.3,4.6l-15,11.7l17.9-7.1
		c0.7,1,1.4,1.9,2.1,2.8l-8.6,13.7l11.1-10.8C442.7,284.8,443.8,285.8,444.9,286.8z"/>
	<path d="M496.7,346.9L501,332c1.5,0.5,3,0.8,4.4,1.1l4.2,13.7l-0.8-13.1c5.4,0.6,10.6,0.1,14.9-1.6c0,0-8-7-12.8-10.9
		c0,0-7.1-0.1-15-3.9l0.1-4.4l-2.3,3.3c-1-0.5-1.9-1.1-2.9-1.8l3.5-7.4l-7,4.7c-3.4-3-6.6-7-9-12.2c-3.3-7.3-4.9-14-6.7-20.8
		l6.7-3.2l-8-1.1c-0.6-2.1-1.3-4.2-2.1-6.3l17.1-9.5l-19.3,4.3c-0.5-1.2-1.1-2.3-1.7-3.5l24.4-14.7l-27.3,9.7
		c-0.4-0.7-0.9-1.4-1.4-2.1l9.9-7.7l-12.9,3.4c-1-1.4-2.1-2.8-3.2-4.2l9.6-17.6l-13.2,13.3c-2.4-2.7-5.1-5.6-8.1-8.6
		c0,0-1.4,6.8-1.7,12.9c0,0,17.1,14.4,22.9,46.8c0.4,1.9,0.8,3.8,1.4,5.6l-5.9,3.7l7-0.4c0.3,0.7,0.6,1.4,0.8,2.1l-15.3,10.8l17.6-6
		c0.2,0.3,0.4,0.7,0.6,1l-17,15.1l19.9-10.6c0.4,0.5,0.8,1,1.2,1.5l-5.3,11.6l8.6-7.8c1.2,1.3,2.5,2.5,3.8,3.6l-4.1,7.6l8.2-4.3
		c1.4,1,2.8,2,4.3,2.8l-7.2,17.6l12-15c1.1,0.5,2.2,1,3.3,1.4L496.7,346.9z"/>
	<path d="M532.4,360.6l11.7-19.3c0.6,0.3,1.2,0.5,1.8,0.7l1.4,12.7l3.4-11.1c1.7,0.5,3.4,0.9,5.1,1.2l0.3,8.6l4.8-7.9
		c1.7,0.2,3.4,0.2,5.1,0.2l2.7,18.8l2.7-19.1c1.2-0.1,2.4-0.3,3.5-0.5l7.6,14.3l-3.9-15c1.5-0.4,3-0.8,4.4-1.3l10.6,9.6l-7.4-10.9
		c5-2.2,9.2-5.2,12-9c0,0-10.5-2-16.6-2.9c0,0-6.2,3.5-14.9,4.3l-2.1-3.8l-0.3,4c-1.1,0-2.2,0-3.4-0.1l-0.7-8.2l-3.6,7.6
		c-4.5-0.8-9.2-2.6-13.9-5.9c-6.6-4.6-11.3-9.5-16.4-14.5l4.1-6.2l-7.4,3.1c-1.6-1.5-3.3-2.9-5.1-4.4l9.9-16.9l-14.4,13.6
		c-1-0.7-2.1-1.4-3.3-2.2l13.6-25.1l-18.5,22.2c-0.7-0.4-1.5-0.8-2.3-1.2l4.6-11.7l-9.4,9.5c-1.6-0.7-3.2-1.3-5-2l-0.7-20.1
		l-4.6,18.2c-3.4-1.1-7.2-2.2-11.3-3.3c0,0,2.3,6.5,5.1,12c0,0,22,3.7,43.6,28.6c1.3,1.5,2.6,2.9,4,4.2l-3.2,6.2l5.9-3.9
		c0.6,0.5,1.2,0.9,1.8,1.4l-7.7,17l12.1-14.1c0.3,0.2,0.7,0.4,1,0.6L532.4,360.6z"/>
	<path d="M646,302.3c0,0-3.6,6.1-10.8,11.2l-3.7-2.3l1.7,3.6c-0.9,0.6-1.9,1.1-2.9,1.6l-4.7-6.7l0.7,8.4c-4.3,1.5-9.3,2.3-15,1.9
		c-8-0.7-14.6-2.6-21.5-4.4l0.5-7.4l-4.9,6.4c-2.1-0.5-4.3-0.9-6.6-1.3l0.2-19.6l-5.7,18.9c-1.3-0.1-2.6-0.2-3.9-0.2l-0.7-28.5
		l-5,28.5c-0.8,0-1.7,0.1-2.5,0.1l-1.8-12.5l-3.4,12.9c-1.7,0.2-3.5,0.4-5.3,0.7l-10.7-17l5.1,18c-3.5,0.7-7.3,1.7-11.4,2.8
		c0,0,5.2,4.5,10.4,7.9c0,0,21-7.7,52.1,3.1c1.9,0.6,3.7,1.2,5.6,1.6l0.3,7l3.1-6.3c0.7,0.1,1.5,0.2,2.2,0.3l1.8,18.6l3.5-18.3
		c0.4,0,0.8,0,1.2,0l4.8,22.2L619,331c0.6-0.1,1.3-0.2,1.9-0.3l7.5,10.3l-2.6-11.3c1.7-0.4,3.3-0.9,5-1.5l4.6,7.3l0.3-9.2
		c1.6-0.7,3.1-1.5,4.6-2.4l11.8,14.9l-7.2-17.9c1-0.7,1.9-1.4,2.8-2.2l13.7,8.6l-10.9-11.1c1.1-1.1,2.2-2.2,3.2-3.3l14,3l-11.8-5.7
		c3.2-4.4,5.3-9.1,5.9-13.8C661.8,296.6,651.7,300.1,646,302.3z"/>
	<path d="M699.2,231.8c0,0-6.9,8.1-10.6,13c0,0,0,7.1-3.6,15.1l-4.4,0l3.3,2.2c-0.5,1-1.1,1.9-1.7,2.9l-7.5-3.3l4.9,6.9
		c-2.9,3.5-6.8,6.8-12,9.3c-7.2,3.5-13.9,5.2-20.7,7.2l-3.4-6.6l-1,8c-2.1,0.7-4.2,1.4-6.3,2.3l-9.9-16.9l4.7,19.2
		c-1.1,0.6-2.3,1.2-3.5,1.8l-15.2-24.1l10.3,27c-0.7,0.4-1.4,0.9-2.1,1.4l-7.9-9.8l3.7,12.9c-1.4,1-2.7,2.1-4.2,3.3l-17.8-9.2
		l13.6,12.9c-2.7,2.4-5.5,5.2-8.4,8.2c0,0,6.8,1.2,13,1.4c0,0,14.1-17.4,46.3-23.9c1.9-0.4,3.8-0.9,5.6-1.5l3.8,5.8l-0.5-7
		c0.7-0.3,1.4-0.6,2.1-0.9l11.1,15.1l-6.4-17.5c0.3-0.2,0.7-0.4,1-0.6l15.5,16.6l-11-19.7c0.5-0.4,1-0.8,1.5-1.2l11.7,5l-8-8.4
		c1.2-1.2,2.4-2.5,3.5-3.8l7.6,3.9l-4.5-8.1c1-1.4,1.9-2.9,2.7-4.4l17.7,6.9l-15.3-11.7c0.5-1.1,0.9-2.2,1.3-3.3l16.2,0.4l-15-4
		c0.4-1.5,0.8-3,1-4.5l13.6-4.5l-13.1,1.1C701.6,241.2,701,236.1,699.2,231.8z"/>
</g>
<g>
	<path d="M336.2,589.6c-5,7.2-10.3,12.2-15.7,17.8c-1.3-2.4-4.5-6.4-12-8c0,0,6.5,2.6,6.1,14.7c-2.8,3.3-5.5,7.1-8.1,11.6
		c-1.5-1.1-5.1-3-11-1.3c0,0,4.6-0.5,8.4,6.2c-2.3,4.7-4.6,10.1-6.7,16.5c-1.5-0.1-4.5,0.3-7.6,3.6c0,0,2.3-1.7,6.5,0
		c-0.7,2.5-1.5,5.1-2.2,7.8c0,0,6.8-2.4,12.5-5.3c0,0,3.9-22.9,29.7-45.4c2.3-2,4.3-4.1,6.1-6.3c5.5,0.7,6.5,3.9,6.5,3.9
		c-0.7-4.3-2.7-6.2-4.1-7.1c4.1-5.9,6.9-12.3,8.5-18.9c7.6-3.1,11,0.5,11,0.5c-4-5.8-8.6-6.2-9.9-6.1c1.2-8.2,0.6-16.3-1.5-23.4
		c6.9-7.6,12.8-5.6,12.8-5.6c-7.9-4.2-13.3-2.3-15.3-1.3c-2.3-4.8-5.3-8.8-8.9-11.6c0,0-2,10.9-2.9,17.2
		C338.3,549,350.1,569.7,336.2,589.6z"/>
	<path d="M317,471.3c-4.4-3-9-5-13.5-5.6c0,0,3.7,10.5,6,16.4c0,0,20.5,12,18.5,36.2c-0.7,8.7-2.9,15.7-4.8,23.2
		c-2.3-1.4-7.1-3.3-14.5-1c0,0,6.9-1,12.6,9.7c-0.7,4.3-1.2,8.9-1.3,14.2c-1.8-0.2-5.9-0.1-10.2,4.3c0,0,3.8-2.7,10.4,1.2
		c0.3,5.2,1.1,11,2.5,17.7c-1.3,0.7-3.8,2.5-4.8,6.9c0,0,1.1-2.7,5.6-3.3c0.6,2.5,1.3,5.1,2,7.9c0,0,4.7-5.5,8.2-10.8
		c0,0-8.1-21.8,3.2-54.1c1-2.8,1.7-5.7,2.2-8.5c5.1-2.1,7.6,0.1,7.6,0.1c-2.7-3.4-5.5-4-7.1-4.1c0.7-7.1-0.2-14.1-2.1-20.6
		c5.1-6.5,9.8-5.1,9.8-5.1c-6.3-3.1-10.5-1.1-11.6-0.4c-3.1-7.7-7.6-14.4-12.9-19.5c2.2-10,8.3-11.3,8.3-11.3
		C322.1,465.1,318.3,469.5,317,471.3z"/>
	<path d="M252.3,425.3c-5.3-0.5-10.3,0.1-14.5,1.9c0,0,8.4,7.2,13.4,11.2c0,0,23.8,0.2,34.1,22.2c3.7,7.9,5.3,15.1,7.5,22.5
		c-2.7-0.1-7.8,0.7-13,6.4c0,0,5.5-4.3,15.7,2.1c1.5,4.1,3.4,8.3,6,12.9c-1.7,0.7-5.1,2.9-6.7,8.8c0,0,1.9-4.2,9.6-4.1
		c2.9,4.3,6.4,9,11,14.1c-0.8,1.3-2,4-0.7,8.4c0,0-0.4-2.8,3.2-5.6c1.8,1.9,3.6,3.8,5.7,5.8c0,0,1.4-7.1,1.7-13.5
		c0,0-17.9-14.8-24.3-48.5c-0.6-3-1.4-5.8-2.4-8.5c3.3-4.4,6.6-3.7,6.6-3.7c-4-1.6-6.8-0.8-8.2,0c-3-6.5-7.2-12.2-12.1-16.8
		c1.2-8.1,5.9-9.3,5.9-9.3c-7,0.5-9.6,4.3-10.3,5.5c-6.5-5.1-13.8-8.7-21-10.5c-3.1-9.8,1.5-13.9,1.5-13.9
		C253.5,417.4,252.4,423.1,252.3,425.3z"/>
	<path d="M159.9,427.1c0,0,10.9,2,17.3,2.8c0,0,20.5-11.9,40.6,1.7c7.2,4.9,12.3,10.2,17.9,15.6c-2.4,1.3-6.3,4.5-8,12.1
		c0,0,2.6-6.5,14.6-6.2c3.3,2.7,7.1,5.5,11.7,8.1c-1.1,1.5-2.9,5.1-1.3,11c0,0-0.5-4.6,6.2-8.4c4.7,2.3,10.1,4.5,16.6,6.5
		c-0.1,1.5,0.3,4.5,3.7,7.6c0,0-1.8-2.3-0.1-6.5c2.5,0.7,5.1,1.4,7.8,2.1c0,0-2.4-6.8-5.4-12.4c0,0-22.9-3.7-45.6-29.4
		c-2-2.3-4.1-4.3-6.4-6.1c0.6-5.5,3.8-6.6,3.8-6.6c-4.2,0.7-6.2,2.8-7.1,4.1c-5.9-4.1-12.4-6.8-19-8.3c-3.1-7.6,0.4-11,0.4-11
		c-5.8,4-6.1,8.6-6,10c-8.2-1.1-16.3-0.4-23.4,1.6c-7.6-6.8-5.7-12.7-5.7-12.7c-4.1,7.9-2.2,13.4-1.1,15.3
		C166.7,420.4,162.7,423.4,159.9,427.1z"/>
	<path d="M111.1,458.7c0,0,12-20.5,36.2-18.5c8.7,0.7,15.7,2.9,23.2,4.7c-1.4,2.3-3.3,7.1-0.9,14.5c0,0-1-6.9,9.7-12.6
		c4.3,0.7,8.9,1.2,14.2,1.2c-0.2,1.8,0,5.9,4.3,10.2c0,0-2.7-3.8,1.2-10.4c5.2-0.3,11-1.1,17.6-2.5c0.7,1.3,2.5,3.8,6.9,4.8
		c0,0-2.7-1.1-3.3-5.6c2.5-0.6,5.1-1.3,7.9-2c0,0-5.5-4.7-10.9-8.1c0,0-21.8,8.1-54.1-3c-2.8-1-5.7-1.7-8.5-2.2
		c-2.1-5.1,0.1-7.6,0.1-7.6c-3.3,2.7-4,5.5-4.1,7.1c-7.1-0.6-14.1,0.2-20.6,2.1c-6.5-5.1-5.1-9.8-5.1-9.8c-3.1,6.3-1,10.5-0.3,11.6
		c-7.7,3.1-14.4,7.7-19.5,13c-10-2.2-11.3-8.2-11.3-8.2c0.3,8.9,4.7,12.7,6.6,13.9c-3,4.4-5,9-5.6,13.5
		C94.7,464.8,105.2,461.1,111.1,458.7z"/>
	<path d="M89.1,483.8c7.9-3.8,15-5.5,22.5-7.7c-0.1,2.7,0.7,7.8,6.5,13c0,0-4.3-5.5,2-15.7c4.1-1.5,8.3-3.4,12.8-6.1
		c0.7,1.7,2.9,5.1,8.9,6.6c0,0-4.2-1.9-4.2-9.6c4.3-2.9,8.9-6.5,14-11.1c1.3,0.8,4,2,8.4,0.6c0,0-2.8,0.4-5.7-3.2
		c1.9-1.8,3.8-3.7,5.8-5.7c0,0-7.1-1.3-13.5-1.5c0,0-14.7,18-48.3,24.7c-3,0.6-5.8,1.4-8.5,2.4c-4.4-3.3-3.8-6.6-3.8-6.6
		c-1.5,4-0.7,6.8,0,8.2c-6.5,3.1-12.1,7.3-16.7,12.2c-8.1-1.1-9.3-5.8-9.3-5.8c0.6,7,4.4,9.6,5.6,10.2c-5.1,6.5-8.5,13.9-10.3,21
		c-9.7,3.2-13.9-1.4-13.9-1.4c4.8,7.5,10.5,8.6,12.7,8.7c-0.4,5.3,0.2,10.3,2,14.5c0,0,7.2-8.4,11.1-13.5
		C67.2,518,67.2,494.2,89.1,483.8z"/>
	<path d="M60.9,549.9c4.9-7.2,10.3-12.2,15.6-17.8c1.3,2.4,4.5,6.4,12.1,8c0,0-6.5-2.6-6.1-14.6c2.8-3.3,5.5-7.1,8.1-11.7
		c1.5,1.1,5.1,3,11,1.3c0,0-4.6,0.5-8.4-6.2c2.3-4.7,4.5-10.1,6.6-16.6c1.5,0.1,4.5-0.3,7.6-3.6c0,0-2.3,1.8-6.5,0.1
		c0.7-2.5,1.4-5.1,2.1-7.8c0,0-6.8,2.4-12.4,5.4c0,0-3.7,22.9-29.5,45.5c-2.3,2-4.3,4.1-6.1,6.3c-5.5-0.6-6.6-3.8-6.6-3.8
		c0.7,4.3,2.8,6.2,4.1,7.1c-4.1,5.9-6.8,12.4-8.4,18.9c-7.6,3.1-11-0.4-11-0.4c4,5.8,8.6,6.1,9.9,6.1c-1.1,8.2-0.5,16.3,1.6,23.4
		c-6.9,7.6-12.7,5.7-12.7,5.7c7.9,4.1,13.4,2.2,15.3,1.2c2.3,4.8,5.3,8.8,9,11.5c0,0,2-10.9,2.9-17.2
		C59.1,590.5,47.2,569.9,60.9,549.9z"/>
	<path d="M81.5,669c4.4,3,9,4.9,13.6,5.4c0,0-3.8-10.4-6.2-16.3c0,0-20.7-11.8-18.9-36c0.6-8.7,2.7-15.7,4.5-23.3
		c2.3,1.4,7.1,3.2,14.5,0.8c0,0-6.9,1-12.7-9.5c0.7-4.3,1.1-8.9,1.1-14.2c1.8,0.2,5.9,0,10.2-4.4c0,0-3.7,2.7-10.4-1.1
		c-0.4-5.2-1.2-11-2.7-17.6c1.3-0.7,3.7-2.5,4.7-7c0,0-1.1,2.7-5.6,3.3c-0.6-2.5-1.3-5.1-2.1-7.8c0,0-4.6,5.5-8,10.9
		c0,0,8.3,21.7-2.5,54.2c-1,2.9-1.6,5.7-2.1,8.6c-5,2.2-7.6,0-7.6,0c2.7,3.3,5.5,4,7.1,4c-0.6,7.2,0.3,14.1,2.3,20.6
		c-5,6.5-9.7,5.2-9.7,5.2c6.4,3,10.5,0.9,11.6,0.2c3.2,7.6,7.8,14.3,13.2,19.4c-2.1,10-8.1,11.4-8.1,11.4
		C76.5,675.3,80.3,670.9,81.5,669z"/>
	<path d="M145.8,713.8c5.3,0.4,10.3-0.2,14.5-2c0,0-8.4-7.2-13.5-11.1c0,0-23.8,0-34.2-22c-3.7-7.9-5.4-15-7.6-22.5
		c2.7,0.1,7.8-0.7,13-6.4c0,0-5.5,4.3-15.7-2c-1.5-4.1-3.4-8.3-6-12.9c1.7-0.7,5.1-2.9,6.6-8.9c0,0-1.9,4.2-9.6,4.2
		c-2.9-4.3-6.5-9-11-14c0.8-1.3,2-4,0.7-8.4c0,0,0.4,2.8-3.2,5.7c-1.8-1.9-3.7-3.8-5.7-5.8c0,0-1.3,7.1-1.6,13.5
		c0,0,17.9,14.7,24.6,48.3c0.6,3,1.4,5.8,2.4,8.5c-3.3,4.4-6.6,3.7-6.6,3.7c4,1.5,6.8,0.7,8.2,0c3,6.5,7.3,12.1,12.2,16.8
		c-1.1,8.1-5.9,9.3-5.9,9.3c7-0.5,9.6-4.4,10.2-5.6c6.5,5.1,13.9,8.6,21,10.4c3.1,9.8-1.5,13.9-1.5,13.9
		C144.6,721.7,145.7,716,145.8,713.8z"/>
	<path d="M195.2,725c8.2,1.1,16.3,0.5,23.4-1.6c7.6,6.9,5.7,12.7,5.7,12.7c4.1-7.9,2.2-13.4,1.2-15.3c4.8-2.3,8.8-5.3,11.5-9
		c0,0-10.9-2-17.2-2.9c0,0-20.6,11.9-40.6-1.8c-7.2-4.9-12.2-10.3-17.9-15.6c2.4-1.3,6.4-4.5,8-12.1c0,0-2.6,6.5-14.6,6.2
		c-3.3-2.8-7.1-5.5-11.7-8.1c1.1-1.5,3-5.1,1.3-11c0,0,0.5,4.6-6.2,8.4c-4.7-2.3-10.1-4.5-16.6-6.6c0.1-1.5-0.3-4.5-3.6-7.6
		c0,0,1.8,2.3,0.1,6.5c-2.5-0.7-5.1-1.4-7.8-2.1c0,0,2.4,6.8,5.4,12.4c0,0,22.9,3.7,45.5,29.5c2,2.3,4.1,4.3,6.3,6.1
		c-0.6,5.5-3.8,6.6-3.8,6.6c4.3-0.7,6.2-2.8,7.1-4.1c5.9,4.1,12.4,6.8,18.9,8.4c3.1,7.6-0.4,11-0.4,11
		C195,730.9,195.3,726.3,195.2,725z"/>
	<path d="M250.6,698.4c-8.7-0.7-15.7-2.8-23.3-4.6c1.4-2.3,3.2-7.1,0.9-14.5c0,0,1,6.9-9.6,12.6c-4.3-0.7-8.9-1.2-14.2-1.2
		c0.2-1.8,0-5.9-4.4-10.2c0,0,2.7,3.7-1.2,10.4c-5.2,0.3-11,1.1-17.6,2.6c-0.7-1.3-2.5-3.8-6.9-4.8c0,0,2.7,1.1,3.3,5.6
		c-2.5,0.6-5.1,1.3-7.8,2.1c0,0,5.5,4.7,10.9,8.1c0,0,21.7-8.2,54.1,2.8c2.9,1,5.7,1.7,8.5,2.1c2.2,5.1,0,7.6,0,7.6
		c3.3-2.7,4-5.5,4.1-7.1c7.1,0.6,14.1-0.3,20.6-2.2c6.5,5,5.2,9.7,5.2,9.7c3-6.4,1-10.5,0.3-11.6c7.6-3.1,14.4-7.7,19.5-13.1
		c10,2.1,11.3,8.2,11.3,8.2c-0.4-8.9-4.8-12.7-6.7-13.9c3-4.4,4.9-9,5.5-13.6c0,0-10.4,3.7-16.4,6.2
		C286.7,679.7,274.8,700.3,250.6,698.4z"/>
	<path d="M330.8,618.9c0,0,0.4,23.8-21.4,34.6c-7.8,3.9-14.9,5.7-22.3,8c0-2.7-0.9-7.8-6.7-12.9c0,0,4.4,5.4-1.7,15.8
		c-4,1.6-8.2,3.5-12.8,6.3c-0.8-1.7-3-5.1-9-6.5c0,0,4.3,1.8,4.3,9.5c-4.3,3-8.8,6.6-13.8,11.3c-1.3-0.8-4.1-1.9-8.4-0.5
		c0,0,2.8-0.4,5.7,3.1c-1.8,1.8-3.7,3.7-5.7,5.8c0,0,7.1,1.2,13.5,1.3c0,0,14.4-18.2,47.9-25.4c2.9-0.6,5.8-1.5,8.4-2.6
		c4.5,3.2,3.9,6.5,3.9,6.5c1.5-4.1,0.6-6.8-0.1-8.2c6.4-3.2,12-7.5,16.5-12.5c8.2,1,9.4,5.7,9.4,5.7c-0.7-7-4.5-9.5-5.7-10.1
		c5-6.6,8.3-14,10-21.2c9.7-3.3,13.9,1.2,13.9,1.2c-4.9-7.4-10.6-8.4-12.8-8.5c0.3-5.3-0.4-10.3-2.2-14.5
		C341.7,605.2,334.7,613.8,330.8,618.9z"/>
</g>
<g>
	<path d="M690.4,570.2c-5.9,9.8-12.7,15.8-19.2,24.5l-33.1-7.6l22,28.2c-2.4,6.4-4.5,14-6.3,23.5c0,0,6.4-2.7,11.6-5.9
		c0,0,2.3-22.2,25.7-45.4c1.6-1.6,3.1-3.3,4.4-5l20.1,0.5l-12.1-15.4c2-5.8,3-11.8,3-17.7l30.5-15.4l-33.8-4
		c-2.6-7.1-6.8-12.9-11.9-16.3c0,0-1.3,10.6-1.8,16.7C689.8,531.1,702.4,550.2,690.4,570.2z"/>
	<path d="M582.5,419.5c0,0,8.6,6.2,13.8,9.6c0,0,22.8-1.8,34.5,18.4c5.7,9.9,7.7,18.8,12.2,28.6l-22.6,25.3l35.3-5.7
		c4.4,5.1,10.1,10.7,17.6,16.8c0,0,0.7-6.9,0.5-13c0,0-18.4-12.7-27.3-44.4c-0.6-2.2-1.4-4.3-2.2-6.3l10.1-17.4l-19.3,3.2
		c-4.1-4.6-8.9-8.3-14-11.2l1.3-34.2L602.5,417C595.1,415.9,588,416.7,582.5,419.5z"/>
	<path d="M464,459.7c0,0,9.9-20.6,33.2-20.6c11.4,0,20.1,2.8,30.9,3.8l10.5,32.2l12.9-33.4c6.7-1.2,14.3-3.4,23.4-6.7
		c0,0-5.6-4.1-11-7c0,0-20.2,9.5-52.1,1.3c-2.2-0.6-4.4-1-6.6-1.2l-10-17.5l-7,18.3c-6,1.3-11.7,3.5-16.7,6.5l-28.9-18.3l14,31.1
		c-4.7,5.9-7.6,12.4-7.8,18.6C448.8,466.8,458.5,462.4,464,459.7z"/>
	<path d="M422.9,550.6c5.7-9.9,12.5-16,18.8-24.8l33.2,7.1l-22.5-27.9c2.3-6.4,4.3-14.1,5.9-23.6c0,0-6.3,2.8-11.6,6.1
		c0,0-1.9,22.3-25,45.8c-1.6,1.6-3,3.3-4.3,5.1l-20.1-0.2l12.3,15.2c-1.9,5.9-2.8,11.9-2.8,17.7l-30.3,15.9l33.9,3.5
		c2.8,7,7,12.8,12.2,16.1c0,0,1.1-10.6,1.5-16.8C424,589.6,411.1,570.8,422.9,550.6z"/>
	<path d="M528.1,698.6c0,0-8.5-6.4-13.6-9.9c0,0-22.8,1.4-34.1-19.1c-5.5-10-7.3-18.9-11.6-28.9l23.1-24.8l-35.5,4.9
		c-4.3-5.2-9.9-10.9-17.2-17.2c0,0-0.9,6.9-0.7,13c0,0,18.1,13.1,26.4,45c0.6,2.2,1.3,4.3,2.1,6.3l-10.5,17.2l19.4-2.8
		c4,4.7,8.8,8.5,13.8,11.5l-2,34.2l20.4-27.3C515.5,702,522.5,701.4,528.1,698.6z"/>
	<path d="M647.6,660.6c0,0-10.2,20.4-33.6,20c-11.4-0.2-20-3.2-30.8-4.4l-9.9-32.4L559.8,677c-6.7,1.1-14.4,3.1-23.5,6.3
		c0,0,5.5,4.2,10.9,7.2c0,0,20.4-9.1,52.2-0.4c2.2,0.6,4.4,1,6.5,1.3l9.7,17.7l7.3-18.1c6.1-1.2,11.7-3.3,16.8-6.2l28.6,18.8
		l-13.4-31.3c4.8-5.8,7.8-12.3,8.2-18.5C663,653.8,653.2,658,647.6,660.6z"/>
	<path d="M648.9,451.1c0,0,4.4,9.7,7.1,15.2c0,0,20.7,9.8,20.7,33.2c0,15.3-4.9,25.7-3.9,42.9l-11.4,11.3l13.2,2
		c1.3,6.2,3.3,13.3,6.4,21.4c0,0,4.1-5.6,6.9-11.1c0,0-9.5-20.2-1.5-52.1c0.6-2.2,0.9-4.4,1.2-6.6l17.5-10l-18.3-6.9
		c-1.3-6-3.6-11.7-6.6-16.7l18.2-29l-31,14.1C661.6,454.2,655,451.4,648.9,451.1z"/>
	<path d="M667.9,634.4c-13.3,7.5-24.8,8.3-39.3,17.7l-15.5-4.3l4.8,12.5c-4.8,4.2-9.9,9.4-15.5,16.1c0,0,6.9,0.8,13,0.6
		c0,0,12.9-18.3,44.7-26.9c2.2-0.6,4.3-1.3,6.3-2.2l17.3,10.3l-3-19.3c4.6-4.1,8.4-8.9,11.3-13.9l34.2,1.5l-27.5-20
		c1.2-7.5,0.4-14.5-2.4-20c0,0-6.3,8.6-9.7,13.7C686.6,600,688.2,622.8,667.9,634.4z"/>
	<path d="M508.4,425.6c0,0,10.6,1,16.8,1.4c0,0,18.8-13.1,39.1-1.5c13.3,7.6,19.9,17,35.3,24.7l4.2,15.5l8.2-10.5
		c6,2,13.2,3.7,21.8,5.1c0,0-2.9-6.3-6.2-11.5c0,0-22.3-1.7-46-24.6c-1.6-1.6-3.3-3-5.1-4.3l0-20.1l-15.1,12.5
		c-5.9-1.9-11.9-2.7-17.8-2.6l-16.2-30.2l-3.1,33.9C517.4,416.1,511.7,420.4,508.4,425.6z"/>
	<path d="M445,485.1c13.2-7.6,24.7-8.5,39.2-18l15.5,4.2l-4.9-12.4c4.7-4.2,9.8-9.5,15.4-16.2c0,0-6.9-0.7-13-0.5
		c0,0-12.8,18.3-44.5,27.2c-2.2,0.6-4.3,1.4-6.3,2.2L429,461.4l3.1,19.3c-4.6,4.1-8.3,8.9-11.2,14l-34.2-1.3l27.7,19.9
		c-1.1,7.5-0.3,14.5,2.5,20c0,0,6.2-8.6,9.6-13.8C426.6,519.5,424.8,496.7,445,485.1z"/>
	<path d="M463.3,666.6c0,0-4.3-9.8-7-15.3c0,0-20.5-10-20.3-33.4c0.1-15.3,5.2-25.6,4.4-42.9l11.5-11.2l-13.2-2.1
		c-1.2-6.2-3.2-13.3-6.2-21.5c0,0-4.1,5.6-7,11c0,0,9.3,20.3,0.9,52.1c-0.6,2.2-1,4.4-1.3,6.5l-17.6,9.8l18.2,7.1
		c1.2,6,3.4,11.7,6.4,16.8l-18.5,28.8l31.2-13.7C450.6,663.3,457.1,666.2,463.3,666.6z"/>
	<path d="M582.2,739.9L586,706c7.1-2.7,12.8-6.8,16.2-12c0,0-10.6-1.2-16.7-1.7c0,0-19,12.7-39.1,0.7c-13.1-7.8-19.5-17.4-34.8-25.4
		l-3.9-15.6l-8.5,10.3c-6-2.1-13.1-3.9-21.7-5.5c0,0,2.7,6.4,5.9,11.6c0,0,22.2,2.2,45.5,25.5c1.6,1.6,3.3,3.1,5,4.4l-0.4,20.1
		l15.3-12.2c5.8,2,11.9,2.9,17.7,3L582.2,739.9z"/>
</g>
<path d="M177.6,359.8l12.8-10.2c2.1,0.7,4.3,1.3,6.5,1.8l-5.8,64.8l10.7-63.1l-0.7-0.9c5.6,0.7,11.2,0.6,16.4-0.2l7.1,51.1
	l-3.1-51.9c8.2-2.1,15.2-6,19.3-11.5c0,0-10.5-2-16.6-2.8c0,0-19.9,11.3-39-2c-6.7-4.7-11.5-9.7-16.8-14.8l14.1-17.8l0.8,20.5
	c-2.3,0.5-4.7,1.2-7.2,1.9c0,0,5.3,4.5,10.4,7.8c0,0,20.9-7.8,52.1,3c1.5,0.5,3,1,4.5,1.3l13.2,15.1l-11.1,37.3l13.6-34.4l18.1,20.8
	l-17.2-23.2l6-15.2c2.2-0.4,4.4-1,6.5-1.7l27.3,59.1l-22.2-60.1l-1-0.5c5.3-2.2,10-5.1,14.1-8.4l31.6,40.7l-28.6-43.5
	c6.1-5.9,10.1-12.8,11-19.6c0,0-10.1,3.5-15.8,5.8c0,0-11.5,19.7-34.8,17.8c-8.2-0.7-14.8-2.7-21.9-4.5l3.6-24.1l12,18.5
	c-1.7,1.6-3.5,3.4-5.3,5.3c0,0,6.8,1.2,13,1.4c0,0,14.1-17.4,46.3-23.9c1.5-0.3,3-0.7,4.5-1.1l19.1,6.3l9.5,37.8l-5.8-36.6l26.2,8.7
	l-26.6-11.2l-2.6-16.2c1.7-1.5,3.2-3.1,4.7-4.8l53.6,36.9L334.4,279l-1.1,0.1c3.4-4.5,6.1-9.5,7.9-14.4l48,18.9l-46.7-22.8
	c2.3-8.2,2.2-16.2-0.5-22.5c0,0-6.9,8.2-10.6,13c0,0,0.1,22.9-20.9,33c-7.4,3.6-14.1,5.2-21.1,7.3l-8-19.7l17,8.9
	c-0.7,2.3-1.3,4.7-2,7.2c0,0,6.5-2.3,12-5.1c0,0,3.7-22,28.6-43.6c1.2-1,2.3-2.1,3.4-3.2l19.7-3.9l26.8,28.2l-23-29l27.1-5.3
	l-28.7,3.3l-10.2-12.8c0.7-2.1,1.3-4.3,1.8-6.5l64.8,5.8l-63.1-10.7l-0.9,0.7c0.7-5.6,0.6-11.2-0.2-16.4l51.1-7.1l-51.9,3.1
	c-2.1-8.2-6.1-15.2-11.5-19.3c0,0-2,10.5-2.8,16.6c0,0,11.3,19.9-2,39c-4.7,6.7-9.7,11.5-14.8,16.8l-19.5-15.4l22.4-1.3
	c0.6,2.3,1.2,4.7,2,7.2c0,0,4.5-5.3,7.7-10.5c0,0-8.1-20.8,2.2-52.1c0.5-1.5,0.9-3,1.3-4.5l14.9-13.4l37.5,10.5l-34.6-13.1
	l20.5-18.4l-22.9,17.5l-15.3-5.8c-0.5-2.2-1.1-4.4-1.8-6.4l58.7-28.2l-59.7,23.1l-0.5,1.1c-2.2-5.2-5.2-10-8.6-14l40.3-32.2
	l-43,29.2c-6-6-13-10-19.8-10.7c0,0,3.7,10,6,15.7c0,0,19.9,11.2,18.3,34.6c-0.6,8.2-2.5,14.9-4.1,22l-21.7-2.9l16.6-10.7
	c1.6,1.7,3.4,3.5,5.3,5.3c0,0,1.2-6.8,1.5-13c0,0-17.3-14.1-23.9-46.4c-0.3-1.5-0.7-3-1.1-4.5l6.3-19l37.8-9.4l-36.6,5.7l8.7-26.2
	l-11.2,26.6l-16.2,2.5c-1.5-1.7-3.1-3.3-4.7-4.7l37-53.5l-40.5,49.7l0.1,1.1c-4.5-3.4-9.5-6.1-14.4-7.9l19-47.9l-22.9,46.7
	c-8.2-2.3-16.2-2.2-22.5,0.5c0,0,8.1,6.9,13,10.6c0,0,22.9-0.1,33,21c3.6,7.4,5.2,14.1,7.3,21.1l-21,8.5l9.3-18.2
	c2.3,0.7,4.7,1.3,7.2,1.9c0,0-2.3-6.5-5.2-12c0,0-22.1-3.6-43.8-28.3c-1-1.2-2.1-2.3-3.2-3.3l-4-19.7l28.1-27l-28.8,23.2l-5.5-27
	l3.5,28.6L218,55.2c-2.1-0.7-4.3-1.3-6.5-1.7l5.4-64.8l-10.3,63.2l0.7,0.9c-5.6-0.7-11.2-0.5-16.4,0.3l-7.4-51.1l3.4,51.9
	c-8.2,2.1-15.1,6.2-19.3,11.6c0,0,10.5,1.9,16.6,2.7c0,0,19.8-11.5,39.1,1.7c6.8,4.6,11.6,9.7,16.9,14.7l-13.9,17.8l-1-20.3
	c2.3-0.6,4.7-1.2,7.2-1.9c0,0-5.3-4.5-10.5-7.8c0,0-20.9,7.9-52.1-2.7c-1.5-0.5-3-0.9-4.5-1.3l-13.3-15.1L163,16.1l-13.4,34.5
	l-18.3-20.7l17.3,23.1l-5.9,15.2c-2.2,0.5-4.4,1-6.5,1.7L108.7,11l22.6,59.9l1.1,0.5c-5.2,2.2-10,5.1-14.1,8.5L86.3,39.4l28.9,43.3
	c-6.1,5.9-10.1,12.9-10.9,19.7c0,0,10-3.6,15.7-5.9c0,0,11.4-19.8,34.7-18c8.2,0.6,14.9,2.6,21.9,4.3l-3.5,24.3L161,88.5
	c1.7-1.7,3.4-3.4,5.2-5.3c0,0-6.8-1.2-13-1.3c0,0-13.9,17.5-46.2,24.3c-1.5,0.3-3,0.7-4.5,1.2l-19.1-6.2l-9.7-37.7l6.1,36.5
	l-26.3-8.5l26.7,11l2.7,16.1c-1.7,1.5-3.2,3.1-4.7,4.8L24.4,86.8l50,40l1.1-0.1c-3.4,4.6-6,9.5-7.8,14.5l-48.1-18.6L66.6,145
	c-2.2,8.2-2.1,16.2,0.7,22.5c0,0,6.8-8.2,10.5-13.1c0,0-0.3-22.9,20.7-33.2c7.4-3.6,14.1-5.3,21.1-7.5l8.7,21l-18.4-9.2
	c0.6-2.3,1.3-4.7,1.9-7.2c0,0-6.5,2.4-11.9,5.3c0,0-3.3,22.1-27.8,44.1c-1.2,1-2.3,2.1-3.3,3.3l-19.6,4.2l-27.3-27.8L45.3,176
	l-27,5.8l28.6-3.8l10.4,12.6c-0.7,2.1-1.2,4.3-1.7,6.5l-64.9-4.7l63.3,9.7l0.9-0.7c-0.7,5.6-0.4,11.2,0.5,16.4l-51,7.9l51.9-4
	c2.2,8.2,6.3,15.1,11.8,19.1c0,0,1.8-10.5,2.6-16.6c0,0-11.7-19.7,1.3-39.1c4.6-6.8,9.5-11.7,14.5-17l17.1,13.1l-19.3,1
	c-0.6-2.3-1.2-4.7-1.9-7.2c0,0-4.5,5.3-7.7,10.5c0,0,8,20.9-2.5,52.1c-0.5,1.5-0.9,3-1.3,4.5l-15,13.3l-37.4-10.7L53,258l-20.6,18.3
	l23-17.4l15.3,5.9c0.5,2.2,1.1,4.4,1.8,6.5l-58.8,27.8l59.9-22.8l0.5-1.1c2.2,5.2,5.2,10,8.5,14.1l-40.5,32l43.2-29
	c5.9,6.1,12.9,10,19.7,10.8c0,0-3.6-10-6-15.7c0,0-19.8-11.4-18.1-34.7c0.6-8.2,2.6-14.9,4.3-22l21.3,3L90,244.1
	c-1.6-1.7-3.4-3.5-5.3-5.3c0,0-1.3,6.8-1.6,13c0,0,17.2,14.2,23.5,46.6c0.3,1.5,0.7,3,1.1,4.5l-6.5,19l-37.9,9.1l36.6-5.4L91,351.6
	l11.5-26.5l16.2-2.4c1.5,1.7,3.1,3.3,4.7,4.8l-37.5,53.2l40.9-49.3l-0.1-1.1c4.5,3.5,9.4,6.2,14.4,8L121.6,386l23.3-46.5
	c8.2,2.3,16.2,2.4,22.5-0.3c0,0-8.1-6.9-12.9-10.8c0,0-22.9-0.1-32.8-21.2c-3.5-7.4-5.1-14.2-7.1-21.2l21.2-8.4l-9.5,18.3
	c-2.3-0.7-4.7-1.3-7.2-2c0,0,2.3,6.5,5.1,12c0,0,22,3.7,43.6,28.6c1,1.2,2.1,2.3,3.2,3.4l3.9,19.7l-28.2,26.8l29-23l5.3,27.1
	L177.6,359.8z M260.4,337.9l-3.2,10.9l-8.2-11.1C252.8,338.2,256.7,338.3,260.4,337.9z M349.9,221.8l7.8,8.3l-13.7,1.6
	C346.4,228.5,348.3,225.2,349.9,221.8z M339.3,144.7l11,3.1l-11,8.4C339.8,152.3,339.7,148.5,339.3,144.7z M293.1,85.7l11.1-2.7
	l-5.4,12.7C297.3,92.1,295.3,88.7,293.1,85.7z M223,57.1l8.2-7.9l1.7,13.7C229.8,60.6,226.5,58.7,223,57.1z M148.2,67.3l3.2-10.9
	l8.3,11C155.7,67,151.9,67,148.2,67.3z M59.2,185.6l-8-8.1l13.7-1.8C62.6,178.8,60.7,182.1,59.2,185.6z M69.8,259.4l-11-3.1l11-8.3
	C69.4,251.8,69.4,255.7,69.8,259.4z M115.3,318.5l-11.1,2.7l5.5-12.7C111.2,312.1,113.1,315.4,115.3,318.5z M184.3,300l8.7-10.9
	l9.2,11l-1.4,19.6c-3.6,0.3-7.5,0.9-11.8,1.8L184.3,300z M206.5,319.3l-0.4-14.4l12.5,14.9C214.9,319.3,210.9,319.1,206.5,319.3z
	 M251.7,312.9l-15.8-17l2-13.2l14.3,5.1l8.8,17.5C258,307.5,255,309.9,251.7,312.9z M265.7,302.1l-7.7-12.2l18.3,6.5
	C273,297.9,269.5,299.7,265.7,302.1z M321.6,290.6l2.8,11.1l-12.7-5.4C315.3,294.8,318.6,292.9,321.6,290.6z M299.9,275.5l-19.9-6.3
	l-5.5-13.4l13.4-2.3l16.3,11C302.8,267.7,301.3,271.4,299.9,275.5z M306.8,259.2l-12.7-6.9l19.1-3.4
	C311.1,252,308.9,255.3,306.8,259.2z M321.9,204.7c0.4,3.6,1,7.5,1.9,11.7l-22.9,5.4l-10.3-8.2l11.7-10L321.9,204.7z M321.5,199
	l-14.4,0.6l14.7-12.7C321.4,190.6,321.3,194.5,321.5,199z M315.2,155.6l-15.6,14.5l-14.1-1.9l4.7-13.1l17.6-8.7
	C309.8,149.3,312.3,152.4,315.2,155.6z M304.5,141.6l-12.2,7.7l6.5-18.3C300.2,134.4,302.1,137.9,304.5,141.6z M277.1,106.7
	l-6.5,20.9l-12.9,5.2l-2.6-14.1l10.9-16.3C269.3,103.9,273,105.4,277.1,106.7z M260.8,100l-6.8,12.8l-3.5-19.1
	C253.5,95.8,256.9,97.9,260.8,100z M224.5,104.7l-8.6,11l-9.2-10.9l1.3-19.6c3.6-0.4,7.5-1,11.8-1.8L224.5,104.7z M202.2,85.6
	l0.5,14.4l-12.6-14.8C193.8,85.6,197.8,85.8,202.2,85.6z M156.9,92.4l16,16.9l-1.9,13.1l-14.4-5l-8.9-17.5
	C150.6,97.8,153.7,95.3,156.9,92.4z M143,103.2l7.8,12.2l-18.4-6.4C135.8,107.5,139.3,105.7,143,103.2z M87.2,115.1l-2.8-11
	l12.8,5.3C93.5,110.9,90.2,112.8,87.2,115.1z M108.3,131l21.1,6.3l5.3,12.8l-14.1,2.7l-16.5-10.7C105.6,138.9,107,135.2,108.3,131z
	 M101.7,147.4l12.8,6.6l-19.1,3.7C97.5,154.7,99.6,151.3,101.7,147.4z M87.5,199.5c-0.4-3.6-1-7.5-1.9-11.8l20.5-4.7l11.4,8.8
	l-10.4,8.9L87.5,199.5z M87.9,205.3l14.4-0.5l-14.8,12.6C87.9,213.7,88.1,209.7,87.9,205.3z M93.8,248.3l15.5-14.1l14.3,2l-4.7,12.9
	l-17.6,8.6C99.1,254.7,96.7,251.6,93.8,248.3z M104.4,262.4l12.3-7.6l-6.7,18.3C108.6,269.7,106.8,266.2,104.4,262.4z M131.6,297.6
	l6.7-21l12.9-5.1l2.5,14.2l-11,16.3C139.4,300.5,135.8,299,131.6,297.6z M147.9,304.5l6.9-12.7l3.3,19.2
	C155.1,308.8,151.8,306.6,147.9,304.5z M162.2,314.2l-5.7-25.5l19-35.2l-20.2,30l-2.8-12.4l3.9-1.6l-4,1.2l-5.7-25.4l4.5,25.7
	l-12.2,3.6l2.5-7.7l-4.3,8.3l-23.7,7c-0.4-1.4-0.9-2.8-1.4-4.2l7.8-24.9l34.1-21l-32.5,15.8l3.6-11.5l4.7,0.7l-4.6-1.1l7.9-25.4
	l-9.2,25.1l-12.8-3l6.7-6.1l-8.8,5.6L86,226.8c0.3-1.4,0.6-2.8,0.8-4.3l19-17.9l40-1.5l-36.1-2.2l8.8-8.2l3.8,2.9l-3.4-3.2
	l19.4-18.2l-20.4,17.3l-9.7-8.9l8.8-2l-10.4,0.5l-17.3-15.9c1-1.1,1.9-2.2,2.9-3.4l25.4-6.2l35.6,18.4l-30.3-19.7l12.3-3l1.6,3.9
	l-1.3-4l25.3-6.2l-25.7,4.9l-3.8-12.1l7.8,2.3l-8.4-4.2l-7.4-23.5c1.4-0.5,2.8-0.9,4.2-1.5l25.1,7.3l21.6,33.7l-16.4-32.2l13,3.8
	l-0.5,3.6l0.8-3.5l24.2,7.1l-23.9-8.3l2.8-11.8l4.8,5.1l-4.4-6.7l6-25.5c1.4,0.3,2.8,0.6,4.3,0.9l17.8,19.1l1.4,40l2.3-36.1l8.6,9.2
	l-2.7,3.4l2.9-3.1l17.8,19.1l-17-20l8.8-9.3l1.8,8.1l-0.5-9.5l16.7-17.8c1.1,1,2.2,1.9,3.3,2.9l5.9,25.4l-18.8,35.4l20-30.1
	l2.9,12.3l-4,1.6l4.1-1.2l5.9,25.4l-4.7-25.8l12.2-3.7l-2.4,7.9l4.3-8.4l23.5-7.1c0.4,1.4,0.9,2.8,1.4,4.2l-7.6,25l-33.9,21.3
	l32.3-16.1l-3.5,11.7l-4.5-0.6l4.4,1l-7.7,25.3l8.9-25l12.7,2.9l-6.4,5.9l8.5-5.5l23.3,5.3c-0.3,1.4-0.6,2.9-0.8,4.3l-18.9,18
	l-40,1.7l36.1,2l-9.9,9.4l-2.7-2.2l2.5,2.4l-18.2,17.3l19.1-16.4l8.7,8.3l-6.6,1.5l7.8-0.4l19.2,18.2c-1,1.1-2,2.2-2.9,3.3
	l-25.5,5.8l-35.3-19l30,20.2l-11.6,2.6l-1.8-4.4l1.4,4.5l-26,5.9l26.4-4.6l3.8,12.6l-8.7-2.7l9.3,4.9l6.8,22.4
	c-1.4,0.4-2.8,0.9-4.2,1.4l-25-7.5L234.8,253l16.2,32.3l-12.9-3.9l0.5-3.6l-0.9,3.5l-24.2-7.3l23.9,8.5l-2.9,11.9l-4.8-5.2l4.4,6.8
	l-6.2,25.3c-1.4-0.3-2.8-0.6-4.3-0.9L206,301.3l-1.1-40l-2.5,36l-8.5-9.3l2.7-3.3l-2.9,3.1l-17.7-19.2l16.8,20.1l-8.8,9.2l-1.7-8
	l0.4,9.4l-17,17.8C164.4,316.1,163.3,315.2,162.2,314.2z M175.5,341.7c3.1,2.4,6.4,4.3,9.9,5.9l-8.3,7.8L175.5,341.7z"/>
<path d="M935.6,740.6c1.1,4.6,3.9,9.1,3.9,9.1c-4.6-8.4-1-14.4,1.7-18.6c1.7-2.7,2-5.6,2-7.3c2.7-0.5,5.2-1.2,7.7-2.1
	c6.1,10.1,23.6,11.8,23.6,11.8c-15.3-3.5-19.1-9.6-19.9-13.3c3.1-1.4,5.9-3,8.5-4.9c2.3,0.4,5.9,1.8,6.1,6.2c0,0,2.5-7.2-2.8-8.9
	c2.6-2.4,4.6-5.1,6-7.9c0,0-10.7,0.1-16.8,0.4c0,0-17.3,15-38.7,5.7c-6-2.6-10.8-5.7-15.6-8.8c5.4-1.4,3.3-8.7,3.3-8.7
	c-0.5,5.2-5.6,5.8-7.6,5.9c-1.9-1.2-3.9-2.5-6.1-3.7c0.4-1.6,2.3-6.5,11.3-7.9c2.6,3.8,6.8,8.8,12.1,11.3c-2.4,1.1-4.8,2.3-7.4,3.6
	c0,0,6.1,3.4,11.8,5.6c0,0,18.9-11.8,51.6-7.5c3.3,0.4,6.6,0.5,9.8,0.3c-5.4,6.6-7.7,15.4-7.7,15.4c4.9-9.4,9.6-13.9,13.2-16
	c1.9-0.3,3.8-0.8,5.6-1.3c0.7,5.3,8.1,4.4,8.1,4.4c-3.9-0.9-4.5-3.7-4.3-5.6c4.5-1.7,8.7-3.9,12.5-6.5c4.4,3.5,4.2,11,7.3,14.2
	c3.3,3.4,8,5.9,8,5.9c-8.2-5-8.1-11.9-8-16.9c0.1-3.2-1.1-5.8-2-7.3c2-1.8,3.9-3.7,5.6-5.7c10.3,5.7,26.4-1.8,26.4-1.8
	c-15,4.7-21.3,1.4-23.9-1.4c2-2.7,3.6-5.6,4.8-8.5c2.2-0.8,6-1.4,8.4,2.3c0,0-1.5-7.5-6.9-6.3c1-3.4,1.4-6.7,1.2-9.9
	c0,0-9.1,5.5-14.3,8.9c0,0-7.3,21.7-30.5,24.4c-6.5,0.8-12.2,0.5-17.9,0.3c3.9-3.9-1.5-9.2-1.5-9.2c2.2,4.7-1.9,7.9-3.6,8.9
	c-2.3-0.1-4.7-0.1-7.1-0.1c-0.5-1.6-1.3-7.1,6.5-13.1c4.2,1.9,10.5,4.1,16.4,3.6c-1.5,2.1-3,4.4-4.5,6.9c0,0,6.9-0.2,13-1.3
	c0,0,10.2-19.9,40.4-33c3.1-1.3,6-2.9,8.6-4.8c-1.2,8.4,1.3,17.2,1.3,17.2c-0.6-10.6,1.1-16.9,3.1-20.5c1.5-1.3,2.8-2.6,4.1-4
	c3.4,4.2,9.2-0.4,9.2-0.4c-3.8,1.2-5.7-0.8-6.6-2.6c3-3.7,5.5-7.8,7.4-12c5.5,0.8,9.2,7.3,13.5,8.5c4.6,1.3,9.8,0.9,9.8,0.9
	c-9.6-0.1-13.1-6.1-15.5-10.4c-1.6-2.8-3.9-4.4-5.4-5.3c0.8-2.6,1.4-5.2,1.9-7.7c11.8-0.4,21.7-15.1,21.7-15.1
	c-10.5,11.7-17.6,12.1-21.2,11.1c0.3-3.4,0.2-6.7-0.2-9.8c1.5-1.8,4.4-4.3,8.4-2.3c0,0-5.1-5.7-9.2-1.8c-0.9-3.4-2.2-6.5-4-9.1
	c0,0-5,9.4-7.7,14.9c0,0,4.8,22.3-13.7,36.6c-5.2,4-10.2,6.7-15.2,9.4c1.4-5.4-6-7.1-6-7.1c4.3,2.9,2.4,7.7,1.5,9.5
	c-2,1.1-4.1,2.3-6.1,3.6c-1.2-1.1-4.3-4.9-1.8-12.8c4.6-0.5,10.8-1.7,15.5-4.9c-0.2,2.6-0.4,5.3-0.5,8.2c0,0,5.9-3.6,10.6-7.5
	c0,0-1-22.3,18.7-48.7c2-2.7,3.7-5.5,5.1-8.4c3.1,7.9,9.6,14.2,9.6,14.2c-5.8-8.9-7.4-15.2-7.5-19.4c0.6-1.8,1.2-3.7,1.6-5.5
	c5,2,7.8-4.9,7.8-4.9c-2.7,3-5.4,2.1-7,1c0.8-4.7,0.9-9.5,0.4-14.1c5.2-2.1,11.6,1.7,15.9,0.6c4.6-1.2,9-4.1,9-4.1
	c-8.4,4.7-14.4,1.2-18.6-1.3c-2.8-1.6-5.6-1.9-7.3-1.9c-0.6-2.6-1.3-5.2-2.2-7.6c10-6.2,11.4-23.8,11.4-23.8
	c-3.3,15.4-9.2,19.3-12.9,20.1c-1.4-3.1-3.1-5.9-5-8.4c0.4-2.4,1.7-6,6.1-6.2c0,0-7.3-2.4-8.8,3c-2.4-2.5-5.1-4.5-8-5.9
	c0,0,0.3,10.6,0.7,16.8c0,0,15.3,17,6.3,38.6c-2.5,6-5.5,10.9-8.6,15.7c-1.5-5.3-8.7-3.2-8.7-3.2c5.2,0.4,5.9,5.5,6,7.5
	c-1.2,2-2.4,4-3.6,6.1c-1.6-0.4-6.6-2.2-8.1-11.3c3.7-2.7,8.7-7,11.1-12.3c1.1,2.3,2.4,4.8,3.8,7.3c0,0,3.3-6.1,5.4-11.9
	c0,0-12.2-18.7-8.5-51.5c0.4-3.4,0.4-6.6,0.1-9.8c6.7,5.2,15.5,7.4,15.5,7.4c-9.5-4.8-14.1-9.3-16.3-12.9c-0.4-1.9-0.8-3.8-1.4-5.6
	c5.3-0.8,4.2-8.2,4.2-8.2c-0.9,3.9-3.6,4.5-5.5,4.4c-1.8-4.5-4.1-8.6-6.8-12.4c3.4-4.4,10.9-4.4,14.1-7.5c3.4-3.4,5.7-8.1,5.7-8.1
	c-4.8,8.3-11.8,8.3-16.7,8.3c-3.2,0-5.8,1.2-7.3,2.1c-1.8-2-3.8-3.8-5.8-5.5c5.5-10.4-2.3-26.3-2.3-26.3c5,14.9,1.8,21.3-0.9,23.9
	c-2.8-1.9-5.7-3.5-8.6-4.7c-0.9-2.2-1.6-6,2.1-8.4c0,0-7.5,1.6-6.1,7c-3.4-0.9-6.7-1.3-9.9-1c0,0,5.6,9,9.1,14.1
	c0,0,21.8,6.9,25,30.1c0.9,6.5,0.8,12.2,0.6,17.9c-4-3.9-9.1,1.7-9.1,1.7c4.7-2.3,7.9,1.7,9,3.4c0,2.3-0.1,4.7,0,7.1
	c-1.5,0.5-6.3,1.3-11.9-4.7c1.9-4.2,3.9-10.2,3.4-15.8c2.1,1.5,4.4,3,6.9,4.5c0,0-0.2-6.9-1.2-13c0,0-19.9-10.2-32.9-40.5
	c-1.3-3.1-2.9-6-4.7-8.6c8.4,1.3,17.2-1.3,17.2-1.3c-10.6,0.6-16.9-1.1-20.5-3.1c-1.3-1.5-2.6-2.8-4-4.1c4.2-3.4-0.4-9.2-0.4-9.2
	c1.2,3.8-0.9,5.7-2.6,6.6c-3.7-3-7.8-5.5-12-7.4c0.8-5.5,7.3-9.2,8.5-13.5c1.3-4.6,1-9.8,1-9.8c-0.1,9.6-6.1,13.1-10.4,15.5
	c-2.8,1.6-4.5,3.9-5.3,5.4c-2.6-0.8-5.2-1.4-7.7-1.9c-0.4-11.8-15-21.7-15-21.7c11.7,10.5,12.1,17.6,11,21.2
	c-3.4-0.3-6.7-0.2-9.8,0.2c-1.8-1.5-4.3-4.4-2.3-8.4c0,0-5.7,5.1-1.8,9.1c-3.4,0.9-6.5,2.2-9.1,4c0,0,9.4,5,14.9,7.7
	c0,0,22.4-4.8,36.6,13.7c4,5.2,6.7,10.2,9.4,15.3c-5.4-1.4-7.1,6-7.1,6c2.9-4.3,7.7-2.4,9.5-1.5c1.1,2,2.3,4.1,3.5,6.2
	c-1.1,1.2-4.9,4.3-12.7,1.8c-0.5-4.6-1.7-10.8-4.9-15.4c2.6,0.2,5.3,0.4,8.2,0.5c0,0-3.6-5.9-7.5-10.7c0,0-22.3,1-48.6-18.8
	c-2.7-2-5.5-3.7-8.4-5.1c7.9-3.1,14.3-9.6,14.3-9.6c-8.9,5.8-15.2,7.4-19.4,7.5c-1.8-0.7-3.7-1.2-5.5-1.6c2-5-4.9-7.8-4.9-7.8
	c3,2.7,2.1,5.4,1,7c-4.7-0.8-9.5-0.9-14.1-0.5c-2.1-5.2,1.8-11.6,0.7-15.9c-1.2-4.6-4-9-4-9c4.7,8.4,1.2,14.4-1.4,18.6
	c-1.6,2.8-1.9,5.6-1.9,7.3c-2.6,0.6-5.2,1.3-7.6,2.2c-6.2-10-23.8-11.4-23.8-11.4c15.4,3.3,19.2,9.3,20.1,13c-3.1,1.4-5.9,3.1-8.4,5
	c-2.3-0.4-6-1.7-6.2-6.1c0,0-2.4,7.3,2.9,8.9c-2.5,2.4-4.6,5.1-5.9,8c0,0,10.7-0.3,16.8-0.7c0,0,17-15.2,38.6-6.2
	c6,2.5,10.9,5.5,15.7,8.6c-5.3,1.4-3.2,8.7-3.2,8.7c0.4-5.2,5.5-5.9,7.5-6c2,1.2,4,2.4,6.1,3.6c-0.4,1.6-2.1,6.1-10.1,7.9
	c-2.7-3.7-6.8-8.5-11.9-11c2.4-1.1,4.8-2.3,7.4-3.7c0,0-6.1-3.4-11.8-5.5c0,0-18.9,11.9-51.6,7.7c-3.3-0.4-6.6-0.5-9.8-0.3
	c5.3-6.6,7.6-15.4,7.6-15.4c-4.9,9.4-9.5,14-13.1,16.1c-1.9,0.3-3.8,0.8-5.6,1.3c-0.7-5.3-8.1-4.3-8.1-4.3c3.9,0.9,4.5,3.6,4.3,5.6
	c-4.5,1.7-8.7,3.9-12.5,6.6c-4.4-3.5-4.2-11-7.3-14.2c-3.3-3.4-8-5.8-8-5.8c8.2,4.9,8.1,11.9,8,16.9c-0.1,3.2,1.1,5.8,2,7.3
	c-2,1.8-3.9,3.7-5.5,5.7c-10.4-5.6-26.3,1.9-26.3,1.9c15-4.7,21.3-1.5,23.9,1.3c-2,2.8-3.6,5.6-4.8,8.5c-2.2,0.8-6,1.5-8.4-2.3
	c0,0,1.5,7.5,6.9,6.2c-1,3.4-1.4,6.7-1.2,9.9c0,0,9.1-5.5,14.3-8.9c0,0,7.3-21.7,30.4-24.5c6.5-0.8,12.2-0.6,17.9-0.3
	c-3.9,3.9,1.6,9.2,1.6,9.2c-2.2-4.7,1.9-7.9,3.6-8.9c2.3,0.1,4.7,0.1,7.1,0.1c0.5,1.6,1.3,6.5-5.2,12.1c-4.2-1.9-10.2-4-15.9-3.6
	c1.5-2.1,3-4.4,4.6-6.9c0,0-6.9,0.1-13,1.1c0,0-10.4,19.8-40.8,32.4c-3.1,1.3-6,2.9-8.7,4.6c1.3-8.4-1.1-17.2-1.1-17.2
	c0.4,10.6-1.3,16.9-3.4,20.5c-1.5,1.2-2.9,2.5-4.2,3.9c-3.3-4.3-9.2,0.3-9.2,0.3c3.9-1.2,5.7,0.9,6.5,2.7c-3.1,3.7-5.6,7.7-7.5,11.9
	c-5.5-0.8-9.1-7.4-13.4-8.6c-4.6-1.3-9.8-1.1-9.8-1.1c9.6,0.2,13,6.2,15.4,10.6c1.5,2.8,3.9,4.5,5.4,5.3c-0.8,2.6-1.5,5.2-2,7.7
	c-11.8,0.3-21.9,14.8-21.9,14.8c10.6-11.6,17.7-11.9,21.4-10.8c-0.3,3.4-0.3,6.7,0.1,9.8c-1.5,1.8-4.5,4.3-8.4,2.2
	c0,0,5,5.7,9.1,1.9c0.8,3.4,2.1,6.5,3.9,9.1c0,0,5.2-9.3,7.9-14.8c0,0-4.5-22.4,14.1-36.5c5.2-3.9,10.3-6.6,15.4-9.2
	c-1.5,5.3,5.9,7.2,5.9,7.2c-4.3-3-2.3-7.8-1.4-9.5c2-1.1,4.1-2.2,6.2-3.5c1.2,1.1,4.5,5.2,1.4,13.6c-4.6,0.4-11,1.6-15.7,4.9
	c0.2-2.6,0.4-5.3,0.5-8.2c0,0-5.9,3.6-10.7,7.5c0,0,0.9,22.3-18.9,48.6c-2,2.7-3.7,5.5-5.1,8.4c-3.1-7.9-9.6-14.3-9.6-14.3
	c5.7,9,7.4,15.2,7.4,19.4c-0.7,1.8-1.2,3.7-1.6,5.5c-5-2-7.8,4.9-7.8,4.9c2.7-3,5.4-2.1,7-1c-0.8,4.7-0.9,9.5-0.5,14.1
	c-5.2,2.1-11.6-1.8-15.9-0.7c-4.6,1.2-9,4-9,4c8.4-4.7,14.4-1.2,18.6,1.4c2.7,1.7,5.6,1.9,7.3,1.9c0.6,2.6,1.3,5.2,2.2,7.6
	c-10,6.2-11.5,23.8-11.5,23.8c3.3-15.4,9.3-19.2,13-20.1c1.4,3.1,3.1,5.9,5,8.4c-0.4,2.3-1.7,6-6.1,6.1c0,0,7.3,2.4,8.9-2.9
	c2.4,2.5,5.1,4.6,8,5.9c0,0-0.2-10.7-0.7-16.8c0,0-15.2-17.1-6.2-38.6c2.5-6,5.5-10.9,8.6-15.7c1.4,5.3,8.7,3.2,8.7,3.2
	c-5.2-0.4-5.9-5.5-6-7.5c1.2-2,2.4-4,3.6-6.1c1.6,0.4,6.4,2.2,8,10.8c-3.7,2.7-8.6,6.9-11.1,12.1c-1.1-2.4-2.3-4.8-3.7-7.4
	c0,0-3.3,6.1-5.5,11.8c0,0,12,18.8,8,51.5c-0.4,3.4-0.5,6.6-0.2,9.8c-6.6-5.3-15.5-7.6-15.5-7.6c9.5,4.9,14,9.5,16.1,13
	c0.3,1.9,0.8,3.8,1.3,5.6c-5.3,0.8-4.3,8.2-4.3,8.2c0.9-3.9,3.6-4.5,5.6-4.3c1.7,4.5,4,8.7,6.6,12.4c-3.5,4.4-11,4.3-14.2,7.4
	c-3.4,3.3-5.8,8-5.8,8c4.9-8.2,11.8-8.2,16.8-8.1c3.2,0,5.8-1.2,7.3-2c1.8,2,3.7,3.9,5.7,5.5c-5.6,10.4,2,26.3,2,26.3
	c-4.8-15-1.6-21.3,1.2-23.9c2.8,2,5.6,3.6,8.5,4.8c0.8,2.2,1.5,6-2.2,8.4c0,0,7.5-1.5,6.2-7c3.4,1,6.7,1.4,9.9,1.1
	c0,0-5.6-9.1-9-14.2c0,0-21.7-7.1-24.7-30.3c-0.8-6.5-0.6-12.2-0.4-17.9c3.9,3.9,9.2-1.6,9.2-1.6c-4.7,2.3-7.9-1.8-9-3.5
	c0.1-2.3,0.1-4.7,0-7.1c1.5-0.5,6.5-1.3,12.1,5.1c-1.9,4.2-4,10.2-3.5,15.9c-2.1-1.5-4.4-3-6.9-4.6c0,0,0.1,6.9,1.1,13
	c0,0,19.8,10.4,32.6,40.7c1.3,3.1,2.9,6,4.7,8.7c-8.4-1.3-17.2,1.2-17.2,1.2c10.6-0.5,16.9,1.2,20.5,3.3c1.2,1.5,2.6,2.9,3.9,4.2
	c-4.3,3.3,0.3,9.2,0.3,9.2c-1.2-3.9,0.9-5.7,2.7-6.5c3.7,3,7.8,5.5,12,7.5c-0.8,5.5-7.4,9.2-8.6,13.5c-1.3,4.6-1,9.8-1,9.8
	c0.1-9.6,6.2-13,10.5-15.4c2.8-1.6,4.5-3.9,5.3-5.4c2.6,0.8,5.2,1.5,7.7,1.9c0.3,11.8,14.9,21.8,14.9,21.8
	c-11.6-10.6-12-17.7-10.9-21.3c3.4,0.3,6.7,0.3,9.8-0.1c1.8,1.5,4.3,4.5,2.3,8.4c0,0,5.7-5.1,1.9-9.1c3.4-0.8,6.5-2.2,9.1-4
	c0,0-9.3-5.1-14.9-7.8c0,0-22.4,4.6-36.5-14c-3.9-5.2-6.6-10.2-9.3-15.3c5.3,1.4,7.1-6,7.1-6c-3,4.3-7.7,2.4-9.5,1.4
	c-1.1-2-2.2-4.1-3.5-6.2c1.1-1.1,4.7-4.1,12-1.9c0.4,4.5,1.6,10.6,4.7,15.2c-2.6-0.3-5.3-0.5-8.2-0.6c0,0,3.5,6,7.4,10.8
	c0,0,22.3-0.6,48.3,19.6c2.7,2.1,5.5,3.8,8.3,5.3c-8,3-14.4,9.4-14.4,9.4c9-5.6,15.3-7.2,19.5-7.2c1.8,0.7,3.6,1.3,5.5,1.7
	c-2.1,5,4.8,7.9,4.8,7.9c-2.9-2.8-2-5.4-0.9-7c4.7,0.8,9.5,1,14.1,0.7C938.6,729.9,934.6,736.3,935.6,740.6z M880.8,690.7
	c0.3-1.6,0.7-4.1,0.9-7c1.8-21,6.6-20.9,12.4-22.9c0,0-9.2-2.4-14.2,12c-1.5,4.4-0.9,11.7-5.3,15.7c-2-0.6-4.2-1.2-6.5-1.7
	c-0.8-1.2-3.1-5.4,1.7-8.2c0,0-8,1.3-6.4,7.2c-1.5-0.3-3-0.5-4.6-0.8c-2.6-1.3-7-5-9.9-15.6c3.2,1.1,7.1,3.2,11.7,6.7
	c0,0-5.3-5.2-12.1-8.4c-0.4-1.6-0.7-3.3-1-5.2c0,0-0.1,1.9,0,4.7c-4.6-2-9.9-2.9-14.7-0.7c-1.1-1.6-2.3-3.2-3.7-4.9
	c1.1-1.3,2.6-3.3,4.2-5.6c11.8-17.4,16-15,22-13.9c0,0-6.9-6.6-18.3,3.5c-3.5,3.1-6.5,9.8-12.3,11.1c-1.5-1.5-3.1-3.1-4.8-4.7
	c-0.1-1.5-0.1-6.2,5.4-6.3c0,0-7.6-2.8-9.1,3.2c-1.2-1-2.4-1.9-3.7-2.9c-1.7-2.4-3.7-7.8-0.9-18.8c2,2.5,4.1,6.1,6.2,10.9
	c0,0-1.8-6.5-5.8-12.5c0.4-1.5,0.9-3.1,1.6-4.8c0,0-1,1.5-2.2,3.9c-3.1-4.3-7.4-8.2-13-8.7c-0.2-1.9-0.4-4-0.8-6.1
	c1.6-0.6,3.9-1.5,6.5-2.8c19-9.2,21.3-5,26-1.1c0,0-2.7-9.2-17.6-6c-4.5,0.9-10.5,5.2-16.2,3.5c-0.5-2.1-1.1-4.2-1.9-6.5
	c0.6-1.4,3-5.4,7.9-2.8c0,0-5.2-6.2-9.4-1.8c-0.5-1.4-1.1-2.9-1.7-4.4c-0.3-2.9,0.7-8.7,8.6-16.8c0.4,3.2,0.5,7.2-0.2,12.2
	c0,0,1.7-6.3,1.3-13.3c1.1-1.1,2.3-2.2,3.7-3.4c0,0-1.6,0.8-3.8,2.3c-0.4-5.4-2.2-11.1-6.9-14.5c0.8-1.8,1.6-3.6,2.4-5.6
	c1.6,0.3,4.1,0.6,7,0.9c21,1.5,21,6.4,23.1,12.1c0,0,2.3-9.3-12.2-14.1c-4.4-1.5-11.7-0.7-15.8-5.1c0.6-2,1.1-4.2,1.6-6.5
	c1.2-0.9,5.4-3.2,8.2,1.5c0,0-1.4-8-7.3-6.3c0.3-1.5,0.5-3,0.7-4.7c1.3-2.7,5-7.2,16-10.2c-1.2,2.9-3.2,6.3-6.2,10.2
	c0,0,4.5-4.5,7.7-10.6c1.5-0.4,3.1-0.7,4.9-1c0,0-1.7-0.1-4.4,0.1c2.4-5,3.9-10.9,1.4-16.2c1.6-1.1,3.2-2.3,4.9-3.7
	c1.3,1.1,3.3,2.7,5.6,4.3c17.4,11.9,14.9,16.1,13.8,22.1c0,0,6.6-6.9-3.4-18.3c-3.1-3.5-9.7-6.5-11.1-12.4c1.5-1.5,3.1-3.1,4.7-4.8
	c1.5-0.1,6.2,0,6.3,5.5c0,0,2.8-7.6-3.1-9.1c1-1.2,2-2.4,3-3.7c2.4-1.7,7.9-3.7,18.8-0.8c-2.6,2-6.1,4.1-10.9,6.1
	c0,0,6.5-1.7,12.4-5.7c1.5,0.4,3.1,1,4.8,1.6c0,0-1.5-1-3.9-2.2c4.4-3.1,8.3-7.4,8.9-13c1.9-0.2,4-0.4,6.1-0.7
	c0.6,1.6,1.5,3.9,2.7,6.5c9.1,19,4.9,21.4,1,26c0,0,9.2-2.6,6.1-17.6c-0.9-4.6-5.2-10.5-3.4-16.2c2.1-0.5,4.2-1.1,6.5-1.8
	c1.4,0.6,5.4,3.1,2.7,7.9c0,0,6.2-5.2,1.8-9.4c1.4-0.5,2.9-1.1,4.4-1.7c2.9-0.2,8.6,0.7,16.6,8.6c-3.3,0.5-7.4,0.6-12.8,0
	c0,0,6.7,1.7,14,1.2c1.1,1.1,2.2,2.4,3.4,3.8c0,0-0.8-1.6-2.3-3.9c5.2-0.5,10.6-2.3,13.8-6.9c1.8,0.8,3.6,1.6,5.6,2.4
	c-0.3,1.6-0.6,4.1-0.8,7c-1.5,21-6.3,21-12.1,23.1c0,0,9.3,2.3,14-12.2c1.5-4.4,0.7-11.7,5.1-15.8c2,0.6,4.2,1.1,6.5,1.6
	c0.9,1.2,3.2,5.4-1.5,8.2c0,0,8-1.4,6.2-7.3c1.5,0.3,3,0.5,4.7,0.7c2.7,1.2,7.1,4.9,10.2,15.7c-3.1-1.2-6.8-3.2-11.1-6.4
	c0,0,5,4.8,11.5,8c0.4,1.5,0.8,3.2,1.1,5c0,0,0.1-1.8-0.1-4.6c4.8,2.1,10.3,3.2,15.4,0.9c1.1,1.6,2.4,3.2,3.7,4.9
	c-1.1,1.3-2.6,3.3-4.2,5.6c-11.7,17.5-15.9,15.1-21.9,14.1c0,0,6.9,6.6,18.2-3.7c3.4-3.1,6.4-9.8,12.2-11.2c1.5,1.5,3.1,3.1,4.9,4.7
	c0.1,1.5,0.1,6.2-5.4,6.4c0,0,7.6,2.7,9-3.3c1.2,1,2.4,1.9,3.7,2.9c1.7,2.4,3.8,7.8,1.1,18.7c-2.1-2.5-4.3-6.1-6.5-11.1
	c0,0,1.9,6.7,6.1,12.7c-0.4,1.5-0.9,3.2-1.5,4.9c0,0,1-1.5,2.2-4c3.1,4.2,7.4,7.9,12.9,8.4c0.2,1.9,0.4,4,0.8,6.1
	c-1.6,0.6-3.9,1.6-6.4,2.8c-18.9,9.4-21.3,5.2-26,1.4c0,0,2.8,9.1,17.7,5.9c4.5-1,10.4-5.3,16.2-3.7c0.5,2.1,1.2,4.2,1.9,6.5
	c-0.6,1.4-3,5.5-7.8,2.9c0,0,5.3,6.1,9.5,1.7c0.5,1.4,1.1,2.9,1.8,4.4c0.3,2.9-0.6,8.7-8.6,17c-0.4-3.1-0.4-6.9,0.2-11.6
	c0,0-1.5,6-1.3,12.7c-1.1,1.1-2.3,2.2-3.6,3.3c0,0,1.5-0.8,3.7-2.3c0.4,5.6,2.1,11.6,7,15c-0.8,1.8-1.6,3.6-2.4,5.6
	c-1.6-0.3-4.1-0.6-7-0.8c-21-1.4-21-6.3-23.1-12c0,0-2.2,9.3,12.3,14c4.4,1.4,11.7,0.7,15.8,5c-0.6,2-1.1,4.2-1.6,6.5
	c-1.2,0.9-5.3,3.2-8.2-1.5c0,0,1.5,8,7.3,6.2c-0.2,1.5-0.5,3-0.7,4.7c-1.2,2.7-4.9,7.1-15.7,10.2c1.2-3.1,3.1-6.7,6.3-11
	c0,0-4.8,4.9-7.9,11.5c-1.5,0.4-3.2,0.8-5,1.1c0,0,1.8,0.1,4.5-0.1c-2.1,4.8-3.2,10.4-0.9,15.5c-1.6,1.1-3.2,2.4-4.9,3.7
	c-1.3-1.1-3.3-2.6-5.6-4.2c-17.6-11.7-15.1-15.9-14.1-21.9c0,0-6.5,6.9,3.7,18.2c3.1,3.4,9.8,6.4,11.2,12.2
	c-1.5,1.5-3.1,3.1-4.7,4.9c-1.5,0.1-6.2,0.1-6.4-5.4c0,0-2.7,7.6,3.3,9c-1,1.2-1.9,2.4-2.9,3.7c-2.4,1.7-7.9,3.8-19.2,1
	c2.4-1.7,5.6-3.4,9.6-5.1c0,0-5.5,1.5-11,4.7c-1.4-0.4-3-0.9-4.6-1.5c0,0,1.4,0.9,3.7,2c-4.9,3.1-9.7,7.7-10.3,13.9
	c-1.9,0.1-4,0.4-6.1,0.7c-0.6-1.6-1.5-3.9-2.7-6.5c-9.1-19-4.8-21.4-0.9-26c0,0-9.2,2.6-6.2,17.5c0.9,4.6,5.1,10.5,3.4,16.2
	c-2.1,0.5-4.2,1.1-6.5,1.8c-1.3-0.6-5.4-3.1-2.7-7.9c0,0-6.2,5.2-1.8,9.4c-1.4,0.5-2.9,1.1-4.4,1.7c-2.9,0.2-8.7-0.8-16.8-8.9
	c3.1-0.3,7-0.3,11.8,0.4c0,0-6-1.7-12.8-1.5c-1.1-1.1-2.1-2.3-3.3-3.7c0,0,0.8,1.5,2.2,3.7c-5.6,0.3-11.5,2-15,6.8
	C884.6,692.3,882.7,691.5,880.8,690.7z"/>
<path d="M571.5,742.8c0.5,0,1,0.5,1,0.5l-8.9,19c-1,0-3.3,0.1-3.9,0.1c-0.5,0-1-0.5-1-0.5l-3-19c1.8,0,4.2-0.1,4.8-0.1
	c0.5,0,1,0.5,1,0.5l0.9,9.3c0.1,0.8,0.1,1.9,0.1,3.1c0.3-1.3,0.6-2.5,1-3.3l3.7-9.4C568.9,742.9,570.9,742.8,571.5,742.8
	L571.5,742.8z M580.7,752.2c0,2.1-1.2,3.4-4,4l-3,0.6c0.2,1.3,1.1,1.9,2.4,1.9c1.7,0,2.8-1.3,2.8-1.3s0.8,0.5,0.8,1.4
	c0,1.7-2.6,3.6-5.7,3.6c-3.1,0-5.2-2-5.2-5.3c0-3.8,2.7-9.1,7.6-9.1C579.1,748.2,580.7,749.8,580.7,752.2L580.7,752.2z M575.6,754.2
	c0.6-0.2,0.8-0.7,0.8-1.3c0-0.6-0.2-1.4-0.9-1.4c-1.2,0-1.7,1.9-1.9,3.4L575.6,754.2z M588.9,748.2c2.4,0,4.3,1.3,4.3,3
	c0,2.1-2.6,2.9-2.6,2.9s-0.7-2.3-2.5-2.3c-1.2,0-1.8,1.2-1.8,3.7c0,2.3,0.6,3.3,2.1,3.3c1.5,0,2.5-1,2.5-1s0.9,0.5,0.9,1.4
	c0,1.7-2.5,3.4-5.5,3.4c-3.2,0-5.1-2-5.1-5.3C581.1,753.4,583.9,748.2,588.9,748.2L588.9,748.2z M600.6,745.1c0.6,0,1,0.5,1,0.5
	l-0.5,2.9h3.1l-0.7,2.2c-0.2,0.7-0.6,1.1-1.3,1.1h-1.6l-0.9,5.7c-0.1,0.9,0.1,1.3,0.7,1.3c0.6,0,1.1-0.3,1.1-0.3s0.9,0.5,0.9,1.4
	c0,1.4-2,2.8-4.5,2.8c-2.6,0-3.7-1.6-3.3-4.5l1-6.3H594l0.7-2.3c0.2-0.6,0.7-1,1.3-1h0.8l1-2.7C599,745.5,600.1,745.1,600.6,745.1
	L600.6,745.1z M615.5,752.2c0,2.1-1.2,3.4-4,4l-3,0.6c0.2,1.3,1.1,1.9,2.4,1.9c1.7,0,2.8-1.3,2.8-1.3s0.9,0.5,0.9,1.4
	c0,1.7-2.6,3.6-5.7,3.6c-3.1,0-5.2-2-5.2-5.3c0-3.8,2.7-9.1,7.6-9.1C613.9,748.2,615.5,749.8,615.5,752.2L615.5,752.2z M610.4,754.2
	c0.6-0.2,0.8-0.7,0.8-1.3c0-0.6-0.2-1.4-0.9-1.4c-1.2,0-1.7,1.9-1.9,3.4L610.4,754.2z M627.9,752.2c0,2.1-1.2,3.4-4,4l-3,0.6
	c0.2,1.3,1.1,1.9,2.4,1.9c1.7,0,2.8-1.3,2.8-1.3s0.9,0.5,0.9,1.4c0,1.7-2.6,3.6-5.7,3.6c-3.1,0-5.2-2-5.2-5.3c0-3.8,2.7-9.1,7.6-9.1
	C626.2,748.2,627.9,749.8,627.9,752.2L627.9,752.2z M622.8,754.2c0.6-0.2,0.8-0.7,0.8-1.3c0-0.6-0.2-1.4-0.9-1.4
	c-1.2,0-1.7,1.9-1.9,3.4L622.8,754.2z M638,757.4c0,0,1,1,1,2.5c0,2.1-1.8,2.7-3.3,2.7c-2,0-3.4-0.9-4.9-1.4c-0.4,0.5-0.8,1-1.2,1.4
	c0,0-2.2-0.1-2.2-1.6c0-1.8,3.1-5,6.4-8.5c-0.4-0.1-0.7-0.1-1.1-0.1c-1.9,0-2.6,0.9-2.6,0.9s-1-1.1-0.9-2.5c0.1-2,2-2.5,3.5-2.5
	c1.6,0,2.7,0.6,3.9,1.1l0.9-1.1c0,0,2.2,0.1,2.2,1.6c0,1.8-3,4.9-6.2,8.3c0.7,0.2,1.3,0.3,1.9,0.3C637.2,758.4,638,757.4,638,757.4
	L638,757.4z M652.3,761.4c-0.8,4.8-4.1,7.3-8.3,7.3c-2.7,0-4.7-1.4-4.7-3c0-1.1,0.9-1.6,0.9-1.6s0.9,0.8,2.7,0.8
	c1.7,0,4-0.7,4.4-3.3l0.3-2c-1.1,1.6-2.6,3-4.5,3c-2.1,0-3.1-1.7-2.5-5.3l0.6-3.8c0.4-2.3,0.5-4.3,0.5-4.3c1.5-0.3,3.5-1,4.2-1
	c0.5,0,1,0.5,1,0.5l-0.8,4.8l-0.7,4.4c-0.1,0.4,0,0.6,0.4,0.6c1.8,0,2.8-5.1,2.8-5.1c0.4-2.3,0.5-4.3,0.5-4.3c1.5-0.3,3.5-1,4.2-1
	c0.5,0,1,0.5,1,0.5l-0.8,4.8L652.3,761.4z M447.6,749h4.8c1.1,0,1.9,0.1,2.5,0.2c0.8,0.2,1.4,0.6,1.9,1.2c0.5,0.6,0.9,1.3,1.2,2.1
	c0.3,0.8,0.4,1.8,0.4,3c0,1.1-0.1,2-0.4,2.7c-0.3,0.9-0.8,1.7-1.4,2.3c-0.5,0.4-1.1,0.8-1.8,1c-0.6,0.2-1.3,0.3-2.3,0.3h-4.9V749z
	 M450.2,751.2v8.5h1.9c0.7,0,1.3,0,1.6-0.1c0.4-0.1,0.8-0.3,1.1-0.5c0.3-0.3,0.5-0.7,0.7-1.2c0.2-0.6,0.3-1.4,0.3-2.4
	s-0.1-1.8-0.3-2.3s-0.4-0.9-0.7-1.2c-0.3-0.3-0.7-0.5-1.2-0.6c-0.4-0.1-1.1-0.1-2.1-0.1H450.2z M465.6,758.9l2.5,0.4
	c-0.3,0.9-0.8,1.6-1.5,2.1c-0.7,0.5-1.5,0.7-2.6,0.7c-1.6,0-2.8-0.5-3.6-1.6c-0.6-0.8-0.9-1.9-0.9-3.2c0-1.5,0.4-2.8,1.2-3.6
	c0.8-0.9,1.8-1.3,3.1-1.3c1.4,0,2.5,0.5,3.3,1.4c0.8,0.9,1.2,2.3,1.2,4.2H462c0,0.7,0.2,1.3,0.6,1.7c0.4,0.4,0.9,0.6,1.4,0.6
	c0.4,0,0.7-0.1,1-0.3C465.3,759.7,465.5,759.4,465.6,758.9z M465.7,756.4c0-0.7-0.2-1.3-0.6-1.6c-0.4-0.4-0.8-0.6-1.3-0.6
	c-0.5,0-1,0.2-1.3,0.6c-0.4,0.4-0.5,0.9-0.5,1.6H465.7z M469,759.2l2.5-0.4c0.1,0.5,0.3,0.8,0.6,1.1c0.3,0.2,0.8,0.4,1.4,0.4
	c0.6,0,1.1-0.1,1.4-0.4c0.2-0.2,0.3-0.4,0.3-0.7c0-0.2-0.1-0.3-0.2-0.5c-0.1-0.1-0.4-0.2-0.8-0.3c-2-0.4-3.3-0.8-3.8-1.2
	c-0.7-0.5-1.1-1.2-1.1-2.1c0-0.8,0.3-1.5,1-2c0.6-0.6,1.6-0.8,3-0.8c1.3,0,2.2,0.2,2.8,0.6c0.6,0.4,1,1,1.3,1.8l-2.3,0.4
	c-0.1-0.4-0.3-0.6-0.6-0.8c-0.3-0.2-0.7-0.3-1.2-0.3c-0.7,0-1.1,0.1-1.4,0.3c-0.2,0.1-0.3,0.3-0.3,0.5c0,0.2,0.1,0.3,0.2,0.4
	c0.2,0.2,1,0.4,2.3,0.7c1.3,0.3,2.2,0.7,2.8,1.1c0.5,0.4,0.8,1.1,0.8,1.8c0,0.9-0.4,1.6-1.1,2.2c-0.7,0.6-1.8,0.9-3.2,0.9
	c-1.3,0-2.3-0.3-3-0.8C469.7,760.8,469.2,760.1,469,759.2z M479.5,751.3V749h2.5v2.3H479.5z M479.5,761.9v-9.3h2.5v9.3H479.5z
	 M483.9,762.5l2.8,0.3c0,0.3,0.2,0.6,0.3,0.7c0.2,0.2,0.6,0.3,1.1,0.3c0.6,0,1.1-0.1,1.5-0.3c0.2-0.1,0.4-0.3,0.5-0.6
	c0.1-0.2,0.1-0.6,0.1-1.1v-1.4c-0.7,1-1.7,1.5-2.8,1.5c-1.3,0-2.2-0.5-3-1.6c-0.6-0.8-0.9-1.9-0.9-3.1c0-1.6,0.4-2.8,1.1-3.6
	c0.8-0.8,1.7-1.2,2.8-1.2c1.2,0,2.1,0.5,2.9,1.5v-1.3h2.3v8.4c0,1.1-0.1,1.9-0.3,2.5c-0.2,0.5-0.4,1-0.8,1.3
	c-0.3,0.3-0.8,0.6-1.3,0.7c-0.5,0.2-1.2,0.3-2.1,0.3c-1.6,0-2.7-0.3-3.4-0.8c-0.7-0.5-1-1.2-1-2.1
	C483.9,762.7,483.9,762.6,483.9,762.5z M486.1,757c0,1,0.2,1.7,0.6,2.2c0.4,0.5,0.9,0.7,1.4,0.7c0.6,0,1.1-0.2,1.5-0.7
	c0.4-0.5,0.6-1.2,0.6-2.1c0-1-0.2-1.7-0.6-2.2c-0.4-0.5-0.9-0.7-1.5-0.7c-0.6,0-1.1,0.2-1.5,0.7C486.3,755.4,486.1,756.1,486.1,757z
	 M503.2,761.9h-2.5v-4.8c0-1-0.1-1.7-0.2-2c-0.1-0.3-0.3-0.5-0.5-0.7c-0.2-0.2-0.5-0.2-0.9-0.2c-0.4,0-0.8,0.1-1.2,0.4
	c-0.3,0.2-0.6,0.5-0.7,0.9c-0.1,0.4-0.2,1.1-0.2,2.1v4.2h-2.5v-9.3h2.3v1.4c0.8-1.1,1.8-1.6,3.1-1.6c0.5,0,1,0.1,1.5,0.3
	c0.5,0.2,0.8,0.4,1,0.8c0.2,0.3,0.4,0.7,0.5,1c0.1,0.4,0.1,0.9,0.1,1.7V761.9z M510.8,758.9l2.5,0.4c-0.3,0.9-0.8,1.6-1.5,2.1
	c-0.7,0.5-1.5,0.7-2.6,0.7c-1.6,0-2.8-0.5-3.6-1.6c-0.6-0.8-0.9-1.9-0.9-3.2c0-1.5,0.4-2.8,1.2-3.6c0.8-0.9,1.8-1.3,3.1-1.3
	c1.4,0,2.5,0.5,3.3,1.4c0.8,0.9,1.2,2.3,1.2,4.2h-6.2c0,0.7,0.2,1.3,0.6,1.7c0.4,0.4,0.9,0.6,1.4,0.6c0.4,0,0.7-0.1,1-0.3
	C510.5,759.7,510.7,759.4,510.8,758.9z M510.9,756.4c0-0.7-0.2-1.3-0.6-1.6c-0.4-0.4-0.8-0.6-1.3-0.6c-0.5,0-1,0.2-1.3,0.6
	c-0.4,0.4-0.5,0.9-0.5,1.6H510.9z M523.6,761.9h-2.3v-1.4c-0.4,0.5-0.8,0.9-1.3,1.2c-0.5,0.3-1,0.4-1.6,0.4c-1.1,0-2-0.4-2.8-1.3
	c-0.8-0.9-1.1-2.1-1.1-3.6c0-1.6,0.4-2.8,1.1-3.6c0.7-0.8,1.7-1.2,2.8-1.2c1,0,1.9,0.4,2.7,1.3V749h2.5V761.9z M517,757
	c0,1,0.1,1.7,0.4,2.2c0.4,0.6,1,1,1.7,1c0.6,0,1.1-0.2,1.5-0.7c0.4-0.5,0.6-1.2,0.6-2.2c0-1.1-0.2-1.8-0.6-2.3
	c-0.4-0.5-0.9-0.7-1.5-0.7c-0.6,0-1.1,0.2-1.5,0.7C517.2,755.4,517,756.1,517,757z M530.2,761.9V749h2.5v4.6
	c0.8-0.9,1.7-1.3,2.7-1.3c1.1,0,2.1,0.4,2.8,1.2c0.7,0.8,1.1,2,1.1,3.5c0,1.6-0.4,2.8-1.1,3.7c-0.8,0.9-1.7,1.3-2.8,1.3
	c-0.5,0-1.1-0.1-1.6-0.4c-0.5-0.3-1-0.7-1.3-1.2v1.4H530.2z M532.7,757c0,1,0.2,1.7,0.5,2.1c0.4,0.7,1,1,1.7,1c0.5,0,1-0.2,1.4-0.7
	c0.4-0.5,0.6-1.2,0.6-2.2c0-1.1-0.2-1.8-0.6-2.3c-0.4-0.5-0.9-0.7-1.5-0.7c-0.6,0-1.1,0.2-1.5,0.7
	C532.9,755.4,532.7,756.1,532.7,757z M539.8,752.5h2.6l2.2,6.6l2.2-6.6h2.6l-3.3,9l-0.6,1.6c-0.2,0.5-0.4,1-0.6,1.2
	c-0.2,0.3-0.4,0.5-0.7,0.7c-0.3,0.2-0.6,0.3-0.9,0.4c-0.4,0.1-0.8,0.1-1.3,0.1c-0.5,0-0.9,0-1.4-0.1l-0.2-1.9c0.4,0.1,0.7,0.1,1,0.1
	c0.6,0,1-0.2,1.3-0.5c0.3-0.3,0.5-0.8,0.6-1.3L539.8,752.5z"/>
</svg>
