<?xml version="1.0" encoding="utf-8"?>
<svg viewBox="32.60003662109375 379.1000061035156 584.1998901367188 81.49996948242188" xmlns="http://www.w3.org/2000/svg"><path class="st2" d="M203.4,379.1c0.5,3.6-0.2,5.3-2.2,5.1c0,0.8,0,1.7,0,2.5c-0.2,0-0.5,0-0.7,0c0,1.1,0,2.2,0,3.4&#10;&#9;&#9;c-0.2,0-0.5,0-0.7,0c0,1.1,0,2.2,0,3.4c-0.2,0-0.5,0-0.7,0c0,1.4,0,2.8,0,4.2c-0.2,0-0.5,0-0.7,0c0,13.2,2.4,25.9,3,38.7&#10;&#9;&#9;c6.5-0.7,17.8-9.2,20.8-14.3c5.3,0,5.5-8.9,12.5-5.2c1.3,0.7,19.8,7.7,9.8,7.7c0,0.3,0,0.6,0,0.8c-6.4,0-12.7,12.6-20.1,12.6&#10;&#9;&#9;c0,0.3,0,0.6,0,0.8c-0.5,0-1,0-1.5,0c0,0.3,0,0.6,0,0.8c-0.5,0-1,0-1.5,0c0,0.3,0,0.6,0,0.8c-0.5,0-1,0-1.5,0c0,0.3,0,0.6,0,0.8&#10;&#9;&#9;c-0.5,0-1,0-1.5,0c0,0.3,0,0.6,0,0.8c-0.5,0-1,0-1.5,0c0,2.9-4.5,0.4-4.5,3.4c-0.7,0-1.5,0-2.2,0c0,2.4-3,0.1-3,2.5&#10;&#9;&#9;c-5.4,0-9.9,4.8-15.6,5c0.7-3.1,0.2-4.5-1.5-4.2c0-1.7,0-3.4,0-5c-0.3,0-0.5,0-0.8,0c0-1.1,0-2.2,0-3.4c-0.2,0-0.5,0-0.7,0&#10;&#9;&#9;c-0.2-5.1-0.5-10.1-0.7-15.2c-0.3,0-0.5,0-0.7,0c0-8.7-1.3-17.5,0-26.1c-1.7-0.2-2.5,0.3-2.2,1.7c-0.5,0-1,0-1.5,0&#10;&#9;&#9;c0,0.3,0,0.6,0,0.8c-6.9,0-13,13.5-20.1,13.5c-3.8,5.8-18.6,15.3-18.6,22.7c-3.1,2.8-11.1,11.7-11.1,16c-0.2,0-0.5,0-0.7,0&#10;&#9;&#9;c0,2-1.9,4.4-3.7,5c0.5-1.6,2.9-12.6,4.5-12.6c0-0.6,0-1.1,0-1.7c0.2,0,0.5,0,0.7,0c0-0.6,0-1.1,0-1.7c0.3,0,0.5,0,0.7,0&#10;&#9;&#9;c0-0.6,0-1.1,0-1.7c0.2,0,0.5,0,0.7,0c0-0.6,0-1.1,0-1.7c0.2,0,0.5,0,0.7,0c0-0.6,0-1.1,0-1.7c0.2,0,0.5,0,0.7,0c0-0.6,0-1.1,0-1.7&#10;&#9;&#9;c0.2,0,0.5,0,0.7,0c0-2.8,1.5-1.4,1.5-4.2c1.2,0,10-15.8,11.9-18.5c-0.9,0-11.9,0-11.9-2.5c-1.2,0-2.5,0-3.7,0c0-0.3,0-0.6,0-0.8&#10;&#9;&#9;c-0.7,0-1.5,0-2.2,0c0-0.3,0-0.6,0-0.8c-0.7,0-1.5,0-2.2,0c0-0.3,0-0.6,0-0.8c-0.5,0-1,0-1.5,0c0-3.7-8.9-0.4-8.9-5.1&#10;&#9;&#9;c-0.5,0-1,0-1.5,0c0-3.9-14.9-6.9-14.9-11.8c3.8,1,5.7,3.4,9.7,3.4c0,0.3,0,0.6,0,0.8c0.7,0,1.5,0,2.2,0c0,0.3,0,0.6,0,0.8&#10;&#9;&#9;c0.7,0,1.5,0,2.2,0c0,0.3,0,0.6,0,0.8c0.7,0,1.5,0,2.2,0c0,0.3,0,0.6,0,0.8c9.7,1.1,19,3.8,28.8,1.9c8.3-1.6,20.1-10.3,26.9-10.3&#10;&#9;&#9;c0-0.3,0-0.6,0-0.8c3.5,0,1.7-1.7,5.2-1.7c0-2.4,3-0.1,3-2.5C191.1,385,196.8,379.6,203.4,379.1 M68.9,385&#10;&#9;&#9;c-2.7-0.8-4.4-2.2-5.2-5.1C65.9,380,68.2,382.6,68.9,385 M68.9,385c1.4,0.3,4.5,1.3,4.5,3.4c2.1,0,14.9,9,14.9,10.9&#10;&#9;&#9;c4.3,0,7,6.7,11.1,6.7c0,0.3,0,0.6,0,0.8c0.5,0,1,0,1.5,0c0,0.3,0,0.6,0,0.8c0.5,0,1,0,1.5,0c0,0.3,0,0.6,0,0.8c0.5,0,1,0,1.5,0&#10;&#9;&#9;c0,0.3,0,0.6,0,0.8c1.1,0,8.9,4.5,8.9,5c0.5,0,1,0,1.5,0c0,0.3,0,0.6,0,0.8c0.7,0,1.5,0,2.2,0c0,0.3,0,0.6,0,0.8c0.5,0,1,0,1.5,0&#10;&#9;&#9;c0,0.3,0,0.6,0,0.8c0.7,0,1.5,0,2.2,0c0,0.3,0,0.6,0,0.8c0.7,0,1.5,0,2.2,0c0,0.3,0,0.6,0,0.8c0.7,0,1.5,0,2.2,0c0,0.3,0,0.6,0,0.8&#10;&#9;&#9;c5.1,0.6,9.9,3,14.9,3.4c-0.5,2.3-5.6,9.1-7.4,10.1c-2.2,7.5-5.9,13.4-8.2,21c-3.1-0.1-4.6-2.5-7.4-2.5c0-3-4.5,0.5-4.5-2.5&#10;&#9;&#9;c-0.5,0-1,0-1.5,0c0-0.3,0-0.6,0-0.8c-0.7,0-1.5,0-2.2,0c0-0.3,0-0.6,0-0.8c-0.7,0-1.5,0-2.2,0c0-0.3,0-0.6,0-0.8&#10;&#9;&#9;c-0.7,0-1.5,0-2.2,0c0-0.3,0-0.6,0-0.8c-1,0-2,0-3,0c0-0.3,0-0.6,0-0.8c-0.7,0-1.5,0-2.2,0c0-0.3,0-0.6,0-0.8c-0.7,0-1.5,0-2.2,0&#10;&#9;&#9;c0-0.3,0-0.6,0-0.8c-0.7,0-1.5,0-2.2,0c0-0.3,0-0.6,0-0.8c-0.7,0-1.5,0-2.2,0c0-0.3,0-0.6,0-0.8c-1,0-2,0-3,0c0-0.3,0-0.6,0-0.8&#10;&#9;&#9;c-2.7-0.3-5.4-0.6-8.2-0.8c0-0.3,0-0.6,0-0.8c-1.7,0-3.5,0-5.2,0c0-0.3,0-0.6,0-0.8c-2.2,0-4.5,0-6.7,0c0-0.3,0-0.6,0-0.8&#10;&#9;&#9;c-11.9,0.4-23.9-0.1-35.7,2.5c0-0.3,0-0.6,0-0.8c-0.2,0-0.5,0-0.7,0c0-3.3,22-5.1,26-5.1c0-0.3,0-0.6,0-0.8c3.2,0,6.4,0,9.7,0&#10;&#9;&#9;c0-0.3,0-0.6,0-0.8c3,0,5.9,0,8.9,0c0-0.3,0-0.6,0-0.8c5.7-1.8,15.2,1.1,21.1,1.4c9,0.4,15.5,7,19.1-3.9c-1.7,0.2-2.5-0.3-2.2-1.7&#10;&#9;&#9;c-4.1,0-15.5-10.4-17.8-14.3C92.7,412.8,70.2,390.9,68.9,385 M339.4,386.7c0,2-7.1,5.9-8.9,5.9c0,0.3,0,0.6,0,0.8c-0.5,0-1,0-1.5,0&#10;&#9;&#9;c0,0.3,0,0.6,0,0.8c-0.5,0-1,0-1.5,0c0,0.3,0,0.6,0,0.8c-0.5,0-1,0-1.5,0c0,0.3,0,0.6,0,0.8c-0.5,0-1,0-1.5,0&#10;&#9;&#9;c0,2.4-2.2,0.3-2.2,3.4c7.5,1.4,12.2,8.7,19.3,5.7c13-5.5,26.3-8.8,40.2-9c0,0.3,0,0.6,0,0.8c-1.9,0-14.1,3.3-14.1,5.1&#10;&#9;&#9;c-0.7,0-1.5,0-2.2,0c0,2.4-3,0.1-3,2.5c-0.7,0-1.5,0-2.2,0c0,0.3,0,0.6,0,0.8c-0.7,0-1.5,0-2.2,0c0,2.4-3,0.1-3,2.5&#10;&#9;&#9;c-2.6,0-4,3.4-6.7,3.4c0,2.1-2.2,0.5-2.2,2.5c1.1,0,6.7,4.1,6.7,5c-8,0-8.3,12.4-17.1,3.4c-1.3-2.8-11.1-5.6-11.1-7.6&#10;&#9;&#9;c-0.5,0-1,0-1.5,0c0-0.3,0-0.6,0-0.8c-0.5,0-1,0-1.5,0c0-4-11.1-2.8-11.1-5.9c-0.5,0-1,0-1.5,0c0-0.3,0-0.6,0-0.8&#10;&#9;&#9;c-0.7,0-1.5,0-2.2,0c0-1.8-8.3-3-9.7-3.4c0,0.3,0,0.6,0,0.8c-0.2,0-0.5,0-0.7,0c0,3.1,18.7,22.7,22.3,22.7c0,3.7,5.7,5.8,6.7,10.1&#10;&#9;&#9;c-1.7,0.2-2.5-0.3-2.2-1.7c-0.5,0-1,0-1.5,0c0-0.3,0-0.6,0-0.8c-3.7,0-6.4-6.7-10.4-6.7c0-2.4-3-0.1-3-2.5c-0.7,0-1.5,0-2.2,0&#10;&#9;&#9;c0-1.1-6.6-4.6-8.2-5c0.7,9.9,6.3,19.3,6.7,29.5c-5.7-1.7-9-11.8-14.9-11.8c0-0.3,0-0.6,0-0.8c-0.5,0-1,0-1.5,0c0-0.3,0-0.6,0-0.8&#10;&#9;&#9;c-0.5,0-1,0-1.5,0c0-0.3,0-0.6,0-0.8c-0.5,0-1,0-1.5,0c0-0.3,0-0.6,0-0.8c-2.5,0-1.2-1.7-3.7-1.7c0-0.3,0-0.6,0-0.8&#10;&#9;&#9;c-0.5,0-1,0-1.5,0c0-0.3,0-0.6,0-0.8c-0.5,0-1,0-1.5,0c0-0.3,0-0.6,0-0.8c-0.5,0-1,0-1.5,0c0-0.3,0-0.6,0-0.8&#10;&#9;&#9;c-2.5,0-1.2-1.7-3.7-1.7c0-0.3,0-0.6,0-0.8c-0.5,0-1,0-1.5,0c0-0.3,0-0.6,0-0.8c-0.7,0-1.5,0-2.2,0c0-0.3,0-0.6,0-0.8&#10;&#9;&#9;c-0.5,0-1,0-1.5,0c0-0.3,0-0.6,0-0.8c-0.5,0-1,0-1.5,0c0-0.3,0-0.6,0-0.8c-0.5,0-1,0-1.5,0c0-2.9-4.5-0.4-4.5-3.4&#10;&#9;&#9;c-4.5,0-45.3-19.2-45.3-17.7c25.8-0.6,50.9,4.4,68.4,13.5c0.4-7.3-1.1-18,0-24.4c0.2,0,0.5,0,0.7,0c0-0.3,0-0.6,0-0.8&#10;&#9;&#9;c-0.2,0-0.5,0-0.7,0c0-0.3,0-0.6,0-0.8c2.3,0,17.8,0.5,17.8,2.5c3.6,1.1,9.9,0.4,12.6-0.8c0-0.3,0-0.6,0-0.8c0.7,0,1.5,0,2.2,0&#10;&#9;&#9;c0-0.3,0-0.6,0-0.8c1,0,2,0,3,0c0-0.3,0-0.6,0-0.8C326,388.4,332.7,387.6,339.4,386.7 M472.4,387.6c-0.1,5.6-4.5,9.3-4.5,14.3&#10;&#9;&#9;c-0.3,0-0.5,0-0.7,0c0,0.6,0,1.1,0,1.7c-0.2,0-0.5,0-0.7,0c0,0.6,0,1.1,0,1.7c-0.3,0-0.5,0-0.7,0c0,2.6-5.1,11.3-7.4,12.6&#10;&#9;&#9;c0,6.7-12.6,11.6-12.6,17.7c1.2,0,6.7,4,6.7,5.1c0.5,0,1,0,1.5,0c0,0.3,0,0.6,0,0.8c0.5,0,1,0,1.5,0c0,0.3,0,0.6,0,0.8&#10;&#9;&#9;c0.5,0,1,0,1.5,0c0,0.3,0,0.6,0,0.8c0.5,0,1,0,1.5,0c0,2.9,4.4,0.4,4.4,3.4c0.7,0,1.5,0,2.2,0c0,0.3,0,0.6,0,0.8c0.5,0,1,0,1.5,0&#10;&#9;&#9;c0,0.3,0,0.6,0,0.8c0.5,0,1,0,1.5,0c0,2.4,3,0.1,3,2.5c0.7,0,1.5,0,2.2,0c0,0.3,0,0.6,0,0.8c0.5,0,1,0,1.5,0c0,0.3,0,0.6,0,0.8&#10;&#9;&#9;c0.7,0,1.5,0,2.2,0c0,0.3,0,0.6,0,0.8c0.5,0,1,0,1.5,0c0,0.3,0,0.6,0,0.8c0.7,0,1.5,0,2.2,0c0,0.3,0,0.6,0,0.8c0.5,0,1,0,1.5,0&#10;&#9;&#9;c0,2.1,5,0.6,5.9,4.2c-5.1,0-39.4-1.7-39.4-8.4c-1,0-2,0-3,0c0-0.3,0-0.6,0-0.8c-0.5,0-1,0-1.5,0c0-2.7-3.7,0.2-3.7-2.5&#10;&#9;&#9;c-2.7,0-1.2-1.7-4.5-1.7c0-0.3,0-0.6,0-0.8c0.2,0-7.5,0.8-5.2,0.8c0,0.3,0,0.6,0,0.8c-0.7,0-1.5,0-2.2,0c0,0.3,0,0.6,0,0.8&#10;&#9;&#9;c-1,0-2,0-3,0c0,0.3,0,0.6,0,0.8c-0.7,0-1.5,0-2.2,0c0,0.3,0,0.6,0,0.8c-1,0-2,0-3,0c0,0.3,0,0.6,0,0.8c-1,0-2,0-3,0&#10;&#9;&#9;c0,4.2-36,6.7-40.1,6.7c0-2.4,10.5-15.2,12.6-16.8c0-6.1,8.4-12.8,9.7-20.2c-1.7,0-8.2,0.4-9.7,0.8c0,0.3,0,0.6,0,0.8&#10;&#9;&#9;c-1.5,0-3,0-4.5,0c0,0.3,0,0.6,0,0.8c-1.2,0-2.5,0-3.7,0c0,0.3,0,0.6,0,0.8c-1.2,0-2.5,0-3.7,0c0,0.3,0,0.6,0,0.8c-1,0-2,0-3,0&#10;&#9;&#9;c0,0.3,0,0.6,0,0.8c-1,0-2,0-3,0c0,0.3,0,0.6,0,0.8c-0.7,0-1.5,0-2.2,0c0,0.3,0,0.6,0,0.8c-0.7,0-1.5,0-2.2,0c0,0.3,0,0.6,0,0.8&#10;&#9;&#9;c-0.7,0-1.5,0-2.2,0c0,3.7-11.9,2.6-11.9,6.7c-0.5,0-1,0-1.5,0c0,0.8-4.1,3.4-5.2,3.4c0,1.6-8.2,7.6-9.7,7.6c0,4.1-5.2,2.8-5.2,6.7&#10;&#9;&#9;c-1.1,0-5.9,5.3-5.9,6.7c-0.5,0-1,0-1.5,0c0.3-1.4,0.7-3.4,2.2-3.4c0-0.6,0-1.1,0-1.7c3.1,0,13-15.9,15.6-18.5&#10;&#9;&#9;c2.9-4.1,12-14.3,16.3-14.3c0-0.3,0-0.6,0-0.8c0.5,0,1,0,1.5,0c0-0.3,0-0.6,0-0.8c0.5,0,1,0,1.5,0c0-0.3,0-0.6,0-0.8&#10;&#9;&#9;c0.5,0,1,0,1.5,0c0-0.3,0-0.6,0-0.8c2.7,0,5.5-4.2,8.2-4.2c0-3.8,7.4-0.6,7.4-4.2c0.7,0,1.5,0,2.2,0c0-0.3,0-0.6,0-0.8&#10;&#9;&#9;c0.7,0,1.5,0,2.2,0c0-0.3,0-0.6,0-0.8c0.7,0,1.5,0,2.2,0c0-0.3,0-0.6,0-0.8c0.7,0,1.5,0,2.2,0c0-3.1,27.1-6.2,30.5-2.5&#10;&#9;&#9;c-1.2,1.3-0.7,4.2-2.2,4.2c0,0.6,0,1.1,0,1.7c-0.2,0-0.5,0-0.7,0c0,0.6,0,1.1,0,1.7c-0.3,0-0.5,0-0.7,0c0,0.8,0,1.7,0,2.5&#10;&#9;&#9;c-2.6,0-0.4,5-3,5c0,0.6,0,1.1,0,1.7c-0.3,0-0.5,0-0.7,0c0,0.6,0,1.1,0,1.7c-1.2,0-6.9,14.3-7.4,16.8c6-0.1,11.2-3.4,17.1-3.4&#10;&#9;&#9;c0-0.3,0-0.6,0-0.8c0.7,0,1.5,0,2.2,0c0-0.3,0-0.6,0-0.8c0.7,0,1.5,0,2.2,0c0-2.7,3.7,0.2,3.7-2.5c0.5,0,1,0,1.5,0&#10;&#9;&#9;c0-0.2,5.5-3.4,6.7-3.4c0-0.3,0-0.6,0-0.8c0.5,0,1,0,1.5,0c0,0,15-11.8,15.6-11.8c0-8,14.9-15.2,14.9-23.6c0.3,0,0.5,0,0.7,0&#10;&#9;&#9;c0-0.6,0-1.1,0-1.7C470.5,390.1,470.9,388.1,472.4,387.6 M616.5,408.6c-1.3-0.3-8.2-3.1-8.2-4.2c-0.7,0-1.5,0-2.2,0&#10;&#9;&#9;c0-0.3,0-0.6,0-0.8c-0.7,0-1.5,0-2.2,0c0-0.3,0-0.6,0-0.8c-0.8,0-1.5,0-2.2,0c0-0.3,0-0.6,0-0.8c-1,0-2,0-3,0c0-0.3,0-0.6,0-0.8&#10;&#9;&#9;c-1,0-2,0-3,0c0-0.3,0-0.6,0-0.8c-10.6,0-21.3,0-32,0c0,9.5,19.6,21.6,23.8,30.3c-3.8,0-22.5-15.1-24.5-18.5c-4.9,0-6.6-7-13.4-5.6&#10;&#9;&#9;c-2.1,0.4-2.7,3.1-4.8,4.4c-4,2.5-10.8-4.7-13-8.9c0.6-1.5,1.6-2.1,3-1.7c0-0.3,0-0.6,0-0.8c3.3,0,1.7-1.7,4.5-1.7&#10;&#9;&#9;c0-2.4,3-0.1,3-2.5c0.7,0,1.5,0,2.2,0c0-0.3,0-0.6,0-0.8c0.5,0,1,0,1.5,0c0-5,9.7,0.8,9.7-4.2c6.7,0,13.1-1.7,19.8-1.1&#10;&#9;&#9;c6.6,0.6,13.2,4.5,19.6,4.5c0,0.3,0,0.6,0,0.8c0.5,0,1,0,1.5,0c0,0.3,0,0.6,0,0.8c1,0,2,0,3,0c0,0.3,0,0.6,0,0.8c0.5,0,1,0,1.5,0&#10;&#9;&#9;c0,0.3,0,0.6,0,0.8c0.5,0,1,0,1.5,0c0,0.3,0,0.6,0,0.8c0.5,0,1,0,1.5,0c0,0.3,0,0.6,0,0.8c0.5,0,1,0,1.5,0c0,0.3,0,0.6,0,0.8&#10;&#9;&#9;c0.5,0,1,0,1.5,0c0,0.3,0,0.6,0,0.8c3.6,0,6.7,6.7,9.7,6.7C616.5,407.5,616.5,408,616.5,408.6 M278.4,390.9&#10;&#9;&#9;c0.3,3.9,0.7,8.5,0.7,13.5c-3.7,0.3-7.4,0.6-11.2,0.8c0,0.3,0,0.6,0,0.8c-3.8,0-1.2,0.6-3,0.8c-1.4-3.2-9-6.5-12.6-6.7&#10;&#9;&#9;C252.4,396.2,274.4,391.2,278.4,390.9 M557.1,429.7c0,0.6,0,1.1,0,1.7c-5.3-1.2-9.6-7.6-14.1-7.6c0-0.3,0-0.6,0-0.8&#10;&#9;&#9;c-0.5,0-1,0-1.5,0c0-3-4.5,0.5-4.5-2.5c-0.7,0-1.5,0-2.2,0c0-0.3,0-0.6,0-0.8c-0.7,0-1.5,0-2.2,0c0-0.3,0-0.6,0-0.8&#10;&#9;&#9;c-0.8,0-1.5,0-2.2,0c0-0.3,0-0.6,0-0.8c-0.7,0-1.5,0-2.2,0c0-0.3,0-0.6,0-0.8c-0.7,0-1.5,0-2.2,0c0-0.3,0-0.6,0-0.8&#10;&#9;&#9;c-0.7,0-1.5,0-2.2,0c0-0.3,0-0.6,0-0.8c-1.5,0-3,0-4.5,0c0-0.3,0-0.6,0-0.8c-1.2,0-2.5,0-3.7,0c0-0.3,0-0.6,0-0.8c-1.5,0-3,0-4.4,0&#10;&#9;&#9;c0-0.3,0-0.6,0-0.8c-2,0-4,0-5.9,0c0-0.3,0-0.6,0-0.8c-5.2,0.3-10.4,0.6-15.6,0.8c0,0.3,0,0.6,0,0.8c2.5,0,26.8,19.9,26.8,21&#10;&#9;&#9;c0.5,0,1,0,1.5,0c0,0.3,0,0.6,0,0.8c0.5,0,1,0,1.5,0c0,0.3,0,0.6,0,0.8c0.5,0,1,0,1.5,0c0,0.3,0,0.6,0,0.8c0.5,0,1,0,1.5,0&#10;&#9;&#9;c0,0.3,0,0.6,0,0.8c2.8,0,1.2,1.7,4.5,1.7c0,0.3,0,0.6,0,0.8c0.5,0,1,0,1.5,0c0,2.9,4.5,0.4,4.5,3.4c0.7,0,1.5,0,2.2,0&#10;&#9;&#9;c0,0.3,0,0.6,0,0.8c0.5,0,1,0,1.5,0c0,0.3,0,0.6,0,0.8c0.7,0,1.5,0,2.2,0c0,0.3,0,0.6,0,0.8c0.5,0,1,0,1.5,0c0,3,4.5-0.5,4.5,2.5&#10;&#9;&#9;c0.5,0,1,0,1.5,0c0,0.3,0,0.6,0,0.8c0.7,0,1.5,0,2.2,0c0,3,4.5-0.5,4.5,2.5c0.5,0,1,0,1.5,0c0,0.3,0,0.6,0,0.8c0.7,0,1.5,0,2.2,0&#10;&#9;&#9;c0,0.3,0,0.6,0,0.8c0.5,0,1,0,1.5,0c0,0.3,0,0.6,0,0.8c0.7,0,1.5,0,2.2,0c0,0.3,0,0.6,0,0.8c0.7,0,1.5,0,2.2,0c0,3.8,6.7,0.3,6.7,5&#10;&#9;&#9;c-2.8-0.4-23.8-2.3-23.8-4.2c-3.5-0.3-6.9-0.6-10.4-0.8c0-0.3,0-0.6,0-0.8c-1.2,0-2.5,0-3.7,0c0-0.3,0-0.6,0-0.8&#10;&#9;&#9;c-1.2,0-2.5,0-3.7,0c0-0.3,0-0.6,0-0.8c-1.2,0-2.5,0-3.7,0c0-0.3,0-0.6,0-0.8c-1,0-2,0-3,0c0-0.3,0-0.6,0-0.8&#10;&#9;&#9;c-2.7-0.3-5.5-0.6-8.2-0.8c0-0.3,0-0.6,0-0.8c-1.2,0-2.5,0-3.7,0c0-0.3,0-0.6,0-0.8c-1,0-2,0-3,0c0-0.3,0-0.6,0-0.8&#10;&#9;&#9;c-0.7,0-1.5,0-2.2,0c0-0.3,0-0.6,0-0.8c-0.7,0-1.5,0-2.2,0c0-0.3,0-0.6,0-0.8c-1,0-2,0-3,0c0-3.6-5.9,1.1-5.9-2.5c-0.5,0-1,0-1.5,0&#10;&#9;&#9;c0-3.2-13.4-2.5-13.4-5.9c-0.5,0-1,0-1.5,0c0-0.3,0-0.6,0-0.8c-0.7,0-1.5,0-2.2,0c0-0.3,0-0.6,0-0.8c-0.7,0-1.5,0-2.2,0&#10;&#9;&#9;c0-0.3,0-0.6,0-0.8c-0.7,0-1.5,0-2.2,0c0-0.3,0-0.6,0-0.8c-0.7,0-1.5,0-2.2,0c0-1.9-6.8-3.6-8.2-4.2c0.3-1.6,1-6.7,3-6.7&#10;&#9;&#9;c0-0.6,0-1.1,0-1.7c1.2,0.3,1.7-0.6,1.5-2.5c2.8,0,23,6.7,23,7.6c0.5,0,1,0,1.5,0c0,2.1,6.7,2.7,8.2,3.4&#10;&#9;&#9;c-4.7-7.9-21-14.8-22.3-26.1c12.4-4.7,23.1-2.5,35.7-2.5c0,0.3,0,0.6,0,0.8c1.2,0,2.5,0,3.7,0c0,0.3,0,0.6,0,0.8c1,0,2,0,3,0&#10;&#9;&#9;c0,0.3,0,0.6,0,0.8c0.7,0,1.5,0,2.2,0c0,0.3,0,0.6,0,0.8c0.5,0,1,0,1.5,0c0,0.3,0,0.6,0,0.8c0.7,0,1.5,0,2.2,0c0,2.4,3,0.1,3,2.5&#10;&#9;&#9;c0.5,0,1,0,1.5,0c0,0.3,0,0.6,0,0.8c0.7,0,1.5,0,2.2,0c0,0.3,0,0.6,0,0.8c0.5,0,1,0,1.5,0c0,0.3,0,0.6,0,0.8c2.5,0,1.2,1.7,3.7,1.7&#10;&#9;&#9;c0,0.3,0,0.6,0,0.8c0.5,0,1,0,1.5,0c0,0.3,0,0.6,0,0.8c0.5,0,1,0,1.5,0c0,0.3,0,0.6,0,0.8c0.5,0,1,0,1.5,0c0,1,7.7,5.9,8.9,5.9&#10;&#9;&#9;c0,0.3,0,0.6,0,0.8c2.6,0,1.8,2.5,4.4,2.5C551.9,426.8,555.5,429.1,557.1,429.7 M448.6,412c0,0.6,0,1.1,0,1.7&#10;&#9;&#9;c-1.8,0-7.4,4.7-7.4,6.7c-8.1,0-16.2-3.2-24.5-3.4c0.9-3.2,3-8.5,3-11.8c1.3,0,11.9,0.3,11.9,2.5c1,0,2,0,3,0c0,0.3,0,0.6,0,0.8&#10;&#9;&#9;c1.5,0,3,0,4.5,0c0,0.3,0,0.6,0,0.8C443,409.4,444.8,411.1,448.6,412 M511.8,416.2c5,2.8,9.9,5.6,14.9,8.4c-1,1.1-3.7,1.8-3.7,3.4&#10;&#9;&#9;c-2.5,0-3.1,1.8-6.7,2.5c-2.7-4.5-8.6-4.6-11.1-9.3C507.5,420.1,510.4,418.7,511.8,416.2 M181.8,421.2c-0.3,5.3-0.5,10.7-0.7,16&#10;&#9;&#9;c-8.2-0.1-16.4-3.2-24.5-4.2C156.5,431.6,178.1,422.3,181.8,421.2 M225.7,454.1c0.5-1.8,2.2-2.1,2.2-3.4c2.7,0,3.2-3.4,5.9-3.4&#10;&#9;&#9;c0-1.9,15.6-15.1,17.8-15.1c0-7.8,16,0.7,18.6,1.7c-0.8,1.3-3,1.8-3,3.4c-2.6,0-1.8,2.5-4.5,2.5c0,0.3,0,0.6,0,0.8&#10;&#9;&#9;c-0.5,0-1,0-1.5,0c0,0.3,0,0.6,0,0.8c-0.5,0-1,0-1.5,0c0,0.3,0,0.6,0,0.8c-0.5,0-1,0-1.5,0c0,2.9-4.5,0.4-4.5,3.4&#10;&#9;&#9;c-0.7,0-1.5,0-2.2,0c0,0.3,0,0.6,0,0.8c-0.5,0-1,0-1.5,0c0,0.3,0,0.6,0,0.8c-0.7,0-1.5,0-2.2,0c0,0.3,0,0.6,0,0.8c-0.5,0-1,0-1.5,0&#10;&#9;&#9;c0,3-4.5-0.5-4.5,2.5C236.3,450.7,231.4,453.8,225.7,454.1 M366.9,431.3c5.9,1.4,11.9,2.8,17.8,4.2c-0.9,1.7-6.7,8.8-6.7,10.1&#10;&#9;&#9;c-2.1,0-23-9.1-23-7.6c0.2,0,0.5,0,0.7,0c0-0.3,0-0.6,0-0.8c0.7,0,1.5,0,2.2,0C357.9,435,365.3,433.4,366.9,431.3" style="fill-rule: evenodd; clip-rule: evenodd; fill: rgb(204, 204, 204); opacity: 1;" transform="matrix(1, 0, 0, 1, 0, 0)"/></svg>