<?xml version="1.0" encoding="utf-8"?>
<svg viewBox="1175.56591796875 38.596988677978516 203.9017333984375 200.86801147460938" xmlns="http://www.w3.org/2000/svg"><g transform="matrix(1, 0, 0, 1, 0, 0)">
		<path fill-rule="evenodd" clip-rule="evenodd" fill="currentColor" d="M1277.839,53.833c1.908,3.01-1.885,5.864-1.941,9.062&#10;&#9;&#9;&#9;c-1.56-0.264-1.408,1.182-3.237,0.647c0.877,1.63,1.667,2.974-0.647,1.943c-0.652,1.947,1.443,1.147,2.588,1.294&#10;&#9;&#9;&#9;c-0.424,0.869-1.382,1.205-2.588,1.294c0.28,1.448,3.192,0.262,4.531,0.647c-2.107,0.641-6.794,4.049-7.121,0.648&#10;&#9;&#9;&#9;c-0.842,1.533-1.08,3.666-1.941,5.179c-3.423-3.65,2.466-7.69,4.531-10.356c2.335-3.021,2.817-6.703,5.825-9.062&#10;&#9;&#9;&#9;C1277.839,54.697,1277.839,54.265,1277.839,53.833z" style="fill: currentColor opacity: 1;"/>
		<path fill-rule="evenodd" clip-rule="evenodd" fill="currentColor" d="M1328.978,62.249c-1.035,1.123-2.915,1.401-5.18,1.294&#10;&#9;&#9;&#9;c-0.301,1.382,0.926,1.233,1.941,1.296c-0.279,1.446-3.19,0.261-4.529,0.647c0.287,0.576,0.567,1.159,1.294,1.294&#10;&#9;&#9;&#9;c-1.75,1.271-1.734,4.306-2.588,6.475c-0.547,3.051-1.092-3.717-1.294-5.18c-1.46,0.482-0.254,3.632-0.647,5.18&#10;&#9;&#9;&#9;c-1.002-0.942-1.361-2.526-1.297-4.533c-0.868,0.427-1.204,1.385-1.294,2.59c-2.028-0.829,1.411-3.082-1.296-3.237&#10;&#9;&#9;&#9;C1318.1,65.18,1321.342,61.518,1328.978,62.249z" style="fill: currentColor opacity: 1;"/>
		<path fill-rule="evenodd" clip-rule="evenodd" fill="currentColor" d="M1314.088,70.016c-5.04-0.611-1.984,2.849-6.472,2.591&#10;&#9;&#9;&#9;C1308.433,71.028,1312.852,66.944,1314.088,70.016z" style="fill: currentColor opacity: 1;"/>
		<path fill-rule="evenodd" clip-rule="evenodd" fill="currentColor" d="M1312.794,85.551c-4.795-0.154-13.934-1.698-16.183,3.886&#10;&#9;&#9;&#9;C1296.171,83.826,1307.437,82.32,1312.794,85.551z" style="fill: currentColor opacity: 1;"/>
		<path fill-rule="evenodd" clip-rule="evenodd" fill="currentColor" d="M1266.189,86.2c0.602,0.689,2.386,0.2,1.941,1.941&#10;&#9;&#9;&#9;C1266.718,88.259,1266.07,87.612,1266.189,86.2z" style="fill: currentColor opacity: 1;"/>
		<path fill-rule="evenodd" clip-rule="evenodd" fill="currentColor" d="M1249.359,97.851c4.27-1.144,8.787,2.327,14.24,3.237&#10;&#9;&#9;&#9;c6.325,1.056,13.686,0.32,18.125,3.884c-2.86,1.757-7.772-0.945-12.3-1.943C1262.451,101.493,1255.124,100.244,1249.359,97.851z" style="fill: currentColor opacity: 1;"/>
		<path fill-rule="evenodd" clip-rule="evenodd" fill="currentColor" d="M1279.78,97.203c0.663-0.075,1.31,2.794,1.944,0.647&#10;&#9;&#9;&#9;c0.487,1.616,0.766,1.364,1.294,3.884c-2.367,0.426-2.482-1.401-4.532-1.294C1278.387,98.83,1279.505,98.437,1279.78,97.203z" style="fill: currentColor opacity: 1;"/>
		<path fill-rule="evenodd" clip-rule="evenodd" fill="currentColor" d="M1264.246,98.499c0.279-1.448,3.19-0.263,4.531-0.648&#10;&#9;&#9;&#9;C1267.669,99.793,1266.421,98.571,1264.246,98.499z" style="fill: currentColor opacity: 1;"/>
		<path fill-rule="evenodd" clip-rule="evenodd" fill="currentColor" d="M1254.538,125.039c1.76,3.199,3.272,6.652,7.119,7.768&#10;&#9;&#9;&#9;c1.057,1.859-1.604,4.601-3.235,5.825c-1.874,11.073-9.243,16.65-12.3,26.54c-0.077-12.164,11.448-18.327,11.653-32.365&#10;&#9;&#9;&#9;c-0.551-0.961-1.63-1.393-3.237-1.295C1254.538,129.354,1254.538,127.196,1254.538,125.039z" style="fill: currentColor opacity: 1;"/>
		<path fill-rule="evenodd" clip-rule="evenodd" fill="currentColor" d="M1241.592,131.511c4.177-1.362,9.361,1.848,14.24,1.943&#10;&#9;&#9;&#9;C1250.887,135.579,1245.705,132.369,1241.592,131.511z" style="fill: currentColor opacity: 1;"/>
		<path fill-rule="evenodd" clip-rule="evenodd" fill="currentColor" d="M1248.062,136.689c2.085-0.143,2.742,1.146,5.18,0.647&#10;&#9;&#9;&#9;C1252.926,138.231,1247.407,138.909,1248.062,136.689z" style="fill: currentColor opacity: 1;"/>
		<path fill-rule="evenodd" clip-rule="evenodd" fill="currentColor" d="M1251.301,141.869c1.489,0.912-0.048,4.215-1.941,3.882&#10;&#9;&#9;&#9;c-0.24-1.1,0.503-1.22,1.294-1.294C1250.112,142.38,1250.103,143.115,1251.301,141.869z" style="fill: currentColor opacity: 1;"/>
		<path fill-rule="evenodd" clip-rule="evenodd" fill="currentColor" d="M1259.715,143.81c2.55-0.392,2.867,1.448,3.235,3.238&#10;&#9;&#9;&#9;c-1.502-0.191-3.032-1.626-2.588,1.294c-1.139-0.931-1.477-0.593-1.294,1.296C1256.368,148.761,1259.219,145.433,1259.715,143.81z&#10;&#9;&#9;&#9;" style="fill: currentColor opacity: 1;"/>
		<path fill-rule="evenodd" clip-rule="evenodd" fill="currentColor" d="M1290.786,153.52c0.628,0.018,0.501,0.793,0.647,1.294&#10;&#9;&#9;&#9;c2.207,1.802,2.508,1.485,5.825,1.943c-0.229,0.851-1.139,1.017-1.294,1.943c1.56,0.265,1.408-1.183,3.237-0.649&#10;&#9;&#9;&#9;c-0.521,1.639-2.665,1.652-3.884,2.59c0.424,0.869,1.382,1.205,2.59,1.294c-0.593,1.136-1.203,2.249-3.237,1.944&#10;&#9;&#9;&#9;c0.051-2.031-2.864-4.424-3.884-3.238C1289.044,159.064,1290.759,155.471,1290.786,153.52z" style="fill: currentColor opacity: 1;"/>
		<path fill-rule="evenodd" clip-rule="evenodd" fill="currentColor" d="M1281.725,79.079c4.052,1.989,5.043,7.039,7.121,11.005&#10;&#9;&#9;&#9;c3.876-0.547,4.76-0.011,8.413,0.647c8.039-9.719,24.365-0.119,20.717,12.945c-3.809-2.235-5.45-6.634-10.359-7.768&#10;&#9;&#9;&#9;c-1.496,1.332,1.768,3.375,0.647,6.472c-1.216,3.746-5.189,4.737-6.472,8.416c0.117,4.998,5.516,4.333,7.768,8.415&#10;&#9;&#9;&#9;c3.543,6.429,0.255,17.15,4.529,23.951c2.601-2.722,1.893-5.809,3.237-9.062c1.618-3.911,5.641-6.821,5.18-13.595&#10;&#9;&#9;&#9;c3.413-0.254,5.244-2.091,9.062-1.941c-0.043-5.135-3.772-6.585-5.827-9.708c2.737-5.034,4.991-10.546,6.475-16.831&#10;&#9;&#9;&#9;c-13.046,8.314-14.251,28.47-16.831,47.253c-2.806-8.917,4.295-21.808,1.941-32.364c-4.348,0.613,0.525,10.446-3.884,11.003&#10;&#9;&#9;&#9;c0.046-1.081-2.024-2.62,0-2.588c-0.48-1.462-3.631-0.254-5.178-0.649c0.549-0.961,2.085-0.937,3.237-1.294&#10;&#9;&#9;&#9;c-1.226-0.756-1.744-1.87,0.647-1.943c-0.897-1.475-4.505-0.239-6.474-0.647c0.663-1.497,2.977-1.339,5.179-1.294&#10;&#9;&#9;&#9;c1.464-0.264-0.341-3.793,2.588-2.588c-0.479-1.895-1.565-3.182-2.588-4.533c2.079-0.549,3.553,5.066,7.77,4.533&#10;&#9;&#9;&#9;c4.291-6-1.512-16.037-3.238-18.126c11.108,1.397,14.08-5.34,19.419-9.709c-0.474-4.231,1.094-11.202,2.59-15.537&#10;&#9;&#9;&#9;c2.521,0.653,0.099,2.229,0.647,4.531c1.845-0.312,1.858-2.456,2.59-3.882c0.373,4.265-4.336,9.035-5.827,13.593&#10;&#9;&#9;&#9;c5.45-4.908,7.409-13.307,11.651-19.42c0.135-1.859-0.163-3.289-1.294-3.884c4.361,0.673,4.806-5.225,9.062-6.472&#10;&#9;&#9;&#9;c-0.196,2.641,1.352,0.344,2.588,0.647c-1.172,1.629-3.77,1.84-4.529,3.884c5.808-2.176,15.395-0.574,20.066-3.884&#10;&#9;&#9;&#9;c-2.257-1.413-6.996-0.339-9.063-1.941c-2.325,0.167-4.014,3.279-5.827,1.941c1.63-0.529,1.365-2.954,1.297-5.179&#10;&#9;&#9;&#9;c-4.335,0.413-4.872,4.622-9.063,5.179c-1.699-1.752-3.809-3.096-6.474-3.885c-1.475,0.898-0.242,4.506-0.647,6.473&#10;&#9;&#9;&#9;c2.076,1.31,2.026-2.561,2.59-0.647c1.743,2.749-0.827,0.475-1.294,2.59c1.208,3.432,1.496,5.725-0.649,8.415&#10;&#9;&#9;&#9;c0.199-5.35-2.761-12.051-2.588-19.42c4.545-0.014,7.257,1.806,10.355,3.237c4.24-0.074,4.041-4.592,7.77-5.178&#10;&#9;&#9;&#9;c2.175-0.665,1.007,2.012,1.294,3.237c5.274,3.66,14.506,1.857,19.419,1.294c-2.664,6.277-8.464,8.379-14.89,9.062&#10;&#9;&#9;&#9;c-5.192,0.553-10.301-0.292-14.24,3.237c-6.036,5.407-7.354,17.617-13.593,24.598c-3.479,3.89-7.689,4.38-11.006,8.416&#10;&#9;&#9;&#9;c-2.588-0.216-3.591,1.153-6.471,0.647c0.623,3.475,3.088,5.108,2.588,9.708c4.628-5.079,8.695-10.724,14.888-14.24&#10;&#9;&#9;&#9;c-0.799,6.242-4.67,14.647-7.121,21.361c2.423,3.833,5.42,7.096,5.827,12.944c-2.851,1.465-6.182,2.45-10.359,2.59&#10;&#9;&#9;&#9;c-0.881,1.707-0.764,4.413-1.294,6.474c-6.71,4.724-3.351,19.521-11.004,23.303c-0.444-12.07-5.216-19.812-5.825-31.718&#10;&#9;&#9;&#9;c-2.194-3.415-6.073-5.146-7.768-9.062c3.483-5.291,10.061-10.521,5.178-18.773c6.732-0.258,8.372,4.574,12.299,7.121&#10;&#9;&#9;&#9;c1.499-8.222-6.743-13.827-13.593-11.003c-6.917,2.851-4.837,13.382-5.178,23.303c4.838,5.918,5.024,20.917-5.825,20.067&#10;&#9;&#9;&#9;c-6.233,7.361-9.47,17.717-15.537,25.244c1.365,1.657,4.776,1.268,7.768,1.296c1.467-4.792,1.977-10.54,3.882-14.889&#10;&#9;&#9;&#9;c5.814,3.682,10.199,8.79,18.774,9.709c0.306,5.702-1.627,9.162-4.531,11.652c3.557,12.638-2.817,27.401,2.588,38.192&#10;&#9;&#9;&#9;c-12.187,0.943-15.566-12.465-21.361-20.068c-3.453,0-6.906,0-10.357,0c-1.123,3.66-1.377,11.619,1.294,13.594&#10;&#9;&#9;&#9;c11.867-1.619,14.547,13.988,6.476,18.126c0.497,10.207-4.028,15.392-8.417,20.715c-8.951,3.088-16.013-6.671-9.71-12.949&#10;&#9;&#9;&#9;c2.59,0,5.18,0,7.768,0c1.815-1.206,2.497-3.544,3.237-5.825c-2.599-1.498-7.974-0.224-11.651-0.647&#10;&#9;&#9;&#9;c-2.939-2.456-1.176-7.623-1.941-11.005c-0.746-2.49-5.109-1.366-5.178-4.529c4.473-1.736,10.982-0.304,12.946,2.588&#10;&#9;&#9;&#9;c-0.015,3.035-0.341,6.382,2.588,6.474c2.534-4.071-2.185-7.926-4.529-11.005c-2.756-3.615-5.865-7.059-7.768-10.358&#10;&#9;&#9;&#9;c2.388-3.438,4.281-7.368,6.472-11.004c-1.875-11.454,2.479-19.165,7.121-25.892c-9.823-1.586-9.855,5.7-14.889,11.652&#10;&#9;&#9;&#9;c-4.463,5.278-8.842,7.315-11.651,13.593c-0.141,3.743-0.673,7.094-3.882,7.769c-3.431-11.322-3.681-29.847,0.647-40.135&#10;&#9;&#9;&#9;c-0.817-1.989-2.353-3.258-3.238-5.178c-5.57,5.218-6.807,14.771-9.062,23.303c-7.883-2.763-8.219-16.275-7.768-25.244&#10;&#9;&#9;&#9;c-5.955-3.541-10.076-8.912-12.3-16.184c5.676-0.582,8.427-4.087,14.89-3.884c0.565-1.728-0.312-7.25,2.588-8.415&#10;&#9;&#9;&#9;c4.225,2.034,5.863,6.65,9.062,9.709c2.644-2.762,6.533-7.556,11.651-6.472c2.938,0.621,2.563,2.892,5.18,4.531&#10;&#9;&#9;&#9;c1.251-0.906,1.24-3.074,3.237-3.237c3.544,0.987,3.24,5.822,5.178,8.415c2.723-1.378,4.894-3.305,7.768-4.531&#10;&#9;&#9;&#9;c-0.402-1.755-2.704-1.61-2.588-3.884c-3.802-2.197-8.86-3.36-12.298-5.825c-1.278-0.917-1.405-2.846-2.59-3.884&#10;&#9;&#9;&#9;c-4.491-3.931-12.713-3.288-14.89-9.71c3.235-0.171,9.002-0.072,13.596-0.647c-3.097-4.075-6.648-7.969-4.532-15.535&#10;&#9;&#9;&#9;c-4.75-2.37-9.843-4.398-16.83-4.531c-0.988,7.894,6.241,7.566,9.062,11.65c-2.665,3.163-7.35,4.303-11.652,5.828&#10;&#9;&#9;&#9;c-1.549,3.192-3.541,6.134-5.178,9.709c-1.47,3.21-2.114,7.738-3.884,10.356c-2.186,3.238-6.144,5.049-8.416,7.768&#10;&#9;&#9;&#9;c-0.445-10.354-5.609-18.672-5.177-27.833c-3.37-1.378-6.049-3.447-8.416-5.828c4.22-5.272,9.984-9.001,9.063-19.418&#10;&#9;&#9;&#9;c4.981,2.138,9.51,4.731,11.004,10.357c3.323-0.129,4.073-2.83,5.825-4.532c-6.604-1.379-12.2-3.766-14.242-9.709&#10;&#9;&#9;&#9;c-8.818-1.374-13.49-8.303-19.419-12.946c-4.025-3.153-10.409-4.201-12.298-9.709c4.113-0.415,9.369,1.426,14.241,2.588&#10;&#9;&#9;&#9;c5.688,1.356,11.561,3.065,14.889,6.475c3.296-2.099,7.351-3.438,11.004-5.179c1.6,1.851,3.021,3.885,2.588,7.767&#10;&#9;&#9;&#9;c2.538,0.37,4.038-2.246,5.826-0.647c-0.722,5.473-0.943,9.277,3.235,11.005c-1.158,2.51-4.95,2.386-6.472,4.531&#10;&#9;&#9;&#9;c2.598,2.238,5.579,0.772,7.768-0.647c0.971,1.187-0.022,4.336,3.237,3.235c1.526-2.825-2.398-4.572-3.237-7.766&#10;&#9;&#9;&#9;c-1.354-5.148-0.2-11.888,0.647-16.831c2.711-0.978,6.007,2.458,7.119,5.179c3.788-1.391,10.539,0.18,13.596-1.941&#10;&#9;&#9;&#9;c3.088-1.362,3.94-7.219,7.768-5.828c-0.692,8.876-11.391,13.427-17.477,17.478c-4.158,2.765-5.74,7.26,0,11.004&#10;&#9;&#9;&#9;c5.107-2.659,8.804-6.729,12.944-10.357c-0.056-3.293-0.282-6.756,1.296-8.415c4.608-0.076,8.5,0.562,11.651,1.942&#10;&#9;&#9;&#9;c2.796-1.732,4.962-4.1,7.119-6.472c8.138-1.607,14.709-8.118,23.303-7.121c-1.568,3.886-5.202,3.795-7.766,7.121&#10;&#9;&#9;&#9;c-3.974,5.149-2.438,13.749-7.768,18.124c1.084,2.799,2.559,5.207,2.588,9.062c-2.441,0.793-5.168,1.305-8.415,1.294&#10;&#9;&#9;&#9;c-2.667,2.945-3.697,7.525-5.827,11.005c-4.208-2.698-4.944-8.866-8.415-12.299c-2.239,0.566-4.25,1.36-5.178,3.235&#10;&#9;&#9;&#9;c0.634,0.875,1.727,1.294,2.59,1.943c-1.08,1.873-3.517-2.294-5.18,0c0.785,2.02,3.426,2.184,5.18,3.237&#10;&#9;&#9;&#9;c2.784,4.333,6.573,7.666,12.297,9.062c1.461-2.551-3.964-2.867-0.647-3.237c0,0.216,0,0.431,0,0.647&#10;&#9;&#9;&#9;C1273.583,85.179,1275.779,80.257,1281.725,79.079z M1299.848,165.819c1.695-2.837,3.77-5.293,3.884-9.709&#10;&#9;&#9;&#9;c-7.077-0.688-9.339-6.197-14.887-8.415c-1.246,4.363-1.714,9.506-2.591,14.24c-4.635-0.198-9.728-2.36-14.24-0.647&#10;&#9;&#9;&#9;c-0.46,3.826,4.258,5.224,5.178,9.063c0.849,3.553-1.044,7.267,0,11.004c2.88,0.506,3.886-0.863,6.474-0.649&#10;&#9;&#9;&#9;c7.723,5.441,7.089,19.237,19.419,20.068C1299.349,190.376,1303.114,176.477,1299.848,165.819z M1237.058,125.039&#10;&#9;&#9;&#9;c2.529-1.033,4.659,0.797,7.122-0.647c-1.598-1.23-5.653-0.384-5.826-1.296c0.852-4.758,3.784-7.436,9.062-7.766&#10;&#9;&#9;&#9;c2.503,0.516,2.031,4.011,4.533,4.529C1250.718,107.553,1233.883,117.594,1237.058,125.039z M1263.599,121.801&#10;&#9;&#9;&#9;c-0.967,2.054-1.084,4.958-3.237,5.826c-1.345-3.4-0.709-8.784-3.884-10.357c-3.656,1.523-2.98,7.377-5.825,9.71&#10;&#9;&#9;&#9;c-5.384-1.409-8.53,0.761-14.243,0.647c2.588,5.828,5.774,11.058,8.417,16.83c-4.299,8.655-2.928,20.314-1.294,31.072&#10;&#9;&#9;&#9;c0.372-1.355,1.605-1.848,1.294-3.885c7.433-5.945,12.749-14.006,18.124-22.007c3.767-0.334,8.927,0.727,11.651-0.648&#10;&#9;&#9;&#9;c-0.607-8.384-4.931-16.05,0.649-22.008c-4.564-1.62-8.495,2.623-12.947,3.237c0.629-5.629,3.488-9.028,9.062-9.711&#10;&#9;&#9;&#9;C1269.078,117.681,1266.013,120.942,1263.599,121.801z M1247.415,74.548c-4.622-1.529-12.652-6.76-18.124-3.237&#10;&#9;&#9;&#9;c7.366,1.264,15.106,2.156,19.417,6.474c-4.526,6.031,0.244,17.719,6.476,14.241c-2.835-1.668-5.764-2.601-6.476-5.178&#10;&#9;&#9;&#9;c-2.335-8.491,8.314-12.365,11.653-16.832c-3.74-0.501-4.345,2.129-6.474,3.238c0.75-0.958,0.75-1.632,0-2.591&#10;&#9;&#9;&#9;c-2.024,0.997-6.325-0.282-7.121,1.944c1.88,0.709,3.11,2.067,4.533,3.235C1249.47,76.539,1249.433,75.215,1247.415,74.548z&#10;&#9;&#9;&#9; M1264.246,69.369c-1.85,0.081-3.028-3.819-5.178-1.295c6.041,2.157,4.704,11.695,10.356,14.242&#10;&#9;&#9;&#9;c1.227-3.089,1.365-7.268,3.884-9.062c1.954-0.851,5.165-0.445,7.123-1.296c0.375-3.612-1.937-4.538-1.944-7.766&#10;&#9;&#9;&#9;c5.228-6.426,4.371-18.934,12.3-22.657c-9.779,2.951-17.897,7.564-24.597,13.595c-2.928-0.905-7.418-3.148-11.004-1.296&#10;&#9;&#9;&#9;c3.764,10.873-8.393,9.715-10.357,16.83c3.474-1.271,9.034-0.458,11.651-2.589c-1.113,0.036-1.659-0.497-1.941-1.294&#10;&#9;&#9;&#9;c3.884-1.51,8.82-1.966,11.003-5.178c0.11,0.969-0.231,2.39,0.648,2.59c1.394-5.125,3.418-7.827,8.413-10.358&#10;&#9;&#9;&#9;C1270.802,58.663,1267.541,64.034,1264.246,69.369z M1190.453,46.714c-0.783,0.136-0.399,0.719,0,1.294&#10;&#9;&#9;&#9;c4.507,4.556,12.706,5.417,16.83,10.356c-0.234-3.472-0.021-6.494,3.235-6.472c-0.546,3.881-0.04,4.792,0,9.062&#10;&#9;&#9;&#9;c2.957,0.066,5.641,0.402,7.122,1.941c-2.26,0.329-4.886,0.292-6.475,1.296c3.272,2.771,6.672,5.413,12.302,5.825&#10;&#9;&#9;&#9;c-0.87-3.447-6.901-1.729-7.768-5.178c3.073-0.16,4.489-1.984,7.119-2.59c-0.431-4.099-6.211-2.851-7.766-5.825&#10;&#9;&#9;&#9;c-0.284-2.957,0.653-7.128-0.649-9.062c-4.51,0.235-6.55,2.943-9.708,4.531C1200.049,49.669,1197.256,45.302,1190.453,46.714z&#10;&#9;&#9;&#9; M1232.528,62.896c0.882,2.851,0.886,8.407,3.882,5.825c-8.644-10.98,10.045-13.083,14.243-19.418&#10;&#9;&#9;&#9;c-4.068,2.406-12.451,0.497-14.89,4.531c-1.283-2.385-1.139-6.197-4.531-6.472C1228.078,52.376,1231.542,59.712,1232.528,62.896z&#10;&#9;&#9;&#9; M1218.287,55.776c1.962,0.879,4.209-0.085,3.884-3.237C1219.656,52.396,1217.689,52.806,1218.287,55.776z M1200.809,55.776&#10;&#9;&#9;&#9;c0.195-1.707-0.895-2.125-2.588-1.943C1197.641,55.923,1200.332,54.743,1200.809,55.776z M1218.287,79.726&#10;&#9;&#9;&#9;c3.083-1.017,5.362-2.836,8.415-3.884c-0.453-2.827,1.1-3.646,0.647-6.473C1221.759,70.252,1220.579,75.543,1218.287,79.726z&#10;&#9;&#9;&#9; M1205.988,75.842c4.135,1.305,6.032,6.672,11.004,5.18c0.62-2.347-2.794-0.659-3.237-1.942c-0.962-4.433-3.53-7.261-7.121-9.063&#10;&#9;&#9;&#9;C1207.145,72.681,1205.642,73.338,1205.988,75.842z M1206.635,77.785c-3.915,1.262-6.506,3.852-7.768,7.766&#10;&#9;&#9;&#9;c3.586,0.946,5.887,3.175,8.415,5.181c-2.639,9.024,5.295,13.627,3.235,22.008c1.792,0.96,3.501-1.782,4.534-3.237&#10;&#9;&#9;&#9;c3.849-5.429,4.172-14.532,9.062-18.771c0.799-2.095-2.095-0.495-1.295-2.59c4.637,0.105,8.967-0.095,10.357-3.238&#10;&#9;&#9;&#9;c-2.081-2.667-6.45-3.044-7.121-7.119c-4.441,0.989-3.413,4.355-6.474,5.825c1.787,0.588,4.547,0.2,5.827,1.294&#10;&#9;&#9;&#9;c-1.411,2.043-5.809,1.096-9.062,1.296c-0.668,4.552,0.953,6.812,1.941,9.709c-1.318-0.193-1.724-1.295-2.588-1.943&#10;&#9;&#9;&#9;c-0.348,6.129-0.093,12.854-3.884,15.537c2.851-7.049,1.441-16.472,1.941-24.599c-3.854-0.154-9.462,2.511-11.653,0&#10;&#9;&#9;&#9;c2.886-1.644,8.399-0.665,11.653-1.941C1211.04,81.58,1209.677,78.843,1206.635,77.785z M1286.254,91.378&#10;&#9;&#9;&#9;c-1.854-3.109-2.272-7.651-4.529-10.357c-7.393,0.375-7.553,7.983-10.359,12.945c-10.615-3.573-17.896,2.454-29.126,1.943&#10;&#9;&#9;&#9;c2.249,3.612,6.094,2.574,9.062,4.531c4.744,3.13,8.04,9.44,15.535,9.71c2.452,3.375,5.154,6.499,7.119,10.356&#10;&#9;&#9;&#9;c6.03-0.853,9.458-5.968,16.184-2.588c0.244-5.639-4.418-6.37-5.179-11.003c2.476,0.543,4.322,1.718,6.474,2.588&#10;&#9;&#9;&#9;c-0.282-4.68-6.863-3.064-9.062-5.826c5.766-2.002,9.984-5.551,11.652-11.651C1291.698,90.185,1288.256,92.699,1286.254,91.378z&#10;&#9;&#9;&#9; M1263.599,91.378c-3.927-3.411-5.503-9.17-12.298-9.71C1249.942,90.363,1257.299,90.341,1263.599,91.378z M1293.376,101.734&#10;&#9;&#9;&#9;c-1.222-0.484-0.45-1.933-1.942-0.647c-0.176,3.196,1.89,4.154,1.942,7.121c-0.821,3.362-2.698,9.612,0.647,11.65&#10;&#9;&#9;&#9;c3.15-7.079,0.714-19.183,1.941-25.893C1294.339,96.262,1293.25,99.425,1293.376,101.734z M1226.702,120.506&#10;&#9;&#9;&#9;c-5.479-1.792-8.662,1.373-12.946,2.59c1.89,5.014,3.238,10.573,10.357,10.358c-0.003,0.648,0.524,0.769,0.647,1.294&#10;&#9;&#9;&#9;c0.679,6.656-1.757,16.43,2.588,19.418c0.857-10.27-0.543-15.009,3.237-22.655c-2.942,1.6-6.509,0.523-8.415-0.647&#10;&#9;&#9;&#9;c1.861,0.134,3.29-0.165,3.884-1.294c-1.901-1.119-6.099,0.057-6.474-2.589c1.297,0.264,4.8,1.603,5.827,0&#10;&#9;&#9;&#9;c-2.52-0.503-5.3-0.743-6.474-2.588c3.635,0.679,7.09,1.541,9.71,3.235c0.264-1.683,0.887-3.344,1.294-4.532&#10;&#9;&#9;&#9;c1.829,3.073,4.217,1.78,6.472,1.943c-4.108-2.798-3.74-10.069-9.062-11.652C1226.94,115.565,1228.183,119.4,1226.702,120.506z&#10;&#9;&#9;&#9; M1275.898,122.449c-0.375,3.049,4.155,4.117,5.18,8.416c0.712,3.003-0.516,6.156,0,10.357c-1.644,2.672-4.667,3.965-3.886,9.062&#10;&#9;&#9;&#9;c6.267-4.308,8.043-13.105,12.3-19.42c9.12,1.392,13.316-8.558,7.766-14.241c1.022,5.427,0.54,13.031-5.825,10.357&#10;&#9;&#9;&#9;c-0.16-2.748,1.691-3.486,1.295-6.475c-4.88-1.027-4.137,4.586-5.181,7.122c-1.269,3.088-3.03,5.866-4.529,7.768&#10;&#9;&#9;&#9;c0.478-3.067-0.729-4.451-0.647-7.121c1.703-0.191,0.509,2.513,2.588,1.943c1.326-2.99,2.393-6.24,3.235-9.711&#10;&#9;&#9;&#9;c-3.219-1.033-7.186-0.75-9.708,0.648c0.089,3.364,3.061,3.845,3.885,6.473C1279.594,126.519,1279.659,122.574,1275.898,122.449z&#10;&#9;&#9;&#9; M1240.945,121.801c4.446-0.781,3.442,3.891,8.415,2.591c2.177-2.843,0.357-4.95-1.297-7.122&#10;&#9;&#9;&#9;C1244.017,117.108,1241.337,118.311,1240.945,121.801z M1295.317,125.686c0.607-0.548,1.382-4.127,0-4.532&#10;&#9;&#9;&#9;C1294.902,122.554,1292.894,125.18,1295.317,125.686z M1266.189,126.333c1.923-0.666,5.173-0.004,5.825-1.941&#10;&#9;&#9;&#9;C1269.837,122.687,1266.733,124.382,1266.189,126.333z M1277.192,144.457c1.446-4.18,2.825-10.353,1.294-15.536&#10;&#9;&#9;&#9;c-0.647,0-1.294,0-1.941,0C1273.835,133.222,1274.844,140.149,1277.192,144.457z M1231.232,148.989&#10;&#9;&#9;&#9;c1.804-5.211,8.034-11.762,3.237-16.182c0.037,1.21-0.498,1.37-1.294,0.647C1234.053,137.422,1230.166,144.468,1231.232,148.989z&#10;&#9;&#9;&#9; M1229.292,154.167c0.205-0.886,2.928-3.904,0-3.882C1229.993,151.941,1227.325,153.37,1229.292,154.167z M1270.071,158.699&#10;&#9;&#9;&#9;c1.294,0,2.59,0,3.884,0c0.242-2.996,2.805-3.669,3.237-6.474C1271.478,151.042,1271.48,155.575,1270.071,158.699z&#10;&#9;&#9;&#9; M1266.836,175.529c3.697-2.005,2.649-8.735,2.588-12.948c-0.647,0-1.294,0-1.941,0&#10;&#9;&#9;&#9;C1266.843,166.948,1265.472,170.884,1266.836,175.529z M1271.365,169.056c0.433,0,0.865,0,1.296,0c0-0.432,0-0.863,0-1.294&#10;&#9;&#9;&#9;c-0.431,0-0.863,0-1.296,0C1271.365,168.192,1271.365,168.624,1271.365,169.056z M1266.836,179.412&#10;&#9;&#9;&#9;c-1.59,2.291-5.983,6.311-5.826,9.71c0.142,3.095,6.896,8.856,9.062,12.301c5.45,8.653,8.101,20.408-0.647,25.244&#10;&#9;&#9;&#9;c-2.06-0.11-4.765-1.518-6.474,0c0,1.296,0,2.59,0,3.884c1.877,2.374,4.713-0.118,6.474,1.943&#10;&#9;&#9;&#9;c12.81-6.822,7.194-30.967-0.647-38.839c0.701-2.967,0.998-6.338,1.294-9.711c-4.097-0.427-1.604,5.731-3.235,7.769&#10;&#9;&#9;&#9;c-1.271-1.103-3.235-1.51-3.885-3.237c2.125-6.94,9.565-12.009,10.357-18.124C1270.987,173.159,1269.195,176.014,1266.836,179.412&#10;&#9;&#9;&#9;z M1272.661,182.001c2.043,0.833,2.043-5.364,0-4.531C1272.661,178.981,1272.661,180.491,1272.661,182.001z M1280.431,204.011&#10;&#9;&#9;&#9;c1.119,3.053-0.4,3.954-0.65,7.121c3.786,0.116,2.306-5.033,2.591-8.415c-1.432-0.972-4.106-4.056-6.474-1.942&#10;&#9;&#9;&#9;C1277.103,202.161,1279.908,201.942,1280.431,204.011z M1266.836,215.662c-3.438-3.546,0.631-10.592-3.885-12.946&#10;&#9;&#9;&#9;C1263.175,205.643,1261.224,215.999,1266.836,215.662z" style="fill: currentColor opacity: 1;"/>
		<path fill-rule="evenodd" clip-rule="evenodd" fill="currentColor" d="M1314.088,86.848c8.612,2.034,19.125-7.302,19.421-20.068&#10;&#9;&#9;&#9;c-8.914-0.675-8.469,13.511-14.24,18.125c-3.767-0.765-5.314-3.75-6.475-7.119c-5.485,1.609-11.327-0.769-16.83,0&#10;&#9;&#9;&#9;c-3.911,0.545-6.743,3.495-10.357,3.237c5.982-6.967,10.067-15.828,16.831-22.01c0.522-5.087,1.339-9.881,1.941-14.888&#10;&#9;&#9;&#9;c5.076-0.113,6.962,2.964,10.358,4.532c6.691-0.862,8.927-6.177,16.83-5.828c-0.473,4.276-2.689,6.805-3.882,10.358&#10;&#9;&#9;&#9;c5.657-1.46,6.877,5.69,11.65,7.119c-0.484,2.755-2.838,3.636-5.178,4.533C1335.898,77.751,1328.091,89.632,1314.088,86.848z&#10;&#9;&#9;&#9; M1314.088,50.597c-3.368-0.103-4.342-3.487-8.415-3.882c-0.908,4.052-1.533,8.39-1.294,13.591&#10;&#9;&#9;&#9;c-5.437,5.784-10.649,11.793-15.534,18.126c5.971-4.509,16.048-2.409,24.596-3.237c2.836,1.264,1.616,6.585,5.828,6.474&#10;&#9;&#9;&#9;c2.766-3.274,4.145-7.938,5.176-12.948c3.583-2.459,7.942-4.14,11.006-7.119c-2.87-2.31-8.806-1.554-11.653-3.884&#10;&#9;&#9;&#9;c0.615-4.782,3.043-7.747,3.886-12.3C1322.014,45.138,1318.602,50.734,1314.088,50.597z M1327.037,57.07&#10;&#9;&#9;&#9;c2.969-0.383,4.975,0.2,6.472,1.294C1333.318,54.935,1328.416,54.352,1327.037,57.07z" style="fill: currentColor opacity: 1;"/>
		<path fill-rule="evenodd" clip-rule="evenodd" fill="currentColor" d="M1279.78,49.303c-0.205,1.519-2.002,1.45-2.588,2.59&#10;&#9;&#9;&#9;C1276.01,51.488,1278.312,49.188,1279.78,49.303z" style="fill: currentColor opacity: 1;"/>
		<path fill-rule="evenodd" clip-rule="evenodd" fill="currentColor" d="M1310.206,54.481c0.527-0.422,4.373,1.246,1.941-1.941&#10;&#9;&#9;&#9;c0.098-1.61,2.192-0.19,2.59,0c-0.423,1.242-3.115,5.863,0,6.472c-0.147,0.933-1.932,0.225-1.943,1.294&#10;&#9;&#9;&#9;C1310.963,59.332,1311.588,55.903,1310.206,54.481z" style="fill: currentColor opacity: 1;"/>
		<path fill-rule="evenodd" clip-rule="evenodd" fill="currentColor" d="M1320.563,52.54c0.99,0.012-0.324,3.053-0.647,3.884&#10;&#9;&#9;&#9;c-1.354,0.274-1.715-0.443-2.591-0.647c0.125-0.737,0.65-0.361,0.65,0C1320.054,55.913,1319.548,53.467,1320.563,52.54z" style="fill: currentColor opacity: 1;"/>
		<path fill-rule="evenodd" clip-rule="evenodd" fill="currentColor" d="M1314.737,57.718C1315.672,51.5,1314.735,60.477,1314.737,57.718&#10;&#9;&#9;&#9;L1314.737,57.718z" style="fill: currentColor opacity: 1;"/>
		<path fill-rule="evenodd" clip-rule="evenodd" fill="currentColor" d="M1259.068,56.423c1.733-1.056,4.062,2.819,4.531,5.178&#10;&#9;&#9;&#9;c-1.44,0.502-2.525,1.36-4.531,1.294c0.586-1.14,2.383-1.068,2.588-2.59c-1.98-0.468-1.903,1.117-3.882,0.649&#10;&#9;&#9;&#9;c0.548-0.959,1.627-1.392,3.235-1.296C1261.317,57.626,1260.202,57.015,1259.068,56.423z" style="fill: currentColor opacity: 1;"/>
		<path fill-rule="evenodd" clip-rule="evenodd" fill="currentColor" d="M1307.616,58.365c1.326-0.865,2.719,0.186,0.647-1.941&#10;&#9;&#9;&#9;c1.239-1.816,2.325,1.939,2.589,3.235c-0.432,0-0.863,0-1.294,0c-0.12,0.551,0.251,0.611,0.647,0.647&#10;&#9;&#9;&#9;C1309.235,62.254,1309.048,58.087,1307.616,58.365z" style="fill: currentColor opacity: 1;"/>
		<path fill-rule="evenodd" clip-rule="evenodd" fill="currentColor" d="M1323.151,60.306c-7.585,5.362-17.585,8.308-25.893,12.948&#10;&#9;&#9;&#9;c1.778-3.378,7.715-4.867,12.3-7.122C1314.163,63.869,1318.545,59.376,1323.151,60.306z" style="fill: currentColor opacity: 1;"/>
		<path fill-rule="evenodd" clip-rule="evenodd" fill="currentColor" d="M1278.486,95.262c1.52-1.13-0.36,3.962-1.294,4.531&#10;&#9;&#9;&#9;c-1.524,0.015-1.906-1.115-3.884-0.647c0.591-1.135,1.203-2.249,3.237-1.943c-0.122,0.524-0.65,0.646-0.647,1.296&#10;&#9;&#9;&#9;C1277.932,98.592,1278.121,96.839,1278.486,95.262z" style="fill: currentColor opacity: 1;"/>
		<path fill-rule="evenodd" clip-rule="evenodd" fill="currentColor" d="M1264.246,103.677c2.822,1.606,4.663,0.174,7.119,1.941&#10;&#9;&#9;&#9;C1269.686,106.835,1265.092,105.445,1264.246,103.677z" style="fill: currentColor opacity: 1;"/>
		<path fill-rule="evenodd" clip-rule="evenodd" fill="currentColor" d="M1267.483,140.573c0.096,2.708,2.902,2.708,4.531,3.884&#10;&#9;&#9;&#9;c-4.349,2.176-7.536-2.378-10.357-3.884c0.983-2.036,2.159-3.884,2.589-6.472c1.655-0.29,2.976-0.908,3.884-1.943&#10;&#9;&#9;&#9;c2.393,1.61-1.57,2.253-1.941,3.237c-0.11,1.405,2.295,0.293,3.235,0.647c-0.797,0.93-2.226,1.226-3.884,1.294&#10;&#9;&#9;&#9;c3.013,0.695,1.355,2.059,3.884,3.237C1271.048,141.789,1268.803,140.188,1267.483,140.573z" style="fill: currentColor opacity: 1;"/>
		<path fill-rule="evenodd" clip-rule="evenodd" fill="currentColor" d="M1275.898,106.915c0.942,1,3.315,0.568,5.18,0.647&#10;&#9;&#9;&#9;c0.544,2.259,2.162,3.446,1.941,6.472c-0.858-1.702-2.505-1.622-1.941,1.296c-1.977,0.322-0.279-2.76-1.297-3.886&#10;&#9;&#9;&#9;c-0.237-0.265-1.768,0.299-1.941,0c0.612,1.047,0.58-3.849-0.647-3.235c-2.454,1.226,0.173,0.779-0.647,3.235&#10;&#9;&#9;&#9;C1275.462,113.31,1276.031,108.137,1275.898,106.915z" style="fill: currentColor opacity: 1;"/>
		<path fill-rule="evenodd" clip-rule="evenodd" fill="currentColor" d="M1281.078,165.172c-0.426-0.869-1.384-1.207-2.591-1.294&#10;&#9;&#9;&#9;c1.473-1.847,3.795,0.91,6.474,0c5.027,7.055,6.632,17.534,11.004,25.244c-0.418-8.646-4.758-18.972-8.417-26.54&#10;&#9;&#9;&#9;c2.451,0.938,1.243-1.779,3.238-1.294c4.264,10.194,6.202,22.711,8.415,34.955c-1.231-0.277-1.627-1.395-3.237-1.294&#10;&#9;&#9;&#9;c0.279-1.015,2.037-0.554,1.294-2.59c-3.125-0.048-5.577-5.377-5.825-10.357c-1.16-0.082-1.366,0.792-2.588,0.647&#10;&#9;&#9;&#9;c1.618-1.554,0.612-1.713,0.647-4.531c-0.521,0.343-1.051,0.676-1.944,0.647c1.262-2.093-2.055-2.027,0.647-5.178&#10;&#9;&#9;&#9;c-2.768-0.181-3.198,1.977-6.47,1.294c1.595-2.833-0.535-5.368,3.235-5.825c-1.979-1.473-5.258-1.648-6.474-3.884&#10;&#9;&#9;&#9;C1278.912,163.232,1279.87,165.79,1281.078,165.172z" style="fill: currentColor opacity: 1;"/>
	</g></svg>