<?xml version="1.0" encoding="utf-8"?>
<svg viewBox="327.5999755859375 28.100006103515625 79.2000732421875 357.6000061035156" xmlns="http://www.w3.org/2000/svg"><g transform="matrix(1, 0, 0, 1, 0, 0)">
		<path class="st3" d="M365.9,86.1c0.1-0.5-11-9.4-13.4-10.8C355.9,76.6,366.4,81.7,365.9,86.1z" style="fill: rgb(204, 204, 204); opacity: 1;"/>
		<path class="st3" d="M365.1,102.2c3.1,0.1,15.8,0.9,13.2,5.9C376.1,111.4,367.3,103.4,365.1,102.2z" style="fill: rgb(204, 204, 204); opacity: 1;"/>
		<path class="st3" d="M368.9,92.6c-1.4,1.8-11-7.7-12.8-9.1C358.3,84.7,370.7,89.6,368.9,92.6z" style="fill: rgb(204, 204, 204); opacity: 1;"/>
		<path class="st3" d="M380.3,94.6c-3.7,1-4.3-13.2-5.1-16.1C376.8,80.8,385.4,93.1,380.3,94.6z" style="fill: rgb(204, 204, 204); opacity: 1;"/>
		<path class="st3" d="M373,100.4c-2.6,2.8-11.4-6.5-13.5-7.7C362.1,93.1,376.3,95.8,373,100.4z" style="fill: rgb(204, 204, 204); opacity: 1;"/>
		<path class="st3" d="M380.4,104.8c-4.6,1-2.9-7.7-2.2-9.8C379,97,384.3,103.2,380.4,104.8z" style="fill: rgb(204, 204, 204); opacity: 1;"/>
		<path class="st3" d="M375.3,89.6c-3.4,1.5-5-10.4-5.2-12.1C371,79.4,377.9,88,375.3,89.6z" style="fill: rgb(204, 204, 204); opacity: 1;"/>
		<path class="st3" d="M351.6,43.3c0.6,2.3,10,26.5,10.8,26.5C361,71.4,351.9,45.4,351.6,43.3z" style="fill: rgb(204, 204, 204); opacity: 1;"/>
		<path class="st3" d="M369.2,77.1c-3.1-0.8-7-15.9-9-19.3C361.7,59.6,371.5,77.3,369.2,77.1z" style="fill: rgb(204, 204, 204); opacity: 1;"/>
		<path class="st3" d="M372.6,95.8c-2.6-3.7-4.8-8-6.6-12.1c2.8,3.1,7.6,5.8,9.7,9.4C376.9,95.3,374,98.2,372.6,95.8z" style="fill: rgb(204, 204, 204); opacity: 1;"/>
		<path class="st3" d="M366.4,81.1c-1.7-2.9-2.8-6.4-4.8-9.1c2.8,2.4,7.1,7.9,8,11.6C370.1,85.8,366.6,81.4,366.4,81.1z" style="fill: rgb(204, 204, 204); opacity: 1;"/>
		<path class="st3" d="M359.3,71.8c0.5,0.7,4.9,8.7,4.3,8.7c-0.7-0.6-1.3-1.3-2-1.9c-3.3-6.2-7.9-12.3-13.6-16.5&#10;&#9;&#9;&#9;C352.4,64.3,356.6,67.7,359.3,71.8z" style="fill: rgb(204, 204, 204); opacity: 1;"/>
		<path class="st3" d="M382.5,88c-2.3,1.3-1.2-9.5-1.4-10.2C381.5,78.5,385.9,87.5,382.5,88z" style="fill: rgb(204, 204, 204); opacity: 1;"/>
		<path class="st3" d="M386,384.2c1.1-7.8,1.4-15.7,0.5-23.7c-3.4-30.7-26.1-54.6-35.3-83.5c-8-25.1-2.9-56.5-23.6-76.2&#10;&#9;&#9;&#9;c17.9,13.3,18.9,37.5,23.7,57.3c-1.8-51.8,27.4-98.5,29.3-149.9c0.4,26.6-5.6,52.5-12,78.2c10.6-17.6,28.6-46.8,17.6-68.2&#10;&#9;&#9;&#9;c9.4,14,2.3,36.4-4,50.3c-10.1,22.2-21.4,43.7-24.3,68.3c-2.9,24.3,1,46.6,12.6,68.2c10.6,19.7,23.1,39.2,25.4,62&#10;&#9;&#9;&#9;c5.6-25,7.3-50.2,2.6-75.5c-2.3-12.4-5.1-24.6-7.6-37c-1.9-9.1-4.1-20.6,1.5-28.9c-5.9,10.3,0,26.5,2.5,37&#10;&#9;&#9;&#9;c5.3,21.5,10.7,43.3,11.3,65.5c0.6,19.7-3.3,38.7-8.3,57.6C394,384.9,390,384.5,386,384.2z" style="fill: rgb(204, 204, 204); opacity: 1;"/>
		<path class="st3" d="M382.4,104.7c2.6-2.6,6.5-4,10.1-4.4c-2.6,2.2-5.2,4.5-7,7.5C384.2,109.6,381,106.2,382.4,104.7z" style="fill: rgb(204, 204, 204); opacity: 1;"/>
		<path class="st3" d="M377.9,60.8c-0.1,2.7,2.3,21.3,1.3,21.5C375,82,377.3,63.3,377.9,60.8z" style="fill: rgb(204, 204, 204); opacity: 1;"/>
		<path class="st3" d="M382.7,96.6c0.4-4.5,3.1-9.3,5.4-13.1c-1,4.7-0.7,9.5-1,14.3C386.9,101.3,383.2,98.5,382.7,96.6z" style="fill: rgb(204, 204, 204); opacity: 1;"/>
		<path class="st3" d="M353.9,28.1c0.5,2.8,7.5,26.6,7.2,26.7C355.8,54.6,354.2,31.7,353.9,28.1z" style="fill: rgb(204, 204, 204); opacity: 1;"/>
		<path class="st3" d="M359.8,41.2c4,6.1,12.2,18.2,10.2,25.7C367.8,66.7,361.1,44.3,359.8,41.2z" style="fill: rgb(204, 204, 204); opacity: 1;"/>
		<path class="st3" d="M374.2,82.5c-3.1-0.1-3.1-13-3.2-14.4C371.7,72.2,375.6,78.8,374.2,82.5z" style="fill: rgb(204, 204, 204); opacity: 1;"/>
		<path class="st3" d="M375,75.4c-3.6-0.3-1.7-17-1-19.6C374.1,61.1,377.3,71,375,75.4z" style="fill: rgb(204, 204, 204); opacity: 1;"/>
	</g></svg>