<svg  viewBox="0 0 480 51" fill="none" xmlns="http://www.w3.org/2000/svg">
<path d="M241.309 50.0719C240.497 50.6613 239.777 50.9599 239.16 50.9599C238.568 50.9599 238.076 50.7773 237.688 50.416C237.301 50.052 237.103 49.5946 237.103 49.0359C237.103 48.4333 237.361 47.9346 237.879 47.5319C238.396 47.1372 239.085 46.9372 239.935 46.9372C240.604 46.9372 241.207 47.0933 241.737 47.4079C242.265 47.7239 242.532 48.0626 242.532 48.4199C242.532 48.9279 242.125 49.4786 241.309 50.0719ZM239.548 28.2093C239.368 28.1346 239.187 28.0986 239.005 28.0986C238.824 28.0986 238.656 28.1346 238.5 28.2093C237.26 30.9346 236.64 33.6199 236.64 36.2506C236.64 39.7026 238.013 41.4319 240.751 41.4319C241.6 41.4319 242.34 41.1586 242.959 40.6146C243.579 40.0706 243.887 39.3746 243.887 38.5319C243.887 33.8452 242.44 30.4052 239.548 28.2093ZM265.164 23.4253C264.905 23.4253 264.524 23.2813 264.02 22.9893C263.52 22.6999 263.161 22.5559 262.957 22.5559C262.697 22.5559 262.439 22.6719 262.181 22.9012C261.921 23.1292 261.793 23.3399 261.793 23.5359C261.793 23.7759 262.095 24.5253 262.704 25.7786C263.312 27.0346 263.617 27.7719 263.617 27.9893C263.617 28.3279 263.477 28.6719 263.205 29.0226C262.933 29.3733 262.657 29.5479 262.373 29.5479C262.221 29.5479 262.103 29.4826 262.027 29.3506C261.953 29.2159 261.843 29.1493 261.716 29.1493C261.535 29.1493 261.237 29.2933 260.825 29.5839C260.332 29.8986 259.905 30.1039 259.547 30.2012C258.899 30.0066 258.396 29.7826 258.032 29.5292C257.673 29.2746 257.491 29.0173 257.491 28.752C257.491 28.532 257.8 28.3279 258.421 28.1346C259.143 27.8692 259.635 27.52 259.895 27.0853C259.688 27.0346 259.531 27.0106 259.425 27.0106C258.217 26.8893 257.607 26.4799 257.607 25.7786C257.607 25.5879 257.639 25.3213 257.704 24.9826C257.767 24.644 257.8 24.4026 257.8 24.2559C257.8 23.6306 257.428 23.0879 256.677 22.6266C255.824 22.1212 254.689 21.8652 253.268 21.8652C249.935 21.8652 246.835 22.7359 243.968 24.4759C242.157 25.5653 241.253 26.2746 241.253 26.6133C241.253 26.7813 241.484 27.1346 241.948 27.6626C242.883 28.7266 243.449 29.3906 243.659 29.6546C244.743 31.0106 245.608 32.4452 246.251 33.9706C246.793 35.2972 247.065 36.4093 247.065 37.2999C247.065 39.5719 246.237 41.5319 244.584 43.1879C242.932 44.8426 241.033 45.6719 238.888 45.6719C238.013 45.6719 237.047 45.3733 236.001 44.7786C234.953 44.1919 234.108 43.424 233.465 42.48C232.56 41.1533 232.108 39.1492 232.108 36.4679C232.108 34.8986 232.764 33.0279 234.084 30.8533C234.703 29.8399 235.439 28.7866 236.291 27.6999C236.94 26.9013 237.26 26.4573 237.26 26.3613C237.26 26.0933 236.976 25.6733 236.412 25.0919C235.759 24.4173 234.948 23.7626 233.968 23.1346C231.716 21.7119 229.587 20.9986 227.573 20.9986C224.601 20.9986 222.651 21.4572 221.719 22.3732C221.435 22.6666 220.996 23.3053 220.401 24.2973C220.016 24.9719 219.613 25.3093 219.203 25.3093C218.968 25.3093 218.592 25.1693 218.081 24.8919C217.563 24.6146 217.157 24.4759 216.873 24.4759C216.749 24.4759 216.667 24.5013 216.641 24.5506C216.641 24.5733 216.653 24.5959 216.683 24.6199C217.044 25.2733 217.52 25.8173 218.119 26.2506C218.607 26.6133 219.007 26.7946 219.316 26.7946C219.497 26.7946 219.859 26.5839 220.401 26.1586C220.943 25.7373 221.36 25.5253 221.644 25.5253C222.288 25.5253 222.612 25.8172 222.612 26.3959C222.612 26.9519 222.052 27.8346 220.943 29.0399C220.349 29.6679 219.845 29.9826 219.435 29.9826C217.727 29.9826 216.489 29.6426 215.711 28.9706C215.172 28.4852 214.711 27.8399 214.339 27.0279C213.961 26.2213 213.776 25.5146 213.776 24.9119C213.776 24.1879 214.227 23.0986 215.135 21.6533C214.199 21.1213 213.569 20.6719 213.236 20.3093C212.819 19.8746 212.609 19.3666 212.609 18.7893C212.609 17.7746 212.881 17.2679 213.424 17.2679C213.711 17.2679 214.055 17.4826 214.452 17.9173C214.857 18.3533 215.272 18.8012 215.711 19.2599C216.257 19.7906 217.184 20.0572 218.503 20.0572C218.787 20.0572 219.851 19.8519 221.699 19.4386C223.548 19.0293 225.207 18.8239 226.68 18.8239C229.829 18.8239 232.829 19.8626 235.673 21.9413C236.368 22.4719 237.249 23.1506 238.308 23.9693C238.927 24.4759 239.289 24.7306 239.393 24.7306C239.6 24.7306 240.14 24.4266 241.023 23.8239C242.364 22.9066 243.461 22.2053 244.312 21.7226C246.175 20.6599 248.215 19.8026 250.439 19.1506C252.351 18.5946 253.915 18.316 255.127 18.316C256.523 18.316 258.157 18.5653 260.029 19.0586C261.903 19.5546 262.917 19.8026 263.073 19.8026C263.381 19.8026 263.888 19.4466 264.584 18.7319C265.281 18.0226 265.888 17.6666 266.404 17.6666C267.129 17.6666 267.489 18.6546 267.489 20.6372C267.489 22.4959 266.713 23.4253 265.164 23.4253Z" fill="#050403"/>
<path d="M326.069 33.956C318.497 33.7573 310.833 30.5347 303.92 27.9187C296.675 25.176 289.789 21.6906 282.557 18.9266C268.083 13.3973 252.925 10.9853 237.319 10.8813C222.323 10.7826 207.585 13.3213 193.707 18.6239C179.413 24.0839 164.455 33.5426 148.569 33.956C143.004 34.1 149.503 37.6386 152.124 37.5706C166.704 37.1906 181.185 30.256 194.051 24.476C208.893 17.8106 224.409 14.6053 240.876 14.4959C256.959 14.3879 271.965 17.896 286.395 24.376C299.671 30.34 314.613 37.1786 329.627 37.5706C330.656 37.5973 332.96 37.0773 331.656 35.7533C330.331 34.4093 327.923 34.0053 326.069 33.956Z" fill="#050403"/>
<path d="M385.836 29.7026C378.735 30.028 371.595 29.4626 364.689 27.9559C364.825 27.8679 364.972 27.7413 365.132 27.5693C365.46 27.2146 365.801 26.8479 366.163 26.4706C366.609 26.0346 367.367 25.8199 368.448 25.8199C368.679 25.8199 369.552 25.9879 371.065 26.3226C372.577 26.6586 373.936 26.8266 375.143 26.8266C377.723 26.8266 380.179 25.976 382.505 24.2746C383.077 23.84 383.799 23.2853 384.665 22.6146C385.171 22.1973 385.468 21.9906 385.553 21.9906C385.721 21.9906 386.165 22.2386 386.885 22.7346C387.985 23.4826 388.884 24.0586 389.583 24.4559C391.107 25.3226 392.777 26.0279 394.597 26.5613C396.163 27.0146 397.444 27.2426 398.436 27.2426C399.58 27.2426 400.917 27.0386 402.452 26.636C403.985 26.2293 404.815 26.0279 404.944 26.0279C405.141 26.0279 405.444 26.2133 405.839 26.572C399.363 28.4413 392.645 29.3933 385.836 29.7026ZM383.297 12.5586C383.297 9.73194 384.423 8.31597 386.664 8.31597C387.361 8.31597 387.967 8.53994 388.472 8.98394C388.979 9.42927 389.233 9.99724 389.233 10.6879C389.233 14.5266 388.047 17.3439 385.681 19.1426C385.531 19.2013 385.383 19.2333 385.236 19.2333C385.089 19.2333 384.949 19.2013 384.823 19.1426C383.808 16.9093 383.297 14.7146 383.297 12.5586ZM321.079 26.9853C312.189 24.7173 303.756 20.4426 295.575 16.3346C303.184 12.6613 312.205 10.3666 320.537 12.8053C328.692 15.192 336.295 19.4213 343.836 23.0893C344.488 23.4079 345.153 23.6853 345.812 23.9866C338.003 27.1239 329.016 29.012 321.079 26.9853ZM157.137 25.908C148.821 28.6773 140.165 27.8799 132.137 25.0733C133.603 24.4479 135.06 23.7933 136.507 23.0893C144.048 19.4213 151.651 15.192 159.804 12.8053C167.165 10.652 175.067 12.1906 182.055 15.1106C173.917 19.056 165.795 23.0226 157.137 25.908ZM94.5066 29.7026C87.8666 29.4013 81.3173 28.4893 74.9906 26.7133C75.0706 26.6306 75.1386 26.5533 75.2186 26.4706C75.6653 26.0346 76.4226 25.8199 77.5026 25.8199C77.7346 25.8199 78.608 25.9879 80.1213 26.3226C81.6373 26.6586 82.9919 26.8266 84.1999 26.8266C86.7799 26.8266 89.2359 25.976 91.5613 24.2746C92.1346 23.84 92.8533 23.2853 93.7226 22.6146C94.2279 22.1973 94.5252 21.9906 94.6119 21.9906C94.7786 21.9906 95.2226 22.2386 95.9426 22.7346C97.0426 23.4826 97.9413 24.0586 98.6386 24.4559C100.163 25.3226 101.835 26.0279 103.653 26.5613C105.219 27.0146 106.5 27.2426 107.493 27.2426C108.636 27.2426 109.973 27.0386 111.509 26.636C113.043 26.2293 113.872 26.0279 114.001 26.0279C114.253 26.0279 114.668 26.3186 115.239 26.9026C115.753 27.4293 116.204 27.7039 116.599 27.7546C109.4 29.4226 101.931 30.0413 94.5066 29.7026ZM92.3546 12.5586C92.3546 9.73194 93.4786 8.31597 95.7199 8.31597C96.4172 8.31597 97.0226 8.53994 97.5279 8.98394C98.0359 9.42927 98.2919 9.99724 98.2919 10.6879C98.2919 14.5266 97.1039 17.3439 94.7386 19.1426C94.5893 19.2013 94.4386 19.2333 94.2933 19.2333C94.1466 19.2333 94.0066 19.2013 93.8799 19.1426C92.8653 16.9093 92.3546 14.7146 92.3546 12.5586ZM478.719 15.5413C471.692 11.8453 464.281 9.6613 456.255 8.95197C448.743 8.28664 441.96 10.9226 435.241 13.78C427.332 17.1466 419.883 21.3893 411.861 24.536C410.768 24.9666 409.663 25.3613 408.549 25.7319C408.553 25.6053 408.561 25.4813 408.561 25.344C408.561 23.82 407.927 23.0599 406.656 23.0599C406.444 23.0599 406.132 23.1786 405.719 23.4173C405.309 23.6506 405.016 23.7706 404.848 23.7706C404.636 23.7706 404.425 23.6773 404.213 23.4893C404.001 23.3039 403.895 23.1306 403.895 22.9693C403.895 22.7746 404.143 22.16 404.643 21.1333C405.139 20.104 405.389 19.5013 405.389 19.3226C405.389 19.0453 405.276 18.7626 405.055 18.4773C404.832 18.1893 404.601 18.0453 404.371 18.0453C404.248 18.0453 404.149 18.1013 404.087 18.2093C404.027 18.3159 403.937 18.3706 403.833 18.3706C403.683 18.3706 403.443 18.2546 403.101 18.0173C402.7 17.7599 402.352 17.5906 402.057 17.5106C401.527 17.6706 401.115 17.8546 400.816 18.0613C400.521 18.2693 400.373 18.4799 400.373 18.6986C400.373 18.8773 400.627 19.0453 401.135 19.2013C401.725 19.4213 402.129 19.7079 402.343 20.0626C402.171 20.1039 402.043 20.1239 401.959 20.1239C400.968 20.2226 400.471 20.5586 400.471 21.1333C400.471 21.288 400.493 21.5066 400.547 21.7853C400.6 22.0626 400.627 22.26 400.627 22.3773C400.627 22.892 400.321 23.3373 399.707 23.7133C399.009 24.1293 398.079 24.3373 396.915 24.3373C394.185 24.3373 391.645 23.6239 389.299 22.1973C387.816 21.3079 387.077 20.7266 387.077 20.4493C387.077 20.312 387.267 20.0239 387.645 19.5906C388.412 18.7199 388.875 18.1746 389.047 17.9599C389.931 16.8506 390.643 15.6746 391.169 14.4253C391.612 13.3386 391.835 12.4279 391.835 11.6986C391.835 9.83725 391.156 8.23196 389.804 6.8773C388.452 5.5213 386.897 4.84396 385.14 4.84396C384.423 4.84396 383.632 5.08663 382.775 5.57463C381.917 6.05463 381.225 6.68261 380.699 7.45861C379.957 8.54394 379.587 10.1826 379.587 12.38C379.587 13.6653 380.125 15.1973 381.204 16.9773C381.715 17.8066 382.313 18.6692 383.012 19.5599C383.543 20.2132 383.808 20.5786 383.808 20.6572C383.808 20.8732 383.575 21.2186 383.111 21.6946C382.58 22.2479 381.912 22.784 381.112 23.3C379.268 24.4626 377.524 25.0479 375.873 25.0479C373.441 25.0479 371.845 24.6719 371.08 23.9226C370.848 23.6826 370.488 23.1573 370 22.3466C369.685 21.7933 369.356 21.516 369.02 21.516C368.827 21.516 368.521 21.6332 368.1 21.8599C367.676 22.0879 367.345 22.1973 367.113 22.1973C367.009 22.1973 366.943 22.18 366.921 22.1386C366.921 22.12 366.932 22.1013 366.956 22.0813C367.253 21.5466 367.641 21.0986 368.132 20.7479C368.531 20.4493 368.86 20.3013 369.111 20.3013C369.261 20.3013 369.557 20.4719 370 20.8212C370.444 21.1666 370.787 21.3399 371.017 21.3399C371.547 21.3399 371.811 21.0986 371.811 20.6279C371.811 20.1706 371.353 19.4493 370.444 18.4613C369.96 17.9479 369.547 17.6893 369.209 17.6893C367.811 17.6893 366.799 17.9679 366.163 18.5199C365.719 18.9173 365.341 19.4466 365.037 20.108C364.725 20.7706 364.577 21.3506 364.577 21.8426C364.577 22.4359 364.945 23.3266 365.688 24.5106C364.923 24.9453 364.407 25.3133 364.133 25.6106C363.793 25.9693 363.621 26.3839 363.621 26.8572C363.621 27.2572 363.676 27.5559 363.78 27.7626C361.345 27.1999 358.943 26.5146 356.583 25.7053C357.847 25.1213 359.091 24.5053 360.309 23.8559C362.025 22.9413 354.923 19.5906 352.644 20.8053C351.461 21.4373 350.216 22.0533 348.933 22.644C343.493 20.196 338.221 17.3786 332.804 14.9373C326.463 12.0839 319.473 9.12262 312.336 8.83329C304.716 8.52795 297.156 10.584 290.399 13.7773C274.365 6.04396 257.533 1.74792 239.415 1.36525C220.943 0.973253 203.691 4.85462 187.281 12.6026C181.225 10.0986 174.639 8.56662 168.007 8.83329C160.865 9.12262 153.879 12.0839 147.54 14.9373C141.263 17.7666 135.179 21.0986 128.805 23.7746C127.247 23.1093 125.713 22.3826 124.221 21.5866C122.631 20.7399 120.251 20.0119 118.417 20.5546C116.567 21.1012 118.333 22.6039 119.215 23.0733C120.891 23.9653 122.597 24.7666 124.32 25.5226C121.945 26.3599 119.524 27.0692 117.069 27.6546C117.432 27.3799 117.617 26.6146 117.617 25.344C117.617 23.82 116.981 23.0599 115.712 23.0599C115.501 23.0599 115.189 23.1786 114.776 23.4173C114.365 23.6506 114.075 23.7706 113.907 23.7706C113.693 23.7706 113.48 23.6773 113.269 23.4893C113.057 23.3039 112.952 23.1306 112.952 22.9693C112.952 22.7746 113.2 22.16 113.697 21.1333C114.197 20.104 114.447 19.5013 114.447 19.3226C114.447 19.0453 114.332 18.7626 114.111 18.4773C113.888 18.1893 113.659 18.0453 113.428 18.0453C113.305 18.0453 113.205 18.1013 113.143 18.2093C113.083 18.3159 112.992 18.3706 112.891 18.3706C112.74 18.3706 112.499 18.2546 112.159 18.0173C111.756 17.7599 111.408 17.5906 111.113 17.5106C110.583 17.6706 110.172 17.8546 109.873 18.0613C109.579 18.2693 109.428 18.4799 109.428 18.6986C109.428 18.8773 109.683 19.0453 110.192 19.2013C110.783 19.4213 111.185 19.7079 111.397 20.0626C111.228 20.1039 111.101 20.1239 111.016 20.1239C110.025 20.2226 109.527 20.5586 109.527 21.1333C109.527 21.288 109.551 21.5066 109.605 21.7853C109.657 22.0626 109.683 22.26 109.683 22.3773C109.683 22.892 109.379 23.3373 108.763 23.7133C108.067 24.1293 107.135 24.3373 105.972 24.3373C103.241 24.3373 100.703 23.6239 98.3559 22.1973C96.8733 21.3079 96.1333 20.7266 96.1333 20.4493C96.1333 20.312 96.3212 20.0239 96.7012 19.5906C97.4679 18.7199 97.9319 18.1746 98.1012 17.9599C98.9892 16.8506 99.6973 15.6746 100.227 14.4253C100.669 13.3386 100.892 12.4279 100.892 11.6986C100.892 9.83725 100.213 8.23196 98.8613 6.8773C97.5079 5.5213 95.9533 4.84396 94.1973 4.84396C93.4786 4.84396 92.6893 5.08663 91.832 5.57463C90.972 6.05463 90.2839 6.68261 89.7559 7.45861C89.0146 8.54394 88.6426 10.1826 88.6426 12.38C88.6426 13.6653 89.1813 15.1973 90.2613 16.9773C90.7706 17.8066 91.3706 18.6692 92.0693 19.5599C92.6013 20.2132 92.8653 20.5786 92.8653 20.6572C92.8653 20.8732 92.6319 21.2186 92.1679 21.6946C91.6359 22.2479 90.9692 22.784 90.1679 23.3C88.3239 24.4626 86.5826 25.0479 84.9293 25.0479C82.4986 25.0479 80.9026 24.6719 80.1372 23.9226C79.9039 23.6826 79.5453 23.1573 79.0573 22.3466C78.7426 21.7933 78.4133 21.516 78.0773 21.516C77.8839 21.516 77.5773 21.6332 77.1573 21.8599C76.7333 22.0879 76.4026 22.1973 76.1693 22.1973C76.0679 22.1973 75.9999 22.18 75.9786 22.1386C75.9786 22.12 75.9892 22.1013 76.0119 22.0813C76.3106 21.5466 76.6986 21.0986 77.188 20.7479C77.588 20.4493 77.9173 20.3013 78.1693 20.3013C78.3186 20.3013 78.6146 20.4719 79.0573 20.8212C79.5013 21.1666 79.8426 21.3399 80.0746 21.3399C80.6013 21.3399 80.8679 21.0986 80.8679 20.6279C80.8679 20.1706 80.4106 19.4493 79.5012 18.4613C79.0172 17.9479 78.6039 17.6893 78.2666 17.6893C76.8666 17.6893 75.8546 17.9679 75.2186 18.5199C74.7746 18.9173 74.3986 19.4466 74.0919 20.108C73.7826 20.7706 73.6346 21.3506 73.6346 21.8426C73.6346 22.4359 73.9999 23.3266 74.7452 24.5106C73.9799 24.9453 73.4626 25.3133 73.1906 25.6106C73.056 25.752 72.9679 25.9106 72.8853 26.0706C71.4053 25.6053 69.9319 25.1066 68.4786 24.536C60.4612 21.3893 53.0106 17.1466 45.0999 13.78C38.3813 10.9226 31.5986 8.28664 24.0853 8.95197C16.06 9.6613 8.65062 11.8453 1.62396 15.5413C-2.00804 17.4506 3.68528 17.5453 5.37995 16.6533C14.5026 11.8559 24.1426 10.3106 33.9386 13.9586C41.7946 16.8826 49.168 20.7026 56.6986 24.2693C69.3293 30.2493 83.0533 33.0013 97.2079 32.6199C107.799 32.3333 117.92 30.4146 127.596 26.8679C134.332 29.4426 141.407 31.0226 148.796 31.5173C158.589 32.1746 167.608 28.3373 176.284 24.5279C186.069 20.2319 195.352 14.9759 205.404 11.2173C215.748 7.35194 226.673 5.61994 237.767 5.22261C249.751 4.79594 261.901 6.26662 273.18 10.136C283.199 13.572 292.427 18.816 301.989 23.1853C310.448 27.0533 319.911 31.2866 329.495 31.6013C337.697 31.8733 345.841 30.1226 353.355 27.0973C362.847 30.5013 372.768 32.3386 383.133 32.6199C397.288 33.0013 411.012 30.2493 423.644 24.2693C431.173 20.7026 438.547 16.8826 446.403 13.9586C456.199 10.3106 465.84 11.8559 474.963 16.6533C476.656 17.5453 482.349 17.4506 478.719 15.5413ZM385.999 3.80796C386.545 3.80796 387.037 3.67858 387.472 3.42124C387.907 3.16258 388.125 2.88661 388.125 2.59195C388.125 2.17728 387.791 1.72659 387.123 1.23993C386.456 0.75726 385.867 0.513299 385.363 0.513299C384.877 0.513299 384.473 0.661245 384.155 0.957245C383.837 1.25591 383.677 1.63061 383.677 2.08661C383.677 2.58127 383.891 2.98797 384.312 3.31864C384.737 3.64264 385.303 3.80796 385.999 3.80796ZM95.0546 3.80796C95.6026 3.80796 96.0933 3.67858 96.5306 3.42124C96.9626 3.16258 97.1799 2.88661 97.1799 2.59195C97.1799 2.17728 96.8492 1.72659 96.1812 1.23993C95.5146 0.75726 94.9239 0.513299 94.4186 0.513299C93.9333 0.513299 93.5292 0.661245 93.2119 0.957245C92.8946 1.25591 92.7359 1.63061 92.7359 2.08661C92.7359 2.58127 92.9453 2.98797 93.3693 3.31864C93.7946 3.64264 94.3586 3.80796 95.0546 3.80796Z" fill="#050403"/>
</svg>
