<svg viewBox="0 0 460 55" fill="none" xmlns="http://www.w3.org/2000/svg">
<path d="M241.547 43.848C239.908 42.7106 237.724 41.644 235.605 41.4133C234.708 40.9013 233.805 40.4 232.889 39.9146C234.619 39.104 236.375 38.3826 238.167 37.7626C242.8 40.2026 247.405 42.716 252.228 44.6426C254.753 45.652 257.544 46.588 260.427 47.3173C254.421 52.784 246.992 47.62 241.547 43.848ZM223.849 41.4133C221.731 41.644 219.547 42.7106 217.908 43.848C212.464 47.62 205.033 52.784 199.027 47.3173C201.911 46.588 204.701 45.652 207.227 44.6426C212.051 42.716 216.655 40.2026 221.289 37.7626C223.08 38.3826 224.836 39.104 226.564 39.9146C225.649 40.4 224.747 40.9013 223.849 41.4133ZM199.837 38.1013C202.059 35.992 206.536 34.9973 210.899 35.4346C212.183 35.564 213.435 35.7653 214.673 35.9973C208.979 38.992 203.215 41.9133 197.136 43.992C196.923 41.9653 198.032 39.8146 199.837 38.1013ZM229.728 33.6013C231.497 34.3826 233.241 35.2346 234.973 36.1146C233.193 36.7653 231.445 37.5133 229.728 38.3306C228.009 37.5133 226.261 36.7653 224.481 36.1146C226.215 35.2346 227.957 34.3826 229.728 33.6013ZM226.26 27.8066C227.417 27.492 228.572 27.1333 229.727 26.724C230.883 27.1333 232.039 27.492 233.195 27.8066C232.039 28.1226 230.883 28.4813 229.727 28.892C228.572 28.4813 227.417 28.1226 226.26 27.8066ZM229.728 16.7653C231.64 17.6746 233.591 18.4946 235.581 19.1946C233.648 20.184 231.704 21.14 229.728 22.0133C227.751 21.14 225.807 20.184 223.875 19.1946C225.864 18.4946 227.815 17.6746 229.728 16.7653ZM210.899 19.6613C206.536 20.096 202.059 19.1066 199.837 16.9946C198.184 15.424 197.113 13.4866 197.109 11.616C202.944 13.6093 208.492 16.3746 213.963 19.2453C212.956 19.4173 211.936 19.5573 210.899 19.6613ZM198.568 8.1853C204.649 2.01863 212.325 7.37996 217.908 11.2506C219.547 12.384 221.729 13.4506 223.848 13.684C224.745 14.1946 225.648 14.6973 226.565 15.1826C224.644 16.084 222.689 16.8746 220.689 17.536C216.257 15.1973 211.841 12.8146 207.227 10.972C204.567 9.9093 201.612 8.93197 198.564 8.19064C198.565 8.18797 198.567 8.18796 198.568 8.1853ZM235.607 13.684C237.725 13.4506 239.909 12.384 241.547 11.2506C247.131 7.37996 254.804 2.01863 260.887 8.1853C260.888 8.18796 260.889 8.18797 260.889 8.19064C257.843 8.93197 254.888 9.9093 252.228 10.972C247.612 12.8146 243.197 15.1973 238.765 17.536C236.765 16.8746 234.811 16.084 232.889 15.1826C233.805 14.6973 234.709 14.1946 235.607 13.684ZM248.556 19.6613C247.519 19.5573 246.499 19.4173 245.492 19.2453C250.963 16.3746 256.511 13.6093 262.345 11.616C262.34 13.4866 261.271 15.424 259.616 16.9946C257.396 19.1066 252.919 20.096 248.556 19.6613ZM248.556 35.4346C252.919 34.9973 257.396 35.992 259.616 38.1013C261.42 39.8146 262.531 41.9653 262.317 43.992C256.24 41.912 250.475 38.992 244.781 35.996C246.02 35.7653 247.272 35.564 248.556 35.4346ZM290.747 39.828C283.919 45.612 275.249 47.1386 266.871 45.312C267.273 43.82 267.08 42.1453 266.071 40.3493C264.095 36.828 258.324 34.7733 254.576 34.064C250.061 33.2106 245.691 33.396 241.471 34.2546C240.913 33.9626 240.355 33.6666 239.797 33.3773C238.395 32.6453 237.02 31.976 235.653 31.34C245.211 28.332 255.323 28.4946 264.012 34.0693C264.669 34.492 267.699 34.5266 266.343 33.656C262.169 30.824 258.055 28.9533 253.9 27.8066C258.055 26.6613 262.169 24.792 266.343 21.9613C267.699 21.0906 264.669 21.1253 264.012 21.5466C255.323 27.12 245.211 27.2813 235.655 24.276C237.02 23.6386 238.395 22.9706 239.797 22.24C240.597 21.8213 241.399 21.3986 242.199 20.976C246.195 21.7106 250.32 21.836 254.576 21.032C258.324 20.3226 264.095 18.2706 266.071 14.748C266.969 13.1453 267.223 11.64 266.984 10.2786C275.328 8.48796 283.951 10.028 290.747 15.788C291.375 16.32 294.307 16.476 293.503 15.7213C288.124 10.6706 280.999 7.79463 273.763 7.0213C271.099 6.7373 268.295 6.86397 265.491 7.27197C264.592 6.23997 263.359 5.36663 261.893 4.70397C260.367 4.01597 258.611 3.6533 256.805 3.57597C263.476 1.7973 270.364 1.69463 276.912 4.9333C278.107 5.52396 279.997 5.02396 278.095 4.08396C267.569 -1.12004 257.233 -0.732027 245.608 4.61064C243.041 5.78931 239.313 7.92663 234.349 10.9186C233.961 10.6426 233.659 10.2453 233.485 9.68797C233.163 8.64797 233.168 7.42396 233.712 6.50263C234.125 7.09063 235.007 7.33197 235.88 7.00664C236.879 6.63597 237.448 5.69062 237.152 4.89596C236.967 4.39863 236.472 4.10531 235.892 4.02797C235.865 4.02397 235.839 4.01863 235.812 4.01596C235.677 4.00263 235.549 3.99864 235.409 4.01064C235.231 4.02797 235.032 4.06796 234.809 4.13063C231.157 5.19329 228.076 9.19464 230.833 12.1066C231.023 12.3066 231.221 12.484 231.427 12.6453C230.861 12.9693 230.296 13.2866 229.728 13.5906C229.159 13.2866 228.593 12.9693 228.028 12.6453C228.233 12.484 228.432 12.3066 228.623 12.1066C231.379 9.19464 228.297 5.19329 224.645 4.13063C224.423 4.06796 224.223 4.02797 224.047 4.01064C223.907 3.99864 223.777 4.00263 223.644 4.01596C223.615 4.01863 223.588 4.02397 223.563 4.02797C222.981 4.10531 222.489 4.39863 222.301 4.89596C222.007 5.69062 222.577 6.63597 223.575 7.00664C224.448 7.33197 225.328 7.09063 225.743 6.50263C226.287 7.42396 226.292 8.64797 225.971 9.68797C225.797 10.2453 225.493 10.6426 225.105 10.9186C220.141 7.92663 216.412 5.78931 213.847 4.61064C202.223 -0.732027 191.887 -1.12004 181.36 4.08396C179.457 5.02396 181.348 5.52396 182.541 4.9333C189.091 1.69463 195.979 1.7973 202.649 3.57597C200.844 3.6533 199.088 4.01597 197.563 4.70397C196.097 5.36663 194.864 6.23997 193.964 7.27197C191.16 6.86397 188.356 6.7373 185.692 7.0213C178.457 7.79463 171.329 10.6706 165.952 15.7213C165.148 16.476 168.081 16.32 168.708 15.788C175.504 10.028 184.128 8.48796 192.471 10.2786C192.232 11.64 192.485 13.1453 193.384 14.748C195.361 18.2706 201.131 20.3226 204.877 21.032C209.133 21.8386 213.26 21.7106 217.255 20.976C218.056 21.3986 218.857 21.8213 219.657 22.24C221.06 22.9706 222.436 23.6386 223.801 24.276C214.244 27.2813 204.132 27.12 195.443 21.5466C194.784 21.1253 191.756 21.0906 193.112 21.9613C197.287 24.792 201.4 26.6613 205.556 27.8066C201.4 28.9533 197.287 30.824 193.112 33.656C191.756 34.5266 194.784 34.492 195.443 34.0693C204.132 28.4946 214.244 28.332 223.801 31.34C222.436 31.976 221.06 32.6453 219.657 33.3773C219.1 33.6666 218.543 33.9626 217.985 34.2546C213.764 33.396 209.392 33.2106 204.877 34.064C201.131 34.7733 195.361 36.828 193.384 40.3493C192.375 42.1453 192.181 43.82 192.584 45.312C184.205 47.1386 175.535 45.612 168.708 39.828C168.081 39.296 165.148 39.1386 165.952 39.8933C171.329 44.9453 178.457 47.82 185.692 48.5946C188.488 48.8933 191.439 48.7266 194.381 48.2706C195.233 49.1093 196.312 49.828 197.563 50.3933C199.088 51.084 200.845 51.4426 202.649 51.5213C195.98 53.3 189.091 53.4013 182.541 50.1626C181.348 49.5733 179.457 50.0706 181.36 51.0133C191.887 56.2173 202.223 55.8293 213.847 50.484C216.412 49.3066 220.141 47.1693 225.105 44.1773C225.493 44.4533 225.797 44.8506 225.971 45.408C226.292 46.448 226.287 47.672 225.743 48.5946C225.328 48.008 224.448 47.764 223.575 48.0893C222.577 48.4613 222.007 49.4093 222.301 50.2013C222.489 50.7 222.981 50.9906 223.563 51.068C223.588 51.076 223.615 51.076 223.644 51.0813C223.777 51.092 223.907 51.1 224.047 51.0853C224.223 51.068 224.423 51.028 224.645 50.9666C228.297 49.904 231.379 45.9013 228.623 42.9893C228.432 42.7893 228.233 42.612 228.028 42.4506C228.593 42.128 229.159 41.8106 229.728 41.5053C230.296 41.8106 230.863 42.128 231.427 42.4506C231.221 42.612 231.023 42.7893 230.833 42.9893C228.076 45.9013 231.157 49.904 234.809 50.9666C235.032 51.028 235.231 51.068 235.409 51.0853C235.549 51.1 235.677 51.092 235.812 51.0813C235.839 51.076 235.865 51.076 235.892 51.068C236.472 50.9906 236.967 50.7 237.152 50.2013C237.448 49.4093 236.879 48.4613 235.88 48.0893C235.007 47.764 234.125 48.008 233.712 48.5946C233.168 47.672 233.163 46.448 233.485 45.408C233.659 44.8506 233.961 44.4533 234.351 44.1773C239.313 47.1693 243.041 49.3066 245.608 50.484C257.233 55.8293 267.569 56.2173 278.095 51.0133C279.997 50.0706 278.107 49.5733 276.912 50.1626C270.363 53.4013 263.475 53.3 256.804 51.5213C258.609 51.4426 260.367 51.084 261.893 50.3933C263.143 49.828 264.223 49.1093 265.073 48.2706C268.016 48.7266 270.967 48.8933 273.763 48.5946C280.999 47.82 288.124 44.9453 293.503 39.8933C294.307 39.1386 291.375 39.296 290.747 39.828Z" fill="#050403"/>
<path d="M457.535 27.8986C448.597 27.8986 322.767 28.5133 308.329 28.5133C293.889 28.5133 285.637 29.9733 274.637 33.8693C273.863 34.2546 272.572 33.7079 273.949 32.9173C275.324 32.1239 279.02 30.1453 279.02 27.5893C279.02 24.0573 275.581 22.2613 274.465 21.5306C273.344 20.8026 273.273 20.1146 274.637 20.5573C285.937 24.2426 293.889 25.9159 308.329 25.9159C322.767 25.9159 448.597 26.5813 457.535 26.5813C459.511 26.5813 459.684 27.8986 457.535 27.8986Z" fill="#050403"/>
<path d="M2.40463 27.8986C11.3432 27.8986 137.173 28.5133 151.611 28.5133C166.051 28.5133 174.304 29.9733 185.303 33.8693C186.079 34.2546 187.368 33.7079 185.991 32.9173C184.616 32.1239 180.92 30.1453 180.92 27.5893C180.92 24.0573 184.359 22.2613 185.475 21.5306C186.596 20.8026 186.667 20.1146 185.303 20.5573C174.003 24.2426 166.051 25.9159 151.611 25.9159C137.173 25.9159 11.3432 26.5813 2.40463 26.5813C0.429167 26.5813 0.2557 27.8986 2.40463 27.8986Z" fill="#050403"/>
</svg>
