<svg viewBox="0 0 481 63" fill="none" xmlns="http://www.w3.org/2000/svg">
<path d="M267.184 23.12C272.512 25.1506 278.435 25.1064 283.733 23.0465C289.053 20.9814 294.689 14.973 292.944 9.23969C291.285 3.78663 285.499 1.02516 279.852 0.283956C272.92 -0.622711 267.121 1.18143 261.18 4.43969C255.835 7.37463 250.963 11.084 245.844 14.3549C241.116 17.3746 236.34 20.3252 231.629 23.3653C230.225 24.2705 228.853 25.2054 227.499 26.1762C225.136 27.8694 218.417 31.1388 215.917 28.3226C214.568 26.796 216.791 26.0268 218.072 26.3549C219.195 26.6397 220.251 27.2678 221.251 27.7986C224.124 29.3184 226.825 31.1481 229.479 32.9757C234.581 36.4814 240.696 40.385 243.651 45.7544C245.243 48.6492 245.16 52.3252 244.305 55.396C243.817 57.1533 242.712 58.82 241.533 60.2454C241.081 60.7945 240.235 60.9866 240.663 61.284C239.704 60.62 239.077 59.5424 238.48 58.6054C230.255 45.6798 248.121 35.2788 257.907 29.3252C258.776 28.7976 264.619 24.9814 265.599 26.4517C266.652 28.0268 264.1 29.0669 262.967 29.2757C260.812 29.673 258.304 28.632 256.407 27.808C252.273 26.0121 248.411 22.732 244.636 20.3492C239.853 17.3252 235.041 14.3388 230.329 11.2132C224.813 7.55169 219.488 3.75169 213.147 1.39076C204.451 -1.85191 186.84 0.527825 188.249 12.3148C188.9 17.7612 194.62 21.885 199.744 23.6121C204.587 25.2465 210.111 24.884 214.821 23.0877C215.689 22.7585 214.569 22.1309 214.215 22.02C213.335 21.7454 212.348 21.7216 211.488 22.0492C203.803 24.9788 195.255 21.0918 192.485 13.8226C189.605 6.26782 198.964 1.66369 205.528 1.51729C213.083 1.34809 220.223 7.16116 225.972 11.0762C230.549 14.1893 235.292 17.0986 239.984 20.0574C243.743 22.4252 247.393 24.9293 251.121 27.3278C255.268 29.9908 262.212 32.1773 267.124 30.1549C268.871 29.4372 270.191 28.2481 269.444 26.3908C268.743 24.6388 265.535 24.5918 263.973 24.6637C258.611 24.9132 253.781 28.6694 249.621 31.4721C244.625 34.8336 239.448 38.42 235.583 42.9293C231.283 47.944 231.893 54.9481 235.58 60.0626C238.568 64.2038 243.481 63.5694 246.251 59.7345C250.06 54.4506 249.525 47.5424 245.336 42.6585C241.512 38.1945 236.199 34.6945 231.263 31.3705C226.931 28.4533 222.449 25.3612 217.037 24.685C215.379 24.4746 212.976 24.585 211.989 26.0601C210.779 27.8746 212.952 29.4038 214.491 30.0361C219.724 32.1882 226.413 30.056 230.835 27.2158C235.753 24.0517 240.621 20.808 245.577 17.6798C252.172 13.5132 258.476 8.79449 265.335 5.02783C269.605 2.68503 273.847 1.17982 278.853 1.64809C283.691 2.09862 288.184 5.14649 289.187 9.71582C290.184 14.2626 286.28 18.5908 282.533 20.9388C278.568 23.4268 273.651 23.6773 269.299 22.02C268.161 21.5877 264.803 22.2132 267.184 23.12Z" fill="currentColor"/>
<path d="M258.339 48.9642C261.972 43.3601 268.72 39.3601 275.28 36.3773C283.584 32.6063 292.851 31.4465 302.175 32.4011C316.712 33.8907 329.751 40.5215 343.305 44.7335C358.801 49.5465 374.965 52.6309 391.483 53.5199C409.064 54.4653 427.153 53.0278 444.345 49.9095C456.495 47.7079 468.28 44.3669 479.843 40.5934C480.968 40.2267 481.033 39.5106 479.893 39.097C478.584 38.6267 476.745 38.5585 475.411 38.9945C444.201 49.1798 410.471 54.6158 377.028 49.9798C362.343 47.9454 348.209 43.8173 334.608 38.8491C319.776 33.4278 305.041 28.7131 288.507 30.2506C280.871 30.9585 273.705 33.2158 267.129 36.473C261.379 39.3183 255.472 43.2787 252.247 48.2601C251.339 49.6585 257.477 50.2882 258.339 48.9642Z" fill="currentColor"/>
<path d="M267.084 53.9319C278.683 53.3215 290.031 51.3798 301.105 48.473C311.752 45.6798 321.82 41.5839 332.279 38.3533C342.115 35.3173 352.46 32.4559 363 31.9183C375.405 31.2882 387.217 33.9131 398.375 38.2882C399.597 38.7678 401.392 39.1293 402.707 38.685C404.039 38.2345 402.643 37.3345 401.967 37.0678C391.276 32.8773 379.916 29.9787 368.059 29.5517C356.725 29.1454 345.971 31.1413 335.236 34.0173C324.367 36.9251 314.073 40.9585 303.424 44.3226C290.951 48.2653 277.745 50.8798 264.421 51.5814C260.317 51.7975 265.137 54.0335 267.084 53.9319Z" fill="currentColor"/>
<path d="M222.447 48.9642C218.811 43.3601 212.065 39.3601 205.501 36.3773C197.197 32.6063 187.931 31.4465 178.605 32.4011C164.073 33.8907 151.032 40.5215 137.476 44.7335C121.977 49.5465 105.815 52.6309 89.3 53.5199C71.72 54.4653 53.632 53.0278 36.4373 49.9095C24.2893 47.7079 12.504 44.3669 0.941323 40.5934C-0.186677 40.2267 -0.253362 39.5106 0.889305 39.097C2.19997 38.6267 4.03465 38.5585 5.36932 38.9945C36.5813 49.1798 70.3067 54.6158 103.755 49.9798C118.441 47.9454 132.573 43.8173 146.175 38.8491C161.009 33.4278 175.741 28.7131 192.273 30.2506C199.908 30.9585 207.075 33.2158 213.652 36.473C219.403 39.3183 225.308 43.2787 228.54 48.2601C229.444 49.6585 223.305 50.2882 222.447 48.9642Z" fill="currentColor"/>
<path d="M213.697 53.9319C202.1 53.3215 190.751 51.3798 179.676 48.473C169.029 45.6798 158.961 41.5839 148.505 38.3533C138.669 35.3173 128.319 32.4559 117.783 31.9183C105.377 31.2882 93.5679 33.9131 82.4093 38.2882C81.1879 38.7678 79.3866 39.1293 78.0759 38.685C76.7466 38.2345 78.14 37.3345 78.8186 37.0678C89.504 32.8773 100.867 29.9787 112.723 29.5517C124.056 29.1454 134.812 31.1413 145.549 34.0173C156.419 36.9251 166.709 40.9585 177.36 44.3226C189.829 48.2653 203.036 50.8798 216.361 51.5814C220.467 51.7975 215.644 54.0335 213.697 53.9319Z" fill="currentColor"/>
</svg>
