<svg width="345" height="346" viewBox="0 0 345 346" fill="none" xmlns="http://www.w3.org/2000/svg">
<path d="M197.276 336.023C198.376 340.623 201.176 345.123 201.176 345.123C196.576 336.723 200.176 330.723 202.876 326.523C204.576 323.823 204.876 320.923 204.876 319.223C207.576 318.723 210.076 318.023 212.576 317.123C218.676 327.223 236.176 328.923 236.176 328.923C220.876 325.423 217.076 319.323 216.276 315.623C219.376 314.223 222.176 312.623 224.776 310.723C227.076 311.123 230.676 312.523 230.876 316.923C230.876 316.923 233.376 309.723 228.076 308.023C230.676 305.623 232.676 302.923 234.076 300.123C234.076 300.123 223.376 300.223 217.276 300.523C217.276 300.523 199.976 315.523 178.576 306.223C172.576 303.623 167.776 300.523 162.976 297.423C168.376 296.023 166.276 288.723 166.276 288.723C165.776 293.923 160.676 294.523 158.676 294.623C156.776 293.423 154.776 292.123 152.576 290.923C152.976 289.323 154.876 284.423 163.876 283.023C166.476 286.823 170.676 291.823 175.976 294.323C173.576 295.423 171.176 296.623 168.576 297.923C168.576 297.923 174.676 301.323 180.376 303.523C180.376 303.523 199.276 291.723 231.976 296.023C235.276 296.423 238.576 296.523 241.776 296.323C236.376 302.923 234.076 311.723 234.076 311.723C238.976 302.323 243.676 297.823 247.276 295.723C249.176 295.423 251.076 294.923 252.876 294.423C253.576 299.723 260.976 298.823 260.976 298.823C257.076 297.923 256.476 295.123 256.676 293.223C261.176 291.523 265.376 289.323 269.176 286.723C273.576 290.223 273.376 297.723 276.476 300.923C279.776 304.323 284.476 306.823 284.476 306.823C276.276 301.823 276.376 294.923 276.476 289.923C276.576 286.723 275.376 284.123 274.476 282.623C276.476 280.823 278.376 278.923 280.076 276.923C290.376 282.623 306.476 275.123 306.476 275.123C291.476 279.823 285.176 276.523 282.576 273.723C284.576 271.023 286.176 268.123 287.376 265.223C289.576 264.423 293.376 263.823 295.776 267.523C295.776 267.523 294.276 260.023 288.876 261.223C289.876 257.823 290.276 254.523 290.076 251.323C290.076 251.323 280.976 256.823 275.776 260.223C275.776 260.223 268.476 281.923 245.276 284.623C238.776 285.423 233.076 285.123 227.376 284.923C231.276 281.023 225.876 275.723 225.876 275.723C228.076 280.423 223.976 283.623 222.276 284.623C219.976 284.523 217.576 284.523 215.176 284.523C214.676 282.923 213.876 277.423 221.676 271.423C225.876 273.323 232.176 275.523 238.076 275.023C236.576 277.123 235.076 279.423 233.576 281.923C233.576 281.923 240.476 281.723 246.576 280.623C246.576 280.623 256.776 260.723 286.976 247.623C290.076 246.323 292.976 244.723 295.576 242.823C294.376 251.223 296.876 260.023 296.876 260.023C296.276 249.423 297.976 243.123 299.976 239.523C301.476 238.223 302.776 236.923 304.076 235.523C307.476 239.723 313.276 235.123 313.276 235.123C309.476 236.323 307.576 234.323 306.676 232.523C309.676 228.823 312.176 224.723 314.076 220.523C319.576 221.323 323.276 227.823 327.576 229.023C332.176 230.323 337.376 229.923 337.376 229.923C327.776 229.823 324.276 223.823 321.876 219.523C320.276 216.723 317.976 215.123 316.476 214.223C317.276 211.623 317.876 209.023 318.376 206.523C330.176 206.123 340.076 191.423 340.076 191.423C329.576 203.123 322.476 203.523 318.876 202.523C319.176 199.123 319.076 195.823 318.676 192.723C320.176 190.923 323.076 188.423 327.076 190.423C327.076 190.423 321.976 184.723 317.876 188.623C316.976 185.223 315.676 182.123 313.876 179.523C313.876 179.523 308.876 188.923 306.176 194.423C306.176 194.423 310.976 216.723 292.476 231.023C287.276 235.023 282.276 237.723 277.276 240.423C278.676 235.023 271.276 233.323 271.276 233.323C275.576 236.223 273.676 241.023 272.776 242.823C270.776 243.923 268.676 245.123 266.676 246.423C265.476 245.323 262.376 241.523 264.876 233.623C269.476 233.123 275.676 231.923 280.376 228.723C280.176 231.323 279.976 234.023 279.876 236.923C279.876 236.923 285.776 233.323 290.476 229.423C290.476 229.423 289.476 207.123 309.176 180.723C311.176 178.023 312.876 175.223 314.276 172.323C317.376 180.223 323.876 186.523 323.876 186.523C318.076 177.623 316.476 171.323 316.376 167.123C316.976 165.323 317.576 163.423 317.976 161.623C322.976 163.623 325.776 156.723 325.776 156.723C323.076 159.723 320.376 158.823 318.776 157.723C319.576 153.023 319.676 148.223 319.176 143.623C324.376 141.523 330.776 145.323 335.076 144.223C339.676 143.023 344.076 140.123 344.076 140.123C335.676 144.823 329.676 141.323 325.476 138.823C322.676 137.223 319.876 136.923 318.176 136.923C317.576 134.323 316.876 131.723 315.976 129.323C325.976 123.123 327.376 105.523 327.376 105.523C324.076 120.923 318.176 124.823 314.476 125.623C313.076 122.523 311.376 119.723 309.476 117.223C309.876 114.823 311.176 111.223 315.576 111.023C315.576 111.023 308.276 108.623 306.776 114.023C304.376 111.523 301.676 109.523 298.776 108.123C298.776 108.123 299.076 118.723 299.476 124.923C299.476 124.923 314.776 141.923 305.776 163.523C303.276 169.523 300.276 174.423 297.176 179.223C295.676 173.923 288.476 176.023 288.476 176.023C293.676 176.423 294.376 181.523 294.476 183.523C293.276 185.523 292.076 187.523 290.876 189.623C289.276 189.223 284.276 187.423 282.776 178.323C286.476 175.623 291.476 171.323 293.876 166.023C294.976 168.323 296.276 170.823 297.676 173.323C297.676 173.323 300.976 167.223 303.076 161.423C303.076 161.423 290.876 142.723 294.576 109.923C294.976 106.523 294.976 103.323 294.676 100.123C301.376 105.323 310.176 107.523 310.176 107.523C300.676 102.723 296.076 98.223 293.876 94.623C293.476 92.723 293.076 90.823 292.476 89.023C297.776 88.223 296.676 80.823 296.676 80.823C295.776 84.723 293.076 85.323 291.176 85.223C289.376 80.723 287.076 76.623 284.376 72.823C287.776 68.423 295.276 68.423 298.476 65.323C301.876 61.923 304.176 57.223 304.176 57.223C299.376 65.523 292.376 65.523 287.476 65.523C284.276 65.523 281.676 66.723 280.176 67.623C278.376 65.623 276.376 63.823 274.376 62.123C279.876 51.723 272.076 35.823 272.076 35.823C277.076 50.723 273.876 57.123 271.176 59.723C268.376 57.823 265.476 56.223 262.576 55.023C261.676 52.823 260.976 49.023 264.676 46.623C264.676 46.623 257.176 48.223 258.576 53.623C255.176 52.723 251.876 52.323 248.676 52.623C248.676 52.623 254.276 61.623 257.776 66.723C257.776 66.723 279.576 73.623 282.776 96.823C283.676 103.323 283.576 109.023 283.376 114.723C279.376 110.823 274.276 116.423 274.276 116.423C278.976 114.123 282.176 118.123 283.276 119.823C283.276 122.123 283.176 124.523 283.276 126.923C281.776 127.423 276.976 128.223 271.376 122.223C273.276 118.023 275.276 112.023 274.776 106.423C276.876 107.923 279.176 109.423 281.676 110.923C281.676 110.923 281.476 104.023 280.476 97.923C280.476 97.923 260.576 87.723 247.576 57.423C246.276 54.323 244.676 51.423 242.876 48.823C251.276 50.123 260.076 47.523 260.076 47.523C249.476 48.123 243.176 46.423 239.576 44.423C238.276 42.923 236.976 41.623 235.576 40.323C239.776 36.923 235.176 31.123 235.176 31.123C236.376 34.923 234.276 36.823 232.576 37.723C228.876 34.723 224.776 32.223 220.576 30.323C221.376 24.823 227.876 21.123 229.076 16.823C230.376 12.223 230.076 7.02301 230.076 7.02301C229.976 16.623 223.976 20.123 219.676 22.523C216.876 24.123 215.176 26.423 214.376 27.923C211.776 27.123 209.176 26.523 206.676 26.023C206.276 14.223 191.676 4.32301 191.676 4.32301C203.376 14.823 203.776 21.923 202.676 25.523C199.276 25.223 195.976 25.323 192.876 25.723C191.076 24.223 188.576 21.323 190.576 17.323C190.576 17.323 184.876 22.423 188.776 26.423C185.376 27.323 182.276 28.623 179.676 30.423C179.676 30.423 189.076 35.423 194.576 38.123C194.576 38.123 216.976 33.323 231.176 51.823C235.176 57.023 237.876 62.023 240.576 67.123C235.176 65.723 233.476 73.123 233.476 73.123C236.376 68.823 241.176 70.723 242.976 71.623C244.076 73.623 245.276 75.723 246.476 77.823C245.376 79.023 241.576 82.123 233.776 79.623C233.276 75.023 232.076 68.823 228.876 64.223C231.476 64.423 234.176 64.623 237.076 64.723C237.076 64.723 233.476 58.823 229.576 54.023C229.576 54.023 207.276 55.023 180.976 35.223C178.276 33.223 175.476 31.523 172.576 30.123C180.476 27.023 186.876 20.523 186.876 20.523C177.976 26.323 171.676 27.923 167.476 28.023C165.676 27.323 163.776 26.823 161.976 26.423C163.976 21.423 157.076 18.623 157.076 18.623C160.076 21.323 159.176 24.023 158.076 25.623C153.376 24.823 148.576 24.723 143.976 25.123C141.876 19.923 145.776 13.523 144.676 9.22302C143.476 4.62302 140.676 0.223022 140.676 0.223022C145.376 8.62302 141.876 14.623 139.276 18.823C137.676 21.623 137.376 24.423 137.376 26.123C134.776 26.723 132.176 27.423 129.776 28.323C123.576 18.323 105.976 16.923 105.976 16.923C121.376 20.223 125.176 26.223 126.076 29.923C122.976 31.323 120.176 33.023 117.676 34.923C115.376 34.523 111.676 33.223 111.476 28.823C111.476 28.823 109.076 36.123 114.376 37.723C111.876 40.123 109.776 42.823 108.476 45.723C108.476 45.723 119.176 45.423 125.276 45.023C125.276 45.023 142.276 29.823 163.876 38.823C169.876 41.323 174.776 44.323 179.576 47.423C174.276 48.823 176.376 56.123 176.376 56.123C176.776 50.923 181.876 50.223 183.876 50.123C185.876 51.323 187.876 52.523 189.976 53.723C189.576 55.323 187.876 59.823 179.876 61.623C177.176 57.923 173.076 53.123 167.976 50.623C170.376 49.523 172.776 48.323 175.376 46.923C175.376 46.923 169.276 43.523 163.576 41.423C163.576 41.423 144.676 53.323 111.976 49.123C108.676 48.723 105.376 48.623 102.176 48.823C107.476 42.223 109.776 33.423 109.776 33.423C104.876 42.823 100.276 47.423 96.676 49.523C94.776 49.823 92.876 50.323 91.076 50.823C90.376 45.523 82.976 46.523 82.976 46.523C86.876 47.423 87.476 50.123 87.276 52.123C82.776 53.823 78.576 56.023 74.776 58.723C70.376 55.223 70.576 47.723 67.476 44.523C64.176 41.123 59.476 38.723 59.476 38.723C67.676 43.623 67.576 50.623 67.476 55.623C67.376 58.823 68.576 61.423 69.476 62.923C67.476 64.723 65.576 66.623 63.976 68.623C53.576 63.023 37.676 70.523 37.676 70.523C52.676 65.823 58.976 69.023 61.576 71.823C59.576 74.623 57.976 77.423 56.776 80.323C54.576 81.123 50.776 81.823 48.376 78.023C48.376 78.023 49.876 85.523 55.276 84.223C54.276 87.623 53.876 90.923 54.076 94.123C54.076 94.123 63.176 88.623 68.376 85.223C68.376 85.223 75.676 63.523 98.776 60.723C105.276 59.923 110.976 60.123 116.676 60.423C112.776 64.323 118.276 69.623 118.276 69.623C116.076 64.923 120.176 61.723 121.876 60.723C124.176 60.823 126.576 60.823 128.976 60.823C129.476 62.423 130.276 67.323 123.776 72.923C119.576 71.023 113.576 68.923 107.876 69.323C109.376 67.223 110.876 64.923 112.476 62.423C112.476 62.423 105.576 62.523 99.476 63.523C99.476 63.523 89.076 83.323 58.676 95.923C55.576 97.223 52.676 98.823 49.976 100.523C51.276 92.123 48.876 83.323 48.876 83.323C49.276 93.923 47.576 100.223 45.476 103.823C43.976 105.023 42.576 106.323 41.276 107.723C37.976 103.423 32.076 108.023 32.076 108.023C35.976 106.823 37.776 108.923 38.576 110.723C35.476 114.423 32.976 118.423 31.076 122.623C25.576 121.823 21.976 115.223 17.676 114.023C13.076 112.723 7.87601 112.923 7.87601 112.923C17.476 113.123 20.876 119.123 23.276 123.523C24.776 126.323 27.176 128.023 28.676 128.823C27.876 131.423 27.176 134.023 26.676 136.523C14.876 136.823 4.776 151.323 4.776 151.323C15.376 139.723 22.476 139.423 26.176 140.523C25.876 143.923 25.876 147.223 26.276 150.323C24.776 152.123 21.776 154.623 17.876 152.523C17.876 152.523 22.876 158.223 26.976 154.423C27.776 157.823 29.076 160.923 30.876 163.523C30.876 163.523 36.076 154.223 38.776 148.723C38.776 148.723 34.276 126.323 52.876 112.223C58.076 108.323 63.176 105.623 68.276 103.023C66.776 108.323 74.176 110.223 74.176 110.223C69.876 107.223 71.876 102.423 72.776 100.723C74.776 99.623 76.876 98.523 78.976 97.223C80.176 98.323 83.476 102.423 80.376 110.823C75.776 111.223 69.376 112.423 64.676 115.723C64.876 113.123 65.076 110.423 65.176 107.523C65.176 107.523 59.276 111.123 54.476 115.023C54.476 115.023 55.376 137.323 35.576 163.623C33.576 166.323 31.876 169.123 30.476 172.023C27.376 164.123 20.876 157.723 20.876 157.723C26.576 166.723 28.276 172.923 28.276 177.123C27.576 178.923 27.076 180.823 26.676 182.623C21.676 180.623 18.876 187.523 18.876 187.523C21.576 184.523 24.276 185.423 25.876 186.523C25.076 191.223 24.976 196.023 25.376 200.623C20.176 202.723 13.776 198.823 9.47601 199.923C4.87601 201.123 0.476013 203.923 0.476013 203.923C8.87601 199.223 14.876 202.723 19.076 205.323C21.776 207.023 24.676 207.223 26.376 207.223C26.976 209.823 27.676 212.423 28.576 214.823C18.576 221.023 17.076 238.623 17.076 238.623C20.376 223.223 26.376 219.423 30.076 218.523C31.476 221.623 33.176 224.423 35.076 226.923C34.676 229.223 33.376 232.923 28.976 233.023C28.976 233.023 36.276 235.423 37.876 230.123C40.276 232.623 42.976 234.723 45.876 236.023C45.876 236.023 45.676 225.323 45.176 219.223C45.176 219.223 29.976 202.123 38.976 180.623C41.476 174.623 44.476 169.723 47.576 164.923C48.976 170.223 56.276 168.123 56.276 168.123C51.076 167.723 50.376 162.623 50.276 160.623C51.476 158.623 52.676 156.623 53.876 154.523C55.476 154.923 60.276 156.723 61.876 165.323C58.176 168.023 53.276 172.223 50.776 177.423C49.676 175.023 48.476 172.623 47.076 170.023C47.076 170.023 43.776 176.123 41.576 181.823C41.576 181.823 53.576 200.623 49.576 233.323C49.176 236.723 49.076 239.923 49.376 243.123C42.776 237.823 33.876 235.523 33.876 235.523C43.376 240.423 47.876 245.023 49.976 248.523C50.276 250.423 50.776 252.323 51.276 254.123C45.976 254.923 46.976 262.323 46.976 262.323C47.876 258.423 50.576 257.823 52.576 258.023C54.276 262.523 56.576 266.723 59.176 270.423C55.676 274.823 48.176 274.723 44.976 277.823C41.576 281.123 39.176 285.823 39.176 285.823C44.076 277.623 50.976 277.623 55.976 277.723C59.176 277.723 61.776 276.523 63.276 275.723C65.076 277.723 66.976 279.623 68.976 281.223C63.376 291.623 70.976 307.523 70.976 307.523C66.176 292.523 69.376 286.223 72.176 283.623C74.976 285.623 77.776 287.223 80.676 288.423C81.476 290.623 82.176 294.423 78.476 296.823C78.476 296.823 85.976 295.323 84.676 289.823C88.076 290.823 91.376 291.223 94.576 290.923C94.576 290.923 88.976 281.823 85.576 276.723C85.576 276.723 63.876 269.623 60.876 246.423C60.076 239.923 60.276 234.223 60.476 228.523C64.376 232.423 69.676 226.923 69.676 226.923C64.976 229.223 61.776 225.123 60.676 223.423C60.776 221.123 60.776 218.723 60.676 216.323C62.176 215.823 67.176 215.023 72.776 221.423C70.876 225.623 68.776 231.623 69.276 237.323C67.176 235.823 64.876 234.323 62.376 232.723C62.376 232.723 62.476 239.623 63.476 245.723C63.476 245.723 83.276 256.123 96.076 286.423C97.376 289.523 98.976 292.423 100.776 295.123C92.376 293.823 83.576 296.323 83.576 296.323C94.176 295.823 100.476 297.523 104.076 299.623C105.276 301.123 106.676 302.523 107.976 303.823C103.676 307.123 108.276 313.023 108.276 313.023C107.076 309.123 109.176 307.323 110.976 306.523C114.676 309.523 118.776 312.023 122.976 314.023C122.176 319.523 115.576 323.223 114.376 327.523C113.076 332.123 113.376 337.323 113.376 337.323C113.476 327.723 119.576 324.323 123.876 321.923C126.676 320.323 128.376 318.023 129.176 316.523C131.776 317.323 134.376 318.023 136.876 318.423C137.176 330.223 151.776 340.223 151.776 340.223C140.176 329.623 139.776 322.523 140.876 318.923C144.276 319.223 147.576 319.223 150.676 318.823C152.476 320.323 154.976 323.323 152.976 327.223C152.976 327.223 158.676 322.123 154.876 318.123C158.276 317.323 161.376 315.923 163.976 314.123C163.976 314.123 154.676 309.023 149.076 306.323C149.076 306.323 126.676 310.923 112.576 292.323C108.676 287.123 105.976 282.123 103.276 277.023C108.576 278.423 110.376 271.023 110.376 271.023C107.376 275.323 102.676 273.423 100.876 272.423C99.776 270.423 98.676 268.323 97.376 266.223C98.476 265.123 102.076 262.123 109.376 264.323C109.776 268.823 110.976 274.923 114.076 279.523C111.476 279.223 108.776 279.023 105.876 278.923C105.876 278.923 109.376 284.923 113.276 289.723C113.276 289.723 135.576 289.123 161.576 309.323C164.276 311.423 167.076 313.123 169.876 314.623C161.876 317.623 155.476 324.023 155.476 324.023C164.476 318.423 170.776 316.823 174.976 316.823C176.776 317.523 178.576 318.123 180.476 318.523C178.376 323.523 185.276 326.423 185.276 326.423C182.376 323.623 183.276 321.023 184.376 319.423C189.076 320.223 193.876 320.423 198.476 320.123C200.276 325.323 196.276 331.723 197.276 336.023ZM142.476 286.123C142.776 284.523 143.176 282.023 143.376 279.123C145.176 258.123 149.976 258.223 155.776 256.223C155.776 256.223 146.576 253.823 141.576 268.223C140.076 272.623 140.676 279.923 136.276 283.923C134.276 283.323 132.076 282.723 129.776 282.223C128.976 281.023 126.676 276.823 131.476 274.023C131.476 274.023 123.476 275.323 125.076 281.223C123.576 280.923 122.076 280.723 120.476 280.423C117.876 279.123 113.476 275.423 110.576 264.823C113.776 265.923 117.676 268.023 122.276 271.523C122.276 271.523 116.976 266.323 110.176 263.123C109.776 261.523 109.476 259.823 109.176 257.923C109.176 257.923 109.076 259.823 109.176 262.623C104.576 260.623 99.276 259.723 94.476 261.923C93.376 260.323 92.176 258.723 90.776 257.023C91.876 255.723 93.376 253.723 94.976 251.423C106.776 234.023 110.976 236.423 116.976 237.523C116.976 237.523 110.076 230.923 98.676 241.023C95.176 244.123 92.176 250.823 86.376 252.123C84.876 250.623 83.276 249.023 81.576 247.423C81.476 245.923 81.476 241.223 86.976 241.123C86.976 241.123 79.376 238.323 77.876 244.323C76.676 243.323 75.476 242.423 74.176 241.423C72.476 239.023 70.476 233.623 73.276 222.623C75.276 225.123 77.376 228.723 79.476 233.523C79.476 233.523 77.676 227.023 73.676 221.023C74.076 219.523 74.576 217.923 75.276 216.223C75.276 216.223 74.276 217.723 73.076 220.123C69.976 215.823 65.676 211.923 60.076 211.423C59.876 209.523 59.676 207.423 59.276 205.323C60.876 204.723 63.176 203.823 65.776 202.523C84.776 193.323 87.076 197.523 91.776 201.423C91.776 201.423 89.076 192.223 74.176 195.423C69.676 196.323 63.676 200.623 57.976 198.923C57.476 196.823 56.876 194.723 56.076 192.423C56.676 191.023 59.076 187.023 63.976 189.623C63.976 189.623 58.776 183.423 54.576 187.823C54.076 186.423 53.476 184.923 52.876 183.423C52.576 180.523 53.576 174.723 61.476 166.623C61.876 169.823 61.976 173.823 61.276 178.823C61.276 178.823 62.976 172.523 62.576 165.523C63.676 164.423 64.876 163.323 66.276 162.123C66.276 162.123 64.676 162.923 62.476 164.423C62.076 159.023 60.276 153.323 55.576 149.923C56.376 148.123 57.176 146.323 57.976 144.323C59.576 144.623 62.076 144.923 64.976 145.223C85.976 146.723 85.976 151.623 88.076 157.323C88.076 157.323 90.376 148.023 75.876 143.223C71.476 141.723 64.176 142.523 60.076 138.123C60.676 136.123 61.176 133.923 61.676 131.623C62.876 130.723 67.076 128.423 69.876 133.123C69.876 133.123 68.476 125.123 62.576 126.823C62.876 125.323 63.076 123.823 63.276 122.123C64.576 119.423 68.276 114.923 79.276 111.923C78.076 114.823 76.076 118.223 73.076 122.123C73.076 122.123 77.576 117.623 80.776 111.523C82.276 111.123 83.876 110.823 85.676 110.523C85.676 110.523 83.976 110.423 81.276 110.623C83.676 105.623 85.176 99.723 82.676 94.423C84.276 93.323 85.876 92.123 87.576 90.723C88.876 91.823 90.876 93.423 93.176 95.023C110.576 106.923 108.076 111.123 106.976 117.123C106.976 117.123 113.576 110.223 103.576 98.823C100.476 95.323 93.876 92.323 92.476 86.423C93.976 84.923 95.576 83.323 97.176 81.623C98.676 81.523 103.376 81.623 103.476 87.123C103.476 87.123 106.276 79.523 100.376 78.023C101.376 76.823 102.376 75.623 103.376 74.323C105.776 72.623 111.276 70.623 122.176 73.523C119.576 75.523 116.076 77.623 111.276 79.623C111.276 79.623 117.776 77.923 123.676 73.923C125.176 74.323 126.776 74.923 128.476 75.523C128.476 75.523 126.976 74.523 124.576 73.323C128.976 70.223 132.876 65.923 133.476 60.323C135.376 60.123 137.476 59.923 139.576 59.623C140.176 61.223 141.076 63.523 142.276 66.123C151.376 85.123 147.176 87.523 143.276 92.123C143.276 92.123 152.476 89.523 149.376 74.523C148.476 69.923 144.176 64.023 145.976 58.323C148.076 57.823 150.176 57.223 152.476 56.523C153.876 57.123 157.876 59.623 155.176 64.423C155.176 64.423 161.376 59.223 156.976 55.023C158.376 54.523 159.876 53.923 161.376 53.323C164.276 53.123 169.976 54.023 177.976 61.923C174.676 62.423 170.576 62.523 165.176 61.923C165.176 61.923 171.876 63.623 179.176 63.123C180.276 64.223 181.376 65.523 182.576 66.923C182.576 66.923 181.776 65.323 180.276 63.023C185.476 62.523 190.876 60.723 194.076 56.123C195.876 56.923 197.676 57.723 199.676 58.523C199.376 60.123 199.076 62.623 198.876 65.523C197.376 86.523 192.576 86.523 186.776 88.623C186.776 88.623 196.076 90.923 200.776 76.423C202.276 72.023 201.476 64.723 205.876 60.623C207.876 61.223 210.076 61.723 212.376 62.223C213.276 63.423 215.576 67.623 210.876 70.423C210.876 70.423 218.876 69.023 217.076 63.123C218.576 63.423 220.076 63.623 221.776 63.823C224.476 65.023 228.876 68.723 231.976 79.523C228.876 78.323 225.176 76.323 220.876 73.123C220.876 73.123 225.876 77.923 232.376 81.123C232.776 82.623 233.176 84.323 233.476 86.123C233.476 86.123 233.576 84.323 233.376 81.523C238.176 83.623 243.676 84.723 248.776 82.423C249.876 84.023 251.176 85.623 252.476 87.323C251.376 88.623 249.876 90.623 248.276 92.923C236.576 110.423 232.376 108.023 226.376 107.023C226.376 107.023 233.276 113.623 244.576 103.323C247.976 100.223 250.976 93.523 256.776 92.123C258.276 93.623 259.876 95.223 261.676 96.823C261.776 98.323 261.776 103.023 256.276 103.223C256.276 103.223 263.876 105.923 265.276 99.923C266.476 100.923 267.676 101.823 268.976 102.823C270.676 105.223 272.776 110.623 270.076 121.523C267.976 119.023 265.776 115.423 263.576 110.423C263.576 110.423 265.476 117.123 269.676 123.123C269.276 124.623 268.776 126.323 268.176 128.023C268.176 128.023 269.176 126.523 270.376 124.023C273.476 128.223 277.776 131.923 283.276 132.423C283.476 134.323 283.676 136.423 284.076 138.523C282.476 139.123 280.176 140.123 277.676 141.323C258.776 150.723 256.376 146.523 251.676 142.723C251.676 142.723 254.476 151.823 269.376 148.623C273.876 147.623 279.776 143.323 285.576 144.923C286.076 147.023 286.776 149.123 287.476 151.423C286.876 152.823 284.476 156.923 279.676 154.323C279.676 154.323 284.976 160.423 289.176 156.023C289.676 157.423 290.276 158.923 290.976 160.423C291.276 163.323 290.376 169.123 282.376 177.423C281.976 174.323 281.976 170.523 282.576 165.823C282.576 165.823 281.076 171.823 281.276 178.523C280.176 179.623 278.976 180.723 277.676 181.823C277.676 181.823 279.176 181.023 281.376 179.523C281.776 185.123 283.476 191.123 288.376 194.523C287.576 196.323 286.776 198.123 285.976 200.123C284.376 199.823 281.876 199.523 278.976 199.323C257.976 197.923 257.976 193.023 255.876 187.323C255.876 187.323 253.676 196.623 268.176 201.323C272.576 202.723 279.876 202.023 283.976 206.323C283.376 208.323 282.876 210.523 282.376 212.823C281.176 213.723 277.076 216.023 274.176 211.323C274.176 211.323 275.676 219.323 281.476 217.523C281.276 219.023 280.976 220.523 280.776 222.223C279.576 224.923 275.876 229.323 265.076 232.423C266.276 229.323 268.176 225.723 271.376 221.423C271.376 221.423 266.576 226.323 263.476 232.923C261.976 233.323 260.276 233.723 258.476 234.023C258.476 234.023 260.276 234.123 262.976 233.923C260.876 238.723 259.776 244.323 262.076 249.423C260.476 250.523 258.876 251.823 257.176 253.123C255.876 252.023 253.876 250.523 251.576 248.923C233.976 237.223 236.476 233.023 237.476 227.023C237.476 227.023 230.976 233.923 241.176 245.223C244.276 248.623 250.976 251.623 252.376 257.423C250.876 258.923 249.276 260.523 247.676 262.323C246.176 262.423 241.476 262.423 241.276 256.923C241.276 256.923 238.576 264.523 244.576 265.923C243.576 267.123 242.676 268.323 241.676 269.623C239.276 271.323 233.776 273.423 222.476 270.623C224.876 268.923 228.076 267.223 232.076 265.523C232.076 265.523 226.576 267.023 221.076 270.223C219.676 269.823 218.076 269.323 216.476 268.723C216.476 268.723 217.876 269.623 220.176 270.723C215.276 273.823 210.476 278.423 209.876 284.623C207.976 284.723 205.876 285.023 203.776 285.323C203.176 283.723 202.276 281.423 201.076 278.823C191.976 259.823 196.276 257.423 200.176 252.823C200.176 252.823 190.976 255.423 193.976 270.323C194.876 274.923 199.076 280.823 197.376 286.523C195.276 287.023 193.176 287.623 190.876 288.323C189.576 287.723 185.476 285.223 188.176 280.423C188.176 280.423 181.976 285.623 186.376 289.823C184.976 290.323 183.476 290.923 181.976 291.523C179.076 291.723 173.276 290.723 165.176 282.623C168.276 282.323 172.176 282.323 176.976 283.023C176.976 283.023 170.976 281.323 164.176 281.523C163.076 280.423 162.076 279.223 160.876 277.823C160.876 277.823 161.676 279.323 163.076 281.523C157.476 281.823 151.576 283.523 148.076 288.323C146.276 287.723 144.376 286.923 142.476 286.123Z" fill="#FFF9EF"/>
</svg>
