<svg width="345" height="346" viewBox="0 0 345 346" fill="none" xmlns="http://www.w3.org/2000/svg">
<g clip-path="url(#clip0_20_3678)">
<path d="M197.308 336.357C198.408 340.957 201.208 345.457 201.208 345.457C196.608 337.057 200.208 331.057 202.908 326.857C204.608 324.157 204.908 321.257 204.908 319.557C207.608 319.057 210.108 318.357 212.608 317.457C218.708 327.557 236.208 329.257 236.208 329.257C220.908 325.757 217.108 319.657 216.308 315.957C219.408 314.557 222.208 312.957 224.808 311.057C227.108 311.457 230.708 312.857 230.908 317.257C230.908 317.257 233.408 310.057 228.108 308.357C230.708 305.957 232.708 303.257 234.108 300.457C234.108 300.457 223.408 300.557 217.308 300.857C217.308 300.857 200.008 315.857 178.608 306.557C172.608 303.957 167.808 300.857 163.008 297.757C168.408 296.357 166.308 289.057 166.308 289.057C165.808 294.257 160.708 294.857 158.708 294.957C156.808 293.757 154.808 292.457 152.608 291.257C153.008 289.657 154.908 284.757 163.908 283.357C166.508 287.157 170.708 292.157 176.008 294.657C173.608 295.757 171.208 296.957 168.608 298.257C168.608 298.257 174.708 301.657 180.408 303.857C180.408 303.857 199.308 292.057 232.008 296.357C235.308 296.757 238.608 296.857 241.808 296.657C236.408 303.257 234.108 312.057 234.108 312.057C239.008 302.657 243.708 298.157 247.308 296.057C249.208 295.757 251.108 295.257 252.908 294.757C253.608 300.057 261.008 299.157 261.008 299.157C257.108 298.257 256.508 295.457 256.708 293.557C261.208 291.857 265.408 289.657 269.208 287.057C273.608 290.557 273.408 298.057 276.508 301.257C279.808 304.657 284.508 307.157 284.508 307.157C276.308 302.157 276.408 295.257 276.508 290.257C276.608 287.057 275.408 284.457 274.508 282.957C276.508 281.157 278.408 279.257 280.108 277.257C290.408 282.957 306.508 275.457 306.508 275.457C291.508 280.157 285.208 276.857 282.608 274.057C284.608 271.357 286.208 268.457 287.408 265.557C289.608 264.757 293.408 264.157 295.808 267.857C295.808 267.857 294.308 260.357 288.908 261.557C289.908 258.157 290.308 254.857 290.108 251.657C290.108 251.657 281.008 257.157 275.808 260.557C275.808 260.557 268.508 282.257 245.308 284.957C238.808 285.757 233.108 285.457 227.408 285.257C231.308 281.357 225.908 276.057 225.908 276.057C228.108 280.757 224.008 283.957 222.308 284.957C220.008 284.857 217.608 284.857 215.208 284.857C214.708 283.257 213.908 277.757 221.708 271.757C225.908 273.657 232.208 275.857 238.108 275.357C236.608 277.457 235.108 279.757 233.608 282.257C233.608 282.257 240.508 282.057 246.608 280.957C246.608 280.957 256.808 261.057 287.008 247.957C290.108 246.657 293.008 245.057 295.608 243.157C294.408 251.557 296.908 260.357 296.908 260.357C296.308 249.757 298.008 243.457 300.008 239.857C301.508 238.557 302.808 237.257 304.108 235.857C307.508 240.057 313.308 235.457 313.308 235.457C309.508 236.657 307.608 234.657 306.708 232.857C309.708 229.157 312.208 225.057 314.108 220.857C319.608 221.657 323.308 228.157 327.608 229.357C332.208 230.657 337.408 230.257 337.408 230.257C327.808 230.157 324.308 224.157 321.908 219.857C320.308 217.057 318.008 215.457 316.508 214.557C317.308 211.957 317.908 209.357 318.408 206.857C330.208 206.457 340.108 191.757 340.108 191.757C329.608 203.457 322.508 203.857 318.908 202.857C319.208 199.457 319.108 196.157 318.708 193.057C320.208 191.257 323.108 188.757 327.108 190.757C327.108 190.757 322.008 185.057 317.908 188.957C317.008 185.557 315.708 182.457 313.908 179.857C313.908 179.857 308.908 189.257 306.208 194.757C306.208 194.757 311.008 217.057 292.508 231.357C287.308 235.357 282.308 238.057 277.308 240.757C278.708 235.357 271.308 233.657 271.308 233.657C275.608 236.557 273.708 241.357 272.808 243.157C270.808 244.257 268.708 245.457 266.708 246.757C265.508 245.657 262.408 241.857 264.908 233.957C269.508 233.457 275.708 232.257 280.408 229.057C280.208 231.657 280.008 234.357 279.908 237.257C279.908 237.257 285.808 233.657 290.508 229.757C290.508 229.757 289.508 207.457 309.208 181.057C311.208 178.357 312.908 175.557 314.308 172.657C317.408 180.557 323.908 186.857 323.908 186.857C318.108 177.957 316.508 171.657 316.408 167.457C317.008 165.657 317.608 163.757 318.008 161.957C323.008 163.957 325.808 157.057 325.808 157.057C323.108 160.057 320.408 159.157 318.808 158.057C319.608 153.357 319.708 148.557 319.208 143.957C324.408 141.857 330.808 145.657 335.108 144.557C339.708 143.357 344.108 140.457 344.108 140.457C335.708 145.157 329.708 141.657 325.508 139.157C322.708 137.557 319.908 137.257 318.208 137.257C317.608 134.657 316.908 132.057 316.008 129.657C326.008 123.457 327.408 105.857 327.408 105.857C324.108 121.257 318.208 125.157 314.508 125.957C313.108 122.857 311.408 120.057 309.508 117.557C309.908 115.157 311.208 111.557 315.608 111.357C315.608 111.357 308.308 108.957 306.808 114.357C304.408 111.857 301.708 109.857 298.808 108.457C298.808 108.457 299.108 119.057 299.508 125.257C299.508 125.257 314.808 142.257 305.808 163.857C303.308 169.857 300.308 174.757 297.208 179.557C295.708 174.257 288.508 176.357 288.508 176.357C293.708 176.757 294.408 181.857 294.508 183.857C293.308 185.857 292.108 187.857 290.908 189.957C289.308 189.557 284.308 187.757 282.808 178.657C286.508 175.957 291.508 171.657 293.908 166.357C295.008 168.657 296.308 171.157 297.708 173.657C297.708 173.657 301.008 167.557 303.108 161.757C303.108 161.757 290.908 143.057 294.608 110.257C295.008 106.857 295.008 103.657 294.708 100.457C301.408 105.657 310.208 107.857 310.208 107.857C300.708 103.057 296.108 98.557 293.908 94.957C293.508 93.057 293.108 91.157 292.508 89.357C297.808 88.557 296.708 81.157 296.708 81.157C295.808 85.057 293.108 85.657 291.208 85.557C289.408 81.057 287.108 76.957 284.408 73.157C287.808 68.757 295.308 68.757 298.508 65.657C301.908 62.257 304.208 57.557 304.208 57.557C299.408 65.857 292.408 65.857 287.508 65.857C284.308 65.857 281.708 67.057 280.208 67.957C278.408 65.957 276.408 64.157 274.408 62.457C279.908 52.057 272.108 36.157 272.108 36.157C277.108 51.057 273.908 57.457 271.208 60.057C268.408 58.157 265.508 56.557 262.608 55.357C261.708 53.157 261.008 49.357 264.708 46.957C264.708 46.957 257.208 48.557 258.608 53.957C255.208 53.057 251.908 52.657 248.708 52.957C248.708 52.957 254.308 61.957 257.808 67.057C257.808 67.057 279.608 73.957 282.808 97.157C283.708 103.657 283.608 109.357 283.408 115.057C279.408 111.157 274.308 116.757 274.308 116.757C279.008 114.457 282.208 118.457 283.308 120.157C283.308 122.457 283.208 124.857 283.308 127.257C281.808 127.757 277.008 128.557 271.408 122.557C273.308 118.357 275.308 112.357 274.808 106.757C276.908 108.257 279.208 109.757 281.708 111.257C281.708 111.257 281.508 104.357 280.508 98.257C280.508 98.257 260.608 88.057 247.608 57.757C246.308 54.657 244.708 51.757 242.908 49.157C251.308 50.457 260.108 47.857 260.108 47.857C249.508 48.457 243.208 46.757 239.608 44.757C238.308 43.257 237.008 41.957 235.608 40.657C239.808 37.257 235.208 31.457 235.208 31.457C236.408 35.257 234.308 37.157 232.608 38.057C228.908 35.057 224.808 32.557 220.608 30.657C221.408 25.157 227.908 21.457 229.108 17.157C230.408 12.557 230.108 7.35701 230.108 7.35701C230.008 16.957 224.008 20.457 219.708 22.857C216.908 24.457 215.208 26.757 214.408 28.257C211.808 27.457 209.208 26.857 206.708 26.357C206.308 14.557 191.708 4.65701 191.708 4.65701C203.408 15.157 203.808 22.257 202.708 25.857C199.308 25.557 196.008 25.657 192.908 26.057C191.108 24.557 188.608 21.657 190.608 17.657C190.608 17.657 184.908 22.757 188.808 26.757C185.408 27.657 182.308 28.957 179.708 30.757C179.708 30.757 189.108 35.757 194.608 38.457C194.608 38.457 217.008 33.657 231.208 52.157C235.208 57.357 237.908 62.357 240.608 67.457C235.208 66.057 233.508 73.457 233.508 73.457C236.408 69.157 241.208 71.057 243.008 71.957C244.108 73.957 245.308 76.057 246.508 78.157C245.408 79.357 241.608 82.457 233.808 79.957C233.308 75.357 232.108 69.157 228.908 64.557C231.508 64.757 234.208 64.957 237.108 65.057C237.108 65.057 233.508 59.157 229.608 54.357C229.608 54.357 207.308 55.357 181.008 35.557C178.308 33.557 175.508 31.857 172.608 30.457C180.508 27.357 186.908 20.857 186.908 20.857C178.008 26.657 171.708 28.257 167.508 28.357C165.708 27.657 163.808 27.157 162.008 26.757C164.008 21.757 157.108 18.957 157.108 18.957C160.108 21.657 159.208 24.357 158.108 25.957C153.408 25.157 148.608 25.057 144.008 25.457C141.908 20.257 145.808 13.857 144.708 9.55701C143.508 4.95701 140.708 0.557007 140.708 0.557007C145.408 8.95701 141.908 14.957 139.308 19.157C137.708 21.957 137.408 24.757 137.408 26.457C134.808 27.057 132.208 27.757 129.808 28.657C123.608 18.657 106.008 17.257 106.008 17.257C121.408 20.557 125.208 26.557 126.108 30.257C123.008 31.657 120.208 33.357 117.708 35.257C115.408 34.857 111.708 33.557 111.508 29.157C111.508 29.157 109.108 36.457 114.408 38.057C111.908 40.457 109.808 43.157 108.508 46.057C108.508 46.057 119.208 45.757 125.308 45.357C125.308 45.357 142.308 30.157 163.908 39.157C169.908 41.657 174.808 44.657 179.608 47.757C174.308 49.157 176.408 56.457 176.408 56.457C176.808 51.257 181.908 50.557 183.908 50.457C185.908 51.657 187.908 52.857 190.008 54.057C189.608 55.657 187.908 60.157 179.908 61.957C177.208 58.257 173.108 53.457 168.008 50.957C170.408 49.857 172.808 48.657 175.408 47.257C175.408 47.257 169.308 43.857 163.608 41.757C163.608 41.757 144.708 53.657 112.008 49.457C108.708 49.057 105.408 48.957 102.208 49.157C107.508 42.557 109.808 33.757 109.808 33.757C104.908 43.157 100.308 47.757 96.708 49.857C94.808 50.157 92.908 50.657 91.108 51.157C90.408 45.857 83.008 46.857 83.008 46.857C86.908 47.757 87.508 50.457 87.308 52.457C82.808 54.157 78.608 56.357 74.808 59.057C70.408 55.557 70.608 48.057 67.508 44.857C64.208 41.457 59.508 39.057 59.508 39.057C67.708 43.957 67.608 50.957 67.508 55.957C67.408 59.157 68.608 61.757 69.508 63.257C67.508 65.057 65.608 66.957 64.008 68.957C53.608 63.357 37.708 70.857 37.708 70.857C52.708 66.157 59.008 69.357 61.608 72.157C59.608 74.957 58.008 77.757 56.808 80.657C54.608 81.457 50.808 82.157 48.408 78.357C48.408 78.357 49.908 85.857 55.308 84.557C54.308 87.957 53.908 91.257 54.108 94.457C54.108 94.457 63.208 88.957 68.408 85.557C68.408 85.557 75.708 63.857 98.808 61.057C105.308 60.257 111.008 60.457 116.708 60.757C112.808 64.657 118.308 69.957 118.308 69.957C116.108 65.257 120.208 62.057 121.908 61.057C124.208 61.157 126.608 61.157 129.008 61.157C129.508 62.757 130.308 67.657 123.808 73.257C119.608 71.357 113.608 69.257 107.908 69.657C109.408 67.557 110.908 65.257 112.508 62.757C112.508 62.757 105.608 62.857 99.508 63.857C99.508 63.857 89.108 83.657 58.708 96.257C55.608 97.557 52.708 99.157 50.008 100.857C51.308 92.457 48.908 83.657 48.908 83.657C49.308 94.257 47.608 100.557 45.508 104.157C44.008 105.357 42.608 106.657 41.308 108.057C38.008 103.757 32.108 108.357 32.108 108.357C36.008 107.157 37.808 109.257 38.608 111.057C35.508 114.757 33.008 118.757 31.108 122.957C25.608 122.157 22.008 115.557 17.708 114.357C13.108 113.057 7.90799 113.257 7.90799 113.257C17.508 113.457 20.908 119.457 23.308 123.857C24.808 126.657 27.208 128.357 28.708 129.157C27.908 131.757 27.208 134.357 26.708 136.857C14.908 137.157 4.80799 151.657 4.80799 151.657C15.408 140.057 22.508 139.757 26.208 140.857C25.908 144.257 25.908 147.557 26.308 150.657C24.808 152.457 21.808 154.957 17.908 152.857C17.908 152.857 22.908 158.557 27.008 154.757C27.808 158.157 29.108 161.257 30.908 163.857C30.908 163.857 36.108 154.557 38.808 149.057C38.808 149.057 34.308 126.657 52.908 112.557C58.108 108.657 63.208 105.957 68.308 103.357C66.808 108.657 74.208 110.557 74.208 110.557C69.908 107.557 71.908 102.757 72.808 101.057C74.808 99.957 76.908 98.857 79.008 97.557C80.208 98.657 83.508 102.757 80.408 111.157C75.808 111.557 69.408 112.757 64.708 116.057C64.908 113.457 65.108 110.757 65.208 107.857C65.208 107.857 59.308 111.457 54.508 115.357C54.508 115.357 55.408 137.657 35.608 163.957C33.608 166.657 31.908 169.457 30.508 172.357C27.408 164.457 20.908 158.057 20.908 158.057C26.608 167.057 28.308 173.257 28.308 177.457C27.608 179.257 27.108 181.157 26.708 182.957C21.708 180.957 18.908 187.857 18.908 187.857C21.608 184.857 24.308 185.757 25.908 186.857C25.108 191.557 25.008 196.357 25.408 200.957C20.208 203.057 13.808 199.157 9.508 200.257C4.908 201.457 0.507996 204.257 0.507996 204.257C8.908 199.557 14.908 203.057 19.108 205.657C21.808 207.357 24.708 207.557 26.408 207.557C27.008 210.157 27.708 212.757 28.608 215.157C18.608 221.357 17.108 238.957 17.108 238.957C20.408 223.557 26.408 219.757 30.108 218.857C31.508 221.957 33.208 224.757 35.108 227.257C34.708 229.557 33.408 233.257 29.008 233.357C29.008 233.357 36.308 235.757 37.908 230.457C40.308 232.957 43.008 235.057 45.908 236.357C45.908 236.357 45.708 225.657 45.208 219.557C45.208 219.557 30.008 202.457 39.008 180.957C41.508 174.957 44.508 170.057 47.608 165.257C49.008 170.557 56.308 168.457 56.308 168.457C51.108 168.057 50.408 162.957 50.308 160.957C51.508 158.957 52.708 156.957 53.908 154.857C55.508 155.257 60.308 157.057 61.908 165.657C58.208 168.357 53.308 172.557 50.808 177.757C49.708 175.357 48.508 172.957 47.108 170.357C47.108 170.357 43.808 176.457 41.608 182.157C41.608 182.157 53.608 200.957 49.608 233.657C49.208 237.057 49.108 240.257 49.408 243.457C42.808 238.157 33.908 235.857 33.908 235.857C43.408 240.757 47.908 245.357 50.008 248.857C50.308 250.757 50.808 252.657 51.308 254.457C46.008 255.257 47.008 262.657 47.008 262.657C47.908 258.757 50.608 258.157 52.608 258.357C54.308 262.857 56.608 267.057 59.208 270.757C55.708 275.157 48.208 275.057 45.008 278.157C41.608 281.457 39.208 286.157 39.208 286.157C44.108 277.957 51.008 277.957 56.008 278.057C59.208 278.057 61.808 276.857 63.308 276.057C65.108 278.057 67.008 279.957 69.008 281.557C63.408 291.957 71.008 307.857 71.008 307.857C66.208 292.857 69.408 286.557 72.208 283.957C75.008 285.957 77.808 287.557 80.708 288.757C81.508 290.957 82.208 294.757 78.508 297.157C78.508 297.157 86.008 295.657 84.708 290.157C88.108 291.157 91.408 291.557 94.608 291.257C94.608 291.257 89.008 282.157 85.608 277.057C85.608 277.057 63.908 269.957 60.908 246.757C60.108 240.257 60.308 234.557 60.508 228.857C64.408 232.757 69.708 227.257 69.708 227.257C65.008 229.557 61.808 225.457 60.708 223.757C60.808 221.457 60.808 219.057 60.708 216.657C62.208 216.157 67.208 215.357 72.808 221.757C70.908 225.957 68.808 231.957 69.308 237.657C67.208 236.157 64.908 234.657 62.408 233.057C62.408 233.057 62.508 239.957 63.508 246.057C63.508 246.057 83.308 256.457 96.108 286.757C97.408 289.857 99.008 292.757 100.808 295.457C92.408 294.157 83.608 296.657 83.608 296.657C94.208 296.157 100.508 297.857 104.108 299.957C105.308 301.457 106.708 302.857 108.008 304.157C103.708 307.457 108.308 313.357 108.308 313.357C107.108 309.457 109.208 307.657 111.008 306.857C114.708 309.857 118.808 312.357 123.008 314.357C122.208 319.857 115.608 323.557 114.408 327.857C113.108 332.457 113.408 337.657 113.408 337.657C113.508 328.057 119.608 324.657 123.908 322.257C126.708 320.657 128.408 318.357 129.208 316.857C131.808 317.657 134.408 318.357 136.908 318.757C137.208 330.557 151.808 340.557 151.808 340.557C140.208 329.957 139.808 322.857 140.908 319.257C144.308 319.557 147.608 319.557 150.708 319.157C152.508 320.657 155.008 323.657 153.008 327.557C153.008 327.557 158.708 322.457 154.908 318.457C158.308 317.657 161.408 316.257 164.008 314.457C164.008 314.457 154.708 309.357 149.108 306.657C149.108 306.657 126.708 311.257 112.608 292.657C108.708 287.457 106.008 282.457 103.308 277.357C108.608 278.757 110.408 271.357 110.408 271.357C107.408 275.657 102.708 273.757 100.908 272.757C99.808 270.757 98.708 268.657 97.408 266.557C98.508 265.457 102.108 262.457 109.408 264.657C109.808 269.157 111.008 275.257 114.108 279.857C111.508 279.557 108.808 279.357 105.908 279.257C105.908 279.257 109.408 285.257 113.308 290.057C113.308 290.057 135.608 289.457 161.608 309.657C164.308 311.757 167.108 313.457 169.908 314.957C161.908 317.957 155.508 324.357 155.508 324.357C164.508 318.757 170.808 317.157 175.008 317.157C176.808 317.857 178.608 318.457 180.508 318.857C178.408 323.857 185.308 326.757 185.308 326.757C182.408 323.957 183.308 321.357 184.408 319.757C189.108 320.557 193.908 320.757 198.508 320.457C200.308 325.657 196.308 332.057 197.308 336.357ZM142.508 286.457C142.808 284.857 143.208 282.357 143.408 279.457C145.208 258.457 150.008 258.557 155.808 256.557C155.808 256.557 146.608 254.157 141.608 268.557C140.108 272.957 140.708 280.257 136.308 284.257C134.308 283.657 132.108 283.057 129.808 282.557C129.008 281.357 126.708 277.157 131.508 274.357C131.508 274.357 123.508 275.657 125.108 281.557C123.608 281.257 122.108 281.057 120.508 280.757C117.908 279.457 113.508 275.757 110.608 265.157C113.808 266.257 117.708 268.357 122.308 271.857C122.308 271.857 117.008 266.657 110.208 263.457C109.808 261.857 109.508 260.157 109.208 258.257C109.208 258.257 109.108 260.157 109.208 262.957C104.608 260.957 99.308 260.057 94.508 262.257C93.408 260.657 92.208 259.057 90.808 257.357C91.908 256.057 93.408 254.057 95.008 251.757C106.808 234.357 111.008 236.757 117.008 237.857C117.008 237.857 110.108 231.257 98.708 241.357C95.208 244.457 92.208 251.157 86.408 252.457C84.908 250.957 83.308 249.357 81.608 247.757C81.508 246.257 81.508 241.557 87.008 241.457C87.008 241.457 79.408 238.657 77.908 244.657C76.708 243.657 75.508 242.757 74.208 241.757C72.508 239.357 70.508 233.957 73.308 222.957C75.308 225.457 77.408 229.057 79.508 233.857C79.508 233.857 77.708 227.357 73.708 221.357C74.108 219.857 74.608 218.257 75.308 216.557C75.308 216.557 74.308 218.057 73.108 220.457C70.008 216.157 65.708 212.257 60.108 211.757C59.908 209.857 59.708 207.757 59.308 205.657C60.908 205.057 63.208 204.157 65.808 202.857C84.808 193.657 87.108 197.857 91.808 201.757C91.808 201.757 89.108 192.557 74.208 195.757C69.708 196.657 63.708 200.957 58.008 199.257C57.508 197.157 56.908 195.057 56.108 192.757C56.708 191.357 59.108 187.357 64.008 189.957C64.008 189.957 58.808 183.757 54.608 188.157C54.108 186.757 53.508 185.257 52.908 183.757C52.608 180.857 53.608 175.057 61.508 166.957C61.908 170.157 62.008 174.157 61.308 179.157C61.308 179.157 63.008 172.857 62.608 165.857C63.708 164.757 64.908 163.657 66.308 162.457C66.308 162.457 64.708 163.257 62.508 164.757C62.108 159.357 60.308 153.657 55.608 150.257C56.408 148.457 57.208 146.657 58.008 144.657C59.608 144.957 62.108 145.257 65.008 145.557C86.008 147.057 86.008 151.957 88.108 157.657C88.108 157.657 90.408 148.357 75.908 143.557C71.508 142.057 64.208 142.857 60.108 138.457C60.708 136.457 61.208 134.257 61.708 131.957C62.908 131.057 67.108 128.757 69.908 133.457C69.908 133.457 68.508 125.457 62.608 127.157C62.908 125.657 63.108 124.157 63.308 122.457C64.608 119.757 68.308 115.257 79.308 112.257C78.108 115.157 76.108 118.557 73.108 122.457C73.108 122.457 77.608 117.957 80.808 111.857C82.308 111.457 83.908 111.157 85.708 110.857C85.708 110.857 84.008 110.757 81.308 110.957C83.708 105.957 85.208 100.057 82.708 94.757C84.308 93.657 85.908 92.457 87.608 91.057C88.908 92.157 90.908 93.757 93.208 95.357C110.608 107.257 108.108 111.457 107.008 117.457C107.008 117.457 113.608 110.557 103.608 99.157C100.508 95.657 93.908 92.657 92.508 86.757C94.008 85.257 95.608 83.657 97.208 81.957C98.708 81.857 103.408 81.957 103.508 87.457C103.508 87.457 106.308 79.857 100.408 78.357C101.408 77.157 102.408 75.957 103.408 74.657C105.808 72.957 111.308 70.957 122.208 73.857C119.608 75.857 116.108 77.957 111.308 79.957C111.308 79.957 117.808 78.257 123.708 74.257C125.208 74.657 126.808 75.257 128.508 75.857C128.508 75.857 127.008 74.857 124.608 73.657C129.008 70.557 132.908 66.257 133.508 60.657C135.408 60.457 137.508 60.257 139.608 59.957C140.208 61.557 141.108 63.857 142.308 66.457C151.408 85.457 147.208 87.857 143.308 92.457C143.308 92.457 152.508 89.857 149.408 74.857C148.508 70.257 144.208 64.357 146.008 58.657C148.108 58.157 150.208 57.557 152.508 56.857C153.908 57.457 157.908 59.957 155.208 64.757C155.208 64.757 161.408 59.557 157.008 55.357C158.408 54.857 159.908 54.257 161.408 53.657C164.308 53.457 170.008 54.357 178.008 62.257C174.708 62.757 170.608 62.857 165.208 62.257C165.208 62.257 171.908 63.957 179.208 63.457C180.308 64.557 181.408 65.857 182.608 67.257C182.608 67.257 181.808 65.657 180.308 63.357C185.508 62.857 190.908 61.057 194.108 56.457C195.908 57.257 197.708 58.057 199.708 58.857C199.408 60.457 199.108 62.957 198.908 65.857C197.408 86.857 192.608 86.857 186.808 88.957C186.808 88.957 196.108 91.257 200.808 76.757C202.308 72.357 201.508 65.057 205.908 60.957C207.908 61.557 210.108 62.057 212.408 62.557C213.308 63.757 215.608 67.957 210.908 70.757C210.908 70.757 218.908 69.357 217.108 63.457C218.608 63.757 220.108 63.957 221.808 64.157C224.508 65.357 228.908 69.057 232.008 79.857C228.908 78.657 225.208 76.657 220.908 73.457C220.908 73.457 225.908 78.257 232.408 81.457C232.808 82.957 233.208 84.657 233.508 86.457C233.508 86.457 233.608 84.657 233.408 81.857C238.208 83.957 243.708 85.057 248.808 82.757C249.908 84.357 251.208 85.957 252.508 87.657C251.408 88.957 249.908 90.957 248.308 93.257C236.608 110.757 232.408 108.357 226.408 107.357C226.408 107.357 233.308 113.957 244.608 103.657C248.008 100.557 251.008 93.857 256.808 92.457C258.308 93.957 259.908 95.557 261.708 97.157C261.808 98.657 261.808 103.357 256.308 103.557C256.308 103.557 263.908 106.257 265.308 100.257C266.508 101.257 267.708 102.157 269.008 103.157C270.708 105.557 272.808 110.957 270.108 121.857C268.008 119.357 265.808 115.757 263.608 110.757C263.608 110.757 265.508 117.457 269.708 123.457C269.308 124.957 268.808 126.657 268.208 128.357C268.208 128.357 269.208 126.857 270.408 124.357C273.508 128.557 277.808 132.257 283.308 132.757C283.508 134.657 283.708 136.757 284.108 138.857C282.508 139.457 280.208 140.457 277.708 141.657C258.808 151.057 256.408 146.857 251.708 143.057C251.708 143.057 254.508 152.157 269.408 148.957C273.908 147.957 279.808 143.657 285.608 145.257C286.108 147.357 286.808 149.457 287.508 151.757C286.908 153.157 284.508 157.257 279.708 154.657C279.708 154.657 285.008 160.757 289.208 156.357C289.708 157.757 290.308 159.257 291.008 160.757C291.308 163.657 290.408 169.457 282.408 177.757C282.008 174.657 282.008 170.857 282.608 166.157C282.608 166.157 281.108 172.157 281.308 178.857C280.208 179.957 279.008 181.057 277.708 182.157C277.708 182.157 279.208 181.357 281.408 179.857C281.808 185.457 283.508 191.457 288.408 194.857C287.608 196.657 286.808 198.457 286.008 200.457C284.408 200.157 281.908 199.857 279.008 199.657C258.008 198.257 258.008 193.357 255.908 187.657C255.908 187.657 253.708 196.957 268.208 201.657C272.608 203.057 279.908 202.357 284.008 206.657C283.408 208.657 282.908 210.857 282.408 213.157C281.208 214.057 277.108 216.357 274.208 211.657C274.208 211.657 275.708 219.657 281.508 217.857C281.308 219.357 281.008 220.857 280.808 222.557C279.608 225.257 275.908 229.657 265.108 232.757C266.308 229.657 268.208 226.057 271.408 221.757C271.408 221.757 266.608 226.657 263.508 233.257C262.008 233.657 260.308 234.057 258.508 234.357C258.508 234.357 260.308 234.457 263.008 234.257C260.908 239.057 259.808 244.657 262.108 249.757C260.508 250.857 258.908 252.157 257.208 253.457C255.908 252.357 253.908 250.857 251.608 249.257C234.008 237.557 236.508 233.357 237.508 227.357C237.508 227.357 231.008 234.257 241.208 245.557C244.308 248.957 251.008 251.957 252.408 257.757C250.908 259.257 249.308 260.857 247.708 262.657C246.208 262.757 241.508 262.757 241.308 257.257C241.308 257.257 238.608 264.857 244.608 266.257C243.608 267.457 242.708 268.657 241.708 269.957C239.308 271.657 233.808 273.757 222.508 270.957C224.908 269.257 228.108 267.557 232.108 265.857C232.108 265.857 226.608 267.357 221.108 270.557C219.708 270.157 218.108 269.657 216.508 269.057C216.508 269.057 217.908 269.957 220.208 271.057C215.308 274.157 210.508 278.757 209.908 284.957C208.008 285.057 205.908 285.357 203.808 285.657C203.208 284.057 202.308 281.757 201.108 279.157C192.008 260.157 196.308 257.757 200.208 253.157C200.208 253.157 191.008 255.757 194.008 270.657C194.908 275.257 199.108 281.157 197.408 286.857C195.308 287.357 193.208 287.957 190.908 288.657C189.608 288.057 185.508 285.557 188.208 280.757C188.208 280.757 182.008 285.957 186.408 290.157C185.008 290.657 183.508 291.257 182.008 291.857C179.108 292.057 173.308 291.057 165.208 282.957C168.308 282.657 172.208 282.657 177.008 283.357C177.008 283.357 171.008 281.657 164.208 281.857C163.108 280.757 162.108 279.557 160.908 278.157C160.908 278.157 161.708 279.657 163.108 281.857C157.508 282.157 151.608 283.857 148.108 288.657C146.308 288.057 144.408 287.257 142.508 286.457Z" fill="#FFF9EF"/>
</g>
<defs>
<clipPath id="clip0_20_3678">
<rect width="345" height="346" fill="white"/>
</clipPath>
</defs>
</svg>
