<?xml version="1.0" encoding="utf-8"?>
<svg version="1.0" id="Capa_1" xmlns="http://www.w3.org/2000/svg" viewBox="0 0 1096 780" enable-background="new 0 0 1096 780" style="filter: none;">
  <defs>
    
  </defs>
  <path d="M 551.276 539.023 C 552.376 543.623 555.176 548.123 555.176 548.123 C 550.576 539.723 554.176 533.723 556.876 529.523 C 558.576 526.823 558.876 523.923 558.876 522.223 C 561.576 521.723 564.076 521.023 566.576 520.123 C 572.676 530.223 590.176 531.923 590.176 531.923 C 574.876 528.423 571.076 522.323 570.276 518.623 C 573.376 517.223 576.176 515.623 578.776 513.723 C 581.076 514.123 584.676 515.523 584.876 519.923 C 584.876 519.923 587.376 512.723 582.076 511.023 C 584.676 508.623 586.676 505.923 588.076 503.123 C 588.076 503.123 577.376 503.223 571.276 503.523 C 571.276 503.523 553.976 518.523 532.576 509.223 C 526.576 506.623 521.776 503.523 516.976 500.423 C 522.376 499.023 520.276 491.723 520.276 491.723 C 519.776 496.923 514.676 497.523 512.676 497.623 C 510.776 496.423 508.776 495.123 506.576 493.923 C 506.976 492.323 508.876 487.423 517.876 486.023 C 520.476 489.823 524.676 494.823 529.976 497.323 C 527.576 498.423 525.176 499.623 522.576 500.923 C 522.576 500.923 528.676 504.323 534.376 506.523 C 534.376 506.523 553.276 494.723 585.976 499.023 C 589.276 499.423 592.576 499.523 595.776 499.323 C 590.376 505.923 588.076 514.723 588.076 514.723 C 592.976 505.323 597.676 500.823 601.276 498.723 C 603.176 498.423 605.076 497.923 606.876 497.423 C 607.576 502.723 614.976 501.823 614.976 501.823 C 611.076 500.923 610.476 498.123 610.676 496.223 C 615.176 494.523 619.376 492.323 623.176 489.723 C 627.576 493.223 627.376 500.723 630.476 503.923 C 633.776 507.323 638.476 509.823 638.476 509.823 C 630.276 504.823 630.376 497.923 630.476 492.923 C 630.576 489.723 629.376 487.123 628.476 485.623 C 630.476 483.823 632.376 481.923 634.076 479.923 C 644.376 485.623 660.476 478.123 660.476 478.123 C 645.476 482.823 639.176 479.523 636.576 476.723 C 638.576 474.023 640.176 471.123 641.376 468.223 C 643.576 467.423 647.376 466.823 649.776 470.523 C 649.776 470.523 648.276 463.023 642.876 464.223 C 643.876 460.823 644.276 457.523 644.076 454.323 C 644.076 454.323 634.976 459.823 629.776 463.223 C 629.776 463.223 622.476 484.923 599.276 487.623 C 592.776 488.423 587.076 488.123 581.376 487.923 C 585.276 484.023 579.876 478.723 579.876 478.723 C 582.076 483.423 577.976 486.623 576.276 487.623 C 573.976 487.523 571.576 487.523 569.176 487.523 C 568.676 485.923 567.876 480.423 575.676 474.423 C 579.876 476.323 586.176 478.523 592.076 478.023 C 590.576 480.123 589.076 482.423 587.576 484.923 C 587.576 484.923 594.476 484.723 600.576 483.623 C 600.576 483.623 610.776 463.723 640.976 450.623 C 644.076 449.323 646.976 447.723 649.576 445.823 C 648.376 454.223 650.876 463.023 650.876 463.023 C 650.276 452.423 651.976 446.123 653.976 442.523 C 655.476 441.223 656.776 439.923 658.076 438.523 C 661.476 442.723 667.276 438.123 667.276 438.123 C 663.476 439.323 661.576 437.323 660.676 435.523 C 663.676 431.823 666.176 427.723 668.076 423.523 C 673.576 424.323 677.276 430.823 681.576 432.023 C 686.176 433.323 691.376 432.923 691.376 432.923 C 681.776 432.823 678.276 426.823 675.876 422.523 C 674.276 419.723 671.976 418.123 670.476 417.223 C 671.276 414.623 671.876 412.023 672.376 409.523 C 684.176 409.123 694.076 394.423 694.076 394.423 C 683.576 406.123 676.476 406.523 672.876 405.523 C 673.176 402.123 673.076 398.823 672.676 395.723 C 674.176 393.923 677.076 391.423 681.076 393.423 C 681.076 393.423 675.976 387.723 671.876 391.623 C 670.976 388.223 669.676 385.123 667.876 382.523 C 667.876 382.523 662.876 391.923 660.176 397.423 C 660.176 397.423 664.976 419.723 646.476 434.023 C 641.276 438.023 636.276 440.723 631.276 443.423 C 632.676 438.023 625.276 436.323 625.276 436.323 C 629.576 439.223 627.676 444.023 626.776 445.823 C 624.776 446.923 622.676 448.123 620.676 449.423 C 619.476 448.323 616.376 444.523 618.876 436.623 C 623.476 436.123 629.676 434.923 634.376 431.723 C 634.176 434.323 633.976 437.023 633.876 439.923 C 633.876 439.923 639.776 436.323 644.476 432.423 C 644.476 432.423 643.476 410.123 663.176 383.723 C 665.176 381.023 666.876 378.223 668.276 375.323 C 671.376 383.223 677.876 389.523 677.876 389.523 C 672.076 380.623 670.476 374.323 670.376 370.123 C 670.976 368.323 671.576 366.423 671.976 364.623 C 676.976 366.623 679.776 359.723 679.776 359.723 C 677.076 362.723 674.376 361.823 672.776 360.723 C 673.576 356.023 673.676 351.223 673.176 346.623 C 678.376 344.523 684.776 348.323 689.076 347.223 C 693.676 346.023 698.076 343.123 698.076 343.123 C 689.676 347.823 683.676 344.323 679.476 341.823 C 676.676 340.223 673.876 339.923 672.176 339.923 C 671.576 337.323 670.876 334.723 669.976 332.323 C 679.976 326.123 681.376 308.523 681.376 308.523 C 678.076 323.923 672.176 327.823 668.476 328.623 C 667.076 325.523 665.376 322.723 663.476 320.223 C 663.876 317.823 665.176 314.223 669.576 314.023 C 669.576 314.023 662.276 311.623 660.776 317.023 C 658.376 314.523 655.676 312.523 652.776 311.123 C 652.776 311.123 653.076 321.723 653.476 327.923 C 653.476 327.923 668.776 344.923 659.776 366.523 C 657.276 372.523 654.276 377.423 651.176 382.223 C 649.676 376.923 642.476 379.023 642.476 379.023 C 647.676 379.423 648.376 384.523 648.476 386.523 C 647.276 388.523 646.076 390.523 644.876 392.623 C 643.276 392.223 638.276 390.423 636.776 381.323 C 640.476 378.623 645.476 374.323 647.876 369.023 C 648.976 371.323 650.276 373.823 651.676 376.323 C 651.676 376.323 654.976 370.223 657.076 364.423 C 657.076 364.423 644.876 345.723 648.576 312.923 C 648.976 309.523 648.976 306.323 648.676 303.123 C 655.376 308.323 664.176 310.523 664.176 310.523 C 654.676 305.723 650.076 301.223 647.876 297.623 C 647.476 295.723 647.076 293.823 646.476 292.023 C 651.776 291.223 650.676 283.823 650.676 283.823 C 649.776 287.723 647.076 288.323 645.176 288.223 C 643.376 283.723 641.076 279.623 638.376 275.823 C 641.776 271.423 649.276 271.423 652.476 268.323 C 655.876 264.923 658.176 260.223 658.176 260.223 C 653.376 268.523 646.376 268.523 641.476 268.523 C 638.276 268.523 635.676 269.723 634.176 270.623 C 632.376 268.623 630.376 266.823 628.376 265.123 C 633.876 254.723 626.076 238.823 626.076 238.823 C 631.076 253.723 627.876 260.123 625.176 262.723 C 622.376 260.823 619.476 259.223 616.576 258.023 C 615.676 255.823 614.976 252.023 618.676 249.623 C 618.676 249.623 611.176 251.223 612.576 256.623 C 609.176 255.723 605.876 255.323 602.676 255.623 C 602.676 255.623 608.276 264.623 611.776 269.723 C 611.776 269.723 633.576 276.623 636.776 299.823 C 637.676 306.323 637.576 312.023 637.376 317.723 C 633.376 313.823 628.276 319.423 628.276 319.423 C 632.976 317.123 636.176 321.123 637.276 322.823 C 637.276 325.123 637.176 327.523 637.276 329.923 C 635.776 330.423 630.976 331.223 625.376 325.223 C 627.276 321.023 629.276 315.023 628.776 309.423 C 630.876 310.923 633.176 312.423 635.676 313.923 C 635.676 313.923 635.476 307.023 634.476 300.923 C 634.476 300.923 614.576 290.723 601.576 260.423 C 600.276 257.323 598.676 254.423 596.876 251.823 C 605.276 253.123 614.076 250.523 614.076 250.523 C 603.476 251.123 597.176 249.423 593.576 247.423 C 592.276 245.923 590.976 244.623 589.576 243.323 C 593.776 239.923 589.176 234.123 589.176 234.123 C 590.376 237.923 588.276 239.823 586.576 240.723 C 582.876 237.723 578.776 235.223 574.576 233.323 C 575.376 227.823 581.876 224.123 583.076 219.823 C 584.376 215.223 584.076 210.023 584.076 210.023 C 583.976 219.623 577.976 223.123 573.676 225.523 C 570.876 227.123 569.176 229.423 568.376 230.923 C 565.776 230.123 563.176 229.523 560.676 229.023 C 560.276 217.223 545.676 207.323 545.676 207.323 C 557.376 217.823 557.776 224.923 556.676 228.523 C 553.276 228.223 549.976 228.323 546.876 228.723 C 545.076 227.223 542.576 224.323 544.576 220.323 C 544.576 220.323 538.876 225.423 542.776 229.423 C 539.376 230.323 536.276 231.623 533.676 233.423 C 533.676 233.423 543.076 238.423 548.576 241.123 C 548.576 241.123 570.976 236.323 585.176 254.823 C 589.176 260.023 591.876 265.023 594.576 270.123 C 589.176 268.723 587.476 276.123 587.476 276.123 C 590.376 271.823 595.176 273.723 596.976 274.623 C 598.076 276.623 599.276 278.723 600.476 280.823 C 599.376 282.023 595.576 285.123 587.776 282.623 C 587.276 278.023 586.076 271.823 582.876 267.223 C 585.476 267.423 588.176 267.623 591.076 267.723 C 591.076 267.723 587.476 261.823 583.576 257.023 C 583.576 257.023 561.276 258.023 534.976 238.223 C 532.276 236.223 529.476 234.523 526.576 233.123 C 534.476 230.023 540.876 223.523 540.876 223.523 C 531.976 229.323 525.676 230.923 521.476 231.023 C 519.676 230.323 517.776 229.823 515.976 229.423 C 517.976 224.423 511.076 221.623 511.076 221.623 C 514.076 224.323 513.176 227.023 512.076 228.623 C 507.376 227.823 502.576 227.723 497.976 228.123 C 495.876 222.923 499.776 216.523 498.676 212.223 C 497.476 207.623 494.676 203.223 494.676 203.223 C 499.376 211.623 495.876 217.623 493.276 221.823 C 491.676 224.623 491.376 227.423 491.376 229.123 C 488.776 229.723 486.176 230.423 483.776 231.323 C 477.576 221.323 459.976 219.923 459.976 219.923 C 475.376 223.223 479.176 229.223 480.076 232.923 C 476.976 234.323 474.176 236.023 471.676 237.923 C 469.376 237.523 465.676 236.223 465.476 231.823 C 465.476 231.823 463.076 239.123 468.376 240.723 C 465.876 243.123 463.776 245.823 462.476 248.723 C 462.476 248.723 473.176 248.423 479.276 248.023 C 479.276 248.023 496.276 232.823 517.876 241.823 C 523.876 244.323 528.776 247.323 533.576 250.423 C 528.276 251.823 530.376 259.123 530.376 259.123 C 530.776 253.923 535.876 253.223 537.876 253.123 C 539.876 254.323 541.876 255.523 543.976 256.723 C 543.576 258.323 541.876 262.823 533.876 264.623 C 531.176 260.923 527.076 256.123 521.976 253.623 C 524.376 252.523 526.776 251.323 529.376 249.923 C 529.376 249.923 523.276 246.523 517.576 244.423 C 517.576 244.423 498.676 256.323 465.976 252.123 C 462.676 251.723 459.376 251.623 456.176 251.823 C 461.476 245.223 463.776 236.423 463.776 236.423 C 458.876 245.823 454.276 250.423 450.676 252.523 C 448.776 252.823 446.876 253.323 445.076 253.823 C 444.376 248.523 436.976 249.523 436.976 249.523 C 440.876 250.423 441.476 253.123 441.276 255.123 C 436.776 256.823 432.576 259.023 428.776 261.723 C 424.376 258.223 424.576 250.723 421.476 247.523 C 418.176 244.123 413.476 241.723 413.476 241.723 C 421.676 246.623 421.576 253.623 421.476 258.623 C 421.376 261.823 422.576 264.423 423.476 265.923 C 421.476 267.723 419.576 269.623 417.976 271.623 C 407.576 266.023 391.676 273.523 391.676 273.523 C 406.676 268.823 412.976 272.023 415.576 274.823 C 413.576 277.623 411.976 280.423 410.776 283.323 C 408.576 284.123 404.776 284.823 402.376 281.023 C 402.376 281.023 403.876 288.523 409.276 287.223 C 408.276 290.623 407.876 293.923 408.076 297.123 C 408.076 297.123 417.176 291.623 422.376 288.223 C 422.376 288.223 429.676 266.523 452.776 263.723 C 459.276 262.923 464.976 263.123 470.676 263.423 C 466.776 267.323 472.276 272.623 472.276 272.623 C 470.076 267.923 474.176 264.723 475.876 263.723 C 478.176 263.823 480.576 263.823 482.976 263.823 C 483.476 265.423 484.276 270.323 477.776 275.923 C 473.576 274.023 467.576 271.923 461.876 272.323 C 463.376 270.223 464.876 267.923 466.476 265.423 C 466.476 265.423 459.576 265.523 453.476 266.523 C 453.476 266.523 443.076 286.323 412.676 298.923 C 409.576 300.223 406.676 301.823 403.976 303.523 C 405.276 295.123 402.876 286.323 402.876 286.323 C 403.276 296.923 401.576 303.223 399.476 306.823 C 397.976 308.023 396.576 309.323 395.276 310.723 C 391.976 306.423 386.076 311.023 386.076 311.023 C 389.976 309.823 391.776 311.923 392.576 313.723 C 389.476 317.423 386.976 321.423 385.076 325.623 C 379.576 324.823 375.976 318.223 371.676 317.023 C 367.076 315.723 361.876 315.923 361.876 315.923 C 371.476 316.123 374.876 322.123 377.276 326.523 C 378.776 329.323 381.176 331.023 382.676 331.823 C 381.876 334.423 381.176 337.023 380.676 339.523 C 368.876 339.823 358.776 354.323 358.776 354.323 C 369.376 342.723 376.476 342.423 380.176 343.523 C 379.876 346.923 379.876 350.223 380.276 353.323 C 378.776 355.123 375.776 357.623 371.876 355.523 C 371.876 355.523 376.876 361.223 380.976 357.423 C 381.776 360.823 383.076 363.923 384.876 366.523 C 384.876 366.523 390.076 357.223 392.776 351.723 C 392.776 351.723 388.276 329.323 406.876 315.223 C 412.076 311.323 417.176 308.623 422.276 306.023 C 420.776 311.323 428.176 313.223 428.176 313.223 C 423.876 310.223 425.876 305.423 426.776 303.723 C 428.776 302.623 430.876 301.523 432.976 300.223 C 434.176 301.323 437.476 305.423 434.376 313.823 C 429.776 314.223 423.376 315.423 418.676 318.723 C 418.876 316.123 419.076 313.423 419.176 310.523 C 419.176 310.523 413.276 314.123 408.476 318.023 C 408.476 318.023 409.376 340.323 389.576 366.623 C 387.576 369.323 385.876 372.123 384.476 375.023 C 381.376 367.123 374.876 360.723 374.876 360.723 C 380.576 369.723 382.276 375.923 382.276 380.123 C 381.576 381.923 381.076 383.823 380.676 385.623 C 375.676 383.623 372.876 390.523 372.876 390.523 C 375.576 387.523 378.276 388.423 379.876 389.523 C 379.076 394.223 378.976 399.023 379.376 403.623 C 374.176 405.723 367.776 401.823 363.476 402.923 C 358.876 404.123 354.476 406.923 354.476 406.923 C 362.876 402.223 368.876 405.723 373.076 408.323 C 375.776 410.023 378.676 410.223 380.376 410.223 C 380.976 412.823 381.676 415.423 382.576 417.823 C 372.576 424.023 371.076 441.623 371.076 441.623 C 374.376 426.223 380.376 422.423 384.076 421.523 C 385.476 424.623 387.176 427.423 389.076 429.923 C 388.676 432.223 387.376 435.923 382.976 436.023 C 382.976 436.023 390.276 438.423 391.876 433.123 C 394.276 435.623 396.976 437.723 399.876 439.023 C 399.876 439.023 399.676 428.323 399.176 422.223 C 399.176 422.223 383.976 405.123 392.976 383.623 C 395.476 377.623 398.476 372.723 401.576 367.923 C 402.976 373.223 410.276 371.123 410.276 371.123 C 405.076 370.723 404.376 365.623 404.276 363.623 C 405.476 361.623 406.676 359.623 407.876 357.523 C 409.476 357.923 414.276 359.723 415.876 368.323 C 412.176 371.023 407.276 375.223 404.776 380.423 C 403.676 378.023 402.476 375.623 401.076 373.023 C 401.076 373.023 397.776 379.123 395.576 384.823 C 395.576 384.823 407.576 403.623 403.576 436.323 C 403.176 439.723 403.076 442.923 403.376 446.123 C 396.776 440.823 387.876 438.523 387.876 438.523 C 397.376 443.423 401.876 448.023 403.976 451.523 C 404.276 453.423 404.776 455.323 405.276 457.123 C 399.976 457.923 400.976 465.323 400.976 465.323 C 401.876 461.423 404.576 460.823 406.576 461.023 C 408.276 465.523 410.576 469.723 413.176 473.423 C 409.676 477.823 402.176 477.723 398.976 480.823 C 395.576 484.123 393.176 488.823 393.176 488.823 C 398.076 480.623 404.976 480.623 409.976 480.723 C 413.176 480.723 415.776 479.523 417.276 478.723 C 419.076 480.723 420.976 482.623 422.976 484.223 C 417.376 494.623 424.976 510.523 424.976 510.523 C 420.176 495.523 423.376 489.223 426.176 486.623 C 428.976 488.623 431.776 490.223 434.676 491.423 C 435.476 493.623 436.176 497.423 432.476 499.823 C 432.476 499.823 439.976 498.323 438.676 492.823 C 442.076 493.823 445.376 494.223 448.576 493.923 C 448.576 493.923 442.976 484.823 439.576 479.723 C 439.576 479.723 417.876 472.623 414.876 449.423 C 414.076 442.923 414.276 437.223 414.476 431.523 C 418.376 435.423 423.676 429.923 423.676 429.923 C 418.976 432.223 415.776 428.123 414.676 426.423 C 414.776 424.123 414.776 421.723 414.676 419.323 C 416.176 418.823 421.176 418.023 426.776 424.423 C 424.876 428.623 422.776 434.623 423.276 440.323 C 421.176 438.823 418.876 437.323 416.376 435.723 C 416.376 435.723 416.476 442.623 417.476 448.723 C 417.476 448.723 437.276 459.123 450.076 489.423 C 451.376 492.523 452.976 495.423 454.776 498.123 C 446.376 496.823 437.576 499.323 437.576 499.323 C 448.176 498.823 454.476 500.523 458.076 502.623 C 459.276 504.123 460.676 505.523 461.976 506.823 C 457.676 510.123 462.276 516.023 462.276 516.023 C 461.076 512.123 463.176 510.323 464.976 509.523 C 468.676 512.523 472.776 515.023 476.976 517.023 C 476.176 522.523 469.576 526.223 468.376 530.523 C 467.076 535.123 467.376 540.323 467.376 540.323 C 467.476 530.723 473.576 527.323 477.876 524.923 C 480.676 523.323 482.376 521.023 483.176 519.523 C 485.776 520.323 488.376 521.023 490.876 521.423 C 491.176 533.223 505.776 543.223 505.776 543.223 C 494.176 532.623 493.776 525.523 494.876 521.923 C 498.276 522.223 501.576 522.223 504.676 521.823 C 506.476 523.323 508.976 526.323 506.976 530.223 C 506.976 530.223 512.676 525.123 508.876 521.123 C 512.276 520.323 515.376 518.923 517.976 517.123 C 517.976 517.123 508.676 512.023 503.076 509.323 C 503.076 509.323 480.676 513.923 466.576 495.323 C 462.676 490.123 459.976 485.123 457.276 480.023 C 462.576 481.423 464.376 474.023 464.376 474.023 C 461.376 478.323 456.676 476.423 454.876 475.423 C 453.776 473.423 452.676 471.323 451.376 469.223 C 452.476 468.123 456.076 465.123 463.376 467.323 C 463.776 471.823 464.976 477.923 468.076 482.523 C 465.476 482.223 462.776 482.023 459.876 481.923 C 459.876 481.923 463.376 487.923 467.276 492.723 C 467.276 492.723 489.576 492.123 515.576 512.323 C 518.276 514.423 521.076 516.123 523.876 517.623 C 515.876 520.623 509.476 527.023 509.476 527.023 C 518.476 521.423 524.776 519.823 528.976 519.823 C 530.776 520.523 532.576 521.123 534.476 521.523 C 532.376 526.523 539.276 529.423 539.276 529.423 C 536.376 526.623 537.276 524.023 538.376 522.423 C 543.076 523.223 547.876 523.423 552.476 523.123 C 554.276 528.323 550.276 534.723 551.276 539.023 Z M 496.476 489.123 C 496.776 487.523 497.176 485.023 497.376 482.123 C 499.176 461.123 503.976 461.223 509.776 459.223 C 509.776 459.223 500.576 456.823 495.576 471.223 C 494.076 475.623 494.676 482.923 490.276 486.923 C 488.276 486.323 486.076 485.723 483.776 485.223 C 482.976 484.023 480.676 479.823 485.476 477.023 C 485.476 477.023 477.476 478.323 479.076 484.223 C 477.576 483.923 476.076 483.723 474.476 483.423 C 471.876 482.123 467.476 478.423 464.576 467.823 C 467.776 468.923 471.676 471.023 476.276 474.523 C 476.276 474.523 470.976 469.323 464.176 466.123 C 463.776 464.523 463.476 462.823 463.176 460.923 C 463.176 460.923 463.076 462.823 463.176 465.623 C 458.576 463.623 453.276 462.723 448.476 464.923 C 447.376 463.323 446.176 461.723 444.776 460.023 C 445.876 458.723 447.376 456.723 448.976 454.423 C 460.776 437.023 464.976 439.423 470.976 440.523 C 470.976 440.523 464.076 433.923 452.676 444.023 C 449.176 447.123 446.176 453.823 440.376 455.123 C 438.876 453.623 437.276 452.023 435.576 450.423 C 435.476 448.923 435.476 444.223 440.976 444.123 C 440.976 444.123 433.376 441.323 431.876 447.323 C 430.676 446.323 429.476 445.423 428.176 444.423 C 426.476 442.023 424.476 436.623 427.276 425.623 C 429.276 428.123 431.376 431.723 433.476 436.523 C 433.476 436.523 431.676 430.023 427.676 424.023 C 428.076 422.523 428.576 420.923 429.276 419.223 C 429.276 419.223 428.276 420.723 427.076 423.123 C 423.976 418.823 419.676 414.923 414.076 414.423 C 413.876 412.523 413.676 410.423 413.276 408.323 C 414.876 407.723 417.176 406.823 419.776 405.523 C 438.776 396.323 441.076 400.523 445.776 404.423 C 445.776 404.423 443.076 395.223 428.176 398.423 C 423.676 399.323 417.676 403.623 411.976 401.923 C 411.476 399.823 410.876 397.723 410.076 395.423 C 410.676 394.023 413.076 390.023 417.976 392.623 C 417.976 392.623 412.776 386.423 408.576 390.823 C 408.076 389.423 407.476 387.923 406.876 386.423 C 406.576 383.523 407.576 377.723 415.476 369.623 C 415.876 372.823 415.976 376.823 415.276 381.823 C 415.276 381.823 416.976 375.523 416.576 368.523 C 417.676 367.423 418.876 366.323 420.276 365.123 C 420.276 365.123 418.676 365.923 416.476 367.423 C 416.076 362.023 414.276 356.323 409.576 352.923 C 410.376 351.123 411.176 349.323 411.976 347.323 C 413.576 347.623 416.076 347.923 418.976 348.223 C 439.976 349.723 439.976 354.623 442.076 360.323 C 442.076 360.323 444.376 351.023 429.876 346.223 C 425.476 344.723 418.176 345.523 414.076 341.123 C 414.676 339.123 415.176 336.923 415.676 334.623 C 416.876 333.723 421.076 331.423 423.876 336.123 C 423.876 336.123 422.476 328.123 416.576 329.823 C 416.876 328.323 417.076 326.823 417.276 325.123 C 418.576 322.423 422.276 317.923 433.276 314.923 C 432.076 317.823 430.076 321.223 427.076 325.123 C 427.076 325.123 431.576 320.623 434.776 314.523 C 436.276 314.123 437.876 313.823 439.676 313.523 C 439.676 313.523 437.976 313.423 435.276 313.623 C 437.676 308.623 439.176 302.723 436.676 297.423 C 438.276 296.323 439.876 295.123 441.576 293.723 C 442.876 294.823 444.876 296.423 447.176 298.023 C 464.576 309.923 462.076 314.123 460.976 320.123 C 460.976 320.123 467.576 313.223 457.576 301.823 C 454.476 298.323 447.876 295.323 446.476 289.423 C 447.976 287.923 449.576 286.323 451.176 284.623 C 452.676 284.523 457.376 284.623 457.476 290.123 C 457.476 290.123 460.276 282.523 454.376 281.023 C 455.376 279.823 456.376 278.623 457.376 277.323 C 459.776 275.623 465.276 273.623 476.176 276.523 C 473.576 278.523 470.076 280.623 465.276 282.623 C 465.276 282.623 471.776 280.923 477.676 276.923 C 479.176 277.323 480.776 277.923 482.476 278.523 C 482.476 278.523 480.976 277.523 478.576 276.323 C 482.976 273.223 486.876 268.923 487.476 263.323 C 489.376 263.123 491.476 262.923 493.576 262.623 C 494.176 264.223 495.076 266.523 496.276 269.123 C 505.376 288.123 501.176 290.523 497.276 295.123 C 497.276 295.123 506.476 292.523 503.376 277.523 C 502.476 272.923 498.176 267.023 499.976 261.323 C 502.076 260.823 504.176 260.223 506.476 259.523 C 507.876 260.123 511.876 262.623 509.176 267.423 C 509.176 267.423 515.376 262.223 510.976 258.023 C 512.376 257.523 513.876 256.923 515.376 256.323 C 518.276 256.123 523.976 257.023 531.976 264.923 C 528.676 265.423 524.576 265.523 519.176 264.923 C 519.176 264.923 525.876 266.623 533.176 266.123 C 534.276 267.223 535.376 268.523 536.576 269.923 C 536.576 269.923 535.776 268.323 534.276 266.023 C 539.476 265.523 544.876 263.723 548.076 259.123 C 549.876 259.923 551.676 260.723 553.676 261.523 C 553.376 263.123 553.076 265.623 552.876 268.523 C 551.376 289.523 546.576 289.523 540.776 291.623 C 540.776 291.623 550.076 293.923 554.776 279.423 C 556.276 275.023 555.476 267.723 559.876 263.623 C 561.876 264.223 564.076 264.723 566.376 265.223 C 567.276 266.423 569.576 270.623 564.876 273.423 C 564.876 273.423 572.876 272.023 571.076 266.123 C 572.576 266.423 574.076 266.623 575.776 266.823 C 578.476 268.023 582.876 271.723 585.976 282.523 C 582.876 281.323 579.176 279.323 574.876 276.123 C 574.876 276.123 579.876 280.923 586.376 284.123 C 586.776 285.623 587.176 287.323 587.476 289.123 C 587.476 289.123 587.576 287.323 587.376 284.523 C 592.176 286.623 597.676 287.723 602.776 285.423 C 603.876 287.023 605.176 288.623 606.476 290.323 C 605.376 291.623 603.876 293.623 602.276 295.923 C 590.576 313.423 586.376 311.023 580.376 310.023 C 580.376 310.023 587.276 316.623 598.576 306.323 C 601.976 303.223 604.976 296.523 610.776 295.123 C 612.276 296.623 613.876 298.223 615.676 299.823 C 615.776 301.323 615.776 306.023 610.276 306.223 C 610.276 306.223 617.876 308.923 619.276 302.923 C 620.476 303.923 621.676 304.823 622.976 305.823 C 624.676 308.223 626.776 313.623 624.076 324.523 C 621.976 322.023 619.776 318.423 617.576 313.423 C 617.576 313.423 619.476 320.123 623.676 326.123 C 623.276 327.623 622.776 329.323 622.176 331.023 C 622.176 331.023 623.176 329.523 624.376 327.023 C 627.476 331.223 631.776 334.923 637.276 335.423 C 637.476 337.323 637.676 339.423 638.076 341.523 C 636.476 342.123 634.176 343.123 631.676 344.323 C 612.776 353.723 610.376 349.523 605.676 345.723 C 605.676 345.723 608.476 354.823 623.376 351.623 C 627.876 350.623 633.776 346.323 639.576 347.923 C 640.076 350.023 640.776 352.123 641.476 354.423 C 640.876 355.823 638.476 359.923 633.676 357.323 C 633.676 357.323 638.976 363.423 643.176 359.023 C 643.676 360.423 644.276 361.923 644.976 363.423 C 645.276 366.323 644.376 372.123 636.376 380.423 C 635.976 377.323 635.976 373.523 636.576 368.823 C 636.576 368.823 635.076 374.823 635.276 381.523 C 634.176 382.623 632.976 383.723 631.676 384.823 C 631.676 384.823 633.176 384.023 635.376 382.523 C 635.776 388.123 637.476 394.123 642.376 397.523 C 641.576 399.323 640.776 401.123 639.976 403.123 C 638.376 402.823 635.876 402.523 632.976 402.323 C 611.976 400.923 611.976 396.023 609.876 390.323 C 609.876 390.323 607.676 399.623 622.176 404.323 C 626.576 405.723 633.876 405.023 637.976 409.323 C 637.376 411.323 636.876 413.523 636.376 415.823 C 635.176 416.723 631.076 419.023 628.176 414.323 C 628.176 414.323 629.676 422.323 635.476 420.523 C 635.276 422.023 634.976 423.523 634.776 425.223 C 633.576 427.923 629.876 432.323 619.076 435.423 C 620.276 432.323 622.176 428.723 625.376 424.423 C 625.376 424.423 620.576 429.323 617.476 435.923 C 615.976 436.323 614.276 436.723 612.476 437.023 C 612.476 437.023 614.276 437.123 616.976 436.923 C 614.876 441.723 613.776 447.323 616.076 452.423 C 614.476 453.523 612.876 454.823 611.176 456.123 C 609.876 455.023 607.876 453.523 605.576 451.923 C 587.976 440.223 590.476 436.023 591.476 430.023 C 591.476 430.023 584.976 436.923 595.176 448.223 C 598.276 451.623 604.976 454.623 606.376 460.423 C 604.876 461.923 603.276 463.523 601.676 465.323 C 600.176 465.423 595.476 465.423 595.276 459.923 C 595.276 459.923 592.576 467.523 598.576 468.923 C 597.576 470.123 596.676 471.323 595.676 472.623 C 593.276 474.323 587.776 476.423 576.476 473.623 C 578.876 471.923 582.076 470.223 586.076 468.523 C 586.076 468.523 580.576 470.023 575.076 473.223 C 573.676 472.823 572.076 472.323 570.476 471.723 C 570.476 471.723 571.876 472.623 574.176 473.723 C 569.276 476.823 564.476 481.423 563.876 487.623 C 561.976 487.723 559.876 488.023 557.776 488.323 C 557.176 486.723 556.276 484.423 555.076 481.823 C 545.976 462.823 550.276 460.423 554.176 455.823 C 554.176 455.823 544.976 458.423 547.976 473.323 C 548.876 477.923 553.076 483.823 551.376 489.523 C 549.276 490.023 547.176 490.623 544.876 491.323 C 543.576 490.723 539.476 488.223 542.176 483.423 C 542.176 483.423 535.976 488.623 540.376 492.823 C 538.976 493.323 537.476 493.923 535.976 494.523 C 533.076 494.723 527.276 493.723 519.176 485.623 C 522.276 485.323 526.176 485.323 530.976 486.023 C 530.976 486.023 524.976 484.323 518.176 484.523 C 517.076 483.423 516.076 482.223 514.876 480.823 C 514.876 480.823 515.676 482.323 517.076 484.523 C 511.476 484.823 505.576 486.523 502.076 491.323 C 500.276 490.723 498.376 489.923 496.476 489.123 Z" style="fill: rgb(255, 249, 239); filter: url(&quot;#outline-filter-0&quot;); shape-rendering: geometricprecision;"/>
</svg>