<?xml version="1.0" encoding="UTF-8"?>
<svg xmlns="http://www.w3.org/2000/svg" xmlns:xlink="http://www.w3.org/1999/xlink" viewBox="0 0 3000 3000">
<rect width="3600" height="3600" fill="currentColor" fill-opacity="1"/>
<path fill-rule="nonzero" fill="rgb(100%, 100%, 100%)" fill-opacity="1" d="M 2005.050781 473.949219 C 2006.089844 467.171875 2001.289062 445.769531 1996.410156 435.371094 C 1989.910156 421.550781 1966.128906 398.628906 1950.109375 390.75 C 1936.808594 384.210938 1915.070312 378.421875 1903.5 378.351562 C 1899.441406 378.308594 1890.828125 373.839844 1876.910156 364.511719 C 1865.601562 356.921875 1853.359375 350.148438 1849.730469 349.46875 C 1842.289062 348.070312 1809.039062 355.769531 1798.109375 361.421875 C 1781.160156 370.191406 1755.03125 403.941406 1752.949219 419.761719 L 1751.941406 427.378906 L 1772.648438 437.890625 C 1784.039062 443.671875 1794.808594 449.449219 1796.578125 450.71875 C 1799.171875 452.589844 1801.140625 452.03125 1806.628906 447.839844 C 1815.53125 441.058594 1845.929688 430.949219 1862.449219 429.28125 C 1883.289062 427.191406 1904.550781 434.210938 1938.550781 454.410156 C 1948.910156 460.558594 1993.648438 477.601562 2000.988281 478.179688 C 2003.050781 478.339844 2004.628906 476.699219 2005.050781 473.949219 Z M 2006.601562 559.128906 C 2004.089844 552.761719 1999.710938 543.039062 1996.859375 537.53125 C 1991.320312 526.828125 1966.898438 492.46875 1964.820312 492.46875 C 1963.300781 492.46875 1925.761719 504.671875 1924.960938 505.421875 C 1924.648438 505.710938 1932.328125 510.609375 1942.03125 516.308594 C 1961.230469 527.570312 1997.808594 556.988281 2004.75 566.71875 C 2011.058594 575.578125 2011.828125 572.398438 2006.601562 559.128906 Z M 1834.621094 540.96875 C 1850.050781 524.21875 1898.609375 493.359375 1922.578125 485.070312 C 1931.359375 482.039062 1938.550781 479.019531 1938.550781 478.359375 C 1938.550781 477.699219 1930.769531 472.800781 1921.261719 467.460938 L 1903.96875 457.761719 L 1894.730469 461.179688 C 1878.71875 467.089844 1859.351562 479.898438 1848.558594 491.699219 C 1833.328125 508.371094 1817.789062 541.660156 1813.621094 566.570312 C 1812.53125 573.109375 1812.878906 572.820312 1819.011719 562.191406 C 1822.621094 555.921875 1829.648438 546.378906 1834.621094 540.96875 Z M 1795.21875 558.058594 C 1802.929688 515.820312 1831.28125 472.640625 1863.421875 454.210938 C 1874.828125 447.671875 1872.351562 447 1852.429688 451.269531 C 1833.070312 455.421875 1821.808594 461.019531 1804.828125 474.929688 C 1774.75 499.578125 1759.289062 518.5 1748.320312 544.078125 C 1743.109375 556.21875 1742.871094 557.679688 1745.910156 558.820312 C 1747.769531 559.519531 1757.859375 563.738281 1768.320312 568.199219 C 1778.78125 572.660156 1788.359375 576.378906 1789.589844 576.449219 C 1790.878906 576.519531 1793.289062 568.648438 1795.21875 558.058594 Z M 2048.269531 585.601562 C 2053.441406 582.839844 2059.160156 580.589844 2060.96875 580.589844 C 2064.941406 580.589844 2067.511719 569.539062 2065.5 561.179688 C 2061.679688 545.308594 2050.441406 530.761719 2031.859375 517.671875 C 2018.699219 508.398438 1995.589844 497.101562 1997.898438 501.058594 C 1998.679688 502.398438 2001.738281 507.089844 2004.710938 511.5 C 2015.789062 527.929688 2028.679688 558.300781 2034.691406 582.089844 C 2035.871094 586.769531 2037.289062 590.601562 2037.851562 590.601562 C 2038.410156 590.601562 2043.101562 588.351562 2048.269531 585.601562 Z M 1991.921875 598.609375 C 1999.421875 598.609375 2002.628906 597.820312 2002.628906 595.988281 C 2002.628906 592.179688 1976.058594 565.339844 1958.390625 551.300781 C 1940.738281 537.289062 1917.441406 523.710938 1914.339844 525.621094 C 1913.171875 526.351562 1909.621094 532.480469 1906.46875 539.25 L 1900.738281 551.550781 L 1910.71875 556.640625 C 1923.25 563.019531 1937.75 577.148438 1945.558594 590.589844 L 1951.570312 600.929688 L 1966.390625 599.769531 C 1974.539062 599.140625 1986.03125 598.609375 1991.921875 598.609375 Z M 1864.800781 593.609375 C 1867.46875 579.738281 1873.109375 564.101562 1883.46875 541.851562 C 1887.488281 533.210938 1890.378906 525.738281 1889.890625 525.261719 C 1887.949219 523.320312 1854.519531 548.148438 1846.410156 557.539062 C 1838.410156 566.820312 1826.398438 588.628906 1826.398438 593.898438 C 1826.398438 595.160156 1834.28125 600.28125 1843.921875 605.28125 C 1860.75 614.019531 1861.46875 614.199219 1861.96875 610 C 1862.25 607.589844 1863.53125 600.21875 1864.800781 593.609375 Z M 1900.238281 613.808594 C 1906.441406 610.050781 1915.121094 606.320312 1919.519531 605.53125 C 1923.929688 604.738281 1928.230469 603.699219 1929.089844 603.210938 C 1930.910156 602.160156 1919.691406 587.371094 1912.691406 581.589844 C 1898.738281 570.078125 1892.011719 569.648438 1888.839844 580.089844 C 1881.410156 604.558594 1880.171875 620.640625 1885.71875 620.640625 C 1887.5 620.640625 1894.03125 617.570312 1900.238281 613.808594 Z M 1598.929688 575.671875 C 1603.519531 560.109375 1609.628906 548.25 1620.671875 533.5 C 1632.628906 517.511719 1638.808594 504.769531 1644.050781 485.328125 C 1651.25 458.589844 1663.570312 441.769531 1683.210938 431.859375 C 1689.589844 428.640625 1713.378906 424.378906 1725 424.378906 C 1731.839844 424.378906 1732.039062 424.148438 1734.230469 413.558594 C 1735.46875 407.609375 1739.949219 397.019531 1744.191406 390.03125 C 1748.441406 383.039062 1751.089844 377.019531 1750.101562 376.648438 C 1749.101562 376.28125 1738.578125 378.261719 1726.710938 381.039062 C 1701.601562 386.929688 1677.949219 397.28125 1654.101562 412.808594 C 1624.339844 432.191406 1616.121094 443.488281 1616.121094 464.988281 C 1616.121094 481.960938 1612.210938 494.199219 1596.851562 525.410156 C 1586.691406 546.050781 1583.640625 554.421875 1582.371094 565.171875 C 1580.378906 581.980469 1582.660156 600.128906 1588.589844 614.628906 L 1593.089844 625.648438 L 1594.25 606.621094 C 1594.890625 596.160156 1597 582.230469 1598.929688 575.671875 Z M 2095.429688 627.148438 C 2105.148438 604.878906 2105.199219 578.429688 2095.621094 526.351562 C 2089.351562 492.320312 2088.570312 484.621094 2089.359375 464.648438 C 2090.089844 445.859375 2089.589844 439.949219 2086.5 431.148438 C 2084.429688 425.28125 2082.738281 419.308594 2082.738281 417.890625 C 2082.738281 416.460938 2080.460938 411.929688 2077.660156 407.820312 C 2071.660156 398.988281 2058.558594 391.851562 2039.621094 387.089844 C 2028.109375 384.199219 2023.898438 384.039062 2011.25 386.011719 C 1986.609375 389.839844 1986.480469 390.070312 2000.328125 406.960938 C 2013.230469 422.671875 2019.140625 434.371094 2022.5 450.789062 C 2025.371094 464.761719 2025.609375 469.808594 2023.898438 479.449219 L 2022.480469 487.46875 L 2037.828125 497.480469 C 2068.089844 517.21875 2085.261719 542.890625 2086.070312 569.578125 C 2086.300781 577.289062 2087.230469 585.398438 2088.121094 587.601562 C 2089.019531 589.800781 2089.75 601.289062 2089.75 613.128906 C 2089.75 624.96875 2090.289062 634.660156 2090.949219 634.660156 C 2091.609375 634.660156 2093.621094 631.28125 2095.429688 627.148438 Z M 2110.808594 653.671875 C 2120.679688 647.441406 2142.660156 621.011719 2147.21875 609.890625 C 2157.851562 583.960938 2144.648438 528.988281 2117.53125 486.269531 C 2110.570312 475.308594 2109.710938 474.578125 2109.148438 479.179688 C 2108.808594 482 2111.738281 502.210938 2115.660156 524.089844 C 2126.808594 586.261719 2125.171875 613.96875 2108.570312 644.039062 C 2104.128906 652.101562 2101.019531 658.691406 2101.671875 658.691406 C 2102.320312 658.691406 2106.429688 656.429688 2110.808594 653.671875 Z M 2062.398438 672.210938 C 2067.710938 654.140625 2070.628906 634.03125 2070.691406 615.140625 C 2070.738281 597.859375 2069.511719 597.300781 2051.261719 606.359375 C 2035.910156 613.980469 2012.359375 618.070312 1974.601562 619.671875 C 1941.429688 621.078125 1917.339844 624.980469 1912.609375 629.710938 C 1910.058594 632.261719 1910.179688 633 1913.601562 635.679688 C 1924.679688 644.351562 1928.640625 645.199219 1959.480469 645.441406 C 1994.898438 645.71875 1997.910156 646.761719 2023.578125 667.679688 C 2036.648438 678.328125 2049.480469 685.601562 2056.910156 686.570312 C 2057.578125 686.660156 2060.050781 680.199219 2062.398438 672.210938 Z M 1753.671875 707.261719 C 1753.191406 706.429688 1745.761719 693.601562 1737.148438 678.738281 C 1728.550781 663.871094 1719.980469 647.648438 1718.109375 642.691406 C 1708.609375 617.390625 1708.289062 584.980469 1717.410156 571.539062 C 1720.070312 567.609375 1722.261719 562.101562 1722.261719 559.300781 C 1722.261719 556.488281 1725.421875 547.011719 1729.28125 538.21875 C 1740.410156 512.921875 1761.480469 483.828125 1776.898438 472.488281 C 1782.53125 468.351562 1783.890625 466.390625 1781.960938 465.199219 C 1753.910156 447.789062 1730.371094 441.988281 1705.5 446.359375 C 1690.628906 448.96875 1682.808594 453.328125 1686.050781 457.230469 C 1688.378906 460.039062 1693.539062 487.351562 1695.171875 505.488281 C 1696.210938 517.039062 1695.53125 522.679688 1691.328125 537.53125 C 1678.738281 582.070312 1677.441406 590.160156 1680.070312 607.339844 C 1683.910156 632.460938 1690.839844 648.449219 1705.089844 665.140625 C 1716.761719 678.808594 1733.5 694.351562 1747.289062 704.300781 C 1753.820312 709.011719 1755 709.558594 1753.671875 707.261719 Z M 1711.898438 700.730469 C 1690.28125 680.980469 1676.75 663.21875 1669.910156 645.601562 C 1663.960938 630.28125 1658.171875 604.488281 1658.171875 593.28125 C 1658.171875 587.21875 1663.070312 566.019531 1672.421875 531.519531 C 1676.460938 516.628906 1676.589844 514.230469 1674.25 497.539062 C 1670.398438 470.019531 1669.421875 468.921875 1664.351562 486.460938 C 1656.070312 515.140625 1652.980469 521.480469 1632.640625 551.539062 C 1626.859375 560.089844 1620.699219 571.691406 1618.949219 577.339844 C 1614.921875 590.328125 1613.199219 611.03125 1614.980469 625.28125 C 1616.398438 636.578125 1618.109375 639.28125 1643.371094 670.171875 C 1651.320312 679.890625 1676.558594 695.511719 1697.230469 703.488281 C 1704.941406 706.46875 1713.949219 710.171875 1717.25 711.710938 C 1728.351562 716.890625 1727.351562 714.828125 1711.898438 700.730469 Z M 1944.019531 793.070312 C 1981.390625 778.148438 1995.179688 770.070312 2013.558594 752.300781 C 2024.308594 741.910156 2033.941406 730.238281 2039.550781 720.800781 L 2048.46875 705.789062 L 2037.070312 700.488281 C 2030.800781 697.570312 2019.359375 690.019531 2011.648438 683.710938 C 1991.5 667.210938 1984.191406 664.371094 1963 664.78125 C 1953.410156 664.960938 1941.378906 665.160156 1936.28125 665.21875 L 1927.011719 665.320312 L 1931.828125 674.929688 C 1938.660156 688.519531 1944.789062 713.660156 1944.71875 727.789062 C 1944.648438 744.140625 1940.140625 760.328125 1929.578125 782.359375 C 1924.691406 792.550781 1921.539062 800.890625 1922.570312 800.890625 C 1923.601562 800.890625 1933.25 797.371094 1944.019531 793.078125 Z M 1909.53125 778.820312 C 1924.410156 747.679688 1927.109375 733.441406 1922.46875 710.660156 C 1917.640625 686.898438 1914.761719 681.171875 1899.460938 664.960938 C 1884.519531 649.121094 1875.980469 643.441406 1836.410156 623.070312 C 1821.539062 615.410156 1804.421875 606.511719 1798.359375 603.300781 C 1784.199219 595.78125 1743.308594 578.589844 1739.609375 578.589844 C 1733.460938 578.589844 1731.269531 584.921875 1731.339844 602.429688 C 1731.429688 627.878906 1735.878906 638.898438 1766.03125 688.480469 C 1775.941406 704.769531 1784.339844 723.808594 1784.339844 729.960938 C 1784.339844 735.941406 1790.210938 744.039062 1804.679688 758.039062 C 1821.089844 773.921875 1830.488281 779.320312 1859.550781 789.519531 C 1870.5 793.371094 1882.621094 797.929688 1886.480469 799.648438 C 1890.328125 801.371094 1894.621094 802.578125 1896 802.328125 C 1897.378906 802.089844 1903.46875 791.511719 1909.53125 778.820312 Z M 1981.199219 810.800781 C 1996.050781 808.058594 2004.261719 803.191406 2026.628906 783.859375 C 2061.109375 754.039062 2083.019531 741.101562 2121.191406 728 C 2147.238281 719.050781 2163.621094 717.269531 2178.871094 721.71875 C 2195.828125 726.671875 2195.308594 726.851562 2199.148438 714.769531 C 2207.128906 689.710938 2202.519531 654.691406 2186.871094 621.429688 C 2173.261719 592.488281 2172.738281 591.96875 2169.570312 604.328125 C 2168.160156 609.839844 2165.148438 618.238281 2162.871094 623 C 2157.480469 634.289062 2133.898438 662.058594 2123.738281 669.089844 C 2115.890625 674.519531 2094.609375 683.480469 2084.628906 685.550781 C 2080.78125 686.351562 2078.328125 689.25 2074.808594 697.191406 C 2055.148438 741.480469 2024.320312 776.441406 1988.820312 794.679688 C 1977.480469 800.5 1963.550781 806.921875 1957.878906 808.941406 L 1947.558594 812.609375 L 1958.710938 812.75 C 1964.839844 812.828125 1974.960938 811.949219 1981.199219 810.800781 Z M 1871.359375 815.210938 C 1870.308594 814.28125 1860.890625 810.589844 1850.429688 807.011719 C 1817.390625 795.699219 1811.089844 791.890625 1788.960938 769.820312 C 1769.179688 750.101562 1768.070312 749.320312 1752.921875 744.839844 C 1744.320312 742.289062 1731.421875 738 1724.261719 735.320312 C 1717.101562 732.628906 1705.390625 728.230469 1698.230469 725.53125 C 1682.308594 719.550781 1662.140625 709.421875 1647.511719 700.058594 C 1638.128906 694.058594 1631.699219 687.378906 1612.839844 664.050781 C 1608.808594 659.058594 1605.300781 662.261719 1602.03125 673.949219 C 1596.671875 693.109375 1606.011719 721.328125 1627.269531 750.21875 L 1642.210938 770.519531 L 1660.710938 769.441406 C 1693.578125 767.519531 1735.429688 775.171875 1763.800781 788.28125 C 1782.378906 796.859375 1813.390625 807.628906 1828.398438 810.710938 C 1856.878906 816.558594 1875 818.449219 1871.359375 815.210938 Z M 2047.308594 852.78125 C 2066.089844 849.941406 2075.960938 843.988281 2088.921875 827.710938 C 2101 812.53125 2113.21875 802.308594 2133.398438 790.53125 C 2141.140625 786 2152.25 777.699219 2158.070312 772.070312 C 2163.890625 766.441406 2172.308594 758.851562 2176.769531 755.210938 C 2181.230469 751.570312 2184.878906 747.378906 2184.878906 745.898438 C 2184.878906 741.941406 2166.261719 738.078125 2154.128906 739.53125 C 2148.460938 740.210938 2137.519531 743.109375 2129.808594 745.988281 C 2122.089844 748.859375 2114.058594 751.71875 2111.960938 752.339844 C 2095.089844 757.269531 2065.910156 776.019531 2038.820312 799.351562 C 2028.929688 807.859375 2016.371094 817.578125 2010.910156 820.941406 C 1999.421875 828.011719 1977.128906 832.929688 1956.558594 832.929688 C 1934.96875 832.929688 1934.140625 834.570312 1951.789062 842.351562 C 1960.351562 846.128906 1972.359375 850.429688 1978.488281 851.921875 C 1992.210938 855.25 2027.988281 855.699219 2047.308594 852.78125 Z M 1835.820312 853.109375 C 1850.058594 847.5 1863.449219 841.648438 1865.558594 840.101562 C 1869.171875 837.46875 1868.96875 837.230469 1862.421875 836.269531 C 1816.921875 829.628906 1791.539062 822.558594 1756.050781 806.640625 C 1735.640625 797.488281 1707.460938 791.269531 1678.25 789.488281 L 1657.171875 788.210938 L 1662.761719 795.050781 C 1665.839844 798.808594 1671.25 805.941406 1674.78125 810.898438 C 1686.210938 826.941406 1698.320312 836.871094 1717.808594 846.160156 C 1745.691406 859.449219 1768.988281 865.121094 1791.621094 864.121094 C 1807.871094 863.410156 1812.800781 862.179688 1835.820312 853.109375 Z M 2121.519531 875.898438 C 2145.949219 872.359375 2151.691406 869.570312 2170.878906 851.929688 C 2183.398438 840.429688 2183.441406 840.738281 2168.859375 837.839844 C 2159.789062 836.039062 2139.210938 826.660156 2132.878906 821.441406 L 2127.929688 817.371094 L 2121.308594 822.421875 C 2117.671875 825.191406 2108.910156 834.449219 2101.839844 843 C 2091.828125 855.109375 2086.25 859.898438 2076.539062 864.75 C 2069.691406 868.179688 2062.191406 871.011719 2059.890625 871.039062 C 2056.480469 871.089844 2056.269531 871.429688 2058.761719 872.890625 C 2063.738281 875.800781 2089.339844 880.769531 2094.761719 879.878906 C 2097.511719 879.421875 2109.550781 877.628906 2121.519531 875.898438 Z M 1755.398438 891.898438 C 1773.101562 885.949219 1772.761719 884.578125 1752.410156 879.601562 C 1730.191406 874.171875 1698.871094 860.75 1686.699219 851.460938 L 1677.800781 844.671875 L 1652.46875 849.980469 C 1638.53125 852.898438 1626.871094 855.550781 1626.550781 855.871094 C 1626.230469 856.191406 1630.609375 857.960938 1636.28125 859.820312 C 1641.949219 861.671875 1649.871094 865.230469 1653.878906 867.730469 C 1664.320312 874.230469 1700.898438 891.011719 1704.628906 891.011719 C 1706.359375 891.011719 1710.808594 892.378906 1714.519531 894.058594 C 1722.679688 897.761719 1740.828125 896.800781 1755.398438 891.898438 Z M 2043.828125 953.53125 C 2043.210938 951.570312 2040.46875 938.378906 2037.75 924.21875 C 2034.46875 907.148438 2030.828125 894.679688 2026.949219 887.230469 L 2021.089844 875.988281 L 2002.351562 874.738281 C 1978.398438 873.140625 1969.429688 870.941406 1942.101562 859.960938 C 1929.839844 855.03125 1919.410156 851.398438 1918.910156 851.898438 C 1916.898438 853.898438 1925.21875 874.378906 1930.320312 879.988281 C 1933.320312 883.289062 1939.53125 890.949219 1944.109375 897.011719 C 1965.78125 925.671875 1981.449219 936.589844 2020.660156 950.371094 C 2042.679688 958.101562 2045.398438 958.480469 2043.828125 953.53125 Z M 1849.039062 931.800781 C 1850.648438 925.050781 1855.160156 913.789062 1859.058594 906.769531 C 1868.089844 890.550781 1882.941406 856.761719 1881.621094 855.441406 C 1881.070312 854.890625 1874.960938 857.25 1868.03125 860.691406 C 1846.691406 871.269531 1823.058594 880.070312 1805.660156 883.921875 C 1800.101562 885.140625 1799.96875 885.449219 1801.28125 894.601562 C 1802.019531 899.78125 1804.460938 911.980469 1806.710938 921.71875 C 1810.5 938.148438 1811.558594 940.21875 1821.601562 950.75 C 1827.539062 956.980469 1832.410156 962.699219 1832.410156 963.441406 C 1832.410156 964.191406 1834.878906 967.75 1837.910156 971.351562 L 1843.421875 977.910156 L 1844.769531 960.988281 C 1845.519531 951.691406 1847.441406 938.550781 1849.050781 931.800781 Z M 1600.960938 965.699219 C 1597.839844 949.28125 1587.5 920.960938 1581.378906 912.03125 C 1572.71875 899.429688 1550.539062 878.371094 1535.078125 868.070312 C 1518.988281 857.359375 1513.320312 855.179688 1469.921875 843.078125 C 1458.359375 839.859375 1447.089844 836.628906 1444.890625 835.910156 C 1439.449219 834.128906 1451.300781 844 1482.179688 866.96875 C 1523.519531 897.71875 1584.75 954.109375 1597.148438 972.851562 C 1600.191406 977.449219 1602.910156 980.960938 1603.191406 980.671875 C 1603.480469 980.371094 1602.46875 973.640625 1600.960938 965.699219 Z M 1600.101562 1006.050781 C 1600.101562 1005.441406 1596.359375 999.441406 1591.800781 992.71875 C 1579.371094 974.421875 1557.53125 950.441406 1541.980469 938.039062 C 1534.378906 931.980469 1520.238281 919.550781 1510.558594 910.421875 C 1500.878906 901.289062 1486.78125 889.46875 1479.238281 884.160156 C 1471.691406 878.851562 1452.898438 864.628906 1437.480469 852.570312 C 1422.058594 840.519531 1408.921875 831.179688 1408.269531 831.820312 C 1405.53125 834.570312 1411.761719 881.101562 1416.910156 896.28125 C 1435.648438 951.628906 1483.789062 992.769531 1544.019531 1004.910156 C 1553.878906 1006.898438 1600.101562 1007.839844 1600.101562 1006.050781 Z M 1715.171875 1018.179688 C 1722.578125 975.308594 1732.171875 949.691406 1749.128906 927.449219 C 1754.429688 920.5 1758.269531 914.328125 1757.671875 913.730469 C 1757.070312 913.128906 1751.96875 913.628906 1746.328125 914.839844 C 1740.691406 916.050781 1732.988281 917.039062 1729.199219 917.039062 C 1723.128906 917.039062 1690.550781 908.710938 1686.261719 906.058594 C 1683.871094 904.578125 1682.648438 908.960938 1681.160156 924.351562 C 1679.199219 944.660156 1685.628906 977.5 1700.769531 1024.398438 C 1710.230469 1053.710938 1708.921875 1054.269531 1715.171875 1018.179688 Z M 1745.53125 1040.710938 C 1770.351562 1015.019531 1788.25 991.011719 1798.429688 969.738281 L 1802.441406 961.359375 L 1796.769531 952.410156 C 1793.648438 947.488281 1789.429688 936.179688 1787.398438 927.269531 C 1783.019531 908.089844 1783.820312 907.859375 1764.25 934.058594 C 1749.96875 953.179688 1744.871094 963.53125 1738.570312 986.128906 C 1730.988281 1013.300781 1724.238281 1057.230469 1727.640625 1057.230469 C 1728.691406 1057.230469 1736.75 1049.789062 1745.53125 1040.710938 Z M 1249.519531 1063.738281 C 1241.011719 1033.679688 1224.679688 1000.71875 1210.078125 984.128906 C 1203.199219 976.308594 1179.011719 960.878906 1153.519531 948.050781 C 1137.578125 940.03125 1133.210938 939.039062 1105.070312 937.070312 C 1086.910156 935.789062 1077.488281 934.199219 1072.019531 931.460938 C 1067.820312 929.359375 1056.078125 925.121094 1045.941406 922.050781 C 1028.199219 916.671875 1026.921875 916.558594 1011.890625 918.980469 C 992.859375 922.039062 982.265625 927.21875 962.484375 943.140625 C 944.257812 957.800781 937.015625 966.230469 929.128906 981.949219 C 923.484375 993.191406 921.027344 1006.730469 925.078125 1004.230469 C 928.957031 1001.828125 955.054688 1009.601562 967.140625 1016.75 C 974.015625 1020.808594 984.882812 1028.878906 991.285156 1034.679688 L 1002.921875 1045.210938 L 1016.628906 1039.050781 C 1024.171875 1035.671875 1034.949219 1031.691406 1040.589844 1030.21875 C 1052.5 1027.109375 1074.929688 1028.089844 1091.410156 1032.441406 C 1097.46875 1034.039062 1116.609375 1036.160156 1133.929688 1037.160156 L 1165.441406 1038.96875 L 1201.019531 1054.328125 C 1220.589844 1062.769531 1239.761719 1071.351562 1243.621094 1073.378906 C 1247.46875 1075.410156 1251.238281 1077.121094 1251.988281 1077.171875 C 1252.738281 1077.21875 1251.628906 1071.171875 1249.519531 1063.738281 Z M 2155.230469 1079.898438 C 2167.960938 1072.46875 2199.820312 1042.011719 2204.289062 1033 C 2213.320312 1014.808594 2224.46875 981.988281 2222.339844 979.871094 C 2220.25 977.769531 2189.671875 998.871094 2174.179688 1013.109375 C 2160.289062 1025.871094 2154.300781 1037.078125 2145.261719 1067.238281 C 2142.140625 1077.628906 2140.359375 1087.269531 2141.558594 1087.269531 C 2142.128906 1087.269531 2148.289062 1083.949219 2155.230469 1079.898438 Z M 2028.589844 1098.578125 C 2056.03125 1080.210938 2076.960938 1058.5 2087.738281 1037.21875 C 2102.671875 1007.761719 2117.679688 944.441406 2116.480469 915.960938 C 2116.101562 906.820312 2115.339844 898.910156 2114.78125 898.378906 C 2114.230469 897.839844 2108.378906 898.019531 2101.769531 898.769531 C 2091.011719 899.988281 2080.539062 899.160156 2067.28125 896.019531 C 2063.351562 895.089844 2062.46875 896.25 2059.621094 906.050781 C 2056.621094 916.371094 2056.640625 918.28125 2059.941406 933.578125 C 2062.859375 947.089844 2064.808594 951.449219 2070.851562 958.058594 C 2080.679688 968.808594 2082.070312 973.78125 2076.730469 979.128906 C 2073.179688 982.679688 2071.039062 983.140625 2063.109375 982.058594 C 2057.929688 981.351562 2050.761719 980.019531 2047.160156 979.101562 C 2040.988281 977.519531 2040.390625 977.851562 2036.851562 984.800781 C 2030.03125 998.160156 2019.128906 1027.988281 2016.96875 1039.199219 C 2015.800781 1045.261719 2013.871094 1059.679688 2012.691406 1071.25 C 2011.511719 1082.808594 2010.078125 1096.640625 2009.5 1101.960938 C 2008.679688 1109.550781 2009.019531 1111.320312 2011.050781 1110.121094 C 2012.480469 1109.28125 2020.371094 1104.089844 2028.589844 1098.578125 Z M 1996.519531 1072.25 C 1999.429688 1042.191406 2005.941406 1015.5 2016.140625 991.828125 L 2024.039062 973.5 L 2009.839844 968.058594 C 2002.019531 965.070312 1990.878906 960.011719 1985.078125 956.808594 L 1974.53125 951.011719 L 1972.371094 956.558594 C 1969.269531 964.558594 1966.671875 984.03125 1966.628906 999.691406 C 1966.570312 1015.191406 1971.878906 1041.949219 1981.578125 1075.25 C 1985.269531 1087.921875 1988.988281 1101.890625 1989.839844 1106.289062 L 1991.390625 1114.300781 L 1992.789062 1105.289062 C 1993.570312 1100.339844 1995.238281 1085.46875 1996.519531 1072.25 Z M 1235.960938 1109.089844 L 1247.640625 1097.871094 L 1231.109375 1089.738281 C 1222.019531 1085.269531 1202.46875 1076.46875 1187.660156 1070.199219 C 1164.320312 1060.320312 1158.589844 1058.671875 1144.601562 1057.859375 L 1128.460938 1056.910156 L 1141.480469 1064.300781 C 1156.910156 1073.058594 1178.980469 1090.679688 1188.851562 1102.121094 C 1192.738281 1106.621094 1199.050781 1116.480469 1202.878906 1124.03125 L 1209.828125 1137.75 L 1217.058594 1129.03125 C 1221.03125 1124.238281 1229.539062 1115.261719 1235.960938 1109.089844 Z M 1186.410156 1135.078125 C 1181.679688 1125.691406 1174.808594 1116.28125 1167.351562 1108.96875 C 1155.800781 1097.671875 1155.601562 1097.578125 1148.078125 1099.640625 C 1136.660156 1102.78125 1111.199219 1115.300781 1112.371094 1117.199219 C 1112.941406 1118.109375 1116.738281 1119.480469 1120.828125 1120.25 C 1130.148438 1122 1157.808594 1133.109375 1177.53125 1143.03125 C 1185.789062 1147.179688 1192.828125 1150.390625 1193.179688 1150.171875 C 1193.53125 1149.941406 1190.480469 1143.148438 1186.410156 1135.078125 Z M 1059.421875 1138.28125 C 1077.070312 1116.671875 1098.621094 1099.390625 1120.558594 1089.238281 L 1134.46875 1082.800781 L 1122.460938 1077.089844 C 1111 1071.640625 1088.71875 1062.910156 1076.871094 1059.21875 C 1071.71875 1057.609375 1070.890625 1058.210938 1064.851562 1067.871094 C 1041.898438 1104.558594 1031.570312 1134.621094 1031.398438 1165.179688 L 1031.328125 1178.011719 L 1039.621094 1165.191406 C 1044.179688 1158.128906 1053.089844 1146.03125 1059.421875 1138.28125 Z M 814.277344 1165.871094 C 808.484375 1108.261719 812.203125 1091.25 838.6875 1054.21875 C 851.953125 1035.671875 872.046875 1019.320312 889.421875 1012.941406 L 900.710938 1008.789062 L 902.941406 997.460938 C 904.164062 991.230469 908.0625 980.269531 911.597656 973.121094 C 915.132812 965.960938 918.371094 959.378906 918.800781 958.511719 C 921.03125 953.929688 887.652344 965.070312 873.121094 973.761719 C 856.527344 983.671875 849.777344 990.140625 834.082031 1011.179688 C 818.902344 1031.53125 810.21875 1049.550781 807.070312 1067.238281 C 805.800781 1074.398438 804.402344 1082.078125 803.96875 1084.300781 C 803.535156 1086.53125 800.21875 1092.828125 796.59375 1098.300781 C 790.574219 1107.390625 790.019531 1109.539062 790.117188 1123.289062 C 790.203125 1138.101562 793.277344 1150.398438 801.425781 1168.820312 C 804.460938 1175.679688 806.234375 1177.390625 810.328125 1177.390625 C 815.347656 1177.390625 815.414062 1177.191406 814.277344 1165.871094 Z M 1175.570312 1176.121094 C 1179.949219 1173.21875 1183.539062 1170.210938 1183.539062 1169.429688 C 1183.539062 1168.011719 1166.089844 1159.03125 1145.730469 1149.96875 L 1134.960938 1145.171875 L 1150.238281 1161.609375 C 1158.640625 1170.660156 1165.511719 1178.808594 1165.511719 1179.71875 C 1165.511719 1182.320312 1167.011719 1181.789062 1175.570312 1176.121094 Z M 1623.960938 1188.589844 C 1621.5 1186.199219 1596.75 1168.570312 1580.910156 1157.921875 C 1556.058594 1141.21875 1510.601562 1118.398438 1489.949219 1112.25 C 1474.058594 1107.519531 1443.539062 1103 1419.851562 1101.871094 L 1396.820312 1100.769531 L 1400.828125 1105.460938 C 1403.03125 1108.03125 1407.871094 1113.519531 1411.578125 1117.640625 C 1419.910156 1126.890625 1437.949219 1154.429688 1442.941406 1165.5 C 1446.199219 1172.710938 1447.261719 1173.558594 1451.769531 1172.5 C 1461.46875 1170.230469 1496.980469 1167.550781 1517.988281 1167.5 C 1546.800781 1167.429688 1560.75 1169.789062 1593.238281 1180.199219 C 1620.050781 1188.789062 1625.769531 1190.351562 1623.960938 1188.589844 Z M 1345.480469 1171.378906 C 1348.730469 1165.320312 1354.398438 1152.710938 1358.089844 1143.339844 C 1363.671875 1129.128906 1364.75 1123.839844 1364.621094 1111.300781 C 1364.308594 1082.429688 1354.230469 1056.800781 1329.910156 1023.03125 C 1323.230469 1013.75 1316.28125 1002.101562 1314.460938 997.148438 C 1301.339844 961.378906 1284.398438 942.820312 1259.871094 937.328125 C 1252.929688 935.78125 1247.960938 936.171875 1236.191406 939.179688 C 1221.628906 942.898438 1205.570312 950.320312 1205.570312 953.328125 C 1205.570312 954.148438 1208.949219 957.261719 1213.078125 960.230469 C 1237.390625 977.710938 1262.929688 1027.558594 1272.019531 1075.25 C 1275.859375 1095.371094 1276.441406 1096.710938 1285.429688 1106.289062 C 1300.449219 1122.289062 1301.28125 1123.589844 1311.929688 1147.558594 C 1320.648438 1167.191406 1324.351562 1176.660156 1329 1191.320312 C 1330.210938 1195.121094 1337.421875 1186.398438 1345.480469 1171.378906 Z M 1012.800781 1192.910156 C 1008.300781 1168.738281 1014.660156 1120.410156 1025.101562 1099.519531 C 1033.039062 1083.648438 1046.089844 1059.929688 1049.761719 1054.71875 L 1053.640625 1049.21875 L 1048.359375 1049.21875 C 1045.46875 1049.21875 1038.171875 1051.46875 1032.148438 1054.21875 C 1026.128906 1056.980469 1020.679688 1059.230469 1020.050781 1059.230469 C 1019.410156 1059.230469 1014.339844 1062.851562 1008.789062 1067.28125 C 990.648438 1081.710938 971.503906 1111.28125 962.597656 1138.601562 C 957.195312 1155.171875 952.15625 1184.039062 954.113281 1187.210938 C 954.746094 1188.238281 959.988281 1189.058594 965.761719 1189.039062 C 976.390625 1189.011719 1008.109375 1197.859375 1010.339844 1201.480469 C 1013.429688 1206.46875 1014.578125 1202.441406 1012.800781 1192.910156 Z M 1143.980469 1199.800781 C 1147.011719 1196.96875 1149.488281 1193.628906 1149.488281 1192.378906 C 1149.488281 1188.421875 1128.210938 1166.371094 1117.089844 1158.800781 C 1102.691406 1149.011719 1096.359375 1147.570312 1094.71875 1153.710938 C 1092.191406 1163.140625 1095.128906 1197.03125 1098.851562 1201.378906 C 1099.921875 1202.621094 1117.949219 1204.640625 1129.46875 1204.800781 C 1136.480469 1204.910156 1139.699219 1203.789062 1143.980469 1199.800781 Z M 2325.820312 1201.921875 C 2324.058594 1194.679688 2318.949219 1187.558594 2302.421875 1169.378906 C 2284.371094 1149.5 2270.851562 1140.539062 2252.761719 1136.421875 C 2236.089844 1132.628906 2223.578125 1134.300781 2207.511719 1142.460938 C 2202.21875 1145.140625 2196.769531 1147.339844 2195.390625 1147.339844 C 2191.328125 1147.351562 2192.449219 1149.800781 2201.078125 1159.878906 C 2212.128906 1172.769531 2221.960938 1178.078125 2247.960938 1185.191406 C 2260.078125 1188.5 2276.300781 1192.96875 2284.011719 1195.121094 C 2291.71875 1197.269531 2301.640625 1199.621094 2306.039062 1200.351562 C 2310.449219 1201.070312 2316.308594 1202.929688 2319.058594 1204.480469 C 2326.25 1208.511719 2327.308594 1208.109375 2325.820312 1201.921875 Z M 1057.371094 1209.601562 C 1061.21875 1208.609375 1067.640625 1207.238281 1071.628906 1206.570312 L 1078.890625 1205.339844 L 1075.988281 1191.871094 C 1074.308594 1184.101562 1073.460938 1172.679688 1073.96875 1164.921875 C 1074.449219 1157.511719 1074.210938 1151.851562 1073.410156 1152.339844 C 1068.5 1155.378906 1051.191406 1184.378906 1048.269531 1194.46875 C 1046.371094 1201.050781 1044.390625 1207.550781 1043.871094 1208.929688 C 1042.75 1211.898438 1047.550781 1212.140625 1057.371094 1209.601562 Z M 1115.460938 1239.789062 C 1119.320312 1229.851562 1120.390625 1224.980469 1118.789062 1224.5 C 1110.589844 1222.019531 1093.929688 1222.308594 1078.398438 1225.199219 L 1060.371094 1228.558594 L 1079.421875 1237.828125 C 1089.890625 1242.929688 1100.191406 1249.011719 1102.300781 1251.351562 C 1104.410156 1253.679688 1106.960938 1255.320312 1107.960938 1254.988281 C 1108.960938 1254.648438 1112.328125 1247.808594 1115.460938 1239.789062 Z M 1143.480469 1256.699219 C 1148.441406 1255.191406 1156.910156 1251.589844 1162.308594 1248.710938 C 1167.699219 1245.828125 1173.320312 1243.480469 1174.800781 1243.480469 C 1176.269531 1243.480469 1179.929688 1239.648438 1182.929688 1234.96875 C 1185.929688 1230.289062 1192.03125 1222.269531 1196.480469 1217.160156 C 1200.929688 1212.050781 1207.871094 1203.871094 1211.898438 1199 C 1220.089844 1189.089844 1236.339844 1180.179688 1259.929688 1172.640625 C 1278.820312 1166.609375 1293.691406 1159.550781 1293.671875 1156.640625 C 1293.648438 1155.390625 1291.46875 1149.679688 1288.800781 1143.960938 C 1282.300781 1129.988281 1268.640625 1115.308594 1262.148438 1115.308594 C 1255.300781 1115.308594 1234.621094 1136.710938 1220.871094 1158.019531 C 1209.570312 1175.519531 1202.058594 1182.53125 1177.609375 1198.378906 C 1159.199219 1210.320312 1145.871094 1223.96875 1137.960938 1239.019531 C 1126.640625 1260.519531 1127.019531 1261.730469 1143.480469 1256.699219 Z M 1818.621094 1249.488281 C 1820.96875 1244.53125 1826.058594 1233.898438 1829.929688 1225.871094 C 1846.050781 1192.441406 1848.519531 1151.660156 1837.339844 1103.609375 C 1835.929688 1097.570312 1833.398438 1099.578125 1821.570312 1116.160156 C 1799.628906 1146.910156 1793.351562 1165.871094 1793.359375 1201.421875 C 1793.359375 1219.738281 1794.25 1225.359375 1800.308594 1245.050781 C 1807.210938 1267.488281 1807.28125 1267.609375 1810.808594 1263.070312 C 1812.761719 1260.558594 1816.269531 1254.441406 1818.621094 1249.488281 Z M 1928.601562 1255.988281 C 1937.769531 1245.261719 1950.570312 1230.980469 1957.039062 1224.28125 L 1968.820312 1212.089844 L 1972.859375 1185.230469 C 1978.53125 1147.46875 1976.300781 1125.808594 1961.929688 1078.980469 C 1950.03125 1040.210938 1945.820312 1013.980469 1947.300781 987.820312 C 1948 975.351562 1950.191406 960.238281 1952.238281 953.648438 L 1955.921875 941.820312 L 1950.738281 935.761719 C 1947.890625 932.429688 1939.78125 923.058594 1932.71875 914.941406 L 1919.878906 900.171875 L 1921.230469 916.109375 C 1928.359375 1000.25 1930.199219 1070.648438 1926.519531 1119.308594 C 1925.488281 1133.078125 1923.679688 1159.210938 1922.511719 1177.390625 C 1920.238281 1212.738281 1915.578125 1255.730469 1912.699219 1268.011719 C 1911.730469 1272.140625 1911.160156 1275.519531 1911.441406 1275.519531 C 1911.710938 1275.519531 1919.441406 1266.730469 1928.601562 1255.988281 Z M 1537.699219 1273.578125 C 1557.019531 1269.640625 1580.398438 1261.410156 1586.078125 1256.539062 C 1587.730469 1255.128906 1594.871094 1251.128906 1601.941406 1247.648438 C 1613.46875 1241.988281 1647.859375 1217.949219 1648.03125 1215.441406 C 1648.078125 1214.890625 1637.070312 1210.988281 1623.589844 1206.769531 C 1610.121094 1202.550781 1594.589844 1197.308594 1589.078125 1195.128906 C 1571.519531 1188.179688 1555.710938 1185.289062 1529 1184.160156 C 1504.308594 1183.109375 1459.191406 1185.449219 1456.730469 1187.910156 C 1456.101562 1188.539062 1457.648438 1198.820312 1460.179688 1210.761719 C 1463.371094 1225.800781 1464.769531 1239.050781 1464.75 1253.898438 C 1464.699219 1279.058594 1461.769531 1276.839844 1495.640625 1277.25 C 1511.300781 1277.441406 1524.359375 1276.300781 1537.699219 1273.578125 Z M 948.515625 1292.339844 C 945.882812 1284.738281 942.324219 1274.46875 940.601562 1269.511719 C 934.285156 1251.308594 931.066406 1227.839844 933.089844 1214.710938 C 934.136719 1207.949219 934.980469 1194.628906 934.96875 1185.109375 C 934.953125 1156.828125 942.25 1127.121094 954.449219 1105.929688 C 963.019531 1091.050781 978.425781 1068.429688 982.03125 1065.441406 C 987.589844 1060.820312 985.652344 1055.851562 974.757812 1046.761719 C 960.164062 1034.570312 954.222656 1031.128906 940.828125 1027.070312 C 930.140625 1023.839844 928.035156 1023.789062 914.683594 1026.550781 C 896.546875 1030.300781 882.890625 1036.738281 870.589844 1047.359375 C 857.554688 1058.601562 837.910156 1088.820312 834.90625 1102.25 L 832.539062 1112.808594 L 848.117188 1127.578125 C 888.464844 1165.820312 914.246094 1205.921875 929.320312 1253.890625 C 940.019531 1287.921875 949.621094 1309.839844 952.550781 1306.910156 C 952.964844 1306.5 951.148438 1299.941406 948.515625 1292.339844 Z M 1121.160156 1295.808594 C 1104.789062 1277.710938 1084.078125 1261.609375 1067.378906 1254.011719 C 1045.941406 1244.25 1026.019531 1233.820312 1013.5 1225.828125 C 994.753906 1213.871094 963.21875 1205.808594 955.585938 1211.039062 C 949.195312 1215.421875 969.214844 1244.320312 983.789062 1251.75 C 991.738281 1255.808594 1023.539062 1265.800781 1037.339844 1268.589844 C 1045.878906 1270.308594 1056.390625 1275.519531 1071.210938 1285.378906 C 1077.371094 1289.480469 1088.621094 1295.398438 1096.230469 1298.550781 C 1109.460938 1304.019531 1129.640625 1309.691406 1131.210938 1308.371094 C 1131.628906 1308.019531 1127.101562 1302.371094 1121.160156 1295.808594 Z M 935.527344 1318.730469 C 927.546875 1307.621094 919.136719 1288.96875 913.324219 1269.511719 C 904.554688 1240.128906 902.480469 1234.46875 896.496094 1223.519531 C 886.484375 1205.210938 874.988281 1186.941406 867.457031 1177.390625 C 859.265625 1167 834.742188 1141.339844 833.003906 1141.339844 C 830.375 1141.339844 837.226562 1186.210938 840.90625 1193.089844 C 842.617188 1196.289062 844.808594 1207.101562 856.382812 1269.511719 C 860.203125 1290.089844 864.257812 1296.648438 878.921875 1305.949219 C 891.691406 1314.050781 937.898438 1330.609375 941.050781 1328.21875 C 941.511719 1327.871094 939.023438 1323.601562 935.527344 1318.730469 Z M 2241.039062 1320.769531 C 2223.648438 1282.941406 2181.511719 1230.96875 2158.949219 1219.519531 C 2142.800781 1211.320312 2121.261719 1209.960938 2092.980469 1215.378906 C 2087.050781 1216.511719 2077.140625 1217.519531 2070.949219 1217.609375 L 2059.710938 1217.78125 L 2074.730469 1224.828125 C 2082.988281 1228.710938 2099.011719 1234.890625 2110.328125 1238.578125 C 2154.121094 1252.839844 2191.449219 1277.480469 2228.011719 1316.238281 C 2238.980469 1327.878906 2248.148438 1337.441406 2248.371094 1337.5 C 2248.609375 1337.558594 2245.300781 1330.039062 2241.039062 1320.78125 Z M 2236.621094 1349.128906 C 2202.710938 1305.96875 2148.648438 1266.191406 2108.179688 1254.640625 C 2092.058594 1250.03125 2065.210938 1239.019531 2047.539062 1229.761719 C 2039.359375 1225.46875 2032.679688 1222.671875 2032.679688 1223.53125 C 2032.679688 1224.390625 2035.75 1237.28125 2039.5 1252.179688 C 2051.820312 1301.101562 2064.929688 1318.039062 2103.898438 1335.398438 C 2136.511719 1349.929688 2172.140625 1356.148438 2229.609375 1357.351562 L 2243.289062 1357.628906 Z M 1729.179688 1371.148438 C 1709.550781 1347.691406 1677.539062 1328.460938 1654.761719 1326.421875 C 1637.921875 1324.910156 1610.480469 1329.460938 1587.550781 1337.558594 C 1554.539062 1349.21875 1546.589844 1353.988281 1569.140625 1348.609375 C 1576.570312 1346.828125 1592.019531 1345.75 1610.109375 1345.730469 C 1646.839844 1345.691406 1663.480469 1349.21875 1702.230469 1365.25 C 1718.199219 1371.859375 1732.03125 1377.351562 1732.949219 1377.460938 C 1733.878906 1377.570312 1732.179688 1374.730469 1729.179688 1371.148438 Z M 1217.121094 1380.441406 C 1250.339844 1355.371094 1286.628906 1319.621094 1301.628906 1297.191406 C 1310.921875 1283.289062 1313.699219 1277.230469 1315.488281 1266.980469 C 1319.761719 1242.429688 1317.769531 1221.460938 1308.441406 1192.910156 C 1305.648438 1184.371094 1302.511719 1177.390625 1301.460938 1177.390625 C 1300.410156 1177.390625 1297.558594 1178.679688 1295.121094 1180.261719 C 1292.679688 1181.839844 1282.300781 1185.910156 1272.050781 1189.300781 C 1234.820312 1201.621094 1228.171875 1206.800781 1200.371094 1245.179688 C 1195.859375 1251.398438 1189.109375 1258.019531 1185.351562 1259.890625 C 1163.410156 1270.789062 1157.050781 1273.539062 1146.808594 1276.511719 C 1134.78125 1280.011719 1133.53125 1281.429688 1138.710938 1285.730469 C 1143.039062 1289.320312 1159.128906 1313.429688 1167.980469 1329.589844 C 1175.058594 1342.53125 1184.03125 1370.429688 1186.640625 1387.671875 C 1188.011719 1396.75 1189.011719 1399.691406 1190.699219 1399.691406 C 1191.210938 1399.691406 1203.089844 1391.03125 1217.121094 1380.441406 Z M 1691.070312 1408.558594 C 1709.351562 1405.398438 1734.28125 1397.808594 1734.28125 1395.398438 C 1734.28125 1394.691406 1731.800781 1393.5 1728.769531 1392.761719 C 1723.46875 1391.449219 1717.039062 1388.808594 1684.210938 1374.5 C 1661.71875 1364.699219 1637.921875 1361.050781 1602.550781 1361.96875 C 1561.980469 1363.03125 1561.070312 1363.941406 1585.480469 1379.050781 C 1625.191406 1403.609375 1634.371094 1408.25 1646.03125 1409.589844 C 1666.089844 1411.890625 1672.671875 1411.738281 1691.070312 1408.558594 Z M 1169.519531 1414.210938 C 1169.519531 1393.539062 1159.53125 1354.539062 1150.03125 1338.101562 C 1145.5 1330.28125 1144.441406 1329.589844 1136.789062 1329.519531 C 1117.070312 1329.351562 1081.539062 1316.21875 1056.628906 1299.890625 C 1047.96875 1294.210938 1037.148438 1288.660156 1032.601562 1287.558594 C 993.988281 1278.179688 971.347656 1269.730469 962.066406 1261.238281 C 958.648438 1258.109375 960.148438 1264.121094 970.234375 1294 C 985.511719 1339.269531 990.910156 1351.269531 999.101562 1358.160156 C 1016.410156 1372.730469 1049.578125 1386.148438 1074.550781 1388.691406 C 1107.628906 1392.050781 1132.199219 1400.558594 1154.5 1416.390625 C 1167.96875 1425.949219 1169.519531 1425.730469 1169.519531 1414.210938 Z M 998.289062 1421.640625 C 1018.03125 1419.410156 1058.871094 1412.511719 1068.378906 1409.808594 L 1074.390625 1408.109375 L 1068.671875 1407.898438 C 1060.601562 1407.621094 1041 1402.320312 1025.5 1396.238281 C 1000.570312 1386.460938 975.617188 1367.011719 971.003906 1353.769531 C 969.214844 1348.640625 968.78125 1348.53125 950.6875 1348.398438 C 934.390625 1348.300781 929.164062 1347.25 906.566406 1339.648438 C 875.621094 1329.230469 856.941406 1317.980469 847.628906 1304.148438 C 841.890625 1295.628906 840.230469 1289.609375 832.851562 1250.488281 C 828.28125 1226.261719 823.285156 1204.398438 821.75 1201.921875 C 817.878906 1195.679688 807.28125 1195.949219 796.808594 1202.558594 C 784.921875 1210.058594 780.140625 1221.800781 780.144531 1243.480469 C 780.144531 1259.910156 780.476562 1261.128906 789.632812 1278.53125 C 800.519531 1299.21875 804.945312 1317.109375 804.996094 1340.648438 L 805.011719 1356.71875 L 816.898438 1358.980469 C 830.644531 1361.589844 851.265625 1371.558594 874.105469 1386.648438 C 896.945312 1401.738281 928.214844 1415.070312 951.210938 1419.539062 C 957.265625 1420.71875 964.027344 1422.039062 966.230469 1422.46875 C 973.433594 1423.890625 979.980469 1423.71875 998.273438 1421.648438 Z M 1305.511719 1427.578125 C 1319.738281 1424.78125 1326.921875 1422.160156 1334.859375 1416.890625 C 1358.128906 1401.441406 1366.140625 1391.691406 1381.941406 1359.550781 C 1390.621094 1341.910156 1397.019531 1332.851562 1426.421875 1296.609375 C 1438.160156 1282.160156 1443.410156 1272.21875 1444.851562 1261.789062 C 1446.160156 1252.269531 1445.949219 1251.488281 1442.148438 1251.488281 C 1436.300781 1251.488281 1417.101562 1258.929688 1401.828125 1267.101562 C 1372.671875 1282.71875 1356.929688 1299.339844 1340.78125 1331.601562 C 1319.390625 1374.320312 1291.371094 1413.820312 1273.539062 1426.390625 L 1262.640625 1434.070312 L 1274.660156 1432.679688 C 1281.269531 1431.921875 1295.148438 1429.621094 1305.511719 1427.578125 Z M 1204.53125 1435.820312 C 1210.058594 1433.671875 1222.03125 1429.039062 1231.140625 1425.539062 C 1257.078125 1415.570312 1266.96875 1408.648438 1280.980469 1390.671875 C 1295.359375 1372.230469 1305.199219 1356.359375 1323.238281 1322.578125 C 1339.570312 1292.011719 1347.179688 1282.121094 1365.78125 1267.328125 C 1383.21875 1253.460938 1415.789062 1236.929688 1432.371094 1233.539062 C 1442.671875 1231.429688 1443.789062 1230.710938 1442.941406 1226.808594 C 1442.421875 1224.410156 1441.109375 1217.339844 1440.03125 1211.078125 C 1436.789062 1192.28125 1415.628906 1153.539062 1395.128906 1128.871094 L 1387.269531 1119.410156 L 1381.410156 1136.878906 C 1369.960938 1171.089844 1349.058594 1207.589844 1338.171875 1212.421875 C 1335.421875 1213.640625 1334.121094 1215.539062 1334.808594 1217.339844 C 1335.421875 1218.949219 1336.460938 1227.078125 1337.101562 1235.398438 C 1338.410156 1252.390625 1335.128906 1275.941406 1329.691406 1288.628906 C 1318.691406 1314.308594 1276.898438 1359.890625 1236.609375 1390.171875 C 1223.390625 1400.101562 1210.058594 1410.328125 1206.980469 1412.910156 C 1201.648438 1417.378906 1190.03125 1439.738281 1193.039062 1439.738281 C 1193.828125 1439.738281 1199 1437.980469 1204.53125 1435.820312 Z M 1836.359375 1418.929688 C 1839.710938 1405.941406 1844.761719 1388.421875 1847.578125 1380.011719 C 1857.25 1351.210938 1866.019531 1310.550781 1870.328125 1274.511719 C 1876.140625 1225.898438 1880.140625 1197.199219 1883.441406 1180.390625 C 1890.410156 1144.921875 1896.480469 1071.480469 1896.550781 1021.871094 C 1896.601562 986.140625 1895.960938 978.339844 1890.179688 944.578125 C 1886.648438 923.921875 1883.25 907.03125 1882.621094 907.03125 C 1879.929688 907.03125 1868.339844 933 1866.378906 943.398438 C 1865.199219 949.640625 1864.449219 966.210938 1864.71875 980.230469 C 1865.179688 1004.691406 1865.011719 1005.871094 1860.601562 1009.441406 C 1858.070312 1011.488281 1854.289062 1013.171875 1852.210938 1013.171875 C 1848.519531 1013.171875 1835.75 1001.199219 1823.261719 986.050781 L 1817.121094 978.589844 L 1804.449219 998.339844 C 1787.378906 1024.960938 1774.679688 1040.21875 1748.488281 1065.589844 C 1735.25 1078.410156 1725.871094 1089.160156 1725.039062 1092.441406 C 1724.289062 1095.460938 1724.710938 1104.761719 1725.980469 1113.121094 C 1727.25 1121.480469 1728.289062 1131.390625 1728.28125 1135.148438 C 1728.261719 1144.710938 1735.898438 1184.78125 1739.578125 1194.410156 C 1741.261719 1198.820312 1747.410156 1210.980469 1753.230469 1221.449219 C 1763.308594 1239.550781 1779.5 1274.910156 1787.601562 1296.550781 C 1796.660156 1320.730469 1790.160156 1281.960938 1777.539062 1236.46875 C 1770.089844 1209.640625 1771.191406 1176.519531 1780.449219 1149.011719 C 1788.738281 1124.351562 1831.320312 1067.238281 1841.398438 1067.238281 C 1843.898438 1067.238281 1846.789062 1068.371094 1847.839844 1069.738281 C 1850.320312 1073 1857.359375 1099.78125 1861.328125 1121.03125 C 1867.941406 1156.460938 1862.988281 1202.789062 1849.660156 1230.460938 C 1845.941406 1238.171875 1839.988281 1250.660156 1836.441406 1258.21875 C 1832.890625 1265.78125 1825.800781 1276.300781 1820.679688 1281.609375 L 1811.378906 1291.261719 L 1812.71875 1322.941406 C 1813.460938 1340.371094 1814.929688 1360.929688 1816 1368.648438 C 1818.488281 1386.710938 1829.019531 1443.789062 1829.730469 1443.089844 C 1830.019531 1442.789062 1833.011719 1431.921875 1836.359375 1418.929688 Z M 1378.789062 1440.441406 C 1388.261719 1438.488281 1401.351562 1426.28125 1413.828125 1407.761719 C 1420.171875 1398.339844 1430.929688 1385.820312 1437.808594 1379.851562 C 1452.300781 1367.289062 1452.160156 1367.03125 1428.699219 1362.539062 C 1403.960938 1357.808594 1405.011719 1357.378906 1395.640625 1376.019531 C 1381.480469 1404.179688 1370.71875 1416.671875 1347.140625 1432.339844 C 1336.859375 1439.171875 1334.390625 1441.640625 1337.121094 1442.378906 C 1341.429688 1443.550781 1370.238281 1442.199219 1378.789062 1440.441406 Z M 987.019531 1468.96875 C 995.960938 1467.011719 1010.96875 1461.109375 1025.070312 1454.019531 C 1037.878906 1447.589844 1054.671875 1439.828125 1062.378906 1436.800781 C 1070.089844 1433.761719 1076.839844 1430.808594 1077.398438 1430.238281 C 1078.839844 1428.761719 1062.46875 1431.148438 1030.328125 1437.109375 C 980.472656 1446.351562 956.804688 1444.621094 913.507812 1428.558594 C 890.558594 1420.050781 882.089844 1415.789062 864.109375 1403.71875 C 848.773438 1393.429688 823.40625 1380.570312 814.234375 1378.429688 C 808.582031 1377.109375 808.453125 1377.25 809.6875 1383.410156 C 814.75 1408.730469 851.28125 1447.269531 888.285156 1466.339844 C 905.4375 1475.179688 953.015625 1476.449219 987.019531 1468.96875 Z M 1084.050781 1510.949219 C 1097.921875 1508.179688 1113.289062 1504.039062 1118.199219 1501.730469 C 1129.96875 1496.199219 1149.078125 1477.28125 1156.148438 1464.171875 L 1161.800781 1453.679688 L 1154.671875 1450.699219 C 1133.710938 1441.941406 1108.609375 1441.929688 1082.308594 1450.660156 C 1073.550781 1453.570312 1053.539062 1462.28125 1037.839844 1470.011719 C 1007.511719 1484.949219 988.464844 1490.308594 954.230469 1493.550781 L 938.210938 1495.070312 L 955.960938 1503.808594 C 976.152344 1513.75 983.011719 1514.839844 1029.550781 1515.53125 C 1053.941406 1515.890625 1063.019531 1515.121094 1084.050781 1510.941406 Z M 1912.339844 1506.328125 C 1916.738281 1500 1926.910156 1486.730469 1934.949219 1476.851562 C 1958.640625 1447.738281 2008.660156 1412.308594 2048.359375 1396.519531 C 2074.929688 1385.960938 2074.878906 1385.839844 2043.371094 1385.75 C 1983.449219 1385.570312 1961.148438 1395.191406 1936.089844 1431.980469 C 1926.519531 1446.019531 1922.859375 1454.179688 1913.578125 1482.140625 C 1899.511719 1524.550781 1899.488281 1524.859375 1912.339844 1506.328125 Z M 1313.949219 1502.898438 C 1312.320312 1489.578125 1310.179688 1482.46875 1304.601562 1471.859375 C 1293.320312 1450.398438 1296.261719 1451.429688 1253.46875 1453.78125 C 1233.179688 1454.898438 1213.429688 1456.421875 1209.570312 1457.160156 C 1205.71875 1457.910156 1200.960938 1458.671875 1199 1458.871094 C 1192.679688 1459.5 1192.859375 1461.519531 1199.789062 1468.019531 C 1217.398438 1484.578125 1240.25 1495.199219 1276.660156 1503.769531 C 1282.171875 1505.058594 1292.980469 1509.53125 1300.691406 1513.699219 C 1308.410156 1517.859375 1315.019531 1521.019531 1315.390625 1520.71875 C 1315.761719 1520.421875 1315.109375 1512.398438 1313.949219 1502.898438 Z M 1951.570312 1530.738281 C 1984.460938 1524.480469 1991.839844 1521.769531 2011.859375 1508.550781 C 2028.460938 1497.589844 2032.640625 1493.75 2050.820312 1472.78125 C 2067.550781 1453.5 2097.328125 1403.589844 2094.058594 1400.320312 C 2092.828125 1399.089844 2071.058594 1403.519531 2066.839844 1405.871094 C 2065.121094 1406.820312 2057.859375 1409.949219 2050.699219 1412.828125 C 2013.949219 1427.601562 1965.460938 1462.648438 1945.230469 1489.058594 C 1930.589844 1508.179688 1915.011719 1529.691406 1912.21875 1534.628906 C 1909.78125 1538.949219 1907.03125 1539.21875 1951.570312 1530.738281 Z M 1038.328125 1548.210938 C 1042.878906 1546.378906 1049.25 1542.878906 1052.480469 1540.441406 L 1058.371094 1536 L 1030.328125 1535.691406 C 994.570312 1535.289062 984.867188 1534.648438 971.058594 1531.78125 C 961.503906 1529.789062 958.917969 1529.921875 953.5625 1532.691406 C 946.617188 1536.28125 933.203125 1547.5 933.203125 1549.710938 C 933.203125 1550.480469 938.835938 1550.300781 945.71875 1549.289062 C 954.585938 1548.011719 966.121094 1548.359375 985.273438 1550.5 C 1014.660156 1553.800781 1025.628906 1553.320312 1038.328125 1548.210938 Z M 1741.019531 1553.789062 C 1734.320312 1534.371094 1716.519531 1507.910156 1702.359375 1496.320312 C 1688.578125 1485.039062 1677.78125 1480.121094 1659.398438 1476.761719 C 1651.570312 1475.328125 1642.191406 1473.5 1638.550781 1472.699219 L 1631.949219 1471.238281 L 1635.941406 1481.75 C 1641.640625 1496.75 1660.160156 1519.898438 1677.828125 1534.109375 C 1694.359375 1547.421875 1741.148438 1571.410156 1745.730469 1568.941406 C 1745.96875 1568.820312 1743.851562 1561.988281 1741.019531 1553.789062 Z M 1460.609375 1570.519531 C 1473.121094 1565.691406 1501.199219 1546.371094 1509.648438 1536.769531 C 1513.761719 1532.101562 1521.011719 1520.300781 1525.78125 1510.550781 C 1530.539062 1500.789062 1536.648438 1488.53125 1539.351562 1483.300781 C 1542.058594 1478.070312 1543.320312 1473.789062 1542.171875 1473.789062 C 1538.070312 1473.789062 1500.789062 1486.339844 1488.949219 1491.710938 C 1467.199219 1501.578125 1455.738281 1514.761719 1447.96875 1538.871094 C 1445.480469 1546.578125 1440.839844 1557.609375 1437.660156 1563.378906 C 1434.46875 1569.140625 1431.871094 1574.441406 1431.871094 1575.148438 C 1431.871094 1577.199219 1451.480469 1574.039062 1460.609375 1570.519531 Z M 1099.398438 1599.421875 C 1110.351562 1593.261719 1127.878906 1576.039062 1137.238281 1562.238281 C 1152.601562 1539.578125 1155.609375 1531.25 1160.300781 1498.371094 C 1160.851562 1494.480469 1159.699219 1494.980469 1151.050781 1502.378906 C 1132.648438 1518.128906 1120.421875 1524.191406 1097.890625 1528.75 C 1084.558594 1531.449219 1085.019531 1529.679688 1089.199219 1562.441406 C 1090.578125 1573.28125 1091.078125 1586.910156 1090.320312 1592.988281 C 1089.570312 1599.019531 1089.480469 1603.960938 1090.128906 1603.960938 C 1090.78125 1603.960938 1094.949219 1601.921875 1099.398438 1599.421875 Z M 1300.691406 1550.890625 L 1299.421875 1534.871094 L 1287.359375 1529.199219 C 1280.730469 1526.089844 1274.808594 1524.039062 1274.191406 1524.648438 C 1273.578125 1525.269531 1275.039062 1535.621094 1277.441406 1547.660156 C 1281.710938 1569.101562 1287.828125 1586.949219 1296.410156 1602.960938 L 1300.699219 1610.96875 L 1301.328125 1588.941406 C 1301.679688 1576.820312 1301.398438 1559.699219 1300.691406 1550.890625 Z M 1338.839844 1582.671875 C 1352.710938 1554.980469 1357.589844 1537.121094 1357.671875 1513.839844 C 1357.71875 1501.839844 1352.738281 1466.089844 1350.769531 1464.109375 C 1350.089844 1463.441406 1343.289062 1462.539062 1335.640625 1462.101562 L 1321.738281 1461.320312 L 1326.550781 1472.058594 C 1329.261719 1478.109375 1332.359375 1490.671875 1333.640625 1500.820312 C 1334.898438 1510.738281 1336.878906 1524.980469 1338.039062 1532.488281 C 1339.898438 1544.53125 1339.738281 1546.578125 1336.640625 1550.011719 C 1332.378906 1554.710938 1328.101562 1554.929688 1322.171875 1550.78125 L 1317.71875 1547.660156 L 1317.820312 1618.980469 L 1321.761719 1613.96875 C 1323.921875 1611.21875 1331.621094 1597.128906 1338.859375 1582.671875 Z M 1972.339844 1635.839844 C 1986.101562 1634.339844 1997.429688 1634.289062 2008.949219 1635.679688 C 2018.128906 1636.789062 2026.039062 1637.289062 2026.539062 1636.789062 C 2028.640625 1634.691406 1997.671875 1606.320312 1988.050781 1601.519531 C 1971.011719 1593.03125 1958.558594 1592.761719 1919.519531 1600.03125 C 1900.800781 1603.519531 1885.210938 1606.621094 1884.890625 1606.921875 C 1884.210938 1607.550781 1906.820312 1625.488281 1915.191406 1630.96875 C 1925.789062 1637.898438 1941.25 1639.210938 1972.339844 1635.828125 Z M 1412.011719 1681.898438 C 1425.488281 1675.199219 1446.058594 1666.519531 1457.730469 1662.609375 C 1478 1655.808594 1480.660156 1655.429688 1517.96875 1653.898438 C 1560.390625 1652.171875 1578.988281 1653.5 1602.058594 1659.890625 C 1610.300781 1662.171875 1617.398438 1664.039062 1617.839844 1664.039062 C 1618.28125 1664.039062 1611.71875 1659.53125 1603.269531 1654.011719 C 1587.578125 1643.769531 1560.011719 1631.859375 1542.671875 1627.839844 C 1505.988281 1619.328125 1451.308594 1635.171875 1418.410156 1663.839844 C 1395.960938 1683.398438 1384.730469 1693.898438 1386.148438 1693.988281 C 1386.890625 1694.039062 1398.53125 1688.601562 1412.011719 1681.898438 Z M 1114.171875 1728.960938 C 1112.96875 1718.769531 1114.601562 1702.039062 1119.71875 1672.050781 C 1122.691406 1654.679688 1123.988281 1615.371094 1121.710938 1612.050781 C 1119.96875 1609.519531 1119.199219 1609.570312 1116 1612.480469 C 1111.199219 1616.820312 1095.101562 1623.910156 1082.460938 1627.238281 C 1073.910156 1629.5 1071.839844 1629.441406 1067.929688 1626.878906 C 1062.230469 1623.148438 1062.148438 1617.5 1067.550781 1601.460938 C 1071.058594 1591.050781 1071.5 1586.480469 1070.328125 1572.980469 C 1069.558594 1564.140625 1068.488281 1556.148438 1067.949219 1555.25 C 1067.398438 1554.339844 1065.03125 1555.398438 1062.671875 1557.609375 C 1056.660156 1563.230469 1041.871094 1569.230469 1026.960938 1572.089844 C 1020 1573.421875 1014.070312 1574.691406 1013.769531 1574.921875 C 1011.871094 1576.378906 1020.300781 1621.410156 1025.078125 1635.269531 C 1035.941406 1666.78125 1057.480469 1694.71875 1092.628906 1722.871094 C 1104.480469 1732.371094 1114.480469 1740.140625 1114.828125 1740.140625 C 1115.191406 1740.140625 1114.890625 1735.109375 1114.171875 1728.960938 Z M 1477.21875 1742.941406 C 1510.308594 1736.179688 1547.558594 1717.921875 1580.621094 1692.261719 L 1600.191406 1677.058594 L 1593.640625 1674.328125 C 1581.289062 1669.191406 1548.601562 1667.191406 1513.609375 1669.441406 C 1474.441406 1671.949219 1459.210938 1676.390625 1414.960938 1698.171875 C 1399.269531 1705.890625 1382.46875 1712.890625 1377.621094 1713.710938 L 1368.800781 1715.21875 L 1381.808594 1721.460938 C 1406.210938 1733.179688 1420.269531 1738.371094 1437.589844 1742.058594 C 1459.621094 1746.761719 1458.621094 1746.738281 1477.21875 1742.941406 Z M 1077.878906 1731.320312 C 1052.359375 1710.199219 1028.640625 1682.390625 1017.628906 1660.691406 C 1009.800781 1645.28125 1003.578125 1623.171875 1000.238281 1598.960938 C 998.421875 1585.738281 996.015625 1573.808594 994.894531 1572.460938 C 993.773438 1571.101562 990.925781 1570.109375 988.5625 1570.238281 C 986.203125 1570.378906 977.34375 1569.828125 968.875 1569.03125 L 953.480469 1567.578125 L 950.230469 1578.261719 C 942.433594 1603.890625 944.96875 1634.589844 957.519531 1666.410156 C 964.59375 1684.359375 974.589844 1698.519531 988.421875 1710.199219 C 1001.070312 1720.871094 1013.640625 1726.46875 1037.339844 1731.96875 C 1047.808594 1734.398438 1064.480469 1738.5 1074.390625 1741.078125 C 1084.300781 1743.660156 1093.179688 1745.851562 1094.109375 1745.960938 C 1095.039062 1746.058594 1087.738281 1739.480469 1077.878906 1731.320312 Z M 1300.519531 1726.128906 L 1310.039062 1709.101562 L 1307.820312 1687.671875 C 1305.328125 1663.679688 1299.28125 1645.121094 1288.75 1629.179688 C 1280.078125 1616.070312 1269.050781 1593.710938 1264.929688 1580.929688 C 1260.539062 1567.28125 1253.628906 1532.941406 1253.628906 1524.710938 C 1253.628906 1518.488281 1253.011719 1517.839844 1245.121094 1515.820312 C 1230.398438 1512.058594 1224.820312 1509.851562 1217.078125 1504.730469 C 1212.949219 1502 1209.570312 1500.28125 1209.570312 1500.910156 C 1209.570312 1501.53125 1213.988281 1515.289062 1219.390625 1531.480469 C 1228.121094 1557.660156 1238.410156 1591.589844 1246.519531 1620.980469 C 1248.039062 1626.488281 1252.171875 1643.609375 1255.691406 1659.039062 C 1263.039062 1691.199219 1279.691406 1756.28125 1281.25 1758.988281 C 1281.828125 1760 1284.261719 1756.851562 1286.648438 1751.988281 C 1289.039062 1747.121094 1295.28125 1735.488281 1300.519531 1726.128906 Z M 929.125 1757.398438 C 894.28125 1724.480469 847.796875 1690.699219 819.789062 1677.941406 C 790.148438 1664.441406 750.792969 1657.890625 717.832031 1660.980469 C 701.121094 1662.550781 700.59375 1664.210938 715.652344 1667.871094 C 721.015625 1669.171875 731.378906 1672.980469 738.683594 1676.339844 C 745.984375 1679.699219 756.464844 1684.070312 761.972656 1686.050781 C 767.480469 1688.03125 778.292969 1692.550781 786.003906 1696.089844 C 793.714844 1699.628906 812.214844 1706.851562 827.117188 1712.128906 C 856.445312 1722.519531 891.878906 1738.679688 914.175781 1751.828125 C 928.34375 1760.191406 934.503906 1762.480469 929.125 1757.398438 Z M 888.476562 1797.089844 C 897.105469 1794.148438 910.472656 1788.851562 918.183594 1785.308594 L 932.199219 1778.898438 L 923.1875 1774.851562 C 918.230469 1772.628906 908.320312 1767.21875 901.160156 1762.839844 C 883.957031 1752.308594 848.039062 1736.320312 817.046875 1725.378906 C 803.277344 1720.53125 785.070312 1713.300781 776.585938 1709.320312 C 768.097656 1705.351562 760.65625 1702.089844 760.042969 1702.089844 C 759.429688 1702.089844 750.578125 1698.519531 740.371094 1694.160156 C 724.546875 1687.398438 685.074219 1675.179688 683.652344 1676.609375 C 681.875 1678.390625 777.023438 1776.300781 789.460938 1785.488281 C 801.898438 1794.679688 818.351562 1800.371094 838.074219 1802.300781 C 859.890625 1804.441406 870.070312 1803.378906 888.476562 1797.089844 Z M 1672.449219 1807.429688 C 1678.988281 1800.300781 1687.691406 1792.449219 1691.78125 1789.980469 C 1695.878906 1787.519531 1710.070312 1778.53125 1723.328125 1770.019531 C 1748.898438 1753.589844 1755.859375 1749.980469 1781.339844 1740 C 1801.109375 1732.25 1859.28125 1714.828125 1871.511719 1713 C 1884.710938 1711.019531 1884.089844 1708.820312 1869.910156 1707.351562 C 1863.050781 1706.628906 1853.019531 1704.710938 1847.609375 1703.070312 C 1834.480469 1699.089844 1818.46875 1699.339844 1788.351562 1704.011719 C 1766.710938 1707.371094 1760.058594 1709.378906 1739.28125 1718.890625 C 1707.519531 1733.429688 1691.648438 1746.71875 1672.738281 1774.601562 C 1661.011719 1791.898438 1642.148438 1829.101562 1642.148438 1834.941406 C 1642.148438 1837.429688 1658.910156 1822.210938 1672.449219 1807.429688 Z M 1679.199219 1860.171875 C 1726.828125 1856.328125 1792.089844 1841.21875 1821.429688 1827.238281 C 1846.789062 1815.160156 1874.171875 1784.128906 1892.808594 1746.328125 C 1899.089844 1733.601562 1903.898438 1722.851562 1903.5 1722.449219 C 1901 1719.949219 1811 1745.449219 1781.660156 1756.980469 C 1744.609375 1771.539062 1704.050781 1798.890625 1671.179688 1831.480469 C 1656.871094 1845.679688 1643.910156 1858.878906 1642.410156 1860.800781 C 1639.910156 1863.988281 1640.179688 1864.21875 1645.410156 1863.371094 C 1648.578125 1862.859375 1663.78125 1861.421875 1679.199219 1860.171875 Z M 1282.960938 1899.378906 C 1279.558594 1890.539062 1270.839844 1859.398438 1263.601562 1830.261719 C 1259.078125 1812.089844 1252.28125 1786.75 1248.488281 1773.960938 C 1244.699219 1761.171875 1239.320312 1741.5 1236.539062 1730.238281 C 1233.75 1718.980469 1225.710938 1691.148438 1218.660156 1668.378906 C 1211.609375 1645.621094 1202.628906 1613.828125 1198.699219 1597.738281 C 1192.058594 1570.519531 1179.191406 1528.851562 1176.640625 1526.300781 C 1176.03125 1525.691406 1175.53125 1526.960938 1175.53125 1529.128906 C 1175.53125 1535.851562 1160.648438 1564.21875 1149.511719 1578.730469 L 1138.898438 1592.558594 L 1141.191406 1605 C 1144.519531 1623.089844 1143.96875 1643.308594 1139.269531 1675.058594 C 1133.03125 1717.199219 1132.800781 1720.660156 1135.320312 1735.089844 C 1138.460938 1753.148438 1153.671875 1784.570312 1168.238281 1803.089844 C 1171.769531 1807.570312 1178.539062 1817.128906 1183.289062 1824.320312 C 1188.300781 1831.910156 1195 1839.191406 1199.25 1841.660156 C 1203.269531 1844 1216.480469 1853.28125 1228.601562 1862.28125 C 1240.710938 1871.28125 1253.269531 1880.601562 1256.5 1882.988281 C 1259.730469 1885.378906 1266.480469 1890.660156 1271.519531 1894.71875 C 1281.410156 1902.710938 1284.75 1904.070312 1282.949219 1899.378906 Z M 1508.761719 1899.238281 C 1514.941406 1885.949219 1519.988281 1873.980469 1519.988281 1872.640625 C 1519.988281 1871.300781 1522.179688 1864.988281 1524.859375 1858.621094 C 1532.980469 1839.320312 1534.148438 1823.328125 1529.691406 1792.441406 C 1525.898438 1766.171875 1521.96875 1752.160156 1518.398438 1752.160156 C 1517.421875 1752.160156 1511.621094 1753.878906 1505.53125 1755.96875 C 1499.441406 1758.070312 1489.378906 1760.839844 1483.191406 1762.121094 C 1476.988281 1763.410156 1471.929688 1764.621094 1471.949219 1764.820312 C 1471.960938 1765.019531 1473.300781 1769.570312 1474.929688 1774.941406 C 1476.558594 1780.308594 1479.859375 1796.53125 1482.261719 1810.988281 C 1486.960938 1839.320312 1488.421875 1894.609375 1485.449219 1932.398438 L 1483.960938 1951.429688 L 1490.738281 1937.410156 C 1494.480469 1929.699219 1502.578125 1912.519531 1508.761719 1899.238281 Z M 1471.109375 1871.320312 C 1470.121094 1831.871094 1465.480469 1796.921875 1458.46875 1776.101562 L 1454.898438 1765.5 L 1436.878906 1761.859375 C 1426.960938 1759.859375 1415 1756.96875 1410.300781 1755.449219 C 1405.589844 1753.929688 1401.300781 1753.398438 1400.761719 1754.269531 C 1398.378906 1758.121094 1395.691406 1778.519531 1395.621094 1793.21875 C 1395.5 1819.800781 1406.859375 1865.460938 1420.96875 1895.121094 C 1428.449219 1910.808594 1435.089844 1920.519531 1454.191406 1943.621094 L 1466.921875 1959.019531 L 1469.488281 1934.199219 C 1471.089844 1918.691406 1471.699219 1895.089844 1471.109375 1871.320312 Z M 952.410156 1988.980469 C 969.042969 1960.589844 995.808594 1928.191406 1012.988281 1915.660156 C 1040.089844 1895.890625 1076.339844 1881.839844 1110.710938 1877.78125 L 1132.46875 1875.210938 L 1115.449219 1870.730469 C 1092.121094 1864.578125 1073.621094 1862.671875 1054.5 1864.421875 C 1035.53125 1866.160156 1014.578125 1869.808594 1006.789062 1872.75 C 1000.609375 1875.070312 981.554688 1894.808594 974.128906 1906.570312 C 965.679688 1919.960938 955.828125 1946.730469 951.355469 1968.449219 C 948.972656 1980.019531 946.601562 1991.511719 946.082031 1993.988281 C 944.671875 2000.75 946.242188 1999.5 952.410156 1988.980469 Z M 1531.988281 1964.269531 C 1541.070312 1950.601562 1553.128906 1933.558594 1558.800781 1926.398438 C 1564.460938 1919.238281 1572.929688 1908.421875 1577.601562 1902.359375 C 1582.269531 1896.308594 1589.621094 1887.851562 1593.929688 1883.558594 C 1603.328125 1874.21875 1609.890625 1862.589844 1617.808594 1841.210938 C 1635.800781 1792.628906 1657.128906 1756.429688 1681.960938 1732.359375 C 1695.109375 1719.609375 1700.851562 1715.820312 1723.308594 1705 L 1749.398438 1692.441406 L 1761.988281 1660.398438 L 1774.570312 1628.351562 L 1764.308594 1610.148438 C 1757.5 1598.078125 1752.871094 1591.949219 1750.550781 1591.949219 C 1746.628906 1591.949219 1731.558594 1586.148438 1706.238281 1574.890625 C 1668.511719 1558.121094 1630.140625 1521.351562 1618.238281 1490.550781 C 1615.738281 1484.089844 1611.460938 1474.480469 1608.730469 1469.199219 C 1604.050781 1460.160156 1603.941406 1459.308594 1606.980469 1454.679688 C 1609.328125 1451.089844 1612 1449.761719 1616.859375 1449.761719 C 1626.671875 1449.761719 1675.078125 1459.039062 1685.890625 1462.988281 C 1700.488281 1468.328125 1723.601562 1486.949219 1735.351562 1502.839844 C 1749.261719 1521.648438 1755.011719 1533.058594 1764.230469 1560.179688 C 1772.839844 1585.5 1783.46875 1606.648438 1785.199219 1601.910156 C 1785.800781 1600.289062 1788.5 1589.488281 1791.210938 1577.929688 C 1793.921875 1566.359375 1800.328125 1544.28125 1805.460938 1528.859375 C 1814.769531 1500.890625 1814.789062 1500.78125 1813.488281 1480.800781 C 1812.78125 1469.78125 1811.308594 1457.410156 1810.21875 1453.308594 C 1807.929688 1444.648438 1789.128906 1424.898438 1772.121094 1413.28125 L 1761.238281 1405.851562 L 1749.261719 1411.511719 C 1719.558594 1425.53125 1681.171875 1432.671875 1650.878906 1429.808594 C 1628.351562 1427.679688 1620.289062 1424.109375 1576.378906 1396.820312 C 1549.589844 1380.171875 1539.160156 1375.398438 1521.640625 1371.78125 C 1508.761719 1369.121094 1505.398438 1366.210938 1506.328125 1358.539062 C 1506.878906 1353.988281 1510.101562 1351.550781 1528 1342.171875 C 1580.820312 1314.5 1630.238281 1301.710938 1663.210938 1307.191406 C 1692.171875 1312.011719 1728.851562 1336.988281 1752.339844 1367.890625 C 1764.140625 1383.398438 1802.390625 1414.191406 1802.339844 1408.121094 C 1802.148438 1384.929688 1751.628906 1251.03125 1740.730469 1244.78125 C 1738.519531 1243.519531 1732.78125 1239.730469 1727.980469 1236.371094 C 1717.640625 1229.140625 1693.730469 1218.050781 1684.480469 1216.199219 C 1678.699219 1215.039062 1676.921875 1215.851562 1669.550781 1222.949219 C 1655.738281 1236.261719 1626.121094 1257.78125 1610.109375 1266.121094 C 1601.851562 1270.429688 1594.191406 1274.679688 1593.089844 1275.570312 C 1587.621094 1279.960938 1557.851562 1289.898438 1538.621094 1293.75 C 1519.828125 1297.511719 1512.730469 1297.929688 1484.628906 1296.960938 L 1452.269531 1295.839844 L 1443.570312 1306.941406 C 1438.789062 1313.050781 1431.050781 1322.609375 1426.390625 1328.179688 C 1421.71875 1333.761719 1418.269531 1338.691406 1418.71875 1339.140625 C 1419.691406 1340.121094 1432.070312 1343.140625 1441.878906 1344.789062 C 1445.738281 1345.441406 1453.851562 1348.5 1459.910156 1351.601562 C 1465.96875 1354.691406 1472.511719 1357.730469 1474.449219 1358.371094 C 1476.378906 1359 1478.988281 1361.769531 1480.25 1364.53125 C 1483 1370.570312 1480.839844 1373.78125 1468.949219 1381.261719 C 1453.089844 1391.238281 1441.171875 1402.96875 1429.871094 1419.75 C 1419.378906 1435.320312 1402.898438 1451.988281 1392.820312 1457.21875 C 1390.621094 1458.371094 1384.980469 1459.941406 1380.300781 1460.710938 C 1375.621094 1461.488281 1371.789062 1463.171875 1371.789062 1464.449219 C 1371.789062 1465.730469 1373.148438 1474.441406 1374.789062 1483.800781 C 1380.289062 1515 1377.140625 1546.03125 1365.890625 1571.671875 C 1362.53125 1579.339844 1359.769531 1586.039062 1359.769531 1586.558594 C 1359.769531 1588.941406 1340.398438 1621.820312 1334.769531 1629 C 1322.078125 1645.179688 1321.21875 1647.390625 1323.589844 1657.691406 C 1324.78125 1662.839844 1326.429688 1670.941406 1327.238281 1675.710938 L 1328.730469 1684.359375 L 1339.75 1669.839844 C 1345.800781 1661.851562 1360.460938 1644.03125 1372.300781 1630.25 C 1390.859375 1608.671875 1395.988281 1601.019531 1409.351562 1575.039062 C 1417.878906 1558.449219 1426.351562 1540.289062 1428.171875 1534.691406 C 1437.621094 1505.578125 1452.640625 1487.378906 1476.671875 1475.921875 C 1494.898438 1467.21875 1520.691406 1458.128906 1545.699219 1451.589844 L 1562.398438 1447.21875 L 1571 1455.820312 L 1566.261719 1469.308594 C 1563.660156 1476.730469 1559.488281 1486.859375 1557 1491.808594 C 1554.511719 1496.769531 1548.101562 1509.75 1542.738281 1520.648438 C 1532.898438 1540.691406 1520.539062 1556.738281 1508.871094 1564.621094 C 1486.710938 1579.578125 1478.089844 1584.871094 1470.808594 1587.988281 C 1459.351562 1592.898438 1433.019531 1598.078125 1426.320312 1596.75 C 1421.441406 1595.769531 1420.320312 1596.53125 1417.269531 1602.921875 C 1413.101562 1611.679688 1402.519531 1625.761719 1384.878906 1646.019531 C 1368.050781 1665.351562 1347.28125 1692.269531 1348.359375 1693.351562 C 1350.019531 1695.019531 1371.871094 1678.691406 1392.191406 1660.578125 C 1418.46875 1637.179688 1425.078125 1632.53125 1445.300781 1623.230469 C 1479.800781 1607.371094 1518.839844 1601.511719 1546.460938 1608.039062 C 1562.671875 1611.871094 1598.378906 1627.050781 1611.441406 1635.660156 C 1617.871094 1639.898438 1629.210938 1646.75 1636.648438 1650.878906 C 1650.878906 1658.78125 1655.078125 1665.128906 1650.058594 1671.179688 C 1648.648438 1672.871094 1640.21875 1677.789062 1631.308594 1682.109375 C 1622.398438 1686.429688 1604.921875 1697.960938 1592.46875 1707.730469 C 1580.011719 1717.488281 1562.71875 1729.261719 1554.050781 1733.878906 L 1538.28125 1742.289062 L 1540.929688 1748.730469 C 1543.289062 1754.429688 1550.480469 1793.300781 1552.691406 1812.238281 C 1554 1823.53125 1550.191406 1848.191406 1545.109375 1861.238281 C 1542.519531 1867.890625 1539.269531 1876.929688 1537.890625 1881.339844 C 1536.5 1885.738281 1529.210938 1902.261719 1521.671875 1918.050781 C 1514.140625 1933.828125 1507.96875 1947.148438 1507.96875 1947.640625 C 1507.96875 1948.128906 1503.921875 1957.089844 1498.960938 1967.558594 C 1494 1978.019531 1489.949219 1987.191406 1489.949219 1987.921875 C 1489.949219 1988.648438 1492.410156 1995.269531 1495.429688 2002.625 L 1500.910156 2016.003906 L 1508.199219 2002.570312 C 1512.210938 1995.179688 1522.921875 1977.949219 1531.988281 1964.269531 Z M 1249.628906 2060.730469 C 1249.628906 2059.710938 1246.328125 2054.53125 1242.308594 2049.214844 C 1212.589844 2009.964844 1189.609375 1990.621094 1166.671875 1985.539062 L 1156.5 1983.289062 L 1142.480469 1996.890625 L 1128.460938 2010.496094 L 1145.210938 2026.574219 C 1171.109375 2051.429688 1179.839844 2055.648438 1213.578125 2059.613281 C 1240.378906 2062.757812 1249.628906 2063.046875 1249.628906 2060.730469 Z M 962.859375 2051.71875 C 978.4375 2045.0625 997.191406 2038.867188 1011.308594 2035.714844 C 1041.28125 2029.023438 1085.199219 2012.386719 1106.429688 1999.691406 C 1127.738281 1986.941406 1146.109375 1966.898438 1154.53125 1947.238281 C 1159.75 1935.011719 1171.519531 1899.011719 1171.519531 1895.238281 C 1171.519531 1892.140625 1168.578125 1891.929688 1137.980469 1892.828125 C 1116.679688 1893.460938 1098.949219 1895.089844 1089.410156 1897.289062 C 1071.921875 1901.328125 1042.96875 1914.421875 1025.929688 1925.980469 C 1001.589844 1942.511719 967.945312 1987.910156 944.382812 2036.003906 C 933.996094 2057.207031 932.136719 2062.578125 935.1875 2062.578125 C 936.433594 2062.578125 948.882812 2057.691406 962.859375 2051.71875 Z M 1546.929688 2062.734375 C 1547.550781 2061.722656 1552.339844 2059.367188 1557.558594 2057.507812 C 1562.78125 2055.648438 1572.460938 2051.539062 1579.070312 2048.378906 C 1590.570312 2042.878906 1618.53125 2033.761719 1657.171875 2022.914062 C 1674.160156 2018.144531 1677.960938 2017.851562 1723.261719 2017.84375 C 1765.378906 2017.835938 1773.429688 2018.351562 1788.328125 2022.035156 C 1797.671875 2024.351562 1805.570312 2026 1805.859375 2025.703125 C 1806.921875 2024.648438 1766.769531 2000.394531 1752.339844 1993.371094 C 1729.238281 1982.128906 1718.539062 1978.609375 1699.871094 1976.109375 C 1684.859375 1974.089844 1680.070312 1974.261719 1664.820312 1977.328125 C 1655.109375 1979.289062 1640.519531 1983.050781 1632.410156 1985.691406 C 1624.300781 1988.320312 1616.761719 1990.480469 1615.648438 1990.480469 C 1611.25 1990.480469 1588.421875 2005.933594 1577.328125 2016.417969 C 1567.859375 2025.375 1552.449219 2046 1543.21875 2062.078125 C 1541.578125 2064.929688 1545.179688 2065.566406 1546.929688 2062.734375 Z M 1509.921875 2073.714844 C 1514.601562 2068.277344 1520.75 2060.164062 1523.589844 2055.691406 C 1556.761719 2003.40625 1576.75 1984.308594 1611.730469 1971.460938 C 1622.570312 1967.46875 1622.660156 1967.371094 1628.390625 1952.429688 C 1631.558594 1944.171875 1640.101562 1925.410156 1647.371094 1910.738281 C 1654.640625 1896.078125 1660.121094 1883.621094 1659.558594 1883.058594 C 1659 1882.5 1649.820312 1882.878906 1639.148438 1883.941406 L 1619.769531 1885.839844 L 1609.800781 1895.609375 C 1604.328125 1900.980469 1590.621094 1917.539062 1579.359375 1932.398438 C 1537.738281 1987.328125 1519.859375 2017.765625 1506 2057.28125 C 1501.421875 2070.339844 1497.140625 2082.40625 1496.488281 2084.097656 C 1494.511719 2089.277344 1500.578125 2084.582031 1509.921875 2073.71875 Z M 1666.460938 2113.519531 C 1688.421875 2109.410156 1743.75 2084.378906 1783.339844 2060.640625 C 1789.949219 2056.679688 1799.261719 2051.71875 1804.03125 2049.617188 L 1812.710938 2045.800781 L 1804.03125 2043.160156 C 1776.308594 2034.726562 1767.769531 2033.730469 1723.261719 2033.753906 C 1688.5 2033.765625 1676.449219 2034.484375 1666.179688 2037.144531 C 1633.308594 2045.660156 1598.191406 2056.984375 1585.238281 2063.246094 C 1577.441406 2067.019531 1568.800781 2070.78125 1566.050781 2071.609375 C 1560.328125 2073.328125 1538.011719 2084.296875 1538.011719 2085.390625 C 1538.011719 2087.449219 1574.261719 2103.320312 1589.519531 2107.9375 C 1618.828125 2116.808594 1640.480469 2118.378906 1666.460938 2113.519531 Z M 1363.53125 2121.472656 C 1360.070312 2113.863281 1351.128906 2091.417969 1343.671875 2071.589844 C 1336.210938 2051.765625 1326.308594 2026.078125 1321.671875 2014.515625 C 1317.03125 2002.949219 1311.03125 1987.628906 1308.339844 1980.46875 C 1305.640625 1973.308594 1299.601562 1959.339844 1294.910156 1949.429688 C 1287.300781 1933.339844 1284.898438 1930.21875 1272.511719 1920.359375 C 1241.441406 1895.628906 1240.261719 1894.980469 1219.019531 1891.25 C 1192.308594 1886.550781 1192.171875 1886.578125 1190.511719 1898.640625 C 1189.140625 1908.550781 1179.371094 1939.46875 1172.730469 1954.871094 C 1168.351562 1965.03125 1168.558594 1965.820312 1176.078125 1967.238281 C 1186.25 1969.140625 1211.421875 1984.859375 1223.359375 1996.761719 C 1229.289062 2002.667969 1239.210938 2013.808594 1245.390625 2021.515625 C 1251.578125 2029.222656 1258.109375 2037.164062 1259.910156 2039.167969 C 1261.710938 2041.171875 1266.21875 2048.96875 1269.921875 2056.492188 C 1273.789062 2064.347656 1278.769531 2071.324219 1281.609375 2072.882812 C 1284.328125 2074.375 1304.929688 2089.394531 1327.378906 2106.261719 C 1349.828125 2123.128906 1368.570312 2136.5625 1369.011719 2136.117188 C 1369.460938 2135.675781 1366.988281 2129.082031 1363.53125 2121.472656 Z M 1116.859375 2183.621094 C 1135.601562 2180.347656 1158.398438 2171.0625 1170.699219 2161.699219 C 1176.421875 2157.347656 1191.550781 2134.75 1191.550781 2130.5625 C 1191.550781 2125.960938 1158.261719 2122.628906 1142.289062 2125.628906 C 1127.488281 2128.410156 1125.28125 2129.765625 1104.28125 2148.945312 C 1095.378906 2157.066406 1082.140625 2168.671875 1074.859375 2174.730469 C 1067.570312 2180.785156 1061.550781 2186.195312 1061.488281 2186.746094 C 1061.238281 2188.84375 1099.230469 2186.691406 1116.859375 2183.621094 Z M 1457.21875 2185.308594 C 1457.648438 2181.140625 1458.929688 2170.523438 1460.039062 2161.710938 C 1461.171875 2152.898438 1462.519531 2140.28125 1463.050781 2133.671875 C 1464.390625 2117.128906 1464.75 2115.753906 1477.28125 2080.03125 C 1489.558594 2045.015625 1489.589844 2044.523438 1480.851562 2020.035156 C 1474.050781 2000.992188 1469.140625 1992.03125 1459.390625 1980.808594 C 1416.171875 1931.101562 1403.148438 1910.460938 1389.960938 1870.761719 C 1379.789062 1840.160156 1375.140625 1810.679688 1376.308594 1784.199219 C 1376.859375 1771.539062 1378.640625 1757.449219 1380.238281 1752.910156 L 1383.171875 1744.640625 L 1370.96875 1738.511719 C 1364.261719 1735.140625 1354.121094 1730.191406 1348.441406 1727.519531 L 1338.109375 1722.660156 L 1324.808594 1736.058594 C 1312.570312 1748.390625 1311.039062 1750.910156 1305.621094 1767.789062 C 1302.199219 1778.421875 1299.191406 1793.070312 1298.460938 1802.679688 C 1296.839844 1824 1301.710938 1857.828125 1309.820312 1881.628906 C 1313.140625 1891.378906 1318.921875 1909.300781 1322.671875 1921.449219 C 1331.308594 1949.460938 1336.109375 1962.128906 1352.519531 2000.234375 C 1359.808594 2017.160156 1365.78125 2031.804688 1365.78125 2032.769531 C 1365.78125 2033.734375 1368.941406 2041.351562 1372.789062 2049.699219 C 1376.648438 2058.042969 1379.800781 2065.503906 1379.800781 2066.277344 C 1379.800781 2067.050781 1383.929688 2074.871094 1388.980469 2083.652344 C 1394.03125 2092.4375 1404.46875 2110.894531 1412.179688 2124.660156 C 1419.898438 2138.429688 1429.160156 2154.199219 1432.761719 2159.707031 C 1436.371094 2165.214844 1442.808594 2175.296875 1447.070312 2182.105469 C 1451.339844 2188.917969 1455.191406 2194.128906 1455.640625 2193.6875 C 1456.078125 2193.246094 1456.789062 2189.472656 1457.21875 2185.308594 Z M 1278.011719 2237.363281 C 1282.671875 2226.980469 1281.351562 2210.445312 1272.578125 2169.335938 L 1271.640625 2164.949219 L 1262.128906 2169.035156 C 1248.878906 2174.738281 1239.070312 2186.59375 1229.359375 2208.632812 L 1221.039062 2227.519531 L 1222.390625 2256.644531 C 1223.128906 2272.664062 1224.199219 2287.597656 1224.761719 2289.828125 C 1225.609375 2293.246094 1229.609375 2290.078125 1249.988281 2269.855469 C 1265.050781 2254.914062 1275.648438 2242.621094 1278.011719 2237.363281 Z M 1530.800781 2278.367188 C 1532.71875 2267.078125 1537.308594 2243.871094 1540.988281 2226.796875 C 1548.160156 2193.59375 1557.019531 2146.128906 1559.148438 2129.558594 L 1560.449219 2119.4375 L 1549.730469 2113.847656 C 1543.839844 2110.773438 1533.378906 2106.199219 1526.488281 2103.6875 L 1513.960938 2099.117188 L 1503.601562 2106.382812 C 1492.109375 2114.441406 1481.941406 2131.039062 1481.941406 2141.726562 C 1481.941406 2145.09375 1480.519531 2158.085938 1478.78125 2170.589844 C 1475.828125 2191.78125 1475.851562 2194.695312 1479.140625 2213.402344 C 1482.359375 2231.722656 1483.648438 2234.984375 1493.910156 2250.664062 C 1500.089844 2260.117188 1509.480469 2274.835938 1514.78125 2283.375 C 1520.070312 2291.910156 1525.058594 2298.894531 1525.851562 2298.894531 C 1526.648438 2298.894531 1528.871094 2289.65625 1530.800781 2278.367188 Z M 1791.28125 2667.671875 C 1787.929688 2665.632812 1779.480469 2657.296875 1772.480469 2649.152344 C 1765.488281 2641.007812 1740.289062 2613.714844 1716.480469 2588.503906 C 1692.671875 2563.289062 1663.28125 2531.554688 1651.160156 2517.980469 C 1608.171875 2469.824219 1582.96875 2442.109375 1574.910156 2434.140625 C 1555.828125 2415.265625 1514.300781 2363.640625 1489.300781 2327.71875 C 1483.078125 2318.789062 1471.109375 2298.964844 1462.691406 2283.660156 C 1454.261719 2268.359375 1441.75 2248.175781 1434.878906 2238.8125 C 1428 2229.449219 1414.101562 2209.625 1403.96875 2194.757812 C 1386.710938 2169.402344 1384.988281 2167.527344 1376.179688 2164.566406 C 1371.011719 2162.832031 1354.820312 2157.054688 1340.199219 2151.730469 L 1313.609375 2142.050781 L 1303.519531 2146.773438 C 1297.96875 2149.371094 1292.78125 2152.671875 1291.980469 2154.101562 C 1291.179688 2155.535156 1292.570312 2166.84375 1295.058594 2179.234375 C 1297.558594 2191.625 1299.851562 2209.425781 1300.140625 2218.785156 C 1300.929688 2243.4375 1296.53125 2251.746094 1267.808594 2279.867188 C 1255.441406 2291.984375 1240.339844 2308.484375 1234.261719 2316.53125 C 1224.828125 2329 1222.410156 2331.074219 1217.898438 2330.550781 C 1214.589844 2330.164062 1211.710938 2328.050781 1210.199219 2324.898438 C 1207.699219 2319.652344 1201.558594 2257.21875 1201.558594 2237.023438 C 1201.558594 2218.191406 1213.210938 2189.476562 1228.339844 2171.039062 C 1238.101562 2159.132812 1242.679688 2155.984375 1262.078125 2147.808594 C 1275.480469 2142.160156 1285.371094 2134.6875 1279.480469 2134.660156 C 1277.929688 2134.65625 1262.691406 2134.09375 1245.621094 2133.410156 L 1214.578125 2132.171875 L 1203.851562 2150.4375 C 1191.628906 2171.246094 1181.480469 2180.714844 1160.910156 2190.496094 C 1139.78125 2200.542969 1120.011719 2204.855469 1085.410156 2206.953125 C 1068.328125 2207.988281 1048.28125 2209.378906 1040.828125 2210.039062 C 1025.78125 2211.378906 1021.320312 2209.429688 1021.320312 2201.515625 C 1021.320312 2196.484375 1032.800781 2184.730469 1061.371094 2160.503906 C 1069.628906 2153.5 1084.050781 2140.699219 1093.421875 2132.058594 C 1102.78125 2123.414062 1113.738281 2114.632812 1117.78125 2112.539062 C 1135.261719 2103.46875 1160.460938 2102.128906 1191.550781 2108.617188 C 1202.679688 2110.941406 1218.46875 2112.601562 1229.601562 2112.617188 C 1253.25 2112.671875 1289.871094 2115.871094 1301.25 2118.914062 C 1305.96875 2120.175781 1310.269531 2120.757812 1310.820312 2120.210938 C 1311.890625 2119.140625 1287.800781 2100.519531 1274.660156 2092.257812 C 1262.570312 2084.660156 1255.269531 2082.984375 1223.589844 2080.535156 C 1192.839844 2078.160156 1181.621094 2075.761719 1167.328125 2068.519531 C 1154.921875 2062.230469 1135.519531 2046.441406 1122.421875 2031.96875 C 1113.171875 2021.746094 1110.699219 2020.019531 1107.851562 2021.773438 C 1103.621094 2024.394531 1075.761719 2036.199219 1054.359375 2044.449219 C 1045.550781 2047.847656 1028.878906 2052.539062 1017.308594 2054.875 C 1004.519531 2057.460938 987.652344 2062.8125 974.238281 2068.546875 C 962.109375 2073.730469 948.59375 2079.105469 944.195312 2080.492188 C 939.800781 2081.878906 930.546875 2085.714844 923.632812 2089.011719 C 911.699219 2094.703125 910.808594 2094.84375 906.109375 2091.765625 C 899.796875 2087.628906 899.75 2081.253906 905.953125 2069.019531 C 911.824219 2057.414062 918.542969 2035.230469 920.984375 2019.371094 C 921.992188 2012.84375 926.132812 1991.828125 930.1875 1972.671875 C 941.359375 1919.871094 955.53125 1891.109375 982.53125 1866.441406 C 996.195312 1853.949219 996.921875 1853.640625 1024.699219 1848.46875 C 1066.179688 1840.75 1087.828125 1842.128906 1133.621094 1855.378906 C 1155.921875 1861.828125 1189.339844 1868.320312 1200.308594 1868.320312 C 1205.929688 1868.320312 1172.269531 1847.988281 1141.5 1832.808594 C 1098.511719 1811.601562 1072.640625 1804.789062 1021.328125 1801.171875 C 1011.96875 1800.511719 990.945312 1798.761719 974.609375 1797.28125 L 944.910156 1794.578125 L 933.554688 1800.171875 C 927.3125 1803.25 911.839844 1809.660156 899.171875 1814.421875 C 876.339844 1823 875.933594 1823.078125 852.324219 1822.691406 C 825.847656 1822.261719 811.324219 1819.148438 791.027344 1809.539062 C 780.15625 1804.398438 772.382812 1797.761719 743.898438 1769.261719 C 725.136719 1750.488281 698.265625 1722.78125 684.183594 1707.679688 C 670.097656 1692.578125 655.527344 1678.339844 651.804688 1676.039062 C 639.351562 1668.339844 640.097656 1657.460938 653.324219 1653.898438 C 686.890625 1644.859375 710.613281 1641.441406 738.957031 1641.558594 C 790.164062 1641.78125 824.03125 1653 871.929688 1685.609375 C 905.894531 1708.738281 959.234375 1755.871094 966.308594 1769.011719 C 970.773438 1777.300781 969.765625 1777.050781 1011.320312 1780.191406 C 1048.261719 1782.980469 1057.878906 1783.960938 1071.109375 1786.269531 C 1084.070312 1788.539062 1126.828125 1802.988281 1139.929688 1809.53125 C 1145.121094 1812.121094 1149.910156 1814.238281 1150.558594 1814.238281 C 1153.109375 1814.238281 1132.941406 1790.03125 1124.910156 1783.449219 C 1110.550781 1771.691406 1084.730469 1762.519531 1036.359375 1752.03125 C 1009.140625 1746.121094 997.609375 1741.519531 982.957031 1730.730469 C 968.429688 1720.039062 966.390625 1718.109375 956.867188 1706.101562 C 943.324219 1689.019531 934.988281 1668.441406 929.019531 1637.359375 C 924.773438 1615.269531 924.859375 1595.101562 929.269531 1579.738281 C 930.300781 1576.128906 930.851562 1572.890625 930.492188 1572.53125 C 930.132812 1572.171875 925.6875 1573.421875 920.609375 1575.300781 C 911.777344 1578.570312 911.199219 1578.558594 907.277344 1575.011719 C 905.019531 1572.96875 903.179688 1569.578125 903.179688 1567.480469 C 903.179688 1559.699219 914.507812 1540.519531 925.945312 1528.949219 C 933.632812 1521.171875 936.773438 1516.730469 934.976562 1516.179688 C 933.460938 1515.730469 927.539062 1510.480469 921.828125 1504.53125 C 912.558594 1494.878906 909.851562 1493.308594 896.710938 1489.949219 C 872.519531 1483.761719 844.089844 1464.371094 818.816406 1436.820312 C 794.375 1410.171875 785.25 1385.398438 785.089844 1345.25 C 785.019531 1328.328125 780.613281 1301.039062 777.25 1296.699219 C 771.066406 1288.71875 762.695312 1269.390625 760.675781 1258.410156 C 758.824219 1248.371094 758.816406 1241.941406 760.65625 1230.210938 C 763.597656 1211.289062 767.558594 1202.800781 778.597656 1191.75 C 784.359375 1185.980469 786.660156 1182.289062 785.472656 1180.730469 C 782.1875 1176.421875 775.117188 1156.5 771.855469 1142.339844 C 766.890625 1120.820312 770.613281 1097.640625 780.855469 1086.300781 C 783.03125 1083.890625 785.785156 1075.078125 787.6875 1064.449219 C 791.730469 1041.878906 800.742188 1022.761719 818.664062 998.730469 C 835.488281 976.171875 845.921875 966.320312 864.507812 955.460938 C 880.507812 946.121094 911.925781 936.988281 928.808594 936.78125 C 938.378906 936.660156 940.414062 935.789062 949.839844 927.699219 C 955.574219 922.78125 965.964844 915.550781 972.921875 911.640625 C 987.992188 903.171875 1016.191406 896.210938 1029.359375 897.699219 C 1039.058594 898.800781 1066.011719 907.050781 1077.429688 912.421875 C 1081.980469 914.558594 1093.210938 916.238281 1109.46875 917.210938 C 1137.429688 918.890625 1145.769531 921.238281 1169.898438 934.261719 C 1186.921875 943.429688 1189.578125 944.359375 1189.578125 941.171875 C 1189.578125 935.300781 1218.5 921.890625 1241.289062 917.210938 C 1275.191406 910.238281 1314.390625 938.371094 1329.25 980.308594 C 1332.878906 990.558594 1338.859375 1001.550781 1346.191406 1011.460938 C 1359.421875 1029.328125 1374.660156 1057.609375 1378.878906 1072.101562 L 1381.828125 1082.261719 L 1412.378906 1082.488281 C 1443.550781 1082.71875 1478.710938 1087.550781 1501 1094.671875 C 1527.898438 1103.261719 1586.46875 1136.128906 1622.480469 1162.828125 C 1643.921875 1178.738281 1667.558594 1191.371094 1683.199219 1195.28125 C 1691.480469 1197.351562 1704.089844 1201.769531 1711.210938 1205.101562 C 1721.128906 1209.738281 1723.730469 1210.371094 1722.320312 1207.789062 C 1721.308594 1205.941406 1716.761719 1195.871094 1712.210938 1185.398438 C 1691.96875 1138.859375 1660.351562 1085.789062 1630.75 1048.699219 C 1614.679688 1028.550781 1614.691406 1028.558594 1577.289062 1026.871094 C 1545.410156 1025.429688 1534.578125 1023.929688 1516.359375 1018.410156 C 1471.71875 1004.890625 1424.628906 964.050781 1406.308594 922.96875 C 1393.03125 893.191406 1390.441406 881.171875 1387.96875 837.941406 C 1385.410156 793.109375 1382.578125 794.910156 1431.199219 810.511719 C 1451.960938 817.171875 1478.351562 824.988281 1489.851562 827.898438 C 1517.21875 834.828125 1529.988281 840.371094 1549.480469 853.800781 C 1568.351562 866.789062 1595.941406 895.128906 1601.699219 907.421875 C 1608.851562 922.679688 1611.808594 929.851562 1615.160156 940.058594 C 1619.398438 952.988281 1628.171875 999.511719 1628.171875 1009.078125 C 1628.171875 1014.488281 1629.578125 1017.78125 1633.410156 1021.328125 C 1646.160156 1033.121094 1686.671875 1091 1700.261719 1116.851562 C 1703.898438 1123.75 1707.28125 1128.980469 1707.789062 1128.480469 C 1708.839844 1127.421875 1702.621094 1089.460938 1700.941406 1086.75 C 1698.070312 1082.109375 1677.300781 1017.730469 1672.261719 997.839844 C 1661.78125 956.558594 1659.140625 936.730469 1661.78125 919.359375 C 1663.070312 910.929688 1664.601562 902.21875 1665.199219 900.019531 C 1666.109375 896.609375 1663.378906 894.621094 1646.71875 886.578125 C 1628.859375 877.96875 1625.519531 877.050781 1608.210938 875.988281 C 1587.890625 874.738281 1582.101562 872.078125 1582.101562 864.011719 C 1582.101562 852.558594 1617.949219 834.808594 1651.101562 829.828125 C 1656.140625 829.078125 1660.648438 827.820312 1661.128906 827.050781 C 1661.609375 826.269531 1654.25 816.230469 1644.769531 804.75 C 1618.890625 773.378906 1598.199219 745.03125 1592.871094 733.621094 C 1587 721.039062 1580.101562 694.628906 1580.101562 684.71875 C 1580.101562 680.660156 1581.839844 672.070312 1583.960938 665.640625 C 1587.609375 654.589844 1587.640625 653.609375 1584.460938 648.039062 C 1578.558594 637.699219 1576.988281 635.148438 1574.78125 632.371094 C 1573.601562 630.878906 1570.539062 624.25 1567.980469 617.640625 C 1563.980469 607.289062 1563.320312 601.878906 1563.210938 578.589844 C 1563.070312 549.46875 1565.199219 540.871094 1578.070312 518.511719 C 1590.078125 497.628906 1594.351562 484.859375 1596 464.878906 C 1596.890625 454.171875 1598.609375 442.921875 1599.839844 439.871094 C 1607.941406 419.671875 1637.660156 395.710938 1677.800781 377.03125 C 1697.949219 367.648438 1720.871094 360.960938 1755.339844 354.398438 C 1769.289062 351.75 1782.511719 347.738281 1791.390625 343.46875 C 1807.828125 335.570312 1839.960938 327.609375 1849.351562 329.101562 C 1860.121094 330.808594 1866.550781 333.859375 1885.511719 346.238281 C 1899.578125 355.429688 1905.730469 358.25 1913.558594 359.078125 C 1926.269531 360.429688 1952.921875 369.078125 1963.140625 375.171875 L 1970.980469 379.851562 L 1979.308594 375.230469 C 1987.929688 370.449219 2013.648438 364.300781 2024.980469 364.300781 C 2035.21875 364.300781 2060.660156 371.941406 2073.699219 378.929688 C 2089.121094 387.179688 2096.808594 397.5 2103.449219 418.800781 C 2107.308594 431.160156 2112.929688 442.230469 2124.191406 459.609375 C 2147.851562 496.140625 2161.828125 526.648438 2166.878906 552.761719 C 2168.449219 560.871094 2170.28125 564.660156 2173.480469 566.429688 C 2181.320312 570.761719 2192.789062 587.820312 2204.828125 613.050781 C 2221.75 648.488281 2226.78125 681.441406 2220.089844 712.988281 C 2216.460938 730.109375 2203.148438 756.488281 2193.230469 766.210938 C 2173.660156 785.390625 2159.859375 797.621094 2153.628906 801.289062 C 2149.910156 803.488281 2147.429688 806.199219 2148.121094 807.308594 C 2151.589844 812.921875 2172.378906 819.421875 2189.921875 820.371094 C 2224.070312 822.230469 2225.171875 828.320312 2196.261719 855.320312 C 2169.96875 879.871094 2155.300781 890.191406 2144.351562 891.828125 L 2135.851562 893.101562 L 2135.800781 917.589844 C 2135.738281 946.109375 2130.609375 975.109375 2119.460938 1009.839844 C 2103.351562 1059.96875 2084.371094 1084.738281 2037.710938 1116.511719 C 2000.011719 1142.171875 1997.839844 1144.25 1996.421875 1156.109375 C 1995.738281 1161.75 1994.46875 1172.179688 1993.589844 1179.269531 L 1991.988281 1192.171875 L 2000.828125 1187.058594 C 2019.328125 1176.371094 2056.128906 1157.691406 2065.539062 1154.210938 C 2073.738281 1151.179688 2077.96875 1147.441406 2091.261719 1131.441406 C 2110.53125 1108.261719 2119.148438 1091.839844 2124.878906 1067.441406 C 2136.808594 1016.621094 2148.699219 1002.140625 2212.28125 960.980469 C 2238.71875 943.859375 2242.980469 944.890625 2242.980469 968.410156 C 2242.980469 986.570312 2240.039062 1000.53125 2232.941406 1016.078125 C 2229.898438 1022.738281 2226.730469 1030.441406 2225.890625 1033.199219 C 2222.960938 1042.851562 2214.109375 1054.378906 2195.921875 1072.25 C 2181.980469 1085.949219 2173.050781 1092.730469 2158.710938 1100.5 C 2148.328125 1106.121094 2137.589844 1111.269531 2134.839844 1111.941406 C 2130.101562 1113.089844 2108.738281 1139.339844 2112.53125 1139.339844 C 2113.429688 1139.339844 2120.941406 1137.609375 2129.210938 1135.488281 C 2137.480469 1133.378906 2154.328125 1131.058594 2166.640625 1130.328125 C 2185.070312 1129.25 2191.238281 1128.03125 2201.488281 1123.410156 C 2216.78125 1116.511719 2231.648438 1113.21875 2242.101562 1114.410156 C 2271.519531 1117.769531 2287.828125 1126.21875 2311.320312 1150.300781 C 2333.609375 1173.140625 2340.46875 1182.519531 2344.269531 1195.308594 C 2345.941406 1200.929688 2349.511719 1208.78125 2352.21875 1212.761719 C 2360.390625 1224.808594 2358.269531 1232.140625 2345.890625 1234.609375 C 2341.628906 1235.46875 2335.660156 1233.789062 2324.050781 1228.46875 C 2315.261719 1224.441406 2299.058594 1219.050781 2288.039062 1216.46875 C 2277.03125 1213.898438 2263.058594 1210.328125 2257 1208.53125 C 2250.941406 1206.738281 2239.46875 1203.539062 2231.519531 1201.441406 C 2207.890625 1195.179688 2188.128906 1179.898438 2176.210938 1158.671875 L 2171.890625 1150.960938 L 2154.859375 1152.078125 C 2138.949219 1153.121094 2117.648438 1158 2086.769531 1167.660156 C 2079.609375 1169.910156 2062.488281 1177.289062 2048.71875 1184.078125 L 2023.691406 1196.421875 L 2051.71875 1196.980469 C 2067.140625 1197.289062 2084.261719 1196.558594 2089.769531 1195.371094 C 2120.101562 1188.800781 2148.300781 1191.421875 2169.058594 1202.71875 C 2196.949219 1217.898438 2237.199219 1267.171875 2259.789062 1313.800781 C 2265.988281 1326.578125 2274.640625 1342.589844 2279.011719 1349.359375 C 2289.511719 1365.601562 2290.550781 1370.148438 2285.011719 1375.679688 C 2280.769531 1379.921875 2279.710938 1380.019531 2251.289062 1378.691406 C 2235.160156 1377.929688 2219.25 1377.03125 2215.941406 1376.679688 C 2212.640625 1376.328125 2200.019531 1375.441406 2187.910156 1374.699219 C 2146.851562 1372.191406 2124.371094 1366.921875 2093.460938 1352.570312 C 2068.808594 1341.128906 2058.660156 1333.800781 2047.660156 1319.511719 C 2032.441406 1299.730469 2020.410156 1267.789062 2013.550781 1228.960938 C 2012.820312 1224.828125 2011.46875 1221.449219 2010.539062 1221.449219 C 2004.019531 1221.449219 1986.511719 1226.761719 1980.671875 1230.519531 C 1970.191406 1237.25 1948.488281 1261.75 1934.609375 1282.53125 C 1930.929688 1288.039062 1922.890625 1298.859375 1916.730469 1306.570312 C 1904.828125 1321.460938 1901.371094 1329.300781 1893.289062 1359.640625 C 1883.738281 1395.519531 1868.238281 1448.761719 1863.5 1462.011719 C 1860.878906 1469.289062 1855.460938 1487.730469 1851.449219 1502.988281 C 1847.441406 1518.238281 1843.75 1531.371094 1843.261719 1532.160156 C 1841.601562 1534.859375 1828.289062 1590.480469 1829.109375 1591.300781 C 1831 1593.191406 1864.648438 1554.53125 1870.21875 1544.070312 C 1873.550781 1537.820312 1882.289062 1514.269531 1889.640625 1491.730469 C 1904.398438 1446.460938 1909.390625 1435.160156 1923.398438 1415.199219 C 1948.859375 1378.921875 1980.199219 1365.640625 2040.410156 1365.640625 C 2063.019531 1365.640625 2099.691406 1369.03125 2118.378906 1372.839844 C 2120.921875 1373.351562 2123.820312 1376.03125 2124.890625 1378.851562 C 2126.550781 1383.210938 2124.648438 1388.078125 2111.480469 1413.339844 C 2091.519531 1451.609375 2079.011719 1470.730469 2059.480469 1492.820312 C 2044.761719 1509.460938 2025.121094 1525.308594 2006.308594 1535.730469 C 1993.339844 1542.921875 1941.589844 1554.738281 1899.679688 1560.089844 C 1884.28125 1562.058594 1883.578125 1562.390625 1875.648438 1571.359375 C 1860.25 1588.761719 1860.289062 1588.46875 1873.75 1587.039062 C 1880.210938 1586.359375 1901.109375 1582.949219 1920.191406 1579.46875 C 1952.601562 1573.558594 1955.929688 1573.300781 1970.988281 1575.5 C 1998.429688 1579.5 2015.828125 1592.359375 2052.5 1635.761719 C 2071.378906 1658.109375 2071.871094 1659.03125 2067.929688 1665.050781 C 2064.109375 1670.871094 2059.058594 1671.359375 2050.171875 1666.761719 C 2032.558594 1657.660156 1999.761719 1653.320312 1970.621094 1656.238281 C 1945.539062 1658.75 1922.621094 1657.03125 1911.480469 1651.789062 C 1903.488281 1648.039062 1868.519531 1620.808594 1868.429688 1618.28125 C 1868.421875 1617.570312 1866.828125 1614.980469 1864.929688 1612.53125 C 1861.589844 1608.21875 1861.070312 1608.160156 1849.929688 1610.769531 C 1834.269531 1614.429688 1824.039062 1621.910156 1818.789062 1633.558594 C 1813.289062 1645.738281 1800.390625 1678.441406 1800.390625 1680.179688 C 1800.390625 1680.910156 1808.78125 1681.070312 1819.03125 1680.539062 C 1832.539062 1679.828125 1840.679688 1680.429688 1848.570312 1682.71875 C 1860.640625 1686.21875 1886.671875 1689.5 1912.210938 1690.730469 C 1925.988281 1691.398438 1929.660156 1692.289062 1933.230469 1695.871094 L 1937.558594 1700.191406 L 1932.160156 1710.660156 C 1929.179688 1716.410156 1920.921875 1733.289062 1913.78125 1748.160156 C 1906.648438 1763.03125 1896.738281 1781.011719 1891.769531 1788.121094 C 1878.398438 1807.25 1851.558594 1833.460938 1837.039062 1841.578125 C 1814.730469 1854.058594 1779.339844 1864.578125 1733.300781 1872.429688 C 1718.980469 1874.871094 1706.988281 1877.089844 1706.648438 1877.371094 C 1706.039062 1877.890625 1680.78125 1932.558594 1674.160156 1947.710938 L 1670.539062 1956.011719 L 1678.269531 1954.980469 C 1687.601562 1953.71875 1715.488281 1957.449219 1729.289062 1961.789062 C 1747.171875 1967.410156 1779.101562 1984.179688 1812.398438 2005.453125 C 1855.238281 2032.808594 1858.460938 2035.339844 1858.460938 2041.589844 C 1858.460938 2048.140625 1852.699219 2052.148438 1832.421875 2059.6875 C 1822.289062 2063.453125 1808.460938 2069.570312 1801.679688 2073.277344 C 1753.140625 2099.867188 1739.488281 2107.019531 1730.53125 2110.550781 C 1724.929688 2112.757812 1714.101562 2117.714844 1706.449219 2121.5625 C 1697.519531 2126.0625 1684.800781 2130.132812 1670.871094 2132.953125 C 1650.898438 2136.996094 1647.199219 2137.164062 1624.199219 2135.113281 C 1605.480469 2133.441406 1598.871094 2133.457031 1597.800781 2135.183594 C 1595.519531 2138.886719 1582.398438 2194.15625 1579.148438 2213.785156 C 1577.511719 2223.699219 1575.648438 2239.46875 1575.011719 2248.832031 C 1574.378906 2258.195312 1573.480469 2267.710938 1573.03125 2269.980469 C 1572.570312 2272.253906 1572.109375 2294.085938 1572 2318.5 L 1571.820312 2362.894531 L 1589.328125 2384.46875 C 1598.96875 2396.335938 1613.761719 2414.152344 1622.210938 2424.066406 C 1630.671875 2433.980469 1649.109375 2456.960938 1663.210938 2475.136719 C 1677.308594 2493.3125 1694.390625 2514.488281 1701.171875 2522.199219 C 1707.949219 2529.910156 1719.671875 2543.429688 1727.230469 2552.238281 C 1734.789062 2561.050781 1747.460938 2575.472656 1755.398438 2584.28125 C 1791.789062 2624.675781 1806.179688 2641.222656 1808.210938 2645.011719 C 1812.289062 2652.636719 1810.890625 2662.710938 1805.128906 2667.246094 C 1798.71875 2672.285156 1798.851562 2672.28125 1791.300781 2667.675781 "/>
</svg>
